<?xml version="1.0" encoding="UTF-8" standalone="no"?>
<svg
   xmlns:dc="http://purl.org/dc/elements/1.1/"
   xmlns:cc="http://creativecommons.org/ns#"
   xmlns:rdf="http://www.w3.org/1999/02/22-rdf-syntax-ns#"
   xmlns:svg="http://www.w3.org/2000/svg"
   xmlns="http://www.w3.org/2000/svg"
   xmlns:sodipodi="http://sodipodi.sourceforge.net/DTD/sodipodi-0.dtd"
   xmlns:inkscape="http://www.inkscape.org/namespaces/inkscape"
   width="400"
   height="400"
   viewBox="0 0 1600 1600"
   version="1.1"
   id="svg251"
   sodipodi:docname="chain_layout_matrix_aggregate.svg"
   inkscape:version="0.92.3 (2405546, 2018-03-11)">
  <metadata
     id="metadata255">
    <rdf:RDF>
      <cc:Work
         rdf:about="">
        <dc:format>image/svg+xml</dc:format>
        <dc:type
           rdf:resource="http://purl.org/dc/dcmitype/StillImage" />
        <dc:title></dc:title>
      </cc:Work>
    </rdf:RDF>
  </metadata>
  <sodipodi:namedview
     pagecolor="#ffffff"
     bordercolor="#666666"
     borderopacity="1"
     objecttolerance="10"
     gridtolerance="10"
     guidetolerance="10"
     inkscape:pageopacity="0"
     inkscape:pageshadow="2"
     inkscape:window-width="1920"
     inkscape:window-height="1015"
     id="namedview253"
     showgrid="false"
     fit-margin-top="0"
     fit-margin-left="0"
     fit-margin-right="0"
     fit-margin-bottom="0"
     inkscape:zoom="0.295"
     inkscape:cx="-189.83051"
     inkscape:cy="335.59322"
     inkscape:window-x="0"
     inkscape:window-y="0"
     inkscape:window-maximized="1"
     inkscape:current-layer="svg251" />
  <defs
     id="defs5">
    <clipPath
       id="clip100">
      <rect
         x="0"
         y="0"
         width="3200"
         height="3200"
         id="rect2" />
    </clipPath>
  </defs>
  <defs
     id="defs12">
    <clipPath
       id="clip101">
      <rect
         x="640"
         y="320"
         width="2241"
         height="2241"
         id="rect9" />
    </clipPath>
  </defs>
  <defs
     id="defs19">
    <clipPath
       id="clip102">
      <rect
         x="436"
         y="47"
         width="2717"
         height="2771"
         id="rect16" />
    </clipPath>
  </defs>
  <g
     id="g1179"
     transform="scale(0.5)">
    <path
       id="path7"
       d="M 0,3200 H 3200 V 0 H 0 Z"
       clip-path="url(#clip100)"
       inkscape:connector-curvature="0"
       style="fill:#ffffff;fill-opacity:1;fill-rule:evenodd" />
    <path
       id="path14"
       d="M 436.363,2817.1 H 3152.76 V 47.2441 H 436.363 Z"
       clip-path="url(#clip100)"
       inkscape:connector-curvature="0"
       style="fill:#ffffff;fill-opacity:1;fill-rule:evenodd" />
    <polyline
       id="polyline21"
       points="   436.363,2817.1 3152.76,2817.1    "
       style="fill:none;stroke:#000000;stroke-width:4;stroke-opacity:1"
       clip-path="url(#clip100)" />
    <polyline
       id="polyline23"
       points="   436.363,2817.1 436.363,47.2441    "
       style="fill:none;stroke:#000000;stroke-width:4;stroke-opacity:1"
       clip-path="url(#clip100)" />
    <polyline
       id="polyline25"
       points="   513.242,2817.1 513.242,2783.86    "
       style="fill:none;stroke:#000000;stroke-width:4;stroke-opacity:1"
       clip-path="url(#clip100)" />
    <polyline
       id="polyline27"
       points="   1157.12,2817.1 1157.12,2783.86    "
       style="fill:none;stroke:#000000;stroke-width:4;stroke-opacity:1"
       clip-path="url(#clip100)" />
    <polyline
       id="polyline29"
       points="   1801,2817.1 1801,2783.86    "
       style="fill:none;stroke:#000000;stroke-width:4;stroke-opacity:1"
       clip-path="url(#clip100)" />
    <polyline
       id="polyline31"
       points="   2444.88,2817.1 2444.88,2783.86    "
       style="fill:none;stroke:#000000;stroke-width:4;stroke-opacity:1"
       clip-path="url(#clip100)" />
    <polyline
       id="polyline33"
       points="   3088.75,2817.1 3088.75,2783.86    "
       style="fill:none;stroke:#000000;stroke-width:4;stroke-opacity:1"
       clip-path="url(#clip100)" />
    <polyline
       id="polyline35"
       points="   436.363,2738.71 468.96,2738.71    "
       style="fill:none;stroke:#000000;stroke-width:4;stroke-opacity:1"
       clip-path="url(#clip100)" />
    <polyline
       id="polyline37"
       points="   436.363,2083.25 468.96,2083.25    "
       style="fill:none;stroke:#000000;stroke-width:4;stroke-opacity:1"
       clip-path="url(#clip100)" />
    <polyline
       id="polyline39"
       points="   436.363,1427.8 468.96,1427.8    "
       style="fill:none;stroke:#000000;stroke-width:4;stroke-opacity:1"
       clip-path="url(#clip100)" />
    <polyline
       id="polyline41"
       points="   436.363,781.089 468.96,781.089    "
       style="fill:none;stroke:#000000;stroke-width:4;stroke-opacity:1"
       clip-path="url(#clip100)" />
    <polyline
       id="polyline43"
       points="   436.363,125.636 468.96,125.636    "
       style="fill:none;stroke:#000000;stroke-width:4;stroke-opacity:1"
       clip-path="url(#clip100)" />
    <path
       id="path45"
       d="m 0,0 m 513.242,2855.58 q -8.125,0 -12.239,8.02 -4.063,7.97 -4.063,24.01 0,15.99 4.063,24.01 4.114,7.97 12.239,7.97 8.177,0 12.24,-7.97 4.115,-8.02 4.115,-24.01 0,-16.04 -4.115,-24.01 -4.063,-8.02 -12.24,-8.02 m 0,-8.33 q 13.073,0 19.948,10.36 6.927,10.31 6.927,30 0,19.64 -6.927,30 -6.875,10.31 -19.948,10.31 -13.072,0 -19.999,-10.31 -6.875,-10.36 -6.875,-30 0,-19.69 6.875,-30 6.927,-10.36 19.999,-10.36 z"
       clip-path="url(#clip100)"
       inkscape:connector-curvature="0"
       style="fill:#000000;fill-opacity:1;fill-rule:evenodd" />
    <path
       id="path47"
       d="m 0,0 m 1104.86,2848.65 h 41.3 v 8.86 h -31.67 v 19.06 q 2.29,-0.78 4.58,-1.15 2.3,-0.41 4.59,-0.41 13.02,0 20.62,7.13 7.61,7.14 7.61,19.32 0,12.56 -7.82,19.54 -7.81,6.92 -22.03,6.92 -4.89,0 -10,-0.83 -5.05,-0.83 -10.47,-2.5 v -10.57 q 4.69,2.55 9.69,3.8 5,1.25 10.57,1.25 9.01,0 14.27,-4.74 5.27,-4.74 5.27,-12.87 0,-8.12 -5.27,-12.86 -5.26,-4.74 -14.27,-4.74 -4.21,0 -8.43,0.94 -4.17,0.93 -8.54,2.91 z"
       clip-path="url(#clip100)"
       inkscape:connector-curvature="0"
       style="fill:#000000;fill-opacity:1;fill-rule:evenodd" />
    <path
       id="path49"
       d="m 0,0 m 1185.79,2855.58 q -8.12,0 -12.24,8.02 -4.06,7.97 -4.06,24.01 0,15.99 4.06,24.01 4.12,7.97 12.24,7.97 8.18,0 12.24,-7.97 4.12,-8.02 4.12,-24.01 0,-16.04 -4.12,-24.01 -4.06,-8.02 -12.24,-8.02 m 0,-8.33 q 13.08,0 19.95,10.36 6.93,10.31 6.93,30 0,19.64 -6.93,30 -6.87,10.31 -19.95,10.31 -13.07,0 -20,-10.31 -6.87,-10.36 -6.87,-30 0,-19.69 6.87,-30 6.93,-10.36 20,-10.36 z"
       clip-path="url(#clip100)"
       inkscape:connector-curvature="0"
       style="fill:#000000;fill-opacity:1;fill-rule:evenodd" />
    <path
       id="path51"
       d="m 0,0 m 1718.58,2917.56 h 17.18 v -59.32 l -18.69,3.75 v -9.59 l 18.59,-3.75 h 10.52 v 68.91 h 17.19 v 8.85 h -44.79 z"
       clip-path="url(#clip100)"
       inkscape:connector-curvature="0"
       style="fill:#000000;fill-opacity:1;fill-rule:evenodd" />
    <path
       id="path53"
       d="m 0,0 m 1797.27,2855.58 q -8.12,0 -12.24,8.02 -4.06,7.97 -4.06,24.01 0,15.99 4.06,24.01 4.12,7.97 12.24,7.97 8.18,0 12.24,-7.97 4.12,-8.02 4.12,-24.01 0,-16.04 -4.12,-24.01 -4.06,-8.02 -12.24,-8.02 m 0,-8.33 q 13.08,0 19.95,10.36 6.93,10.31 6.93,30 0,19.64 -6.93,30 -6.87,10.31 -19.95,10.31 -13.07,0 -20,-10.31 -6.87,-10.36 -6.87,-30 0,-19.69 6.87,-30 6.93,-10.36 20,-10.36 z"
       clip-path="url(#clip100)"
       inkscape:connector-curvature="0"
       style="fill:#000000;fill-opacity:1;fill-rule:evenodd" />
    <path
       id="path55"
       d="m 0,0 m 1858.06,2855.58 q -8.13,0 -12.24,8.02 -4.07,7.97 -4.07,24.01 0,15.99 4.07,24.01 4.11,7.97 12.24,7.97 8.17,0 12.23,-7.97 4.12,-8.02 4.12,-24.01 0,-16.04 -4.12,-24.01 -4.06,-8.02 -12.23,-8.02 m 0,-8.33 q 13.07,0 19.94,10.36 6.93,10.31 6.93,30 0,19.64 -6.93,30 -6.87,10.31 -19.94,10.31 -13.08,0 -20,-10.31 -6.88,-10.36 -6.88,-30 0,-19.69 6.88,-30 6.92,-10.36 20,-10.36 z"
       clip-path="url(#clip100)"
       inkscape:connector-curvature="0"
       style="fill:#000000;fill-opacity:1;fill-rule:evenodd" />
    <path
       id="path57"
       d="m 0,0 m 2363.57,2917.56 h 17.19 v -59.32 l -18.7,3.75 v -9.59 l 18.6,-3.75 h 10.52 v 68.91 h 17.19 v 8.85 h -44.8 z"
       clip-path="url(#clip100)"
       inkscape:connector-curvature="0"
       style="fill:#000000;fill-opacity:1;fill-rule:evenodd" />
    <path
       id="path59"
       d="m 0,0 m 2419.88,2848.65 h 41.3 v 8.86 h -31.67 v 19.06 q 2.29,-0.78 4.59,-1.15 2.29,-0.41 4.58,-0.41 13.02,0 20.62,7.13 7.61,7.14 7.61,19.32 0,12.56 -7.81,19.54 -7.82,6.92 -22.04,6.92 -4.89,0 -10,-0.83 -5.05,-0.83 -10.46,-2.5 v -10.57 q 4.68,2.55 9.68,3.8 5,1.25 10.58,1.25 9.01,0 14.27,-4.74 5.26,-4.74 5.26,-12.87 0,-8.12 -5.26,-12.86 -5.26,-4.74 -14.27,-4.74 -4.22,0 -8.44,0.94 -4.17,0.93 -8.54,2.91 z"
       clip-path="url(#clip100)"
       inkscape:connector-curvature="0"
       style="fill:#000000;fill-opacity:1;fill-rule:evenodd" />
    <path
       id="path61"
       d="m 0,0 m 2500.81,2855.58 q -8.12,0 -12.24,8.02 -4.06,7.97 -4.06,24.01 0,15.99 4.06,24.01 4.12,7.97 12.24,7.97 8.18,0 12.24,-7.97 4.12,-8.02 4.12,-24.01 0,-16.04 -4.12,-24.01 -4.06,-8.02 -12.24,-8.02 m 0,-8.33 q 13.08,0 19.95,10.36 6.93,10.31 6.93,30 0,19.64 -6.93,30 -6.87,10.31 -19.95,10.31 -13.07,0 -20,-10.31 -6.87,-10.36 -6.87,-30 0,-19.69 6.87,-30 6.93,-10.36 20,-10.36 z"
       clip-path="url(#clip100)"
       inkscape:connector-curvature="0"
       style="fill:#000000;fill-opacity:1;fill-rule:evenodd" />
    <path
       id="path63"
       d="m 0,0 m 3015.94,2917.56 h 36.72 v 8.85 h -49.37 v -8.85 q 5.99,-6.2 16.3,-16.62 10.36,-10.47 13.02,-13.49 5.05,-5.67 7.03,-9.58 2.03,-3.96 2.03,-7.76 0,-6.2 -4.37,-10.1 -4.33,-3.91 -11.31,-3.91 -4.94,0 -10.46,1.72 -5.47,1.72 -11.72,5.21 v -10.63 q 6.35,-2.55 11.87,-3.85 5.52,-1.3 10.11,-1.3 12.08,0 19.27,6.04 7.18,6.04 7.18,16.14 0,4.79 -1.82,9.12 -1.77,4.27 -6.51,10.1 -1.3,1.51 -8.28,8.75 -6.98,7.19 -19.69,20.16 z"
       clip-path="url(#clip100)"
       inkscape:connector-curvature="0"
       style="fill:#000000;fill-opacity:1;fill-rule:evenodd" />
    <path
       id="path65"
       d="m 0,0 m 3086.57,2855.58 q -8.13,0 -12.24,8.02 -4.07,7.97 -4.07,24.01 0,15.99 4.07,24.01 4.11,7.97 12.24,7.97 8.17,0 12.24,-7.97 4.11,-8.02 4.11,-24.01 0,-16.04 -4.11,-24.01 -4.07,-8.02 -12.24,-8.02 m 0,-8.33 q 13.07,0 19.94,10.36 6.93,10.31 6.93,30 0,19.64 -6.93,30 -6.87,10.31 -19.94,10.31 -13.08,0 -20,-10.31 -6.88,-10.36 -6.88,-30 0,-19.69 6.88,-30 6.92,-10.36 20,-10.36 z"
       clip-path="url(#clip100)"
       inkscape:connector-curvature="0"
       style="fill:#000000;fill-opacity:1;fill-rule:evenodd" />
    <path
       id="path67"
       d="m 0,0 m 3147.35,2855.58 q -8.13,0 -12.24,8.02 -4.06,7.97 -4.06,24.01 0,15.99 4.06,24.01 4.11,7.97 12.24,7.97 8.17,0 12.24,-7.97 4.11,-8.02 4.11,-24.01 0,-16.04 -4.11,-24.01 -4.07,-8.02 -12.24,-8.02 m 0,-8.33 q 13.07,0 19.95,10.36 6.92,10.31 6.92,30 0,19.64 -6.92,30 -6.88,10.31 -19.95,10.31 -13.07,0 -20,-10.31 -6.88,-10.36 -6.88,-30 0,-19.69 6.88,-30 6.93,-10.36 20,-10.36 z"
       clip-path="url(#clip100)"
       inkscape:connector-curvature="0"
       style="fill:#000000;fill-opacity:1;fill-rule:evenodd" />
    <path
       id="path69"
       d="m 0,0 m 377.489,2706.75 q -8.125,0 -12.24,8.03 -4.062,7.96 -4.062,24.01 0,15.99 4.062,24.01 4.115,7.96 12.24,7.96 8.177,0 12.239,-7.96 4.115,-8.02 4.115,-24.01 0,-16.05 -4.115,-24.01 -4.062,-8.03 -12.239,-8.03 m 0,-8.33 q 13.072,0 19.947,10.37 6.927,10.31 6.927,30 0,19.63 -6.927,30 -6.875,10.31 -19.947,10.31 -13.073,0 -20,-10.31 -6.875,-10.37 -6.875,-30 0,-19.69 6.875,-30 6.927,-10.37 20,-10.37 z"
       clip-path="url(#clip100)"
       inkscape:connector-curvature="0"
       style="fill:#000000;fill-opacity:1;fill-rule:evenodd" />
    <path
       id="path71"
       d="m 0,0 m 295.822,2044.37 h 50 v 4.48 l -28.229,73.28 h -10.989 l 26.562,-68.9 h -37.344 z"
       clip-path="url(#clip100)"
       inkscape:connector-curvature="0"
       style="fill:#000000;fill-opacity:1;fill-rule:evenodd" />
    <path
       id="path73"
       d="m 0,0 m 357.332,2044.37 h 41.302 v 8.86 h -31.666 v 19.06 q 2.291,-0.78 4.583,-1.14 2.292,-0.42 4.583,-0.42 13.021,0 20.625,7.13 7.604,7.14 7.604,19.33 0,12.55 -7.812,19.53 -7.813,6.93 -22.031,6.93 -4.896,0 -10,-0.84 -5.052,-0.83 -10.469,-2.5 v -10.57 q 4.688,2.55 9.688,3.8 5,1.25 10.572,1.25 9.011,0 14.271,-4.74 5.261,-4.74 5.261,-12.86 0,-8.13 -5.261,-12.87 -5.26,-4.74 -14.271,-4.74 -4.218,0 -8.437,0.94 -4.167,0.94 -8.542,2.92 z"
       clip-path="url(#clip100)"
       inkscape:connector-curvature="0"
       style="fill:#000000;fill-opacity:1;fill-rule:evenodd" />
    <path
       id="path75"
       d="m 0,0 m 240.25,1457.83 h 17.187 v -59.32 l -18.698,3.75 v -9.59 l 18.594,-3.75 h 10.521 v 68.91 h 17.187 v 8.85 H 240.25 Z"
       clip-path="url(#clip100)"
       inkscape:connector-curvature="0"
       style="fill:#000000;fill-opacity:1;fill-rule:evenodd" />
    <path
       id="path77"
       d="m 0,0 m 296.551,1388.92 h 41.302 v 8.86 h -31.666 v 19.06 q 2.292,-0.78 4.583,-1.15 2.292,-0.41 4.583,-0.41 13.021,0 20.625,7.13 7.604,7.14 7.604,19.32 0,12.56 -7.812,19.54 -7.812,6.92 -22.031,6.92 -4.896,0 -10,-0.83 -5.052,-0.83 -10.469,-2.5 v -10.57 q 4.688,2.55 9.688,3.8 5,1.25 10.573,1.25 9.01,0 14.27,-4.74 5.261,-4.74 5.261,-12.87 0,-8.12 -5.261,-12.86 -5.26,-4.74 -14.27,-4.74 -4.219,0 -8.438,0.94 -4.167,0.94 -8.542,2.91 z"
       clip-path="url(#clip100)"
       inkscape:connector-curvature="0"
       style="fill:#000000;fill-opacity:1;fill-rule:evenodd" />
    <path
       id="path79"
       d="m 0,0 m 377.489,1395.85 q -8.125,0 -12.24,8.02 -4.062,7.97 -4.062,24.01 0,15.99 4.062,24.01 4.115,7.97 12.24,7.97 8.177,0 12.239,-7.97 4.115,-8.02 4.115,-24.01 0,-16.04 -4.115,-24.01 -4.062,-8.02 -12.239,-8.02 m 0,-8.33 q 13.072,0 19.947,10.36 6.927,10.31 6.927,30 0,19.64 -6.927,30 -6.875,10.31 -19.947,10.31 -13.073,0 -20,-10.31 -6.875,-10.36 -6.875,-30 0,-19.69 6.875,-30 6.927,-10.36 20,-10.36 z"
       clip-path="url(#clip100)"
       inkscape:connector-curvature="0"
       style="fill:#000000;fill-opacity:1;fill-rule:evenodd" />
    <path
       id="path81"
       d="m 0,0 m 248.583,811.115 h 36.719 v 8.854 h -49.375 v -8.854 q 5.989,-6.198 16.302,-16.615 10.364,-10.468 13.021,-13.489 5.052,-5.677 7.031,-9.583 2.031,-3.959 2.031,-7.761 0,-6.198 -4.375,-10.104 -4.323,-3.906 -11.302,-3.906 -4.948,0 -10.469,1.719 -5.468,1.718 -11.718,5.208 v -10.625 q 6.354,-2.552 11.875,-3.854 5.52,-1.302 10.104,-1.302 12.083,0 19.27,6.041 7.188,6.042 7.188,16.146 0,4.792 -1.823,9.115 -1.771,4.27 -6.51,10.104 -1.302,1.51 -8.282,8.75 -6.979,7.187 -19.687,20.156 z"
       clip-path="url(#clip100)"
       inkscape:connector-curvature="0"
       style="fill:#000000;fill-opacity:1;fill-rule:evenodd" />
    <path
       id="path83"
       d="m 0,0 m 305.77,811.115 h 36.719 v 8.854 h -49.375 v -8.854 q 5.99,-6.198 16.302,-16.615 10.365,-10.468 13.021,-13.489 5.052,-5.677 7.031,-9.583 2.031,-3.959 2.031,-7.761 0,-6.198 -4.375,-10.104 -4.323,-3.906 -11.302,-3.906 -4.948,0 -10.468,1.719 -5.469,1.718 -11.719,5.208 v -10.625 q 6.354,-2.552 11.875,-3.854 5.521,-1.302 10.104,-1.302 12.083,0 19.271,6.041 7.187,6.042 7.187,16.146 0,4.792 -1.823,9.115 -1.771,4.27 -6.51,10.104 -1.302,1.51 -8.281,8.75 -6.98,7.187 -19.688,20.156 z"
       clip-path="url(#clip100)"
       inkscape:connector-curvature="0"
       style="fill:#000000;fill-opacity:1;fill-rule:evenodd" />
    <path
       id="path85"
       d="m 0,0 m 382.801,751.376 -26.562,41.51 h 26.562 v -41.51 m -2.76,-9.167 h 13.229 v 50.677 h 11.093 v 8.75 H 393.27 v 18.333 H 382.801 V 801.636 H 347.697 V 791.48 Z"
       clip-path="url(#clip100)"
       inkscape:connector-curvature="0"
       style="fill:#000000;fill-opacity:1;fill-rule:evenodd" />
    <path
       id="path87"
       d="m 0,0 m 246.916,155.662 h 36.719 v 8.854 H 234.26 v -8.854 q 5.99,-6.198 16.302,-16.614 10.365,-10.469 13.021,-13.49 5.052,-5.677 7.031,-9.583 2.031,-3.958 2.031,-7.761 0,-6.197 -4.375,-10.1037 -4.323,-3.9062 -11.302,-3.9062 -4.948,0 -10.468,1.7188 -5.469,1.7187 -11.719,5.2081 V 90.5062 q 6.354,-2.5521 11.875,-3.8541 5.521,-1.3021 10.104,-1.3021 12.083,0 19.271,6.0416 7.187,6.0417 7.187,16.1454 0,4.792 -1.823,9.115 -1.771,4.271 -6.51,10.104 -1.302,1.51 -8.281,8.75 -6.979,7.187 -19.688,20.156 z"
       clip-path="url(#clip100)"
       inkscape:connector-curvature="0"
       style="fill:#000000;fill-opacity:1;fill-rule:evenodd" />
    <path
       id="path89"
       d="m 0,0 m 295.354,162.902 v -9.584 q 3.958,1.875 8.02,2.865 4.063,0.99 7.969,0.99 10.417,0 15.885,-6.98 5.521,-7.031 6.302,-21.302 -3.02,4.48 -7.656,6.875 -4.635,2.396 -10.26,2.396 -11.667,0 -18.49,-7.031 -6.77,-7.083 -6.77,-19.323 0,-11.9789 7.083,-19.2185 7.083,-7.2395 18.854,-7.2395 13.489,0 20.573,10.3645 7.135,10.3125 7.135,29.9995 0,18.386 -8.75,29.375 -8.698,10.938 -23.437,10.938 -3.958,0 -8.021,-0.782 -4.062,-0.781 -8.437,-2.343 m 20.937,-32.969 q 7.083,0 11.198,-4.844 4.166,-4.843 4.166,-13.281 0,-8.385 -4.166,-13.2289 -4.115,-4.8958 -11.198,-4.8958 -7.083,0 -11.25,4.8958 -4.115,4.8439 -4.115,13.2289 0,8.438 4.115,13.281 4.167,4.844 11.25,4.844 z"
       clip-path="url(#clip100)"
       inkscape:connector-curvature="0"
       style="fill:#000000;fill-opacity:1;fill-rule:evenodd" />
    <path
       id="path91"
       d="m 0,0 m 355.718,162.902 v -9.584 q 3.958,1.875 8.021,2.865 4.062,0.99 7.968,0.99 10.417,0 15.886,-6.98 5.52,-7.031 6.302,-21.302 -3.021,4.48 -7.656,6.875 -4.636,2.396 -10.261,2.396 -11.666,0 -18.489,-7.031 -6.771,-7.083 -6.771,-19.323 0,-11.9789 7.083,-19.2185 7.083,-7.2395 18.854,-7.2395 13.49,0 20.573,10.3645 7.135,10.3125 7.135,29.9995 0,18.386 -8.75,29.375 -8.697,10.938 -23.437,10.938 -3.958,0 -8.021,-0.782 -4.062,-0.781 -8.437,-2.343 m 20.937,-32.969 q 7.084,0 11.198,-4.844 4.167,-4.843 4.167,-13.281 0,-8.385 -4.167,-13.2289 -4.114,-4.8958 -11.198,-4.8958 -7.083,0 -11.25,4.8958 -4.114,4.8439 -4.114,13.2289 0,8.438 4.114,13.281 4.167,4.844 11.25,4.844 z"
       clip-path="url(#clip100)"
       inkscape:connector-curvature="0"
       style="fill:#000000;fill-opacity:1;fill-rule:evenodd" />
    <polyline
       id="polyline93"
       points="   436.363,47.2441 3152.76,47.2441    "
       style="fill:none;stroke:#000000;stroke-width:4;stroke-opacity:1"
       clip-path="url(#clip100)" />
    <polyline
       id="polyline95"
       points="   3152.76,2817.1 3152.76,47.2441    "
       style="fill:none;stroke:#000000;stroke-width:4;stroke-opacity:1"
       clip-path="url(#clip100)" />
    <path
       id="path97"
       d="m 0,0 m 1327.48,2986.48 h 18.89 l 45.97,86.73 v -86.73 h 13.61 v 103.68 h -18.89 l -45.97,-86.74 v 86.74 h -13.61 z"
       clip-path="url(#clip100)"
       inkscape:connector-curvature="0"
       style="fill:#000000;fill-opacity:1;fill-rule:evenodd" />
    <path
       id="path99"
       d="m 0,0 m 1449.49,3021.34 q -10.28,0 -16.25,8.05 -5.97,7.99 -5.97,21.95 0,13.95 5.9,22.01 5.97,7.99 16.32,7.99 10.21,0 16.18,-8.06 5.97,-8.05 5.97,-21.94 0,-13.82 -5.97,-21.88 -5.97,-8.12 -16.18,-8.12 m 0,-10.84 q 16.67,0 26.18,10.84 9.52,10.83 9.52,30 0,19.09 -9.52,30 -9.51,10.83 -26.18,10.83 -16.73,0 -26.25,-10.83 -9.44,-10.91 -9.44,-30 0,-19.17 9.44,-30 9.52,-10.84 26.25,-10.84 z"
       clip-path="url(#clip100)"
       inkscape:connector-curvature="0"
       style="fill:#000000;fill-opacity:1;fill-rule:evenodd" />
    <path
       id="path101"
       d="m 0,0 m 1549.77,3024.18 v -42.08 h 12.78 v 108.06 h -12.78 v -11.67 q -4.03,6.94 -10.21,10.35 -6.11,3.33 -14.72,3.33 -14.1,0 -22.99,-11.25 -8.82,-11.25 -8.82,-29.58 0,-18.34 8.82,-29.59 8.89,-11.25 22.99,-11.25 8.61,0 14.72,3.41 6.18,3.33 10.21,10.27 m -43.54,27.16 q 0,14.09 5.76,22.15 5.84,7.99 15.97,7.99 10.14,0 15.98,-7.99 5.83,-8.06 5.83,-22.15 0,-14.1 -5.83,-22.09 -5.84,-8.05 -15.98,-8.05 -10.13,0 -15.97,8.05 -5.76,7.99 -5.76,22.09 z"
       clip-path="url(#clip100)"
       inkscape:connector-curvature="0"
       style="fill:#000000;fill-opacity:1;fill-rule:evenodd" />
    <path
       id="path103"
       d="m 0,0 m 1642.48,3048.07 v 6.25 h -58.75 q 0.83,13.2 7.91,20.14 7.16,6.88 19.87,6.88 7.36,0 14.23,-1.81 6.95,-1.8 13.75,-5.42 v 12.09 q -6.87,2.91 -14.1,4.44 -7.22,1.53 -14.65,1.53 -18.61,0 -29.51,-10.83 -10.84,-10.84 -10.84,-29.31 0,-19.1 10.28,-30.28 10.35,-11.25 27.85,-11.25 15.69,0 24.79,10.14 9.17,10.07 9.17,27.43 m -12.78,-3.75 q -0.14,-10.48 -5.9,-16.73 -5.7,-6.25 -15.14,-6.25 -10.7,0 -17.15,6.04 -6.39,6.04 -7.37,17.01 z"
       clip-path="url(#clip100)"
       inkscape:connector-curvature="0"
       style="fill:#000000;fill-opacity:1;fill-rule:evenodd" />
    <path
       id="path105"
       d="m 0,0 m 1728.38,3090.16 -39.58,-103.68 h 14.65 l 32.85,87.29 32.91,-87.29 h 14.59 l -39.52,103.68 z"
       clip-path="url(#clip100)"
       inkscape:connector-curvature="0"
       style="fill:#000000;fill-opacity:1;fill-rule:evenodd" />
    <path
       id="path107"
       d="m 0,0 m 1821.5,3051.06 q -15.48,0 -21.45,3.54 -5.98,3.54 -5.98,12.08 0,6.81 4.45,10.84 4.51,3.96 12.22,3.96 10.63,0 17.01,-7.5 6.46,-7.57 6.46,-20.07 v -2.85 h -12.71 m 25.49,-5.28 v 44.38 h -12.78 v -11.81 q -4.37,7.08 -10.9,10.49 -6.53,3.33 -15.97,3.33 -11.95,0 -19.03,-6.67 -7.01,-6.73 -7.01,-17.98 0,-13.13 8.75,-19.79 8.82,-6.67 26.25,-6.67 h 17.91 v -1.25 q 0,-8.82 -5.83,-13.61 -5.76,-4.86 -16.25,-4.86 -6.67,0 -12.99,1.59 -6.32,1.6 -12.15,4.8 v -11.81 q 7.01,-2.71 13.61,-4.03 6.6,-1.39 12.85,-1.39 16.87,0 25.21,8.75 8.33,8.75 8.33,26.53 z"
       clip-path="url(#clip100)"
       inkscape:connector-curvature="0"
       style="fill:#000000;fill-opacity:1;fill-rule:evenodd" />
    <path
       id="path109"
       d="m 0,0 m 1905.46,3024.32 q -2.15,-1.25 -4.72,-1.8 -2.5,-0.63 -5.56,-0.63 -10.83,0 -16.66,7.09 -5.77,7.01 -5.77,20.2 v 40.98 h -12.84 v -77.78 h 12.84 v 12.08 q 4.03,-7.08 10.49,-10.48 6.46,-3.48 15.69,-3.48 1.32,0 2.92,0.21 1.6,0.14 3.54,0.49 z"
       clip-path="url(#clip100)"
       inkscape:connector-curvature="0"
       style="fill:#000000;fill-opacity:1;fill-rule:evenodd" />
    <path
       id="path111"
       d="m 0,0 m 1918.86,3012.38 h 12.78 v 77.78 h -12.78 v -77.78 m 0,-30.28 h 12.78 v 16.18 h -12.78 z"
       clip-path="url(#clip100)"
       inkscape:connector-curvature="0"
       style="fill:#000000;fill-opacity:1;fill-rule:evenodd" />
    <path
       id="path113"
       d="m 0,0 m 1980.39,3051.06 q -15.48,0 -21.46,3.54 -5.97,3.54 -5.97,12.08 0,6.81 4.45,10.84 4.51,3.96 12.22,3.96 10.62,0 17.01,-7.5 6.46,-7.57 6.46,-20.07 v -2.85 h -12.71 m 25.49,-5.28 v 44.38 h -12.78 v -11.81 q -4.37,7.08 -10.9,10.49 -6.53,3.33 -15.97,3.33 -11.95,0 -19.03,-6.67 -7.02,-6.73 -7.02,-17.98 0,-13.13 8.75,-19.79 8.82,-6.67 26.25,-6.67 h 17.92 v -1.25 q 0,-8.82 -5.83,-13.61 -5.77,-4.86 -16.25,-4.86 -6.67,0 -12.99,1.59 -6.32,1.6 -12.15,4.8 v -11.81 q 7.01,-2.71 13.61,-4.03 6.6,-1.39 12.85,-1.39 16.87,0 25.2,8.75 8.34,8.75 8.34,26.53 z"
       clip-path="url(#clip100)"
       inkscape:connector-curvature="0"
       style="fill:#000000;fill-opacity:1;fill-rule:evenodd" />
    <path
       id="path115"
       d="m 0,0 m 2075.11,3051.34 q 0,-14.1 -5.83,-22.09 -5.76,-8.05 -15.9,-8.05 -10.14,0 -15.97,8.05 -5.77,7.99 -5.77,22.09 0,14.09 5.77,22.15 5.83,7.99 15.97,7.99 10.14,0 15.9,-7.99 5.83,-8.06 5.83,-22.15 m -43.47,-27.16 q 4.03,-6.94 10.14,-10.27 6.18,-3.41 14.72,-3.41 14.17,0 22.99,11.25 8.89,11.25 8.89,29.59 0,18.33 -8.89,29.58 -8.82,11.25 -22.99,11.25 -8.54,0 -14.72,-3.33 -6.11,-3.41 -10.14,-10.35 v 11.67 h -12.85 V 2982.1 h 12.85 z"
       clip-path="url(#clip100)"
       inkscape:connector-curvature="0"
       style="fill:#000000;fill-opacity:1;fill-rule:evenodd" />
    <path
       id="path117"
       d="m 0,0 m 2101.78,2982.1 h 12.78 v 108.06 h -12.78 z"
       clip-path="url(#clip100)"
       inkscape:connector-curvature="0"
       style="fill:#000000;fill-opacity:1;fill-rule:evenodd" />
    <path
       id="path119"
       d="m 0,0 m 2194.49,3048.07 v 6.25 h -58.75 q 0.83,13.2 7.92,20.14 7.15,6.88 19.86,6.88 7.36,0 14.23,-1.81 6.95,-1.8 13.75,-5.42 v 12.09 q -6.87,2.91 -14.1,4.44 -7.22,1.53 -14.65,1.53 -18.61,0 -29.51,-10.83 -10.83,-10.84 -10.83,-29.31 0,-19.1 10.27,-30.28 10.35,-11.25 27.85,-11.25 15.69,0 24.79,10.14 9.17,10.07 9.17,27.43 m -12.78,-3.75 q -0.14,-10.48 -5.9,-16.73 -5.7,-6.25 -15.14,-6.25 -10.7,0 -17.15,6.04 -6.39,6.04 -7.36,17.01 z"
       clip-path="url(#clip100)"
       inkscape:connector-curvature="0"
       style="fill:#000000;fill-opacity:1;fill-rule:evenodd" />
    <path
       id="path121"
       d="m 0,0 m 2257.47,3014.67 v 12.08 q -5.41,-2.77 -11.25,-4.16 -5.83,-1.39 -12.08,-1.39 -9.51,0 -14.3,2.91 -4.73,2.92 -4.73,8.75 0,4.45 3.41,7.02 3.4,2.5 13.68,4.79 l 4.37,0.97 q 13.61,2.92 19.31,8.27 5.76,5.27 5.76,14.79 0,10.83 -8.61,17.15 -8.54,6.32 -23.54,6.32 -6.25,0 -13.06,-1.25 -6.73,-1.18 -14.23,-3.61 v -13.2 q 7.08,3.68 13.95,5.56 6.88,1.81 13.62,1.81 9.02,0 13.88,-3.06 4.87,-3.13 4.87,-8.75 0,-5.21 -3.55,-7.99 -3.47,-2.77 -15.34,-5.34 l -4.45,-1.05 q -11.87,-2.5 -17.15,-7.63 -5.28,-5.21 -5.28,-14.24 0,-10.97 7.78,-16.94 7.78,-5.98 22.08,-5.98 7.09,0 13.34,1.05 6.25,1.04 11.52,3.12 z"
       clip-path="url(#clip100)"
       inkscape:connector-curvature="0"
       style="fill:#000000;fill-opacity:1;fill-rule:evenodd" />
    <path
       id="path123"
       d="m 0,0 m 75.4622,1707 h 14.7916 q -6.5972,7.08 -9.861,15.14 -3.2639,7.98 -3.2639,17.01 0,17.78 10.9027,27.22 10.8333,9.45 31.3884,9.45 20.486,0 31.389,-9.45 10.833,-9.44 10.833,-27.22 0,-9.03 -3.264,-17.01 -3.263,-8.06 -9.861,-15.14 h 14.653 q 5,7.36 7.5,15.62 2.5,8.2 2.5,17.36 0,23.54 -14.375,37.09 -14.444,13.54 -39.375,13.54 -24.9995,0 -39.3745,-13.54 -14.4443,-13.55 -14.4443,-37.09 0,-9.3 2.5,-17.5 2.4305,-8.26 7.361,-15.48 z"
       clip-path="url(#clip100)"
       inkscape:connector-curvature="0"
       style="fill:#000000;fill-opacity:1;fill-rule:evenodd" />
    <path
       id="path125"
       d="m 0,0 m 102.337,1663.46 q 0,10.27 8.056,16.25 7.986,5.97 21.944,5.97 13.958,0 22.014,-5.91 7.986,-5.97 7.986,-16.31 0,-10.21 -8.056,-16.19 -8.055,-5.97 -21.944,-5.97 -13.819,0 -21.875,5.97 -8.125,5.98 -8.125,16.19 m -10.8332,0 q 0,-16.67 10.8332,-26.18 10.833,-9.52 30,-9.52 19.097,0 30,9.52 10.833,9.51 10.833,26.18 0,16.73 -10.833,26.25 -10.903,9.44 -30,9.44 -19.167,0 -30,-9.44 -10.8332,-9.52 -10.8332,-26.25 z"
       clip-path="url(#clip100)"
       inkscape:connector-curvature="0"
       style="fill:#000000;fill-opacity:1;fill-rule:evenodd" />
    <path
       id="path127"
       d="m 0,0 m 124.212,1549.71 h 46.944 v 12.77 h -46.527 q -11.042,0 -16.528,4.31 -5.486,4.3 -5.486,12.92 0,10.34 6.597,16.32 6.597,5.97 17.986,5.97 h 43.958 v 12.84 H 93.3788 V 1602 h 12.0832 q -7.0138,-4.59 -10.486,-10.77 -3.4722,-6.25 -3.4722,-14.37 0,-13.4 8.3333,-20.28 8.2639,-6.87 24.3749,-6.87 z"
       clip-path="url(#clip100)"
       inkscape:connector-curvature="0"
       style="fill:#000000;fill-opacity:1;fill-rule:evenodd" />
    <path
       id="path129"
       d="m 0,0 m 95.6705,1486.72 h 12.0835 q -2.778,5.42 -4.167,11.25 -1.389,5.83 -1.389,12.08 0,9.52 2.917,14.31 2.916,4.72 8.75,4.72 4.444,0 7.014,-3.4 2.5,-3.4 4.791,-13.68 l 0.973,-4.38 q 2.916,-13.61 8.263,-19.3 5.278,-5.77 14.792,-5.77 10.833,0 17.153,8.61 6.319,8.55 6.319,23.55 0,6.25 -1.25,13.05 -1.181,6.74 -3.611,14.24 h -13.194 q 3.68,-7.09 5.555,-13.96 1.806,-6.88 1.806,-13.61 0,-9.03 -3.056,-13.89 -3.125,-4.86 -8.75,-4.86 -5.208,0 -7.986,3.54 -2.778,3.47 -5.347,15.35 l -1.042,4.44 q -2.5,11.88 -7.639,17.15 -5.208,5.28 -14.236,5.28 -10.972,0 -16.944,-7.78 -5.9722,-7.77 -5.9722,-22.08 0,-7.08 1.0417,-13.33 1.0416,-6.25 3.125,-11.53 z"
       clip-path="url(#clip100)"
       inkscape:connector-curvature="0"
       style="fill:#000000;fill-opacity:1;fill-rule:evenodd" />
    <path
       id="path131"
       d="m 0,0 m 71.2956,1456.51 h 22.0832 v -26.32 h 9.9302 v 26.32 h 42.222 q 9.514,0 12.222,-2.57 2.709,-2.64 2.709,-10.62 v -13.13 h 10.694 v 13.13 q 0,14.79 -5.486,20.41 -5.555,5.63 -20.139,5.63 h -42.222 v 9.37 h -9.9302 v -9.37 H 71.2956 Z"
       clip-path="url(#clip100)"
       inkscape:connector-curvature="0"
       style="fill:#000000;fill-opacity:1;fill-rule:evenodd" />
    <path
       id="path133"
       d="m 0,0 m 105.323,1371.72 q -1.25,2.15 -1.805,4.72 -0.625,2.5 -0.625,5.56 0,10.83 7.083,16.67 7.014,5.76 20.208,5.76 h 40.972 v 12.85 H 93.3788 v -12.85 h 12.0832 q -7.0832,-4.03 -10.486,-10.49 -3.4722,-6.46 -3.4722,-15.69 0,-1.32 0.2083,-2.92 0.1389,-1.6 0.4861,-3.54 z"
       clip-path="url(#clip100)"
       inkscape:connector-curvature="0"
       style="fill:#000000;fill-opacity:1;fill-rule:evenodd" />
    <path
       id="path135"
       d="m 0,0 m 132.059,1322.97 q 0,15.49 3.542,21.46 3.541,5.97 12.083,5.97 6.806,0 10.833,-4.44 3.959,-4.52 3.959,-12.23 0,-10.62 -7.5,-17.01 -7.57,-6.46 -20.07,-6.46 h -2.847 v 12.71 m -5.278,-25.48 h 44.375 v 12.77 h -11.805 q 7.083,4.38 10.486,10.91 3.333,6.52 3.333,15.97 0,11.94 -6.667,19.03 -6.736,7.01 -17.986,7.01 -13.125,0 -19.791,-8.75 -6.667,-8.82 -6.667,-26.25 v -17.92 h -1.25 q -8.819,0 -13.611,5.84 -4.861,5.76 -4.861,16.25 0,6.66 1.597,12.98 1.598,6.32 4.792,12.15 H 96.9204 q -2.7083,-7.01 -4.0277,-13.61 -1.3889,-6.59 -1.3889,-12.84 0,-16.88 8.7502,-25.21 8.75,-8.33 26.527,-8.33 z"
       clip-path="url(#clip100)"
       inkscape:connector-curvature="0"
       style="fill:#000000;fill-opacity:1;fill-rule:evenodd" />
    <path
       id="path137"
       d="m 0,0 m 93.3788,1284.08 v -12.78 h 77.7772 v 12.78 H 93.3788 m -30.2776,0 v -12.78 h 16.1804 v 12.78 z"
       clip-path="url(#clip100)"
       inkscape:connector-curvature="0"
       style="fill:#000000;fill-opacity:1;fill-rule:evenodd" />
    <path
       id="path139"
       d="m 0,0 m 124.212,1193.25 h 46.944 v 12.78 h -46.527 q -11.042,0 -16.528,4.3 -5.486,4.31 -5.486,12.92 0,10.35 6.597,16.32 6.597,5.97 17.986,5.97 h 43.958 v 12.85 H 93.3788 v -12.85 h 12.0832 q -7.0138,-4.58 -10.486,-10.76 -3.4722,-6.25 -3.4722,-14.38 0,-13.4 8.3333,-20.28 8.2639,-6.87 24.3749,-6.87 z"
       clip-path="url(#clip100)"
       inkscape:connector-curvature="0"
       style="fill:#000000;fill-opacity:1;fill-rule:evenodd" />
    <path
       id="path141"
       d="m 0,0 m 71.2956,1167.21 h 22.0832 v -26.32 h 9.9302 v 26.32 h 42.222 q 9.514,0 12.222,-2.57 2.709,-2.64 2.709,-10.63 v -13.12 h 10.694 v 13.12 q 0,14.8 -5.486,20.42 -5.555,5.63 -20.139,5.63 h -42.222 v 9.37 h -9.9302 v -9.37 H 71.2956 Z"
       clip-path="url(#clip100)"
       inkscape:connector-curvature="0"
       style="fill:#000000;fill-opacity:1;fill-rule:evenodd" />
    <path
       id="path143"
       d="m 0,0 m 95.6705,1077.9 h 12.0835 q -2.778,5.42 -4.167,11.25 -1.389,5.84 -1.389,12.09 0,9.51 2.917,14.3 2.916,4.72 8.75,4.72 4.444,0 7.014,-3.4 2.5,-3.4 4.791,-13.68 l 0.973,-4.37 q 2.916,-13.62 8.263,-19.31 5.278,-5.76 14.792,-5.76 10.833,0 17.153,8.61 6.319,8.54 6.319,23.54 0,6.25 -1.25,13.05 -1.181,6.74 -3.611,14.24 h -13.194 q 3.68,-7.08 5.555,-13.96 1.806,-6.87 1.806,-13.61 0,-9.03 -3.056,-13.89 -3.125,-4.86 -8.75,-4.86 -5.208,0 -7.986,3.54 -2.778,3.48 -5.347,15.35 l -1.042,4.44 q -2.5,11.88 -7.639,17.16 -5.208,5.27 -14.236,5.27 -10.972,0 -16.944,-7.77 -5.9722,-7.78 -5.9722,-22.09 0,-7.08 1.0417,-13.33 1.0416,-6.25 3.125,-11.53 z"
       clip-path="url(#clip100)"
       inkscape:connector-curvature="0"
       style="fill:#000000;fill-opacity:1;fill-rule:evenodd" />
    <path
       id="path145"
       d="M 513.242,501.429 H 835.181 V 186.812 H 513.242 Z"
       clip-path="url(#clip102)"
       inkscape:connector-curvature="0"
       style="fill:#ffff74;fill-opacity:1;fill-rule:evenodd" />
    <polyline
       id="polyline147"
       points="   513.242,501.429 835.181,501.429 835.181,186.812 513.242,186.812 513.242,501.429    "
       style="fill:none;stroke:#000000;stroke-width:4;stroke-opacity:1"
       clip-path="url(#clip102)" />
    <path
       id="path149"
       d="M 835.181,824.786 H 1157.12 V 501.429 H 835.181 Z"
       clip-path="url(#clip102)"
       inkscape:connector-curvature="0"
       style="fill:#ff9bff;fill-opacity:1;fill-rule:evenodd" />
    <polyline
       id="polyline151"
       points="   835.181,824.786 1157.12,824.786 1157.12,501.429 835.181,501.429 835.181,824.786    "
       style="fill:none;stroke:#000000;stroke-width:4;stroke-opacity:1"
       clip-path="url(#clip102)" />
    <path
       id="path153"
       d="m 1157.12,1156.88 h 321.94 V 824.786 h -321.94 z"
       clip-path="url(#clip102)"
       inkscape:connector-curvature="0"
       style="fill:#00d3ff;fill-opacity:1;fill-rule:evenodd" />
    <polyline
       id="polyline155"
       points="   1157.12,1156.88 1479.06,1156.88 1479.06,824.786 1157.12,824.786 1157.12,1156.88    "
       style="fill:none;stroke:#000000;stroke-width:4;stroke-opacity:1"
       clip-path="url(#clip102)" />
    <path
       id="path157"
       d="M 1479.06,1471.5 H 1801 v -314.62 h -321.94 z"
       clip-path="url(#clip102)"
       inkscape:connector-curvature="0"
       style="fill:#e2630d;fill-opacity:1;fill-rule:evenodd" />
    <polyline
       id="polyline159"
       points="   1479.06,1471.5 1801,1471.5 1801,1156.88 1479.06,1156.88 1479.06,1471.5    "
       style="fill:none;stroke:#000000;stroke-width:4;stroke-opacity:1"
       clip-path="url(#clip102)" />
    <path
       id="path161"
       d="m 1801,1777.38 h 309.06 V 1471.5 H 1801 Z"
       clip-path="url(#clip102)"
       inkscape:connector-curvature="0"
       style="fill:#007e00;fill-opacity:1;fill-rule:evenodd" />
    <polyline
       id="polyline163"
       points="   1801,1777.38 2110.06,1777.38 2110.06,1471.5 1801,1471.5 1801,1777.38    "
       style="fill:none;stroke:#000000;stroke-width:4;stroke-opacity:1"
       clip-path="url(#clip102)" />
    <path
       id="path165"
       d="M 2110.06,2100.73 H 2432 v -323.35 h -321.94 z"
       clip-path="url(#clip102)"
       inkscape:connector-curvature="0"
       style="fill:#0050e6;fill-opacity:1;fill-rule:evenodd" />
    <polyline
       id="polyline167"
       points="   2110.06,2100.73 2432,2100.73 2432,1777.38 2110.06,1777.38 2110.06,2100.73    "
       style="fill:none;stroke:#000000;stroke-width:4;stroke-opacity:1"
       clip-path="url(#clip102)" />
    <path
       id="path169"
       d="m 2432,2415.35 h 321.94 V 2100.73 H 2432 Z"
       clip-path="url(#clip102)"
       inkscape:connector-curvature="0"
       style="fill:#ac0047;fill-opacity:1;fill-rule:evenodd" />
    <polyline
       id="polyline171"
       points="   2432,2415.35 2753.94,2415.35 2753.94,2100.73 2432,2100.73 2432,2415.35    "
       style="fill:none;stroke:#000000;stroke-width:4;stroke-opacity:1"
       clip-path="url(#clip102)" />
    <path
       id="path173"
       d="m 2753.94,2738.71 h 321.94 v -323.36 h -321.94 z"
       clip-path="url(#clip102)"
       inkscape:connector-curvature="0"
       style="fill:#00ffc8;fill-opacity:1;fill-rule:evenodd" />
    <polyline
       id="polyline175"
       points="   2753.94,2738.71 3075.88,2738.71 3075.88,2415.35 2753.94,2415.35 2753.94,2738.71    "
       style="fill:none;stroke:#000000;stroke-width:4;stroke-opacity:1"
       clip-path="url(#clip102)" />
    <path
       id="path177"
       d="m 1481.5,126.006 v 8 h 8 v -8 z"
       clip-path="url(#clip102)"
       inkscape:connector-curvature="0"
       style="fill:#0000ff;fill-opacity:1;fill-rule:evenodd;stroke:#000000;stroke-width:6.4000001;stroke-opacity:1" />
    <path
       id="path179"
       d="m 1314.09,126.006 v 8 h 8 v -8 z"
       clip-path="url(#clip102)"
       inkscape:connector-curvature="0"
       style="fill:#0000ff;fill-opacity:1;fill-rule:evenodd;stroke:#000000;stroke-width:6.4000001;stroke-opacity:1" />
    <path
       id="path181"
       d="m 1636.03,126.006 v 8 h 8 v -8 z"
       clip-path="url(#clip102)"
       inkscape:connector-curvature="0"
       style="fill:#0000ff;fill-opacity:1;fill-rule:evenodd;stroke:#000000;stroke-width:6.4000001;stroke-opacity:1" />
    <path
       id="path183"
       d="m 837.62,134.745 v 8 h 8 v -8 z"
       clip-path="url(#clip102)"
       inkscape:connector-curvature="0"
       style="fill:#0000ff;fill-opacity:1;fill-rule:evenodd;stroke:#000000;stroke-width:6.4000001;stroke-opacity:1" />
    <path
       id="path185"
       d="m 1623.15,134.745 v 8 h 8 v -8 z"
       clip-path="url(#clip102)"
       inkscape:connector-curvature="0"
       style="fill:#0000ff;fill-opacity:1;fill-rule:evenodd;stroke:#000000;stroke-width:6.4000001;stroke-opacity:1" />
    <path
       id="path187"
       d="m 1790.56,134.745 v 8 h 8 v -8 z"
       clip-path="url(#clip102)"
       inkscape:connector-curvature="0"
       style="fill:#0000ff;fill-opacity:1;fill-rule:evenodd;stroke:#000000;stroke-width:6.4000001;stroke-opacity:1" />
    <path
       id="path189"
       d="m 515.681,143.485 v 8 h 8 v -8 z"
       clip-path="url(#clip102)"
       inkscape:connector-curvature="0"
       style="fill:#0000ff;fill-opacity:1;fill-rule:evenodd;stroke:#000000;stroke-width:6.4000001;stroke-opacity:1" />
    <path
       id="path191"
       d="m 992.151,143.485 v 8 h 7.999 v -8 z"
       clip-path="url(#clip102)"
       inkscape:connector-curvature="0"
       style="fill:#0000ff;fill-opacity:1;fill-rule:evenodd;stroke:#000000;stroke-width:6.4000001;stroke-opacity:1" />
    <path
       id="path193"
       d="m 670.212,143.485 v 8 h 8 v -8 z"
       clip-path="url(#clip102)"
       inkscape:connector-curvature="0"
       style="fill:#0000ff;fill-opacity:1;fill-rule:evenodd;stroke:#000000;stroke-width:6.4000001;stroke-opacity:1" />
    <path
       id="path195"
       d="m 2756.38,152.224 v 8 h 8 v -8 z"
       clip-path="url(#clip102)"
       inkscape:connector-curvature="0"
       style="fill:#0000ff;fill-opacity:1;fill-rule:evenodd;stroke:#000000;stroke-width:6.4000001;stroke-opacity:1" />
    <path
       id="path197"
       d="m 657.334,152.224 v 8 h 8 v -8 z"
       clip-path="url(#clip102)"
       inkscape:connector-curvature="0"
       style="fill:#0000ff;fill-opacity:1;fill-rule:evenodd;stroke:#000000;stroke-width:6.4000001;stroke-opacity:1" />
    <path
       id="path199"
       d="m 824.743,152.224 v 8 h 8 v -8 z"
       clip-path="url(#clip102)"
       inkscape:connector-curvature="0"
       style="fill:#0000ff;fill-opacity:1;fill-rule:evenodd;stroke:#000000;stroke-width:6.4000001;stroke-opacity:1" />
    <path
       id="path201"
       d="m 2434.44,160.963 v 8 h 8 v -8 z"
       clip-path="url(#clip102)"
       inkscape:connector-curvature="0"
       style="fill:#0000ff;fill-opacity:1;fill-rule:evenodd;stroke:#000000;stroke-width:6.4000001;stroke-opacity:1" />
    <path
       id="path203"
       d="m 2910.91,160.963 v 8 h 8 v -8 z"
       clip-path="url(#clip102)"
       inkscape:connector-curvature="0"
       style="fill:#0000ff;fill-opacity:1;fill-rule:evenodd;stroke:#000000;stroke-width:6.4000001;stroke-opacity:1" />
    <path
       id="path205"
       d="m 2588.97,160.963 v 8 h 8 v -8 z"
       clip-path="url(#clip102)"
       inkscape:connector-curvature="0"
       style="fill:#0000ff;fill-opacity:1;fill-rule:evenodd;stroke:#000000;stroke-width:6.4000001;stroke-opacity:1" />
    <path
       id="path207"
       d="m 2112.5,169.703 v 8 h 8 v -8 z"
       clip-path="url(#clip102)"
       inkscape:connector-curvature="0"
       style="fill:#0000ff;fill-opacity:1;fill-rule:evenodd;stroke:#000000;stroke-width:6.4000001;stroke-opacity:1" />
    <path
       id="path209"
       d="m 2576.09,169.703 v 8 h 8 v -8 z"
       clip-path="url(#clip102)"
       inkscape:connector-curvature="0"
       style="fill:#0000ff;fill-opacity:1;fill-rule:evenodd;stroke:#000000;stroke-width:6.4000001;stroke-opacity:1" />
    <path
       id="path211"
       d="m 2743.5,169.703 v 8 h 8 v -8 z"
       clip-path="url(#clip102)"
       inkscape:connector-curvature="0"
       style="fill:#0000ff;fill-opacity:1;fill-rule:evenodd;stroke:#000000;stroke-width:6.4000001;stroke-opacity:1" />
    <path
       id="path213"
       d="m 1803.44,178.442 v 8 h 8 v -8 z"
       clip-path="url(#clip102)"
       inkscape:connector-curvature="0"
       style="fill:#0000ff;fill-opacity:1;fill-rule:evenodd;stroke:#000000;stroke-width:6.4000001;stroke-opacity:1" />
    <path
       id="path215"
       d="m 2267.03,178.442 v 8 h 8 v -8 z"
       clip-path="url(#clip102)"
       inkscape:connector-curvature="0"
       style="fill:#0000ff;fill-opacity:1;fill-rule:evenodd;stroke:#000000;stroke-width:6.4000001;stroke-opacity:1" />
    <path
       id="path217"
       d="m 1957.97,178.442 v 8 h 8 v -8 z"
       clip-path="url(#clip102)"
       inkscape:connector-curvature="0"
       style="fill:#0000ff;fill-opacity:1;fill-rule:evenodd;stroke:#000000;stroke-width:6.4000001;stroke-opacity:1" />
    <path
       id="path219"
       d="m 0,0 m 632.615,384.155 h 22.916 v -79.097 l -24.93,5 V 297.28 l 24.792,-5 h 14.027 v 91.875 h 22.917 v 11.805 h -59.722 z"
       clip-path="url(#clip100)"
       inkscape:connector-curvature="0"
       style="fill:#000000;fill-opacity:1;fill-rule:evenodd" />
    <path
       id="path221"
       d="m 0,0 m 717.823,292.28 v 38.542 H 706.017 V 292.28 Z"
       clip-path="url(#clip100)"
       inkscape:connector-curvature="0"
       style="fill:#000000;fill-opacity:1;fill-rule:evenodd" />
    <path
       id="path223"
       d="m 0,0 m 967.366,703.142 h 48.954 v 11.805 h -65.829 v -11.805 q 7.987,-8.264 21.736,-22.153 13.82,-13.958 17.361,-17.986 6.737,-7.569 9.375,-12.777 2.707,-5.278 2.707,-10.348 0,-8.263 -5.832,-13.472 -5.763,-5.208 -15.069,-5.208 -6.597,0 -13.958,2.292 -7.292,2.291 -15.625,6.944 v -14.167 q 8.472,-3.402 15.833,-5.138 7.361,-1.737 13.472,-1.737 16.111,0 25.699,8.056 9.58,8.055 9.58,21.528 0,6.388 -2.43,12.152 -2.36,5.695 -8.68,13.473 -1.74,2.013 -11.044,11.666 -9.305,9.583 -26.25,26.875 z"
       clip-path="url(#clip100)"
       inkscape:connector-curvature="0"
       style="fill:#000000;fill-opacity:1;fill-rule:evenodd" />
    <path
       id="path225"
       d="m 0,0 m 1041.81,611.267 v 38.542 H 1030 v -38.542 z"
       clip-path="url(#clip100)"
       inkscape:connector-curvature="0"
       style="fill:#000000;fill-opacity:1;fill-rule:evenodd" />
    <path
       id="path227"
       d="m 0,0 m 1318.09,986.771 q 10.07,2.153 15.69,8.959 5.7,6.81 5.7,16.81 0,15.34 -10.56,23.74 -10.55,8.41 -30,8.41 -6.52,0 -13.47,-1.32 -6.87,-1.25 -14.23,-3.82 v -13.54 q 5.83,3.4 12.77,5.14 6.95,1.73 14.52,1.73 13.19,0 20.07,-5.21 6.94,-5.2 6.94,-15.13 0,-9.17 -6.46,-14.31 -6.39,-5.209 -17.84,-5.209 h -12.09 v -11.527 h 12.64 q 10.35,0 15.83,-4.098 5.49,-4.166 5.49,-11.944 0,-7.986 -5.69,-12.222 -5.63,-4.306 -16.18,-4.306 -5.77,0 -12.37,1.25 -6.59,1.25 -14.51,3.889 v -12.5 q 7.99,-2.222 14.93,-3.333 7.01,-1.111 13.2,-1.111 15.97,0 25.27,7.291 9.31,7.223 9.31,19.584 0,8.611 -4.93,14.583 -4.93,5.903 -14.03,8.194 z"
       clip-path="url(#clip100)"
       inkscape:connector-curvature="0"
       style="fill:#000000;fill-opacity:1;fill-rule:evenodd" />
    <path
       id="path229"
       d="m 0,0 m 1364.96,938.994 v 38.541 h -11.8 v -38.541 z"
       clip-path="url(#clip100)"
       inkscape:connector-curvature="0"
       style="fill:#000000;fill-opacity:1;fill-rule:evenodd" />
    <path
       id="path231"
       d="m 0,0 m 1636.31,1274.57 -35.41,55.35 h 35.41 v -55.35 m -3.68,-12.22 h 17.64 v 67.57 h 14.79 v 11.67 h -14.79 v 24.44 h -13.96 v -24.44 h -46.8 v -13.55 z"
       clip-path="url(#clip100)"
       inkscape:connector-curvature="0"
       style="fill:#000000;fill-opacity:1;fill-rule:evenodd" />
    <path
       id="path233"
       d="m 0,0 m 1690.55,1262.35 v 38.54 h -11.81 v -38.54 z"
       clip-path="url(#clip100)"
       inkscape:connector-curvature="0"
       style="fill:#000000;fill-opacity:1;fill-rule:evenodd" />
    <path
       id="path235"
       d="m 0,0 m 1913.62,1572.6 h 55.07 v 11.8 h -42.22 v 25.42 q 3.05,-1.04 6.11,-1.53 3.05,-0.55 6.11,-0.55 17.36,0 27.5,9.51 10.14,9.51 10.14,25.76 0,16.74 -10.42,26.05 -10.42,9.23 -29.37,9.23 -6.53,0 -13.34,-1.11 -6.73,-1.11 -13.96,-3.33 v -14.1 q 6.25,3.4 12.92,5.07 6.67,1.67 14.1,1.67 12.01,0 19.03,-6.32 7.01,-6.32 7.01,-17.16 0,-10.83 -7.01,-17.15 -7.02,-6.32 -19.03,-6.32 -5.63,0 -11.25,1.25 -5.56,1.25 -11.39,3.89 z"
       clip-path="url(#clip100)"
       inkscape:connector-curvature="0"
       style="fill:#000000;fill-opacity:1;fill-rule:evenodd" />
    <path
       id="path237"
       d="m 0,0 m 2001.81,1572.6 v 38.54 h -11.8 v -38.54 z"
       clip-path="url(#clip100)"
       inkscape:connector-curvature="0"
       style="fill:#000000;fill-opacity:1;fill-rule:evenodd" />
    <path
       id="path239"
       d="m 0,0 m 2259.5,1933.47 q -9.44,0 -15,6.45 -5.48,6.46 -5.48,17.71 0,11.18 5.48,17.71 5.56,6.46 15,6.46 9.45,0 14.93,-6.46 5.56,-6.53 5.56,-17.71 0,-11.25 -5.56,-17.71 -5.48,-6.45 -14.93,-6.45 m 27.85,-43.96 v 12.77 q -5.28,-2.5 -10.7,-3.81 -5.34,-1.32 -10.62,-1.32 -13.89,0 -21.25,9.37 -7.29,9.38 -8.33,28.33 4.09,-6.04 10.27,-9.23 6.18,-3.27 13.61,-3.27 15.63,0 24.66,9.52 9.09,9.44 9.09,25.76 0,15.97 -9.44,25.63 -9.44,9.65 -25.14,9.65 -17.98,0 -27.5,-13.75 -9.51,-13.82 -9.51,-40 0,-24.58 11.66,-39.17 11.67,-14.65 31.32,-14.65 5.28,0 10.63,1.04 5.42,1.04 11.25,3.13 z"
       clip-path="url(#clip100)"
       inkscape:connector-curvature="0"
       style="fill:#000000;fill-opacity:1;fill-rule:evenodd" />
    <path
       id="path241"
       d="m 0,0 m 2319.57,1887.22 v 38.54 h -11.8 v -38.54 z"
       clip-path="url(#clip100)"
       inkscape:connector-curvature="0"
       style="fill:#000000;fill-opacity:1;fill-rule:evenodd" />
    <path
       id="path243"
       d="m 0,0 m 2546.89,2206.2 h 66.67 v 5.97 l -37.64,97.71 h -14.65 l 35.41,-91.87 h -49.79 z"
       clip-path="url(#clip100)"
       inkscape:connector-curvature="0"
       style="fill:#000000;fill-opacity:1;fill-rule:evenodd" />
    <path
       id="path245"
       d="m 0,0 m 2639.04,2206.2 v 38.54 h -11.8 v -38.54 z"
       clip-path="url(#clip100)"
       inkscape:connector-curvature="0"
       style="fill:#000000;fill-opacity:1;fill-rule:evenodd" />
    <path
       id="path247"
       d="m 0,0 m 2902.16,2579.63 q -10,0 -15.76,5.35 -5.69,5.35 -5.69,14.72 0,9.38 5.69,14.72 5.76,5.35 15.76,5.35 10,0 15.77,-5.35 5.76,-5.41 5.76,-14.72 0,-9.37 -5.76,-14.72 -5.7,-5.35 -15.77,-5.35 m -14.02,-5.97 q -9.03,-2.22 -14.1,-8.4 -5,-6.18 -5,-15.07 0,-12.43 8.82,-19.65 8.89,-7.23 24.3,-7.23 15.49,0 24.31,7.23 8.82,7.22 8.82,19.65 0,8.89 -5.07,15.07 -5,6.18 -13.96,8.4 10.14,2.36 15.77,9.24 5.69,6.87 5.69,16.8 0,15.07 -9.24,23.13 -9.16,8.05 -26.32,8.05 -17.15,0 -26.38,-8.05 -9.17,-8.06 -9.17,-23.13 0,-9.93 5.69,-16.8 5.7,-6.88 15.84,-9.24 m -5.14,-22.15 q 0,8.05 5,12.57 5.07,4.51 14.16,4.51 9.03,0 14.1,-4.51 5.14,-4.52 5.14,-12.57 0,-8.06 -5.14,-12.57 -5.07,-4.51 -14.1,-4.51 -9.09,0 -14.16,4.51 -5,4.51 -5,12.57 z"
       clip-path="url(#clip100)"
       inkscape:connector-curvature="0"
       style="fill:#000000;fill-opacity:1;fill-rule:evenodd" />
    <path
       id="path249"
       d="m 0,0 m 2963.21,2525.19 v 38.54 h -11.81 v -38.54 z"
       clip-path="url(#clip100)"
       inkscape:connector-curvature="0"
       style="fill:#000000;fill-opacity:1;fill-rule:evenodd" />
  </g>
</svg>
