<?xml version="1.0" encoding="utf-8"?>
<svg xmlns="http://www.w3.org/2000/svg" xmlns:xlink="http://www.w3.org/1999/xlink" width="800" height="800" viewBox="0 0 3200 3200">
<defs>
  <clipPath id="clip740">
    <rect x="0" y="0" width="3200" height="3200"/>
  </clipPath>
</defs>
<path clip-path="url(#clip740)" d="
M0 3200 L3200 3200 L3200 0 L0 0  Z
  " fill="#ffffff" fill-rule="evenodd" fill-opacity="1"/>
<defs>
  <clipPath id="clip741">
    <rect x="640" y="320" width="2241" height="2241"/>
  </clipPath>
</defs>
<path clip-path="url(#clip740)" d="
M94.9921 3105.01 L3152.76 3105.01 L3152.76 47.2441 L94.9921 47.2441  Z
  " fill="#ffffff" fill-rule="evenodd" fill-opacity="1"/>
<defs>
  <clipPath id="clip742">
    <rect x="94" y="47" width="3059" height="3059"/>
  </clipPath>
</defs>
<polyline clip-path="url(#clip740)" style="stroke:#000000; stroke-width:4; stroke-opacity:1; fill:none" points="
  94.9921,3105.01 3152.76,3105.01 
  "/>
<polyline clip-path="url(#clip740)" style="stroke:#000000; stroke-width:4; stroke-opacity:1; fill:none" points="
  94.9921,3105.01 94.9921,47.2441 
  "/>
<polyline clip-path="url(#clip740)" style="stroke:#000000; stroke-width:4; stroke-opacity:1; fill:none" points="
  94.9921,47.2441 3152.76,47.2441 
  "/>
<polyline clip-path="url(#clip740)" style="stroke:#000000; stroke-width:4; stroke-opacity:1; fill:none" points="
  3152.76,3105.01 3152.76,47.2441 
  "/>
<circle clip-path="url(#clip742)" cx="2084.91" cy="2701.85" r="108" fill="#ffff74" fill-rule="evenodd" fill-opacity="1" stroke="#000000" stroke-opacity="1" stroke-width="6.4"/>
<circle clip-path="url(#clip742)" cx="1656.35" cy="2976.66" r="108" fill="#ff9bff" fill-rule="evenodd" fill-opacity="1" stroke="#000000" stroke-opacity="1" stroke-width="6.4"/>
<circle clip-path="url(#clip742)" cx="181.533" cy="2396.4" r="108" fill="#00d3ff" fill-rule="evenodd" fill-opacity="1" stroke="#000000" stroke-opacity="1" stroke-width="6.4"/>
<circle clip-path="url(#clip742)" cx="1115.93" cy="3018.47" r="108" fill="#e2630d" fill-rule="evenodd" fill-opacity="1" stroke="#000000" stroke-opacity="1" stroke-width="6.4"/>
<circle clip-path="url(#clip742)" cx="2932.67" cy="133.785" r="108" fill="#007e00" fill-rule="evenodd" fill-opacity="1" stroke="#000000" stroke-opacity="1" stroke-width="6.4"/>
<circle clip-path="url(#clip742)" cx="3060.26" cy="630.597" r="108" fill="#0050e6" fill-rule="evenodd" fill-opacity="1" stroke="#000000" stroke-opacity="1" stroke-width="6.4"/>
<circle clip-path="url(#clip742)" cx="3066.22" cy="1398.62" r="108" fill="#ac0047" fill-rule="evenodd" fill-opacity="1" stroke="#000000" stroke-opacity="1" stroke-width="6.4"/>
<circle clip-path="url(#clip742)" cx="2988.54" cy="1911.69" r="108" fill="#00ffc8" fill-rule="evenodd" fill-opacity="1" stroke="#000000" stroke-opacity="1" stroke-width="6.4"/>
<polyline clip-path="url(#clip742)" style="stroke:#0000ff; stroke-width:8; stroke-opacity:1; fill:none" points="
  2084.91,2701.85 1656.35,2976.66 
  "/>
<polyline clip-path="url(#clip742)" style="stroke:#0000ff; stroke-width:8; stroke-opacity:1; fill:none" points="
  2084.91,2701.85 2988.54,1911.69 
  "/>
<polyline clip-path="url(#clip742)" style="stroke:#0000ff; stroke-width:8; stroke-opacity:1; fill:none" points="
  1656.35,2976.66 1115.93,3018.47 
  "/>
<polyline clip-path="url(#clip742)" style="stroke:#0000ff; stroke-width:8; stroke-opacity:1; fill:none" points="
  181.533,2396.4 1115.93,3018.47 
  "/>
<polyline clip-path="url(#clip742)" style="stroke:#0000ff; stroke-width:8; stroke-opacity:1; fill:none" points="
  2932.67,133.785 3060.26,630.597 
  "/>
<polyline clip-path="url(#clip742)" style="stroke:#0000ff; stroke-width:8; stroke-opacity:1; fill:none" points="
  3060.26,630.597 3066.22,1398.62 
  "/>
<polyline clip-path="url(#clip742)" style="stroke:#0000ff; stroke-width:8; stroke-opacity:1; fill:none" points="
  3066.22,1398.62 2988.54,1911.69 
  "/>
<path clip-path="url(#clip740)" d="M 0 0 M2050.24 2735.22 L2069.34 2735.22 L2069.34 2669.3 L2048.57 2673.47 L2048.57 2662.82 L2069.22 2658.65 L2080.91 2658.65 L2080.91 2735.22 L2100.01 2735.22 L2100.01 2745.05 L2050.24 2745.05 L2050.24 2735.22 Z" fill="#000000" fill-rule="evenodd" fill-opacity="1" /><path clip-path="url(#clip740)" d="M 0 0 M2121.25 2658.65 L2121.25 2690.77 L2111.41 2690.77 L2111.41 2658.65 L2121.25 2658.65 Z" fill="#000000" fill-rule="evenodd" fill-opacity="1" /><path clip-path="url(#clip740)" d="M 0 0 M1632.37 3010.02 L1673.17 3010.02 L1673.17 3019.86 L1618.3 3019.86 L1618.3 3010.02 Q1624.96 3003.13 1636.42 2991.56 Q1647.93 2979.93 1650.89 2976.57 Q1656.5 2970.26 1658.7 2965.92 Q1660.96 2961.52 1660.96 2957.3 Q1660.96 2950.41 1656.09 2946.07 Q1651.29 2941.73 1643.54 2941.73 Q1638.04 2941.73 1631.9 2943.64 Q1625.83 2945.55 1618.88 2949.43 L1618.88 2937.62 Q1625.94 2934.79 1632.08 2933.34 Q1638.21 2931.9 1643.3 2931.9 Q1656.73 2931.9 1664.72 2938.61 Q1672.7 2945.32 1672.7 2956.55 Q1672.7 2961.87 1670.68 2966.68 Q1668.71 2971.42 1663.44 2977.9 Q1662 2979.58 1654.24 2987.62 Q1646.49 2995.61 1632.37 3010.02 Z" fill="#000000" fill-rule="evenodd" fill-opacity="1" /><path clip-path="url(#clip740)" d="M 0 0 M1694.4 2933.46 L1694.4 2965.58 L1684.57 2965.58 L1684.57 2933.46 L1694.4 2933.46 Z" fill="#000000" fill-rule="evenodd" fill-opacity="1" /><path clip-path="url(#clip740)" d="M 0 0 M181.533 2393.01 Q189.924 2394.8 194.611 2400.48 Q199.357 2406.15 199.357 2414.48 Q199.357 2427.27 190.56 2434.27 Q181.764 2441.27 165.56 2441.27 Q160.121 2441.27 154.334 2440.17 Q148.605 2439.13 142.47 2436.99 L142.47 2425.71 Q147.331 2428.54 153.118 2429.99 Q158.905 2431.44 165.213 2431.44 Q176.209 2431.44 181.938 2427.1 Q187.725 2422.76 187.725 2414.48 Q187.725 2406.84 182.343 2402.56 Q177.019 2398.22 167.47 2398.22 L157.401 2398.22 L157.401 2388.61 L167.933 2388.61 Q176.556 2388.61 181.128 2385.2 Q185.699 2381.73 185.699 2375.24 Q185.699 2368.59 180.954 2365.06 Q176.266 2361.47 167.47 2361.47 Q162.667 2361.47 157.169 2362.51 Q151.672 2363.55 145.074 2365.75 L145.074 2355.34 Q151.73 2353.48 157.517 2352.56 Q163.361 2351.63 168.512 2351.63 Q181.822 2351.63 189.577 2357.71 Q197.331 2363.73 197.331 2374.03 Q197.331 2381.2 193.222 2386.18 Q189.114 2391.1 181.533 2393.01 Z" fill="#000000" fill-rule="evenodd" fill-opacity="1" /><path clip-path="url(#clip740)" d="M 0 0 M220.595 2353.2 L220.595 2385.31 L210.757 2385.31 L210.757 2353.2 L220.595 2353.2 Z" fill="#000000" fill-rule="evenodd" fill-opacity="1" /><path clip-path="url(#clip740)" d="M 0 0 M1112.83 2985.45 L1083.32 3031.57 L1112.83 3031.57 L1112.83 2985.45 M1109.76 2975.27 L1124.46 2975.27 L1124.46 3031.57 L1136.79 3031.57 L1136.79 3041.3 L1124.46 3041.3 L1124.46 3061.67 L1112.83 3061.67 L1112.83 3041.3 L1073.83 3041.3 L1073.83 3030.01 L1109.76 2975.27 Z" fill="#000000" fill-rule="evenodd" fill-opacity="1" /><path clip-path="url(#clip740)" d="M 0 0 M1158.03 2975.27 L1158.03 3007.39 L1148.19 3007.39 L1148.19 2975.27 L1158.03 2975.27 Z" fill="#000000" fill-rule="evenodd" fill-opacity="1" /><path clip-path="url(#clip740)" d="M 0 0 M2897.75 90.5846 L2943.64 90.5846 L2943.64 100.422 L2908.45 100.422 L2908.45 121.603 Q2911 120.735 2913.54 120.33 Q2916.09 119.867 2918.64 119.867 Q2933.1 119.867 2941.55 127.795 Q2950 135.723 2950 149.265 Q2950 163.212 2941.32 170.966 Q2932.64 178.663 2916.84 178.663 Q2911.4 178.663 2905.73 177.737 Q2900.12 176.811 2894.1 174.959 L2894.1 163.212 Q2899.31 166.047 2904.86 167.436 Q2910.42 168.825 2916.61 168.825 Q2926.62 168.825 2932.47 163.559 Q2938.31 158.293 2938.31 149.265 Q2938.31 140.237 2932.47 134.971 Q2926.62 129.705 2916.61 129.705 Q2911.92 129.705 2907.24 130.746 Q2902.61 131.788 2897.75 133.987 L2897.75 90.5846 Z" fill="#000000" fill-rule="evenodd" fill-opacity="1" /><path clip-path="url(#clip740)" d="M 0 0 M2971.24 90.5846 L2971.24 122.702 L2961.4 122.702 L2961.4 90.5846 L2971.24 90.5846 Z" fill="#000000" fill-rule="evenodd" fill-opacity="1" /><path clip-path="url(#clip740)" d="M 0 0 M3050.66 625.938 Q3042.79 625.938 3038.16 631.32 Q3033.59 636.702 3033.59 646.077 Q3033.59 655.394 3038.16 660.834 Q3042.79 666.216 3050.66 666.216 Q3058.53 666.216 3063.1 660.834 Q3067.73 655.394 3067.73 646.077 Q3067.73 636.702 3063.1 631.32 Q3058.53 625.938 3050.66 625.938 M3073.86 589.306 L3073.86 599.954 Q3069.46 597.871 3064.95 596.771 Q3060.5 595.672 3056.1 595.672 Q3044.52 595.672 3038.39 603.484 Q3032.31 611.297 3031.44 627.095 Q3034.86 622.061 3040.01 619.399 Q3045.16 616.679 3051.35 616.679 Q3064.37 616.679 3071.9 624.607 Q3079.48 632.477 3079.48 646.077 Q3079.48 659.387 3071.61 667.431 Q3063.74 675.475 3050.66 675.475 Q3035.67 675.475 3027.74 664.016 Q3019.81 652.5 3019.81 630.683 Q3019.81 610.197 3029.53 598.045 Q3039.26 585.834 3055.63 585.834 Q3060.03 585.834 3064.49 586.702 Q3069 587.57 3073.86 589.306 Z" fill="#000000" fill-rule="evenodd" fill-opacity="1" /><path clip-path="url(#clip740)" d="M 0 0 M3100.71 587.397 L3100.71 619.514 L3090.88 619.514 L3090.88 587.397 L3100.71 587.397 Z" fill="#000000" fill-rule="evenodd" fill-opacity="1" /><path clip-path="url(#clip740)" d="M 0 0 M3027.82 1355.42 L3083.37 1355.42 L3083.37 1360.4 L3052.01 1441.82 L3039.8 1441.82 L3069.31 1365.26 L3027.82 1365.26 L3027.82 1355.42 Z" fill="#000000" fill-rule="evenodd" fill-opacity="1" /><path clip-path="url(#clip740)" d="M 0 0 M3104.61 1355.42 L3104.61 1387.54 L3094.77 1387.54 L3094.77 1355.42 L3104.61 1355.42 Z" fill="#000000" fill-rule="evenodd" fill-opacity="1" /><path clip-path="url(#clip740)" d="M 0 0 M2977.92 1913.86 Q2969.58 1913.86 2964.78 1918.31 Q2960.04 1922.77 2960.04 1930.58 Q2960.04 1938.4 2964.78 1942.85 Q2969.58 1947.31 2977.92 1947.31 Q2986.25 1947.31 2991.05 1942.85 Q2995.86 1938.34 2995.86 1930.58 Q2995.86 1922.77 2991.05 1918.31 Q2986.31 1913.86 2977.92 1913.86 M2966.23 1908.88 Q2958.7 1907.03 2954.48 1901.88 Q2950.31 1896.73 2950.31 1889.32 Q2950.31 1878.96 2957.66 1872.94 Q2965.07 1866.93 2977.92 1866.93 Q2990.82 1866.93 2998.17 1872.94 Q3005.52 1878.96 3005.52 1889.32 Q3005.52 1896.73 3001.3 1901.88 Q2997.13 1907.03 2989.66 1908.88 Q2998.11 1910.85 3002.8 1916.58 Q3007.55 1922.31 3007.55 1930.58 Q3007.55 1943.14 2999.85 1949.85 Q2992.21 1956.57 2977.92 1956.57 Q2963.62 1956.57 2955.93 1949.85 Q2948.29 1943.14 2948.29 1930.58 Q2948.29 1922.31 2953.03 1916.58 Q2957.78 1910.85 2966.23 1908.88 M2961.95 1890.42 Q2961.95 1897.13 2966.11 1900.9 Q2970.34 1904.66 2977.92 1904.66 Q2985.44 1904.66 2989.66 1900.9 Q2993.95 1897.13 2993.95 1890.42 Q2993.95 1883.71 2989.66 1879.95 Q2985.44 1876.19 2977.92 1876.19 Q2970.34 1876.19 2966.11 1879.95 Q2961.95 1883.71 2961.95 1890.42 Z" fill="#000000" fill-rule="evenodd" fill-opacity="1" /><path clip-path="url(#clip740)" d="M 0 0 M3028.79 1868.49 L3028.79 1900.61 L3018.95 1900.61 L3018.95 1868.49 L3028.79 1868.49 Z" fill="#000000" fill-rule="evenodd" fill-opacity="1" /></svg>
