<?xml version="1.0" encoding="utf-8"?>
<svg xmlns="http://www.w3.org/2000/svg" xmlns:xlink="http://www.w3.org/1999/xlink" width="800" height="800" viewBox="0 0 3200 3200">
<defs>
  <clipPath id="clip560">
    <rect x="0" y="0" width="3200" height="3200"/>
  </clipPath>
</defs>
<path clip-path="url(#clip560)" d="
M0 3200 L3200 3200 L3200 0 L0 0  Z
  " fill="#ffffff" fill-rule="evenodd" fill-opacity="1"/>
<defs>
  <clipPath id="clip561">
    <rect x="640" y="320" width="2241" height="2241"/>
  </clipPath>
</defs>
<path clip-path="url(#clip560)" d="
M94.9921 3105.01 L3152.76 3105.01 L3152.76 47.2441 L94.9921 47.2441  Z
  " fill="#ffffff" fill-rule="evenodd" fill-opacity="1"/>
<defs>
  <clipPath id="clip562">
    <rect x="94" y="47" width="3059" height="3059"/>
  </clipPath>
</defs>
<polyline clip-path="url(#clip560)" style="stroke:#000000; stroke-width:4; stroke-opacity:1; fill:none" points="
  94.9921,3105.01 3152.76,3105.01 
  "/>
<polyline clip-path="url(#clip560)" style="stroke:#000000; stroke-width:4; stroke-opacity:1; fill:none" points="
  94.9921,3105.01 94.9921,47.2441 
  "/>
<polyline clip-path="url(#clip560)" style="stroke:#000000; stroke-width:4; stroke-opacity:1; fill:none" points="
  94.9921,47.2441 3152.76,47.2441 
  "/>
<polyline clip-path="url(#clip560)" style="stroke:#000000; stroke-width:4; stroke-opacity:1; fill:none" points="
  3152.76,3105.01 3152.76,47.2441 
  "/>
<circle clip-path="url(#clip562)" cx="2792.36" cy="278.73" r="216" fill="#ffff74" fill-rule="evenodd" fill-opacity="1" stroke="#000000" stroke-opacity="1" stroke-width="6.4"/>
<circle clip-path="url(#clip562)" cx="2392.13" cy="3018.47" r="216" fill="#ffff74" fill-rule="evenodd" fill-opacity="1" stroke="#000000" stroke-opacity="1" stroke-width="6.4"/>
<circle clip-path="url(#clip562)" cx="2028.82" cy="133.785" r="216" fill="#ffff74" fill-rule="evenodd" fill-opacity="1" stroke="#000000" stroke-opacity="1" stroke-width="6.4"/>
<circle clip-path="url(#clip562)" cx="3064.22" cy="1916.88" r="216" fill="#ff9bff" fill-rule="evenodd" fill-opacity="1" stroke="#000000" stroke-opacity="1" stroke-width="6.4"/>
<circle clip-path="url(#clip562)" cx="1985.7" cy="264.124" r="216" fill="#ff9bff" fill-rule="evenodd" fill-opacity="1" stroke="#000000" stroke-opacity="1" stroke-width="6.4"/>
<circle clip-path="url(#clip562)" cx="3066.22" cy="1870.47" r="216" fill="#ff9bff" fill-rule="evenodd" fill-opacity="1" stroke="#000000" stroke-opacity="1" stroke-width="6.4"/>
<circle clip-path="url(#clip562)" cx="573.18" cy="294.745" r="216" fill="#00d3ff" fill-rule="evenodd" fill-opacity="1" stroke="#000000" stroke-opacity="1" stroke-width="6.4"/>
<circle clip-path="url(#clip562)" cx="181.533" cy="2160.83" r="216" fill="#00d3ff" fill-rule="evenodd" fill-opacity="1" stroke="#000000" stroke-opacity="1" stroke-width="6.4"/>
<circle clip-path="url(#clip562)" cx="229.925" cy="2335.56" r="216" fill="#00d3ff" fill-rule="evenodd" fill-opacity="1" stroke="#000000" stroke-opacity="1" stroke-width="6.4"/>
<polyline clip-path="url(#clip562)" style="stroke:#0000ff; stroke-width:16; stroke-opacity:1; fill:none" points="
  2792.36,278.73 2392.13,3018.47 
  "/>
<polyline clip-path="url(#clip562)" style="stroke:#0000ff; stroke-width:16; stroke-opacity:1; fill:none" points="
  2792.36,278.73 2028.82,133.785 
  "/>
<polyline clip-path="url(#clip562)" style="stroke:#0000ff; stroke-width:16; stroke-opacity:1; fill:none" points="
  2392.13,3018.47 2028.82,133.785 
  "/>
<polyline clip-path="url(#clip562)" style="stroke:#0000ff; stroke-width:16; stroke-opacity:1; fill:none" points="
  2028.82,133.785 1985.7,264.124 
  "/>
<polyline clip-path="url(#clip562)" style="stroke:#0000ff; stroke-width:16; stroke-opacity:1; fill:none" points="
  2028.82,133.785 573.18,294.745 
  "/>
<polyline clip-path="url(#clip562)" style="stroke:#0000ff; stroke-width:16; stroke-opacity:1; fill:none" points="
  3064.22,1916.88 1985.7,264.124 
  "/>
<polyline clip-path="url(#clip562)" style="stroke:#0000ff; stroke-width:16; stroke-opacity:1; fill:none" points="
  3064.22,1916.88 3066.22,1870.47 
  "/>
<polyline clip-path="url(#clip562)" style="stroke:#0000ff; stroke-width:16; stroke-opacity:1; fill:none" points="
  1985.7,264.124 3066.22,1870.47 
  "/>
<polyline clip-path="url(#clip562)" style="stroke:#0000ff; stroke-width:16; stroke-opacity:1; fill:none" points="
  1985.7,264.124 573.18,294.745 
  "/>
<polyline clip-path="url(#clip562)" style="stroke:#0000ff; stroke-width:16; stroke-opacity:1; fill:none" points="
  573.18,294.745 181.533,2160.83 
  "/>
<polyline clip-path="url(#clip562)" style="stroke:#0000ff; stroke-width:16; stroke-opacity:1; fill:none" points="
  573.18,294.745 229.925,2335.56 
  "/>
<polyline clip-path="url(#clip562)" style="stroke:#0000ff; stroke-width:16; stroke-opacity:1; fill:none" points="
  181.533,2160.83 229.925,2335.56 
  "/>
<path clip-path="url(#clip560)" d="M 0 0 M2784.72 284.849 L2784.72 343.53 L2768.75 343.53 L2768.75 285.37 Q2768.75 271.568 2763.37 264.71 Q2757.99 257.853 2747.22 257.853 Q2734.29 257.853 2726.82 266.099 Q2719.36 274.346 2719.36 288.582 L2719.36 343.53 L2703.3 343.53 L2703.3 246.308 L2719.36 246.308 L2719.36 261.412 Q2725.09 252.645 2732.81 248.304 Q2740.62 243.964 2750.78 243.964 Q2767.53 243.964 2776.13 254.381 Q2784.72 264.71 2784.72 284.849 Z" fill="#000000" fill-rule="evenodd" fill-opacity="1" /><path clip-path="url(#clip560)" d="M 0 0 M2806.77 328.773 L2835.42 328.773 L2835.42 229.902 L2804.25 236.152 L2804.25 220.179 L2835.24 213.93 L2852.78 213.93 L2852.78 328.773 L2881.42 328.773 L2881.42 343.53 L2806.77 343.53 L2806.77 328.773 Z" fill="#000000" fill-rule="evenodd" fill-opacity="1" /><path clip-path="url(#clip560)" d="M 0 0 M2385.18 3024.59 L2385.18 3083.27 L2369.21 3083.27 L2369.21 3025.11 Q2369.21 3011.31 2363.83 3004.45 Q2358.45 2997.59 2347.68 2997.59 Q2334.75 2997.59 2327.28 3005.84 Q2319.82 3014.08 2319.82 3028.32 L2319.82 3083.27 L2303.76 3083.27 L2303.76 2986.05 L2319.82 2986.05 L2319.82 3001.15 Q2325.55 2992.38 2333.27 2988.04 Q2341.08 2983.7 2351.24 2983.7 Q2367.99 2983.7 2376.59 2994.12 Q2385.18 3004.45 2385.18 3024.59 Z" fill="#000000" fill-rule="evenodd" fill-opacity="1" /><path clip-path="url(#clip560)" d="M 0 0 M2419.3 3068.51 L2480.49 3068.51 L2480.49 3083.27 L2398.2 3083.27 L2398.2 3068.51 Q2408.18 3058.18 2425.37 3040.82 Q2442.65 3023.37 2447.07 3018.34 Q2455.49 3008.88 2458.79 3002.37 Q2462.18 2995.77 2462.18 2989.43 Q2462.18 2979.1 2454.89 2972.59 Q2447.68 2966.08 2436.05 2966.08 Q2427.8 2966.08 2418.6 2968.95 Q2409.49 2971.81 2399.07 2977.63 L2399.07 2959.92 Q2409.66 2955.66 2418.86 2953.49 Q2428.06 2951.32 2435.7 2951.32 Q2455.84 2951.32 2467.82 2961.39 Q2479.8 2971.46 2479.8 2988.3 Q2479.8 2996.29 2476.76 3003.49 Q2473.81 3010.61 2465.91 3020.33 Q2463.74 3022.85 2452.11 3034.92 Q2440.48 3046.9 2419.3 3068.51 Z" fill="#000000" fill-rule="evenodd" fill-opacity="1" /><path clip-path="url(#clip560)" d="M 0 0 M2020.1 139.904 L2020.1 198.585 L2004.12 198.585 L2004.12 140.425 Q2004.12 126.623 1998.74 119.766 Q1993.36 112.908 1982.6 112.908 Q1969.66 112.908 1962.2 121.154 Q1954.73 129.401 1954.73 143.637 L1954.73 198.585 L1938.67 198.585 L1938.67 101.363 L1954.73 101.363 L1954.73 116.467 Q1960.46 107.7 1968.19 103.359 Q1976 99.0191 1986.15 99.0191 Q2002.91 99.0191 2011.5 109.436 Q2020.1 119.766 2020.1 139.904 Z" fill="#000000" fill-rule="evenodd" fill-opacity="1" /><path clip-path="url(#clip560)" d="M 0 0 M2092.23 128.706 Q2104.82 131.397 2111.85 139.904 Q2118.97 148.411 2118.97 160.911 Q2118.97 180.095 2105.77 190.599 Q2092.58 201.102 2068.27 201.102 Q2060.11 201.102 2051.43 199.453 Q2042.84 197.89 2033.64 194.678 L2033.64 177.751 Q2040.93 182.005 2049.61 184.175 Q2058.29 186.345 2067.75 186.345 Q2084.24 186.345 2092.84 179.835 Q2101.52 173.324 2101.52 160.911 Q2101.52 149.453 2093.45 143.029 Q2085.46 136.519 2071.14 136.519 L2056.03 136.519 L2056.03 122.109 L2071.83 122.109 Q2084.77 122.109 2091.62 116.988 Q2098.48 111.779 2098.48 102.057 Q2098.48 92.0747 2091.36 86.7796 Q2084.33 81.3977 2071.14 81.3977 Q2063.93 81.3977 2055.69 82.9602 Q2047.44 84.5227 2037.54 87.8213 L2037.54 72.1964 Q2047.53 69.4186 2056.21 68.0297 Q2064.97 66.6408 2072.7 66.6408 Q2092.66 66.6408 2104.3 75.7554 Q2115.93 84.7831 2115.93 100.234 Q2115.93 110.998 2109.77 118.463 Q2103.6 125.842 2092.23 128.706 Z" fill="#000000" fill-rule="evenodd" fill-opacity="1" /><path clip-path="url(#clip560)" d="M 0 0 M3053.37 1923 L3053.37 1981.68 L3037.39 1981.68 L3037.39 1923.52 Q3037.39 1909.71 3032.01 1902.86 Q3026.63 1896 3015.87 1896 Q3002.93 1896 2995.47 1904.25 Q2988 1912.49 2988 1926.73 L2988 1981.68 L2971.94 1981.68 L2971.94 1884.45 L2988 1884.45 L2988 1899.56 Q2993.73 1890.79 3001.46 1886.45 Q3009.27 1882.11 3019.43 1882.11 Q3036.18 1882.11 3044.77 1892.53 Q3053.37 1902.86 3053.37 1923 Z" fill="#000000" fill-rule="evenodd" fill-opacity="1" /><path clip-path="url(#clip560)" d="M 0 0 M3120.55 1867.35 L3076.28 1936.54 L3120.55 1936.54 L3120.55 1867.35 M3115.95 1852.08 L3138 1852.08 L3138 1936.54 L3156.49 1936.54 L3156.49 1951.12 L3138 1951.12 L3138 1981.68 L3120.55 1981.68 L3120.55 1951.12 L3062.05 1951.12 L3062.05 1934.19 L3115.95 1852.08 Z" fill="#000000" fill-rule="evenodd" fill-opacity="1" /><path clip-path="url(#clip560)" d="M 0 0 M1977.63 270.244 L1977.63 328.924 L1961.65 328.924 L1961.65 270.764 Q1961.65 256.962 1956.27 250.105 Q1950.89 243.247 1940.13 243.247 Q1927.19 243.247 1919.73 251.494 Q1912.26 259.74 1912.26 273.976 L1912.26 328.924 L1896.2 328.924 L1896.2 231.702 L1912.26 231.702 L1912.26 246.806 Q1917.99 238.039 1925.72 233.699 Q1933.53 229.358 1943.68 229.358 Q1960.44 229.358 1969.03 239.775 Q1977.63 250.105 1977.63 270.244 Z" fill="#000000" fill-rule="evenodd" fill-opacity="1" /><path clip-path="url(#clip560)" d="M 0 0 M1996.81 199.324 L2065.65 199.324 L2065.65 214.081 L2012.87 214.081 L2012.87 245.851 Q2016.69 244.549 2020.51 243.942 Q2024.33 243.247 2028.15 243.247 Q2049.85 243.247 2062.52 255.139 Q2075.19 267.032 2075.19 287.344 Q2075.19 308.264 2062.17 319.896 Q2049.15 331.441 2025.45 331.441 Q2017.3 331.441 2008.79 330.052 Q2000.37 328.663 1991.34 325.886 L1991.34 308.264 Q1999.15 312.518 2007.49 314.601 Q2015.82 316.684 2025.11 316.684 Q2040.12 316.684 2048.89 308.785 Q2057.66 300.886 2057.66 287.344 Q2057.66 273.803 2048.89 265.903 Q2040.12 258.004 2025.11 258.004 Q2018.08 258.004 2011.05 259.567 Q2004.1 261.129 1996.81 264.428 L1996.81 199.324 Z" fill="#000000" fill-rule="evenodd" fill-opacity="1" /><path clip-path="url(#clip560)" d="M 0 0 M3055.97 1876.59 L3055.97 1935.27 L3040 1935.27 L3040 1877.11 Q3040 1863.31 3034.62 1856.45 Q3029.24 1849.6 3018.47 1849.6 Q3005.54 1849.6 2998.07 1857.84 Q2990.61 1866.09 2990.61 1880.32 L2990.61 1935.27 L2974.55 1935.27 L2974.55 1838.05 L2990.61 1838.05 L2990.61 1853.15 Q2996.34 1844.39 3004.06 1840.05 Q3011.88 1835.71 3022.03 1835.71 Q3038.79 1835.71 3047.38 1846.12 Q3055.97 1856.45 3055.97 1876.59 Z" fill="#000000" fill-rule="evenodd" fill-opacity="1" /><path clip-path="url(#clip560)" d="M 0 0 M3114.65 1863.48 Q3102.85 1863.48 3095.9 1871.56 Q3089.05 1879.63 3089.05 1893.69 Q3089.05 1907.67 3095.9 1915.83 Q3102.85 1923.9 3114.65 1923.9 Q3126.46 1923.9 3133.32 1915.83 Q3140.26 1907.67 3140.26 1893.69 Q3140.26 1879.63 3133.32 1871.56 Q3126.46 1863.48 3114.65 1863.48 M3149.46 1808.54 L3149.46 1824.51 Q3142.86 1821.38 3136.09 1819.73 Q3129.41 1818.09 3122.81 1818.09 Q3105.45 1818.09 3096.25 1829.8 Q3087.14 1841.52 3085.83 1865.22 Q3090.95 1857.67 3098.68 1853.68 Q3106.41 1849.6 3115.69 1849.6 Q3135.23 1849.6 3146.51 1861.49 Q3157.88 1873.29 3157.88 1893.69 Q3157.88 1913.66 3146.08 1925.72 Q3134.27 1937.79 3114.65 1937.79 Q3092.17 1937.79 3080.28 1920.6 Q3068.39 1903.33 3068.39 1870.6 Q3068.39 1839.87 3082.97 1821.64 Q3097.55 1803.33 3122.12 1803.33 Q3128.72 1803.33 3135.4 1804.63 Q3142.17 1805.93 3149.46 1808.54 Z" fill="#000000" fill-rule="evenodd" fill-opacity="1" /><path clip-path="url(#clip560)" d="M 0 0 M564.933 300.865 L564.933 359.545 L548.961 359.545 L548.961 301.386 Q548.961 287.584 543.579 280.726 Q538.197 273.869 527.434 273.869 Q514.5 273.869 507.034 282.115 Q499.569 290.362 499.569 304.598 L499.569 359.545 L483.51 359.545 L483.51 262.324 L499.569 262.324 L499.569 277.428 Q505.298 268.66 513.024 264.32 Q520.836 259.98 530.993 259.98 Q547.746 259.98 556.34 270.397 Q564.933 280.726 564.933 300.865 Z" fill="#000000" fill-rule="evenodd" fill-opacity="1" /><path clip-path="url(#clip560)" d="M 0 0 M579.517 229.945 L662.849 229.945 L662.849 237.411 L615.801 359.545 L597.485 359.545 L641.756 244.702 L579.517 244.702 L579.517 229.945 Z" fill="#000000" fill-rule="evenodd" fill-opacity="1" /><path clip-path="url(#clip560)" d="M 0 0 M171.767 2166.95 L171.767 2225.63 L155.795 2225.63 L155.795 2167.48 Q155.795 2153.67 150.413 2146.82 Q145.031 2139.96 134.267 2139.96 Q121.333 2139.96 113.868 2148.2 Q106.403 2156.45 106.403 2170.69 L106.403 2225.63 L90.3439 2225.63 L90.3439 2128.41 L106.403 2128.41 L106.403 2143.52 Q112.132 2134.75 119.858 2130.41 Q127.67 2126.07 137.826 2126.07 Q154.58 2126.07 163.173 2136.49 Q171.767 2146.82 171.767 2166.95 Z" fill="#000000" fill-rule="evenodd" fill-opacity="1" /><path clip-path="url(#clip560)" d="M 0 0 M228.277 2164.09 Q215.777 2164.09 208.572 2170.77 Q201.454 2177.46 201.454 2189.18 Q201.454 2200.9 208.572 2207.58 Q215.777 2214.26 228.277 2214.26 Q240.777 2214.26 247.982 2207.58 Q255.187 2200.81 255.187 2189.18 Q255.187 2177.46 247.982 2170.77 Q240.864 2164.09 228.277 2164.09 M210.743 2156.62 Q199.458 2153.85 193.121 2146.12 Q186.871 2138.4 186.871 2127.28 Q186.871 2111.75 197.895 2102.72 Q209.006 2093.69 228.277 2093.69 Q247.635 2093.69 258.659 2102.72 Q269.683 2111.75 269.683 2127.28 Q269.683 2138.4 263.346 2146.12 Q257.096 2153.85 245.899 2156.62 Q258.572 2159.58 265.603 2168.17 Q272.721 2176.76 272.721 2189.18 Q272.721 2208.01 261.176 2218.08 Q249.718 2228.15 228.277 2228.15 Q206.836 2228.15 195.291 2218.08 Q183.833 2208.01 183.833 2189.18 Q183.833 2176.76 190.951 2168.17 Q198.069 2159.58 210.743 2156.62 M204.319 2128.93 Q204.319 2139 210.569 2144.65 Q216.906 2150.29 228.277 2150.29 Q239.562 2150.29 245.899 2144.65 Q252.322 2139 252.322 2128.93 Q252.322 2118.86 245.899 2113.22 Q239.562 2107.58 228.277 2107.58 Q216.906 2107.58 210.569 2113.22 Q204.319 2118.86 204.319 2128.93 Z" fill="#000000" fill-rule="evenodd" fill-opacity="1" /><path clip-path="url(#clip560)" d="M 0 0 M220.333 2341.68 L220.333 2400.36 L204.361 2400.36 L204.361 2342.2 Q204.361 2328.4 198.979 2321.54 Q193.597 2314.68 182.833 2314.68 Q169.899 2314.68 162.434 2322.93 Q154.969 2331.17 154.969 2345.41 L154.969 2400.36 L138.91 2400.36 L138.91 2303.14 L154.969 2303.14 L154.969 2318.24 Q160.698 2309.47 168.424 2305.13 Q176.236 2300.79 186.392 2300.79 Q203.146 2300.79 211.739 2311.21 Q220.333 2321.54 220.333 2341.68 Z" fill="#000000" fill-rule="evenodd" fill-opacity="1" /><path clip-path="url(#clip560)" d="M 0 0 M239.864 2397.67 L239.864 2381.7 Q246.461 2384.82 253.232 2386.47 Q260.003 2388.12 266.513 2388.12 Q283.874 2388.12 292.989 2376.49 Q302.19 2364.77 303.492 2340.98 Q298.458 2348.45 290.732 2352.44 Q283.006 2356.43 273.631 2356.43 Q254.187 2356.43 242.815 2344.72 Q231.531 2332.91 231.531 2312.51 Q231.531 2292.55 243.336 2280.48 Q255.142 2268.41 274.76 2268.41 Q297.242 2268.41 309.048 2285.69 Q320.94 2302.88 320.94 2335.69 Q320.94 2366.33 306.357 2384.65 Q291.86 2402.88 267.295 2402.88 Q260.697 2402.88 253.927 2401.57 Q247.156 2400.27 239.864 2397.67 M274.76 2342.72 Q286.565 2342.72 293.423 2334.65 Q300.367 2326.57 300.367 2312.51 Q300.367 2298.54 293.423 2290.46 Q286.565 2282.3 274.76 2282.3 Q262.954 2282.3 256.01 2290.46 Q249.152 2298.54 249.152 2312.51 Q249.152 2326.57 256.01 2334.65 Q262.954 2342.72 274.76 2342.72 Z" fill="#000000" fill-rule="evenodd" fill-opacity="1" /></svg>
