<?xml version="1.0" encoding="utf-8"?>
<svg xmlns="http://www.w3.org/2000/svg" xmlns:xlink="http://www.w3.org/1999/xlink" width="800" height="800" viewBox="0 0 3200 3200">
<defs>
  <clipPath id="clip590">
    <rect x="0" y="0" width="3200" height="3200"/>
  </clipPath>
</defs>
<path clip-path="url(#clip590)" d="
M0 3200 L3200 3200 L3200 0 L0 0  Z
  " fill="#ffffff" fill-rule="evenodd" fill-opacity="1"/>
<defs>
  <clipPath id="clip591">
    <rect x="640" y="320" width="2241" height="2241"/>
  </clipPath>
</defs>
<path clip-path="url(#clip590)" d="
M373.343 2817.1 L3152.76 2817.1 L3152.76 47.2441 L373.343 47.2441  Z
  " fill="#ffffff" fill-rule="evenodd" fill-opacity="1"/>
<defs>
  <clipPath id="clip592">
    <rect x="373" y="47" width="2780" height="2771"/>
  </clipPath>
</defs>
<polyline clip-path="url(#clip590)" style="stroke:#000000; stroke-width:4; stroke-opacity:1; fill:none" points="
  373.343,2817.1 3152.76,2817.1 
  "/>
<polyline clip-path="url(#clip590)" style="stroke:#000000; stroke-width:4; stroke-opacity:1; fill:none" points="
  373.343,2817.1 373.343,47.2441 
  "/>
<polyline clip-path="url(#clip590)" style="stroke:#000000; stroke-width:4; stroke-opacity:1; fill:none" points="
  452.006,2817.1 452.006,2783.86 
  "/>
<polyline clip-path="url(#clip590)" style="stroke:#000000; stroke-width:4; stroke-opacity:1; fill:none" points="
  1180.36,2817.1 1180.36,2783.86 
  "/>
<polyline clip-path="url(#clip590)" style="stroke:#000000; stroke-width:4; stroke-opacity:1; fill:none" points="
  1908.72,2817.1 1908.72,2783.86 
  "/>
<polyline clip-path="url(#clip590)" style="stroke:#000000; stroke-width:4; stroke-opacity:1; fill:none" points="
  2637.08,2817.1 2637.08,2783.86 
  "/>
<polyline clip-path="url(#clip590)" style="stroke:#000000; stroke-width:4; stroke-opacity:1; fill:none" points="
  373.343,2738.71 406.696,2738.71 
  "/>
<polyline clip-path="url(#clip590)" style="stroke:#000000; stroke-width:4; stroke-opacity:1; fill:none" points="
  373.343,2135.69 406.696,2135.69 
  "/>
<polyline clip-path="url(#clip590)" style="stroke:#000000; stroke-width:4; stroke-opacity:1; fill:none" points="
  373.343,1532.67 406.696,1532.67 
  "/>
<polyline clip-path="url(#clip590)" style="stroke:#000000; stroke-width:4; stroke-opacity:1; fill:none" points="
  373.343,728.653 406.696,728.653 
  "/>
<polyline clip-path="url(#clip590)" style="stroke:#000000; stroke-width:4; stroke-opacity:1; fill:none" points="
  373.343,125.636 406.696,125.636 
  "/>
<path clip-path="url(#clip590)" d="M 0 0 M452.006 2855.58 Q443.881 2855.58 439.766 2863.6 Q435.704 2871.57 435.704 2887.61 Q435.704 2903.6 439.766 2911.62 Q443.881 2919.59 452.006 2919.59 Q460.183 2919.59 464.245 2911.62 Q468.36 2903.6 468.36 2887.61 Q468.36 2871.57 464.245 2863.6 Q460.183 2855.58 452.006 2855.58 M452.006 2847.25 Q465.078 2847.25 471.953 2857.61 Q478.88 2867.92 478.88 2887.61 Q478.88 2907.25 471.953 2917.61 Q465.078 2927.92 452.006 2927.92 Q438.933 2927.92 432.006 2917.61 Q425.131 2907.25 425.131 2887.61 Q425.131 2867.92 432.006 2857.61 Q438.933 2847.25 452.006 2847.25 Z" fill="#000000" fill-rule="evenodd" fill-opacity="1" /><path clip-path="url(#clip590)" d="M 0 0 M1158.49 2848.65 L1199.79 2848.65 L1199.79 2857.51 L1168.12 2857.51 L1168.12 2876.57 Q1170.42 2875.79 1172.71 2875.42 Q1175 2875.01 1177.29 2875.01 Q1190.31 2875.01 1197.92 2882.14 Q1205.52 2889.28 1205.52 2901.46 Q1205.52 2914.02 1197.71 2921 Q1189.89 2927.92 1175.68 2927.92 Q1170.78 2927.92 1165.68 2927.09 Q1160.62 2926.26 1155.21 2924.59 L1155.21 2914.02 Q1159.89 2916.57 1164.89 2917.82 Q1169.89 2919.07 1175.47 2919.07 Q1184.48 2919.07 1189.74 2914.33 Q1195 2909.59 1195 2901.46 Q1195 2893.34 1189.74 2888.6 Q1184.48 2883.86 1175.47 2883.86 Q1171.25 2883.86 1167.03 2884.8 Q1162.86 2885.73 1158.49 2887.71 L1158.49 2848.65 Z" fill="#000000" fill-rule="evenodd" fill-opacity="1" /><path clip-path="url(#clip590)" d="M 0 0 M1856.69 2917.56 L1873.88 2917.56 L1873.88 2858.24 L1855.18 2861.99 L1855.18 2852.4 L1873.77 2848.65 L1884.29 2848.65 L1884.29 2917.56 L1901.48 2917.56 L1901.48 2926.41 L1856.69 2926.41 L1856.69 2917.56 Z" fill="#000000" fill-rule="evenodd" fill-opacity="1" /><path clip-path="url(#clip590)" d="M 0 0 M1935.39 2855.58 Q1927.26 2855.58 1923.15 2863.6 Q1919.09 2871.57 1919.09 2887.61 Q1919.09 2903.6 1923.15 2911.62 Q1927.26 2919.59 1935.39 2919.59 Q1943.56 2919.59 1947.63 2911.62 Q1951.74 2903.6 1951.74 2887.61 Q1951.74 2871.57 1947.63 2863.6 Q1943.56 2855.58 1935.39 2855.58 M1935.39 2847.25 Q1948.46 2847.25 1955.34 2857.61 Q1962.26 2867.92 1962.26 2887.61 Q1962.26 2907.25 1955.34 2917.61 Q1948.46 2927.92 1935.39 2927.92 Q1922.31 2927.92 1915.39 2917.61 Q1908.51 2907.25 1908.51 2887.61 Q1908.51 2867.92 1915.39 2857.61 Q1922.31 2847.25 1935.39 2847.25 Z" fill="#000000" fill-rule="evenodd" fill-opacity="1" /><path clip-path="url(#clip590)" d="M 0 0 M2586.17 2917.56 L2603.35 2917.56 L2603.35 2858.24 L2584.66 2861.99 L2584.66 2852.4 L2603.25 2848.65 L2613.77 2848.65 L2613.77 2917.56 L2630.96 2917.56 L2630.96 2926.41 L2586.17 2926.41 L2586.17 2917.56 Z" fill="#000000" fill-rule="evenodd" fill-opacity="1" /><path clip-path="url(#clip590)" d="M 0 0 M2642.47 2848.65 L2683.77 2848.65 L2683.77 2857.51 L2652.1 2857.51 L2652.1 2876.57 Q2654.4 2875.79 2656.69 2875.42 Q2658.98 2875.01 2661.27 2875.01 Q2674.29 2875.01 2681.9 2882.14 Q2689.5 2889.28 2689.5 2901.46 Q2689.5 2914.02 2681.69 2921 Q2673.88 2927.92 2659.66 2927.92 Q2654.76 2927.92 2649.66 2927.09 Q2644.6 2926.26 2639.19 2924.59 L2639.19 2914.02 Q2643.88 2916.57 2648.88 2917.82 Q2653.88 2919.07 2659.45 2919.07 Q2668.46 2919.07 2673.72 2914.33 Q2678.98 2909.59 2678.98 2901.46 Q2678.98 2893.34 2673.72 2888.6 Q2668.46 2883.86 2659.45 2883.86 Q2655.23 2883.86 2651.01 2884.8 Q2646.84 2885.73 2642.47 2887.71 L2642.47 2848.65 Z" fill="#000000" fill-rule="evenodd" fill-opacity="1" /><path clip-path="url(#clip590)" d="M 0 0 M314.468 2706.75 Q306.343 2706.75 302.229 2714.78 Q298.166 2722.74 298.166 2738.79 Q298.166 2754.78 302.229 2762.8 Q306.343 2770.76 314.468 2770.76 Q322.645 2770.76 326.708 2762.8 Q330.822 2754.78 330.822 2738.79 Q330.822 2722.74 326.708 2714.78 Q322.645 2706.75 314.468 2706.75 M314.468 2698.42 Q327.541 2698.42 334.416 2708.79 Q341.343 2719.1 341.343 2738.79 Q341.343 2758.42 334.416 2768.79 Q327.541 2779.1 314.468 2779.1 Q301.395 2779.1 294.468 2768.79 Q287.593 2758.42 287.593 2738.79 Q287.593 2719.1 294.468 2708.79 Q301.395 2698.42 314.468 2698.42 Z" fill="#000000" fill-rule="evenodd" fill-opacity="1" /><path clip-path="url(#clip590)" d="M 0 0 M325.301 2132.64 Q332.853 2134.26 337.072 2139.36 Q341.343 2144.47 341.343 2151.97 Q341.343 2163.48 333.426 2169.78 Q325.51 2176.08 310.926 2176.08 Q306.031 2176.08 300.822 2175.09 Q295.666 2174.15 290.145 2172.23 L290.145 2162.07 Q294.52 2164.62 299.729 2165.93 Q304.937 2167.23 310.614 2167.23 Q320.51 2167.23 325.666 2163.32 Q330.874 2159.42 330.874 2151.97 Q330.874 2145.09 326.03 2141.24 Q321.239 2137.33 312.645 2137.33 L303.583 2137.33 L303.583 2128.69 L313.062 2128.69 Q320.822 2128.69 324.937 2125.61 Q329.051 2122.49 329.051 2116.65 Q329.051 2110.67 324.781 2107.49 Q320.562 2104.26 312.645 2104.26 Q308.322 2104.26 303.374 2105.2 Q298.426 2106.13 292.489 2108.11 L292.489 2098.74 Q298.479 2097.07 303.687 2096.24 Q308.947 2095.4 313.583 2095.4 Q325.562 2095.4 332.541 2100.87 Q339.52 2106.29 339.52 2115.56 Q339.52 2122.02 335.822 2126.5 Q332.124 2130.93 325.301 2132.64 Z" fill="#000000" fill-rule="evenodd" fill-opacity="1" /><path clip-path="url(#clip590)" d="M 0 0 M315.406 1528.48 Q308.322 1528.48 304.156 1533.33 Q300.041 1538.17 300.041 1546.61 Q300.041 1554.99 304.156 1559.89 Q308.322 1564.73 315.406 1564.73 Q322.489 1564.73 326.603 1559.89 Q330.77 1554.99 330.77 1546.61 Q330.77 1538.17 326.603 1533.33 Q322.489 1528.48 315.406 1528.48 M336.291 1495.51 L336.291 1505.1 Q332.333 1503.22 328.27 1502.23 Q324.26 1501.24 320.301 1501.24 Q309.885 1501.24 304.364 1508.27 Q298.895 1515.31 298.114 1529.52 Q301.187 1524.99 305.822 1522.6 Q310.458 1520.15 316.031 1520.15 Q327.749 1520.15 334.52 1527.28 Q341.343 1534.37 341.343 1546.61 Q341.343 1558.59 334.26 1565.83 Q327.176 1573.07 315.406 1573.07 Q301.916 1573.07 294.781 1562.75 Q287.645 1552.39 287.645 1532.75 Q287.645 1514.32 296.395 1503.38 Q305.145 1492.39 319.885 1492.39 Q323.843 1492.39 327.853 1493.17 Q331.916 1493.95 336.291 1495.51 Z" fill="#000000" fill-rule="evenodd" fill-opacity="1" /><path clip-path="url(#clip590)" d="M 0 0 M235.771 758.679 L252.958 758.679 L252.958 699.356 L234.26 703.106 L234.26 693.523 L252.854 689.773 L263.375 689.773 L263.375 758.679 L280.562 758.679 L280.562 767.533 L235.771 767.533 L235.771 758.679 Z" fill="#000000" fill-rule="evenodd" fill-opacity="1" /><path clip-path="url(#clip590)" d="M 0 0 M314.468 696.7 Q306.343 696.7 302.229 704.721 Q298.166 712.689 298.166 728.731 Q298.166 744.72 302.229 752.741 Q306.343 760.71 314.468 760.71 Q322.645 760.71 326.708 752.741 Q330.822 744.72 330.822 728.731 Q330.822 712.689 326.708 704.721 Q322.645 696.7 314.468 696.7 M314.468 688.366 Q327.541 688.366 334.416 698.731 Q341.343 709.043 341.343 728.731 Q341.343 748.366 334.416 758.731 Q327.541 769.043 314.468 769.043 Q301.395 769.043 294.468 758.731 Q287.593 748.366 287.593 728.731 Q287.593 709.043 294.468 698.731 Q301.395 688.366 314.468 688.366 Z" fill="#000000" fill-rule="evenodd" fill-opacity="1" /><path clip-path="url(#clip590)" d="M 0 0 M237.229 155.662 L254.416 155.662 L254.416 96.3395 L235.718 100.09 L235.718 90.5062 L254.312 86.7562 L264.833 86.7562 L264.833 155.662 L282.02 155.662 L282.02 164.516 L237.229 164.516 L237.229 155.662 Z" fill="#000000" fill-rule="evenodd" fill-opacity="1" /><path clip-path="url(#clip590)" d="M 0 0 M325.301 122.589 Q332.853 124.204 337.072 129.308 Q341.343 134.412 341.343 141.912 Q341.343 153.423 333.426 159.725 Q325.51 166.027 310.926 166.027 Q306.031 166.027 300.822 165.037 Q295.666 164.1 290.145 162.173 L290.145 152.016 Q294.52 154.568 299.729 155.87 Q304.937 157.173 310.614 157.173 Q320.51 157.173 325.666 153.266 Q330.874 149.36 330.874 141.912 Q330.874 135.037 326.03 131.183 Q321.239 127.277 312.645 127.277 L303.583 127.277 L303.583 118.631 L313.062 118.631 Q320.822 118.631 324.937 115.558 Q329.051 112.433 329.051 106.6 Q329.051 100.61 324.781 97.4333 Q320.562 94.2041 312.645 94.2041 Q308.322 94.2041 303.374 95.1416 Q298.426 96.0791 292.489 98.0583 L292.489 88.6833 Q298.479 87.0167 303.687 86.1833 Q308.947 85.35 313.583 85.35 Q325.562 85.35 332.541 90.8187 Q339.52 96.2354 339.52 105.506 Q339.52 111.964 335.822 116.444 Q332.124 120.871 325.301 122.589 Z" fill="#000000" fill-rule="evenodd" fill-opacity="1" /><polyline clip-path="url(#clip590)" style="stroke:#000000; stroke-width:4; stroke-opacity:1; fill:none" points="
  373.343,47.2441 3152.76,47.2441 
  "/>
<polyline clip-path="url(#clip590)" style="stroke:#000000; stroke-width:4; stroke-opacity:1; fill:none" points="
  3152.76,2817.1 3152.76,47.2441 
  "/>
<path clip-path="url(#clip590)" d="M 0 0 M1295.97 2986.48 L1314.86 2986.48 L1360.83 3073.21 L1360.83 2986.48 L1374.44 2986.48 L1374.44 3090.16 L1355.55 3090.16 L1309.58 3003.42 L1309.58 3090.16 L1295.97 3090.16 L1295.97 2986.48 Z" fill="#000000" fill-rule="evenodd" fill-opacity="1" /><path clip-path="url(#clip590)" d="M 0 0 M1417.98 3021.34 Q1407.7 3021.34 1401.73 3029.39 Q1395.76 3037.38 1395.76 3051.34 Q1395.76 3065.29 1401.66 3073.35 Q1407.63 3081.34 1417.98 3081.34 Q1428.19 3081.34 1434.16 3073.28 Q1440.13 3065.23 1440.13 3051.34 Q1440.13 3037.52 1434.16 3029.46 Q1428.19 3021.34 1417.98 3021.34 M1417.98 3010.5 Q1434.65 3010.5 1444.16 3021.34 Q1453.68 3032.17 1453.68 3051.34 Q1453.68 3070.43 1444.16 3081.34 Q1434.65 3092.17 1417.98 3092.17 Q1401.25 3092.17 1391.73 3081.34 Q1382.29 3070.43 1382.29 3051.34 Q1382.29 3032.17 1391.73 3021.34 Q1401.25 3010.5 1417.98 3010.5 Z" fill="#000000" fill-rule="evenodd" fill-opacity="1" /><path clip-path="url(#clip590)" d="M 0 0 M1518.26 3024.18 L1518.26 2982.1 L1531.04 2982.1 L1531.04 3090.16 L1518.26 3090.16 L1518.26 3078.49 Q1514.23 3085.43 1508.05 3088.84 Q1501.94 3092.17 1493.33 3092.17 Q1479.23 3092.17 1470.34 3080.92 Q1461.52 3069.67 1461.52 3051.34 Q1461.52 3033 1470.34 3021.75 Q1479.23 3010.5 1493.33 3010.5 Q1501.94 3010.5 1508.05 3013.91 Q1514.23 3017.24 1518.26 3024.18 M1474.72 3051.34 Q1474.72 3065.43 1480.48 3073.49 Q1486.31 3081.48 1496.45 3081.48 Q1506.59 3081.48 1512.43 3073.49 Q1518.26 3065.43 1518.26 3051.34 Q1518.26 3037.24 1512.43 3029.25 Q1506.59 3021.2 1496.45 3021.2 Q1486.31 3021.2 1480.48 3029.25 Q1474.72 3037.24 1474.72 3051.34 Z" fill="#000000" fill-rule="evenodd" fill-opacity="1" /><path clip-path="url(#clip590)" d="M 0 0 M1610.97 3048.07 L1610.97 3054.32 L1552.22 3054.32 Q1553.05 3067.52 1560.13 3074.46 Q1567.29 3081.34 1579.99 3081.34 Q1587.36 3081.34 1594.23 3079.53 Q1601.18 3077.73 1607.98 3074.11 L1607.98 3086.2 Q1601.11 3089.11 1593.88 3090.64 Q1586.66 3092.17 1579.23 3092.17 Q1560.62 3092.17 1549.72 3081.34 Q1538.88 3070.5 1538.88 3052.03 Q1538.88 3032.93 1549.16 3021.75 Q1559.51 3010.5 1577.01 3010.5 Q1592.7 3010.5 1601.8 3020.64 Q1610.97 3030.71 1610.97 3048.07 M1598.19 3044.32 Q1598.05 3033.84 1592.29 3027.59 Q1586.59 3021.34 1577.15 3021.34 Q1566.45 3021.34 1559.99 3027.38 Q1553.61 3033.42 1552.63 3044.39 L1598.19 3044.32 Z" fill="#000000" fill-rule="evenodd" fill-opacity="1" /><path clip-path="url(#clip590)" d="M 0 0 M1696.87 3090.16 L1657.29 2986.48 L1671.94 2986.48 L1704.79 3073.77 L1737.7 2986.48 L1752.29 2986.48 L1712.77 3090.16 L1696.87 3090.16 Z" fill="#000000" fill-rule="evenodd" fill-opacity="1" /><path clip-path="url(#clip590)" d="M 0 0 M1789.99 3051.06 Q1774.51 3051.06 1768.54 3054.6 Q1762.56 3058.14 1762.56 3066.68 Q1762.56 3073.49 1767.01 3077.52 Q1771.52 3081.48 1779.23 3081.48 Q1789.85 3081.48 1796.24 3073.98 Q1802.7 3066.41 1802.7 3053.91 L1802.7 3051.06 L1789.99 3051.06 M1815.48 3045.78 L1815.48 3090.16 L1802.7 3090.16 L1802.7 3078.35 Q1798.33 3085.43 1791.8 3088.84 Q1785.27 3092.17 1775.83 3092.17 Q1763.88 3092.17 1756.8 3085.5 Q1749.79 3078.77 1749.79 3067.52 Q1749.79 3054.39 1758.54 3047.73 Q1767.35 3041.06 1784.79 3041.06 L1802.7 3041.06 L1802.7 3039.81 Q1802.7 3030.99 1796.87 3026.2 Q1791.1 3021.34 1780.62 3021.34 Q1773.95 3021.34 1767.63 3022.93 Q1761.31 3024.53 1755.48 3027.73 L1755.48 3015.92 Q1762.49 3013.21 1769.09 3011.89 Q1775.69 3010.5 1781.94 3010.5 Q1798.81 3010.5 1807.15 3019.25 Q1815.48 3028 1815.48 3045.78 Z" fill="#000000" fill-rule="evenodd" fill-opacity="1" /><path clip-path="url(#clip590)" d="M 0 0 M1873.95 3024.32 Q1871.8 3023.07 1869.23 3022.52 Q1866.73 3021.89 1863.67 3021.89 Q1852.84 3021.89 1847.01 3028.98 Q1841.24 3035.99 1841.24 3049.18 L1841.24 3090.16 L1828.4 3090.16 L1828.4 3012.38 L1841.24 3012.38 L1841.24 3024.46 Q1845.27 3017.38 1851.73 3013.98 Q1858.19 3010.5 1867.42 3010.5 Q1868.74 3010.5 1870.34 3010.71 Q1871.94 3010.85 1873.88 3011.2 L1873.95 3024.32 Z" fill="#000000" fill-rule="evenodd" fill-opacity="1" /><path clip-path="url(#clip590)" d="M 0 0 M1887.35 3012.38 L1900.13 3012.38 L1900.13 3090.16 L1887.35 3090.16 L1887.35 3012.38 M1887.35 2982.1 L1900.13 2982.1 L1900.13 2998.28 L1887.35 2998.28 L1887.35 2982.1 Z" fill="#000000" fill-rule="evenodd" fill-opacity="1" /><path clip-path="url(#clip590)" d="M 0 0 M1948.88 3051.06 Q1933.4 3051.06 1927.42 3054.6 Q1921.45 3058.14 1921.45 3066.68 Q1921.45 3073.49 1925.9 3077.52 Q1930.41 3081.48 1938.12 3081.48 Q1948.74 3081.48 1955.13 3073.98 Q1961.59 3066.41 1961.59 3053.91 L1961.59 3051.06 L1948.88 3051.06 M1974.37 3045.78 L1974.37 3090.16 L1961.59 3090.16 L1961.59 3078.35 Q1957.22 3085.43 1950.69 3088.84 Q1944.16 3092.17 1934.72 3092.17 Q1922.77 3092.17 1915.69 3085.5 Q1908.67 3078.77 1908.67 3067.52 Q1908.67 3054.39 1917.42 3047.73 Q1926.24 3041.06 1943.67 3041.06 L1961.59 3041.06 L1961.59 3039.81 Q1961.59 3030.99 1955.76 3026.2 Q1949.99 3021.34 1939.51 3021.34 Q1932.84 3021.34 1926.52 3022.93 Q1920.2 3024.53 1914.37 3027.73 L1914.37 3015.92 Q1921.38 3013.21 1927.98 3011.89 Q1934.58 3010.5 1940.83 3010.5 Q1957.7 3010.5 1966.03 3019.25 Q1974.37 3028 1974.37 3045.78 Z" fill="#000000" fill-rule="evenodd" fill-opacity="1" /><path clip-path="url(#clip590)" d="M 0 0 M2043.6 3051.34 Q2043.6 3037.24 2037.77 3029.25 Q2032.01 3021.2 2021.87 3021.2 Q2011.73 3021.2 2005.9 3029.25 Q2000.13 3037.24 2000.13 3051.34 Q2000.13 3065.43 2005.9 3073.49 Q2011.73 3081.48 2021.87 3081.48 Q2032.01 3081.48 2037.77 3073.49 Q2043.6 3065.43 2043.6 3051.34 M2000.13 3024.18 Q2004.16 3017.24 2010.27 3013.91 Q2016.45 3010.5 2024.99 3010.5 Q2039.16 3010.5 2047.98 3021.75 Q2056.87 3033 2056.87 3051.34 Q2056.87 3069.67 2047.98 3080.92 Q2039.16 3092.17 2024.99 3092.17 Q2016.45 3092.17 2010.27 3088.84 Q2004.16 3085.43 2000.13 3078.49 L2000.13 3090.16 L1987.28 3090.16 L1987.28 2982.1 L2000.13 2982.1 L2000.13 3024.18 Z" fill="#000000" fill-rule="evenodd" fill-opacity="1" /><path clip-path="url(#clip590)" d="M 0 0 M2070.27 2982.1 L2083.05 2982.1 L2083.05 3090.16 L2070.27 3090.16 L2070.27 2982.1 Z" fill="#000000" fill-rule="evenodd" fill-opacity="1" /><path clip-path="url(#clip590)" d="M 0 0 M2162.98 3048.07 L2162.98 3054.32 L2104.23 3054.32 Q2105.06 3067.52 2112.14 3074.46 Q2119.3 3081.34 2132.01 3081.34 Q2139.37 3081.34 2146.24 3079.53 Q2153.19 3077.73 2159.99 3074.11 L2159.99 3086.2 Q2153.12 3089.11 2145.89 3090.64 Q2138.67 3092.17 2131.24 3092.17 Q2112.63 3092.17 2101.73 3081.34 Q2090.89 3070.5 2090.89 3052.03 Q2090.89 3032.93 2101.17 3021.75 Q2111.52 3010.5 2129.02 3010.5 Q2144.71 3010.5 2153.81 3020.64 Q2162.98 3030.71 2162.98 3048.07 M2150.2 3044.32 Q2150.06 3033.84 2144.3 3027.59 Q2138.6 3021.34 2129.16 3021.34 Q2118.46 3021.34 2112.01 3027.38 Q2105.62 3033.42 2104.64 3044.39 L2150.2 3044.32 Z" fill="#000000" fill-rule="evenodd" fill-opacity="1" /><path clip-path="url(#clip590)" d="M 0 0 M2225.96 3014.67 L2225.96 3026.75 Q2220.55 3023.98 2214.71 3022.59 Q2208.88 3021.2 2202.63 3021.2 Q2193.12 3021.2 2188.32 3024.11 Q2183.6 3027.03 2183.6 3032.86 Q2183.6 3037.31 2187.01 3039.88 Q2190.41 3042.38 2200.69 3044.67 L2205.06 3045.64 Q2218.67 3048.56 2224.37 3053.91 Q2230.13 3059.18 2230.13 3068.7 Q2230.13 3079.53 2221.52 3085.85 Q2212.98 3092.17 2197.98 3092.17 Q2191.73 3092.17 2184.92 3090.92 Q2178.19 3089.74 2170.69 3087.31 L2170.69 3074.11 Q2177.77 3077.79 2184.64 3079.67 Q2191.52 3081.48 2198.26 3081.48 Q2207.28 3081.48 2212.14 3078.42 Q2217.01 3075.29 2217.01 3069.67 Q2217.01 3064.46 2213.46 3061.68 Q2209.99 3058.91 2198.12 3056.34 L2193.67 3055.29 Q2181.8 3052.79 2176.52 3047.66 Q2171.24 3042.45 2171.24 3033.42 Q2171.24 3022.45 2179.02 3016.48 Q2186.8 3010.5 2201.1 3010.5 Q2208.19 3010.5 2214.44 3011.55 Q2220.69 3012.59 2225.96 3014.67 Z" fill="#000000" fill-rule="evenodd" fill-opacity="1" /><path clip-path="url(#clip590)" d="M 0 0 M75.4622 1707 L90.2538 1707 Q83.6566 1714.08 80.3928 1722.14 Q77.1289 1730.12 77.1289 1739.15 Q77.1289 1756.93 88.0316 1766.37 Q98.8649 1775.82 119.42 1775.82 Q139.906 1775.82 150.809 1766.37 Q161.642 1756.93 161.642 1739.15 Q161.642 1730.12 158.378 1722.14 Q155.115 1714.08 148.517 1707 L163.17 1707 Q168.17 1714.36 170.67 1722.62 Q173.17 1730.82 173.17 1739.98 Q173.17 1763.52 158.795 1777.07 Q144.351 1790.61 119.42 1790.61 Q94.4205 1790.61 80.0455 1777.07 Q65.6012 1763.52 65.6012 1739.98 Q65.6012 1730.68 68.1012 1722.48 Q70.5317 1714.22 75.4622 1707 Z" fill="#000000" fill-rule="evenodd" fill-opacity="1" /><path clip-path="url(#clip590)" d="M 0 0 M102.337 1663.46 Q102.337 1673.73 110.393 1679.71 Q118.379 1685.68 132.337 1685.68 Q146.295 1685.68 154.351 1679.77 Q162.337 1673.8 162.337 1663.46 Q162.337 1653.25 154.281 1647.27 Q146.226 1641.3 132.337 1641.3 Q118.518 1641.3 110.462 1647.27 Q102.337 1653.25 102.337 1663.46 M91.5038 1663.46 Q91.5038 1646.79 102.337 1637.28 Q113.17 1627.76 132.337 1627.76 Q151.434 1627.76 162.337 1637.28 Q173.17 1646.79 173.17 1663.46 Q173.17 1680.19 162.337 1689.71 Q151.434 1699.15 132.337 1699.15 Q113.17 1699.15 102.337 1689.71 Q91.5038 1680.19 91.5038 1663.46 Z" fill="#000000" fill-rule="evenodd" fill-opacity="1" /><path clip-path="url(#clip590)" d="M 0 0 M124.212 1549.71 L171.156 1549.71 L171.156 1562.48 L124.629 1562.48 Q113.587 1562.48 108.101 1566.79 Q102.615 1571.09 102.615 1579.71 Q102.615 1590.05 109.212 1596.03 Q115.809 1602 127.198 1602 L171.156 1602 L171.156 1614.84 L93.3788 1614.84 L93.3788 1602 L105.462 1602 Q98.4482 1597.41 94.976 1591.23 Q91.5038 1584.98 91.5038 1576.86 Q91.5038 1563.46 99.8371 1556.58 Q108.101 1549.71 124.212 1549.71 Z" fill="#000000" fill-rule="evenodd" fill-opacity="1" /><path clip-path="url(#clip590)" d="M 0 0 M95.6705 1486.72 L107.754 1486.72 Q104.976 1492.14 103.587 1497.97 Q102.198 1503.8 102.198 1510.05 Q102.198 1519.57 105.115 1524.36 Q108.031 1529.08 113.865 1529.08 Q118.309 1529.08 120.879 1525.68 Q123.379 1522.28 125.67 1512 L126.643 1507.62 Q129.559 1494.01 134.906 1488.32 Q140.184 1482.55 149.698 1482.55 Q160.531 1482.55 166.851 1491.16 Q173.17 1499.71 173.17 1514.71 Q173.17 1520.96 171.92 1527.76 Q170.739 1534.5 168.309 1542 L155.115 1542 Q158.795 1534.91 160.67 1528.04 Q162.476 1521.16 162.476 1514.43 Q162.476 1505.4 159.42 1500.54 Q156.295 1495.68 150.67 1495.68 Q145.462 1495.68 142.684 1499.22 Q139.906 1502.69 137.337 1514.57 L136.295 1519.01 Q133.795 1530.89 128.656 1536.16 Q123.448 1541.44 114.42 1541.44 Q103.448 1541.44 97.476 1533.66 Q91.5038 1525.89 91.5038 1511.58 Q91.5038 1504.5 92.5455 1498.25 Q93.5871 1492 95.6705 1486.72 Z" fill="#000000" fill-rule="evenodd" fill-opacity="1" /><path clip-path="url(#clip590)" d="M 0 0 M71.2956 1456.51 L93.3788 1456.51 L93.3788 1430.19 L103.309 1430.19 L103.309 1456.51 L145.531 1456.51 Q155.045 1456.51 157.753 1453.94 Q160.462 1451.3 160.462 1443.32 L160.462 1430.19 L171.156 1430.19 L171.156 1443.32 Q171.156 1458.11 165.67 1463.73 Q160.115 1469.36 145.531 1469.36 L103.309 1469.36 L103.309 1478.73 L93.3788 1478.73 L93.3788 1469.36 L71.2956 1469.36 L71.2956 1456.51 Z" fill="#000000" fill-rule="evenodd" fill-opacity="1" /><path clip-path="url(#clip590)" d="M 0 0 M105.323 1371.72 Q104.073 1373.87 103.518 1376.44 Q102.893 1378.94 102.893 1382 Q102.893 1392.83 109.976 1398.67 Q116.99 1404.43 130.184 1404.43 L171.156 1404.43 L171.156 1417.28 L93.3788 1417.28 L93.3788 1404.43 L105.462 1404.43 Q98.3788 1400.4 94.976 1393.94 Q91.5038 1387.48 91.5038 1378.25 Q91.5038 1376.93 91.7121 1375.33 Q91.851 1373.73 92.1982 1371.79 L105.323 1371.72 Z" fill="#000000" fill-rule="evenodd" fill-opacity="1" /><path clip-path="url(#clip590)" d="M 0 0 M132.059 1322.97 Q132.059 1338.46 135.601 1344.43 Q139.142 1350.4 147.684 1350.4 Q154.49 1350.4 158.517 1345.96 Q162.476 1341.44 162.476 1333.73 Q162.476 1323.11 154.976 1316.72 Q147.406 1310.26 134.906 1310.26 L132.059 1310.26 L132.059 1322.97 M126.781 1297.49 L171.156 1297.49 L171.156 1310.26 L159.351 1310.26 Q166.434 1314.64 169.837 1321.17 Q173.17 1327.69 173.17 1337.14 Q173.17 1349.08 166.503 1356.17 Q159.767 1363.18 148.517 1363.18 Q135.392 1363.18 128.726 1354.43 Q122.059 1345.61 122.059 1328.18 L122.059 1310.26 L120.809 1310.26 Q111.99 1310.26 107.198 1316.1 Q102.337 1321.86 102.337 1332.35 Q102.337 1339.01 103.934 1345.33 Q105.532 1351.65 108.726 1357.48 L96.9204 1357.48 Q94.2121 1350.47 92.8927 1343.87 Q91.5038 1337.28 91.5038 1331.03 Q91.5038 1314.15 100.254 1305.82 Q109.004 1297.49 126.781 1297.49 Z" fill="#000000" fill-rule="evenodd" fill-opacity="1" /><path clip-path="url(#clip590)" d="M 0 0 M93.3788 1284.08 L93.3788 1271.3 L171.156 1271.3 L171.156 1284.08 L93.3788 1284.08 M63.1012 1284.08 L63.1012 1271.3 L79.2816 1271.3 L79.2816 1284.08 L63.1012 1284.08 Z" fill="#000000" fill-rule="evenodd" fill-opacity="1" /><path clip-path="url(#clip590)" d="M 0 0 M124.212 1193.25 L171.156 1193.25 L171.156 1206.03 L124.629 1206.03 Q113.587 1206.03 108.101 1210.33 Q102.615 1214.64 102.615 1223.25 Q102.615 1233.6 109.212 1239.57 Q115.809 1245.54 127.198 1245.54 L171.156 1245.54 L171.156 1258.39 L93.3788 1258.39 L93.3788 1245.54 L105.462 1245.54 Q98.4482 1240.96 94.976 1234.78 Q91.5038 1228.53 91.5038 1220.4 Q91.5038 1207 99.8371 1200.12 Q108.101 1193.25 124.212 1193.25 Z" fill="#000000" fill-rule="evenodd" fill-opacity="1" /><path clip-path="url(#clip590)" d="M 0 0 M71.2956 1167.21 L93.3788 1167.21 L93.3788 1140.89 L103.309 1140.89 L103.309 1167.21 L145.531 1167.21 Q155.045 1167.21 157.753 1164.64 Q160.462 1162 160.462 1154.01 L160.462 1140.89 L171.156 1140.89 L171.156 1154.01 Q171.156 1168.81 165.67 1174.43 Q160.115 1180.06 145.531 1180.06 L103.309 1180.06 L103.309 1189.43 L93.3788 1189.43 L93.3788 1180.06 L71.2956 1180.06 L71.2956 1167.21 Z" fill="#000000" fill-rule="evenodd" fill-opacity="1" /><path clip-path="url(#clip590)" d="M 0 0 M95.6705 1077.9 L107.754 1077.9 Q104.976 1083.32 103.587 1089.15 Q102.198 1094.99 102.198 1101.24 Q102.198 1110.75 105.115 1115.54 Q108.031 1120.26 113.865 1120.26 Q118.309 1120.26 120.879 1116.86 Q123.379 1113.46 125.67 1103.18 L126.643 1098.81 Q129.559 1085.19 134.906 1079.5 Q140.184 1073.74 149.698 1073.74 Q160.531 1073.74 166.851 1082.35 Q173.17 1090.89 173.17 1105.89 Q173.17 1112.14 171.92 1118.94 Q170.739 1125.68 168.309 1133.18 L155.115 1133.18 Q158.795 1126.1 160.67 1119.22 Q162.476 1112.35 162.476 1105.61 Q162.476 1096.58 159.42 1091.72 Q156.295 1086.86 150.67 1086.86 Q145.462 1086.86 142.684 1090.4 Q139.906 1093.88 137.337 1105.75 L136.295 1110.19 Q133.795 1122.07 128.656 1127.35 Q123.448 1132.62 114.42 1132.62 Q103.448 1132.62 97.476 1124.85 Q91.5038 1117.07 91.5038 1102.76 Q91.5038 1095.68 92.5455 1089.43 Q93.5871 1083.18 95.6705 1077.9 Z" fill="#000000" fill-rule="evenodd" fill-opacity="1" /><path clip-path="url(#clip592)" d="M1043.53 162.139 L1043.53 290.139 L1171.53 290.139 L1171.53 162.139 L1043.53 162.139 Z" fill="#0000ff" fill-rule="evenodd" fill-opacity="1" stroke="#000000" stroke-opacity="1" stroke-width="6.4"/>
<path clip-path="url(#clip592)" d="M1626.21 162.139 L1626.21 290.139 L1754.21 290.139 L1754.21 162.139 L1626.21 162.139 Z" fill="#0000ff" fill-rule="evenodd" fill-opacity="1" stroke="#000000" stroke-opacity="1" stroke-width="6.4"/>
<path clip-path="url(#clip592)" d="M2208.9 162.139 L2208.9 290.139 L2336.9 290.139 L2336.9 162.139 L2208.9 162.139 Z" fill="#0000ff" fill-rule="evenodd" fill-opacity="1" stroke="#000000" stroke-opacity="1" stroke-width="6.4"/>
<path clip-path="url(#clip592)" d="M460.841 363.144 L460.841 491.144 L588.841 491.144 L588.841 363.144 L460.841 363.144 Z" fill="#0000ff" fill-rule="evenodd" fill-opacity="1" stroke="#000000" stroke-opacity="1" stroke-width="6.4"/>
<path clip-path="url(#clip592)" d="M752.184 363.144 L752.184 491.144 L880.184 491.144 L880.184 363.144 L752.184 363.144 Z" fill="#0000ff" fill-rule="evenodd" fill-opacity="1" stroke="#000000" stroke-opacity="1" stroke-width="6.4"/>
<path clip-path="url(#clip592)" d="M1043.53 363.144 L1043.53 491.144 L1171.53 491.144 L1171.53 363.144 L1043.53 363.144 Z" fill="#0000ff" fill-rule="evenodd" fill-opacity="1" stroke="#000000" stroke-opacity="1" stroke-width="6.4"/>
<path clip-path="url(#clip592)" d="
M452.006 728.653 L743.349 728.653 L743.349 527.647 L452.006 527.647 L452.006 728.653  Z
  " fill="#ffff74" fill-rule="evenodd" fill-opacity="1"/>
<polyline clip-path="url(#clip592)" style="stroke:#000000; stroke-width:4; stroke-opacity:1; fill:none" points="
  452.006,728.653 743.349,728.653 743.349,527.647 452.006,527.647 452.006,728.653 
  "/>
<path clip-path="url(#clip592)" d="
M743.349 929.658 L1034.69 929.658 L1034.69 728.653 L743.349 728.653 L743.349 929.658  Z
  " fill="#ffff74" fill-rule="evenodd" fill-opacity="1"/>
<polyline clip-path="url(#clip592)" style="stroke:#000000; stroke-width:4; stroke-opacity:1; fill:none" points="
  743.349,929.658 1034.69,929.658 1034.69,728.653 743.349,728.653 743.349,929.658 
  "/>
<path clip-path="url(#clip592)" d="
M1034.69 1130.66 L1326.03 1130.66 L1326.03 929.658 L1034.69 929.658 L1034.69 1130.66  Z
  " fill="#ffff74" fill-rule="evenodd" fill-opacity="1"/>
<polyline clip-path="url(#clip592)" style="stroke:#000000; stroke-width:4; stroke-opacity:1; fill:none" points="
  1034.69,1130.66 1326.03,1130.66 1326.03,929.658 1034.69,929.658 1034.69,1130.66 
  "/>
<path clip-path="url(#clip592)" d="
M452.006 1130.66 L1326.03 1130.66 L1326.03 326.642 L452.006 326.642 L452.006 1130.66  Z
  " fill="#ffff74" fill-rule="evenodd" fill-opacity="0.1"/>
<polyline clip-path="url(#clip592)" style="stroke:#000000; stroke-width:4; stroke-opacity:0.1; fill:none" points="
  452.006,1130.66 1326.03,1130.66 1326.03,326.642 452.006,326.642 452.006,1130.66 
  "/>
<path clip-path="url(#clip592)" d="M1334.87 1167.17 L1334.87 1295.17 L1462.87 1295.17 L1462.87 1167.17 L1334.87 1167.17 Z" fill="#0000ff" fill-rule="evenodd" fill-opacity="1" stroke="#000000" stroke-opacity="1" stroke-width="6.4"/>
<path clip-path="url(#clip592)" d="M1626.21 1167.17 L1626.21 1295.17 L1754.21 1295.17 L1754.21 1167.17 L1626.21 1167.17 Z" fill="#0000ff" fill-rule="evenodd" fill-opacity="1" stroke="#000000" stroke-opacity="1" stroke-width="6.4"/>
<path clip-path="url(#clip592)" d="M1917.56 1167.17 L1917.56 1295.17 L2045.56 1295.17 L2045.56 1167.17 L1917.56 1167.17 Z" fill="#0000ff" fill-rule="evenodd" fill-opacity="1" stroke="#000000" stroke-opacity="1" stroke-width="6.4"/>
<path clip-path="url(#clip592)" d="
M1326.03 1532.67 L1617.38 1532.67 L1617.38 1331.67 L1326.03 1331.67 L1326.03 1532.67  Z
  " fill="#ff9bff" fill-rule="evenodd" fill-opacity="1"/>
<polyline clip-path="url(#clip592)" style="stroke:#000000; stroke-width:4; stroke-opacity:1; fill:none" points="
  1326.03,1532.67 1617.38,1532.67 1617.38,1331.67 1326.03,1331.67 1326.03,1532.67 
  "/>
<path clip-path="url(#clip592)" d="
M1617.38 1733.68 L1908.72 1733.68 L1908.72 1532.67 L1617.38 1532.67 L1617.38 1733.68  Z
  " fill="#ff9bff" fill-rule="evenodd" fill-opacity="1"/>
<polyline clip-path="url(#clip592)" style="stroke:#000000; stroke-width:4; stroke-opacity:1; fill:none" points="
  1617.38,1733.68 1908.72,1733.68 1908.72,1532.67 1617.38,1532.67 1617.38,1733.68 
  "/>
<path clip-path="url(#clip592)" d="
M1908.72 1934.69 L2200.06 1934.69 L2200.06 1733.68 L1908.72 1733.68 L1908.72 1934.69  Z
  " fill="#ff9bff" fill-rule="evenodd" fill-opacity="1"/>
<polyline clip-path="url(#clip592)" style="stroke:#000000; stroke-width:4; stroke-opacity:1; fill:none" points="
  1908.72,1934.69 2200.06,1934.69 2200.06,1733.68 1908.72,1733.68 1908.72,1934.69 
  "/>
<path clip-path="url(#clip592)" d="
M1326.03 1934.69 L2200.06 1934.69 L2200.06 1130.66 L1326.03 1130.66 L1326.03 1934.69  Z
  " fill="#ff9bff" fill-rule="evenodd" fill-opacity="0.1"/>
<polyline clip-path="url(#clip592)" style="stroke:#000000; stroke-width:4; stroke-opacity:0.1; fill:none" points="
  1326.03,1934.69 2200.06,1934.69 2200.06,1130.66 1326.03,1130.66 1326.03,1934.69 
  "/>
<path clip-path="url(#clip592)" d="M2208.9 1971.19 L2208.9 2099.19 L2336.9 2099.19 L2336.9 1971.19 L2208.9 1971.19 Z" fill="#0000ff" fill-rule="evenodd" fill-opacity="1" stroke="#000000" stroke-opacity="1" stroke-width="6.4"/>
<path clip-path="url(#clip592)" d="M2500.24 1971.19 L2500.24 2099.19 L2628.24 2099.19 L2628.24 1971.19 L2500.24 1971.19 Z" fill="#0000ff" fill-rule="evenodd" fill-opacity="1" stroke="#000000" stroke-opacity="1" stroke-width="6.4"/>
<path clip-path="url(#clip592)" d="M2791.59 1971.19 L2791.59 2099.19 L2919.59 2099.19 L2919.59 1971.19 L2791.59 1971.19 Z" fill="#0000ff" fill-rule="evenodd" fill-opacity="1" stroke="#000000" stroke-opacity="1" stroke-width="6.4"/>
<path clip-path="url(#clip592)" d="
M2200.06 2336.7 L2491.41 2336.7 L2491.41 2135.69 L2200.06 2135.69 L2200.06 2336.7  Z
  " fill="#00d3ff" fill-rule="evenodd" fill-opacity="1"/>
<polyline clip-path="url(#clip592)" style="stroke:#000000; stroke-width:4; stroke-opacity:1; fill:none" points="
  2200.06,2336.7 2491.41,2336.7 2491.41,2135.69 2200.06,2135.69 2200.06,2336.7 
  "/>
<path clip-path="url(#clip592)" d="
M2491.41 2537.7 L2782.75 2537.7 L2782.75 2336.7 L2491.41 2336.7 L2491.41 2537.7  Z
  " fill="#00d3ff" fill-rule="evenodd" fill-opacity="1"/>
<polyline clip-path="url(#clip592)" style="stroke:#000000; stroke-width:4; stroke-opacity:1; fill:none" points="
  2491.41,2537.7 2782.75,2537.7 2782.75,2336.7 2491.41,2336.7 2491.41,2537.7 
  "/>
<path clip-path="url(#clip592)" d="
M2782.75 2738.71 L3074.09 2738.71 L3074.09 2537.7 L2782.75 2537.7 L2782.75 2738.71  Z
  " fill="#00d3ff" fill-rule="evenodd" fill-opacity="1"/>
<polyline clip-path="url(#clip592)" style="stroke:#000000; stroke-width:4; stroke-opacity:1; fill:none" points="
  2782.75,2738.71 3074.09,2738.71 3074.09,2537.7 2782.75,2537.7 2782.75,2738.71 
  "/>
<path clip-path="url(#clip592)" d="
M2200.06 2738.71 L3074.09 2738.71 L3074.09 1934.69 L2200.06 1934.69 L2200.06 2738.71  Z
  " fill="#00d3ff" fill-rule="evenodd" fill-opacity="0.1"/>
<polyline clip-path="url(#clip592)" style="stroke:#000000; stroke-width:4; stroke-opacity:0.1; fill:none" points="
  2200.06,2738.71 3074.09,2738.71 3074.09,1934.69 2200.06,1934.69 2200.06,2738.71 
  "/>
<path clip-path="url(#clip590)" d="M 0 0 M591.566 633.046 L591.566 679.99 L578.788 679.99 L578.788 633.462 Q578.788 622.421 574.483 616.935 Q570.177 611.449 561.566 611.449 Q551.219 611.449 545.247 618.046 Q539.275 624.643 539.275 636.032 L539.275 679.99 L526.427 679.99 L526.427 602.213 L539.275 602.213 L539.275 614.296 Q543.858 607.282 550.038 603.81 Q556.288 600.338 564.413 600.338 Q577.816 600.338 584.691 608.671 Q591.566 616.935 591.566 633.046 Z" fill="#000000" fill-rule="evenodd" fill-opacity="1" /><path clip-path="url(#clip590)" d="M 0 0 M609.205 668.184 L632.121 668.184 L632.121 589.088 L607.191 594.088 L607.191 581.31 L631.982 576.31 L646.01 576.31 L646.01 668.184 L668.927 668.184 L668.927 679.99 L609.205 679.99 L609.205 668.184 Z" fill="#000000" fill-rule="evenodd" fill-opacity="1" /><path clip-path="url(#clip590)" d="M 0 0 M883.465 834.051 L883.465 880.995 L870.687 880.995 L870.687 834.468 Q870.687 823.426 866.381 817.94 Q862.076 812.454 853.465 812.454 Q843.118 812.454 837.145 819.051 Q831.173 825.649 831.173 837.037 L831.173 880.995 L818.326 880.995 L818.326 803.218 L831.173 803.218 L831.173 815.301 Q835.757 808.288 841.937 804.815 Q848.187 801.343 856.312 801.343 Q869.715 801.343 876.59 809.676 Q883.465 817.94 883.465 834.051 Z" fill="#000000" fill-rule="evenodd" fill-opacity="1" /><path clip-path="url(#clip590)" d="M 0 0 M910.756 869.19 L959.714 869.19 L959.714 880.995 L893.881 880.995 L893.881 869.19 Q901.867 860.926 915.617 847.037 Q929.437 833.079 932.978 829.051 Q939.714 821.482 942.353 816.274 Q945.062 810.996 945.062 805.926 Q945.062 797.663 939.228 792.454 Q933.464 787.246 924.159 787.246 Q917.562 787.246 910.201 789.538 Q902.909 791.829 894.576 796.482 L894.576 782.315 Q903.048 778.913 910.409 777.177 Q917.77 775.44 923.881 775.44 Q939.992 775.44 949.575 783.496 Q959.159 791.552 959.159 805.024 Q959.159 811.413 956.728 817.176 Q954.367 822.871 948.048 830.649 Q946.312 832.662 937.006 842.315 Q927.701 851.898 910.756 869.19 Z" fill="#000000" fill-rule="evenodd" fill-opacity="1" /><path clip-path="url(#clip590)" d="M 0 0 M1173.38 1035.06 L1173.38 1082 L1160.61 1082 L1160.61 1035.47 Q1160.61 1024.43 1156.3 1018.95 Q1152 1013.46 1143.38 1013.46 Q1133.04 1013.46 1127.06 1020.06 Q1121.09 1026.65 1121.09 1038.04 L1121.09 1082 L1108.25 1082 L1108.25 1004.22 L1121.09 1004.22 L1121.09 1016.31 Q1125.68 1009.29 1131.86 1005.82 Q1138.11 1002.35 1146.23 1002.35 Q1159.63 1002.35 1166.51 1010.68 Q1173.38 1018.95 1173.38 1035.06 Z" fill="#000000" fill-rule="evenodd" fill-opacity="1" /><path clip-path="url(#clip590)" d="M 0 0 M1231.09 1026.1 Q1241.16 1028.25 1246.79 1035.06 Q1252.48 1041.86 1252.48 1051.86 Q1252.48 1067.21 1241.93 1075.61 Q1231.37 1084.01 1211.93 1084.01 Q1205.4 1084.01 1198.45 1082.7 Q1191.58 1081.45 1184.22 1078.88 L1184.22 1065.33 Q1190.05 1068.74 1197 1070.47 Q1203.94 1072.21 1211.51 1072.21 Q1224.7 1072.21 1231.58 1067 Q1238.52 1061.79 1238.52 1051.86 Q1238.52 1042.7 1232.06 1037.56 Q1225.68 1032.35 1214.22 1032.35 L1202.13 1032.35 L1202.13 1020.82 L1214.77 1020.82 Q1225.12 1020.82 1230.61 1016.72 Q1236.09 1012.56 1236.09 1004.78 Q1236.09 996.793 1230.4 992.557 Q1224.77 988.251 1214.22 988.251 Q1208.45 988.251 1201.86 989.501 Q1195.26 990.751 1187.34 993.39 L1187.34 980.89 Q1195.33 978.668 1202.27 977.557 Q1209.29 976.446 1215.47 976.446 Q1231.44 976.446 1240.74 983.738 Q1250.05 990.96 1250.05 1003.32 Q1250.05 1011.93 1245.12 1017.9 Q1240.19 1023.81 1231.09 1026.1 Z" fill="#000000" fill-rule="evenodd" fill-opacity="1" /><path clip-path="url(#clip590)" d="M 0 0 M1463.03 1437.07 L1463.03 1484.01 L1450.25 1484.01 L1450.25 1437.48 Q1450.25 1426.44 1445.94 1420.96 Q1441.64 1415.47 1433.03 1415.47 Q1422.68 1415.47 1416.71 1422.07 Q1410.73 1428.67 1410.73 1440.05 L1410.73 1484.01 L1397.89 1484.01 L1397.89 1406.23 L1410.73 1406.23 L1410.73 1418.32 Q1415.32 1411.3 1421.5 1407.83 Q1427.75 1404.36 1435.87 1404.36 Q1449.28 1404.36 1456.15 1412.69 Q1463.03 1420.96 1463.03 1437.07 Z" fill="#000000" fill-rule="evenodd" fill-opacity="1" /><path clip-path="url(#clip590)" d="M 0 0 M1516.78 1392.55 L1481.36 1447.9 L1516.78 1447.9 L1516.78 1392.55 M1513.09 1380.33 L1530.73 1380.33 L1530.73 1447.9 L1545.53 1447.9 L1545.53 1459.57 L1530.73 1459.57 L1530.73 1484.01 L1516.78 1484.01 L1516.78 1459.57 L1469.97 1459.57 L1469.97 1446.03 L1513.09 1380.33 Z" fill="#000000" fill-rule="evenodd" fill-opacity="1" /><path clip-path="url(#clip590)" d="M 0 0 M1756.59 1638.07 L1756.59 1685.02 L1743.81 1685.02 L1743.81 1638.49 Q1743.81 1627.45 1739.51 1621.96 Q1735.2 1616.48 1726.59 1616.48 Q1716.24 1616.48 1710.27 1623.07 Q1704.3 1629.67 1704.3 1641.06 L1704.3 1685.02 L1691.45 1685.02 L1691.45 1607.24 L1704.3 1607.24 L1704.3 1619.32 Q1708.88 1612.31 1715.06 1608.84 Q1721.31 1605.37 1729.44 1605.37 Q1742.84 1605.37 1749.72 1613.7 Q1756.59 1621.96 1756.59 1638.07 Z" fill="#000000" fill-rule="evenodd" fill-opacity="1" /><path clip-path="url(#clip590)" d="M 0 0 M1771.94 1581.34 L1827.01 1581.34 L1827.01 1593.14 L1784.79 1593.14 L1784.79 1618.56 Q1787.84 1617.52 1790.9 1617.03 Q1793.95 1616.48 1797.01 1616.48 Q1814.37 1616.48 1824.51 1625.99 Q1834.65 1635.5 1834.65 1651.75 Q1834.65 1668.49 1824.23 1677.8 Q1813.81 1687.03 1794.85 1687.03 Q1788.33 1687.03 1781.52 1685.92 Q1774.79 1684.81 1767.56 1682.59 L1767.56 1668.49 Q1773.81 1671.89 1780.48 1673.56 Q1787.15 1675.23 1794.58 1675.23 Q1806.59 1675.23 1813.6 1668.91 Q1820.62 1662.59 1820.62 1651.75 Q1820.62 1640.92 1813.6 1634.6 Q1806.59 1628.28 1794.58 1628.28 Q1788.95 1628.28 1783.33 1629.53 Q1777.77 1630.78 1771.94 1633.42 L1771.94 1581.34 Z" fill="#000000" fill-rule="evenodd" fill-opacity="1" /><path clip-path="url(#clip590)" d="M 0 0 M2046.2 1839.08 L2046.2 1886.02 L2033.42 1886.02 L2033.42 1839.5 Q2033.42 1828.45 2029.11 1822.97 Q2024.81 1817.48 2016.2 1817.48 Q2005.85 1817.48 1999.88 1824.08 Q1993.91 1830.68 1993.91 1842.06 L1993.91 1886.02 L1981.06 1886.02 L1981.06 1808.25 L1993.91 1808.25 L1993.91 1820.33 Q1998.49 1813.32 2004.67 1809.84 Q2010.92 1806.37 2019.05 1806.37 Q2032.45 1806.37 2039.32 1814.7 Q2046.2 1822.97 2046.2 1839.08 Z" fill="#000000" fill-rule="evenodd" fill-opacity="1" /><path clip-path="url(#clip590)" d="M 0 0 M2093.14 1828.59 Q2083.7 1828.59 2078.14 1835.05 Q2072.66 1841.51 2072.66 1852.76 Q2072.66 1863.94 2078.14 1870.47 Q2083.7 1876.93 2093.14 1876.93 Q2102.59 1876.93 2108.07 1870.47 Q2113.63 1863.94 2113.63 1852.76 Q2113.63 1841.51 2108.07 1835.05 Q2102.59 1828.59 2093.14 1828.59 M2120.99 1784.63 L2120.99 1797.41 Q2115.71 1794.91 2110.29 1793.59 Q2104.95 1792.27 2099.67 1792.27 Q2085.78 1792.27 2078.42 1801.65 Q2071.13 1811.02 2070.09 1829.98 Q2074.18 1823.94 2080.36 1820.75 Q2086.55 1817.48 2093.98 1817.48 Q2109.6 1817.48 2118.63 1827 Q2127.73 1836.44 2127.73 1852.76 Q2127.73 1868.73 2118.28 1878.38 Q2108.84 1888.04 2093.14 1888.04 Q2075.16 1888.04 2065.64 1874.29 Q2056.13 1860.47 2056.13 1834.29 Q2056.13 1809.7 2067.8 1795.12 Q2079.46 1780.47 2099.11 1780.47 Q2104.39 1780.47 2109.74 1781.51 Q2115.16 1782.55 2120.99 1784.63 Z" fill="#000000" fill-rule="evenodd" fill-opacity="1" /><path clip-path="url(#clip590)" d="M 0 0 M2339.14 2241.09 L2339.14 2288.03 L2326.36 2288.03 L2326.36 2241.51 Q2326.36 2230.46 2322.06 2224.98 Q2317.75 2219.49 2309.14 2219.49 Q2298.79 2219.49 2292.82 2226.09 Q2286.85 2232.69 2286.85 2244.08 L2286.85 2288.03 L2274 2288.03 L2274 2210.26 L2286.85 2210.26 L2286.85 2222.34 Q2291.43 2215.33 2297.61 2211.85 Q2303.86 2208.38 2311.99 2208.38 Q2325.39 2208.38 2332.26 2216.71 Q2339.14 2224.98 2339.14 2241.09 Z" fill="#000000" fill-rule="evenodd" fill-opacity="1" /><path clip-path="url(#clip590)" d="M 0 0 M2350.8 2184.35 L2417.47 2184.35 L2417.47 2190.33 L2379.83 2288.03 L2365.18 2288.03 L2400.6 2196.16 L2350.8 2196.16 L2350.8 2184.35 Z" fill="#000000" fill-rule="evenodd" fill-opacity="1" /><path clip-path="url(#clip590)" d="M 0 0 M2629.27 2442.1 L2629.27 2489.04 L2616.49 2489.04 L2616.49 2442.51 Q2616.49 2431.47 2612.18 2425.98 Q2607.88 2420.5 2599.27 2420.5 Q2588.92 2420.5 2582.95 2427.1 Q2576.97 2433.69 2576.97 2445.08 L2576.97 2489.04 L2564.13 2489.04 L2564.13 2411.26 L2576.97 2411.26 L2576.97 2423.35 Q2581.56 2416.33 2587.74 2412.86 Q2593.99 2409.39 2602.11 2409.39 Q2615.52 2409.39 2622.39 2417.72 Q2629.27 2425.98 2629.27 2442.1 Z" fill="#000000" fill-rule="evenodd" fill-opacity="1" /><path clip-path="url(#clip590)" d="M 0 0 M2674.47 2439.8 Q2664.47 2439.8 2658.71 2445.15 Q2653.02 2450.5 2653.02 2459.87 Q2653.02 2469.25 2658.71 2474.6 Q2664.47 2479.94 2674.47 2479.94 Q2684.47 2479.94 2690.24 2474.6 Q2696 2469.18 2696 2459.87 Q2696 2450.5 2690.24 2445.15 Q2684.54 2439.8 2674.47 2439.8 M2660.45 2433.83 Q2651.42 2431.61 2646.35 2425.43 Q2641.35 2419.25 2641.35 2410.36 Q2641.35 2397.93 2650.17 2390.71 Q2659.06 2383.48 2674.47 2383.48 Q2689.96 2383.48 2698.78 2390.71 Q2707.6 2397.93 2707.6 2410.36 Q2707.6 2419.25 2702.53 2425.43 Q2697.53 2431.61 2688.57 2433.83 Q2698.71 2436.19 2704.34 2443.07 Q2710.03 2449.94 2710.03 2459.87 Q2710.03 2474.94 2700.79 2483 Q2691.63 2491.05 2674.47 2491.05 Q2657.32 2491.05 2648.09 2483 Q2638.92 2474.94 2638.92 2459.87 Q2638.92 2449.94 2644.61 2443.07 Q2650.31 2436.19 2660.45 2433.83 M2655.31 2411.68 Q2655.31 2419.73 2660.31 2424.25 Q2665.38 2428.76 2674.47 2428.76 Q2683.5 2428.76 2688.57 2424.25 Q2693.71 2419.73 2693.71 2411.68 Q2693.71 2403.62 2688.57 2399.11 Q2683.5 2394.6 2674.47 2394.6 Q2665.38 2394.6 2660.31 2399.11 Q2655.31 2403.62 2655.31 2411.68 Z" fill="#000000" fill-rule="evenodd" fill-opacity="1" /><path clip-path="url(#clip590)" d="M 0 0 M2920.75 2643.1 L2920.75 2690.04 L2907.97 2690.04 L2907.97 2643.52 Q2907.97 2632.48 2903.66 2626.99 Q2899.36 2621.5 2890.75 2621.5 Q2880.4 2621.5 2874.43 2628.1 Q2868.46 2634.7 2868.46 2646.09 L2868.46 2690.04 L2855.61 2690.04 L2855.61 2612.27 L2868.46 2612.27 L2868.46 2624.35 Q2873.04 2617.34 2879.22 2613.86 Q2885.47 2610.39 2893.6 2610.39 Q2907 2610.39 2913.87 2618.73 Q2920.75 2626.99 2920.75 2643.1 Z" fill="#000000" fill-rule="evenodd" fill-opacity="1" /><path clip-path="url(#clip590)" d="M 0 0 M2936.37 2687.89 L2936.37 2675.11 Q2941.65 2677.61 2947.07 2678.93 Q2952.48 2680.25 2957.69 2680.25 Q2971.58 2680.25 2978.87 2670.95 Q2986.23 2661.57 2987.28 2642.55 Q2983.25 2648.52 2977.07 2651.71 Q2970.89 2654.91 2963.39 2654.91 Q2947.83 2654.91 2938.73 2645.53 Q2929.71 2636.09 2929.71 2619.77 Q2929.71 2603.8 2939.15 2594.14 Q2948.6 2584.49 2964.29 2584.49 Q2982.28 2584.49 2991.72 2598.31 Q3001.23 2612.06 3001.23 2638.31 Q3001.23 2662.82 2989.57 2677.48 Q2977.97 2692.06 2958.32 2692.06 Q2953.04 2692.06 2947.62 2691.02 Q2942.21 2689.98 2936.37 2687.89 M2964.29 2643.93 Q2973.73 2643.93 2979.22 2637.48 Q2984.78 2631.02 2984.78 2619.77 Q2984.78 2608.59 2979.22 2602.13 Q2973.73 2595.6 2964.29 2595.6 Q2954.85 2595.6 2949.29 2602.13 Q2943.8 2608.59 2943.8 2619.77 Q2943.8 2631.02 2949.29 2637.48 Q2954.85 2643.93 2964.29 2643.93 Z" fill="#000000" fill-rule="evenodd" fill-opacity="1" /></svg>
