<?xml version="1.0" encoding="utf-8"?>
<svg xmlns="http://www.w3.org/2000/svg" xmlns:xlink="http://www.w3.org/1999/xlink" width="800" height="800" viewBox="0 0 3200 3200">
<defs>
  <clipPath id="clip830">
    <rect x="0" y="0" width="3200" height="3200"/>
  </clipPath>
</defs>
<path clip-path="url(#clip830)" d="
M0 3200 L3200 3200 L3200 0 L0 0  Z
  " fill="#ffffff" fill-rule="evenodd" fill-opacity="1"/>
<defs>
  <clipPath id="clip831">
    <rect x="640" y="320" width="2241" height="2241"/>
  </clipPath>
</defs>
<path clip-path="url(#clip830)" d="
M322.927 2817.1 L3152.76 2817.1 L3152.76 47.2441 L322.927 47.2441  Z
  " fill="#ffffff" fill-rule="evenodd" fill-opacity="1"/>
<defs>
  <clipPath id="clip832">
    <rect x="322" y="47" width="2831" height="2771"/>
  </clipPath>
</defs>
<polyline clip-path="url(#clip830)" style="stroke:#000000; stroke-width:4; stroke-opacity:1; fill:none" points="
  322.927,2817.1 3152.76,2817.1 
  "/>
<polyline clip-path="url(#clip830)" style="stroke:#000000; stroke-width:4; stroke-opacity:1; fill:none" points="
  322.927,2817.1 322.927,47.2441 
  "/>
<polyline clip-path="url(#clip830)" style="stroke:#000000; stroke-width:4; stroke-opacity:1; fill:none" points="
  403.016,2817.1 403.016,2783.86 
  "/>
<polyline clip-path="url(#clip830)" style="stroke:#000000; stroke-width:4; stroke-opacity:1; fill:none" points="
  847.958,2817.1 847.958,2783.86 
  "/>
<polyline clip-path="url(#clip830)" style="stroke:#000000; stroke-width:4; stroke-opacity:1; fill:none" points="
  1292.9,2817.1 1292.9,2783.86 
  "/>
<polyline clip-path="url(#clip830)" style="stroke:#000000; stroke-width:4; stroke-opacity:1; fill:none" points="
  1737.84,2817.1 1737.84,2783.86 
  "/>
<polyline clip-path="url(#clip830)" style="stroke:#000000; stroke-width:4; stroke-opacity:1; fill:none" points="
  2182.78,2817.1 2182.78,2783.86 
  "/>
<polyline clip-path="url(#clip830)" style="stroke:#000000; stroke-width:4; stroke-opacity:1; fill:none" points="
  2627.72,2817.1 2627.72,2783.86 
  "/>
<polyline clip-path="url(#clip830)" style="stroke:#000000; stroke-width:4; stroke-opacity:1; fill:none" points="
  3072.67,2817.1 3072.67,2783.86 
  "/>
<polyline clip-path="url(#clip830)" style="stroke:#000000; stroke-width:4; stroke-opacity:1; fill:none" points="
  322.927,2738.71 356.884,2738.71 
  "/>
<polyline clip-path="url(#clip830)" style="stroke:#000000; stroke-width:4; stroke-opacity:1; fill:none" points="
  322.927,2085.44 356.884,2085.44 
  "/>
<polyline clip-path="url(#clip830)" style="stroke:#000000; stroke-width:4; stroke-opacity:1; fill:none" points="
  322.927,1432.17 356.884,1432.17 
  "/>
<polyline clip-path="url(#clip830)" style="stroke:#000000; stroke-width:4; stroke-opacity:1; fill:none" points="
  322.927,778.904 356.884,778.904 
  "/>
<polyline clip-path="url(#clip830)" style="stroke:#000000; stroke-width:4; stroke-opacity:1; fill:none" points="
  322.927,125.636 356.884,125.636 
  "/>
<path clip-path="url(#clip830)" d="M 0 0 M403.016 2855.58 Q394.891 2855.58 390.777 2863.6 Q386.714 2871.57 386.714 2887.61 Q386.714 2903.6 390.777 2911.62 Q394.891 2919.59 403.016 2919.59 Q411.193 2919.59 415.256 2911.62 Q419.37 2903.6 419.37 2887.61 Q419.37 2871.57 415.256 2863.6 Q411.193 2855.58 403.016 2855.58 M403.016 2847.25 Q416.089 2847.25 422.964 2857.61 Q429.891 2867.92 429.891 2887.61 Q429.891 2907.25 422.964 2917.61 Q416.089 2927.92 403.016 2927.92 Q389.943 2927.92 383.016 2917.61 Q376.141 2907.25 376.141 2887.61 Q376.141 2867.92 383.016 2857.61 Q389.943 2847.25 403.016 2847.25 Z" fill="#000000" fill-rule="evenodd" fill-opacity="1" /><path clip-path="url(#clip830)" d="M 0 0 M826.317 2917.56 L843.505 2917.56 L843.505 2858.24 L824.807 2861.99 L824.807 2852.4 L843.4 2848.65 L853.921 2848.65 L853.921 2917.56 L871.109 2917.56 L871.109 2926.41 L826.317 2926.41 L826.317 2917.56 Z" fill="#000000" fill-rule="evenodd" fill-opacity="1" /><path clip-path="url(#clip830)" d="M 0 0 M1280.87 2917.56 L1317.59 2917.56 L1317.59 2926.41 L1268.21 2926.41 L1268.21 2917.56 Q1274.2 2911.36 1284.51 2900.94 Q1294.88 2890.47 1297.53 2887.45 Q1302.59 2881.78 1304.57 2877.87 Q1306.6 2873.91 1306.6 2870.11 Q1306.6 2863.91 1302.22 2860.01 Q1297.9 2856.1 1290.92 2856.1 Q1285.97 2856.1 1280.45 2857.82 Q1274.98 2859.54 1268.73 2863.03 L1268.73 2852.4 Q1275.09 2849.85 1280.61 2848.55 Q1286.13 2847.25 1290.71 2847.25 Q1302.8 2847.25 1309.98 2853.29 Q1317.17 2859.33 1317.17 2869.43 Q1317.17 2874.22 1315.35 2878.55 Q1313.58 2882.82 1308.84 2888.65 Q1307.53 2890.16 1300.56 2897.4 Q1293.58 2904.59 1280.87 2917.56 Z" fill="#000000" fill-rule="evenodd" fill-opacity="1" /><path clip-path="url(#clip830)" d="M 0 0 M1747.4 2884.48 Q1754.95 2886.1 1759.17 2891.2 Q1763.44 2896.31 1763.44 2903.81 Q1763.44 2915.32 1755.52 2921.62 Q1747.61 2927.92 1733.02 2927.92 Q1728.13 2927.92 1722.92 2926.93 Q1717.76 2926 1712.24 2924.07 L1712.24 2913.91 Q1716.62 2916.46 1721.83 2917.77 Q1727.03 2919.07 1732.71 2919.07 Q1742.61 2919.07 1747.76 2915.16 Q1752.97 2911.26 1752.97 2903.81 Q1752.97 2896.93 1748.13 2893.08 Q1743.34 2889.17 1734.74 2889.17 L1725.68 2889.17 L1725.68 2880.53 L1735.16 2880.53 Q1742.92 2880.53 1747.03 2877.45 Q1751.15 2874.33 1751.15 2868.5 Q1751.15 2862.51 1746.88 2859.33 Q1742.66 2856.1 1734.74 2856.1 Q1730.42 2856.1 1725.47 2857.04 Q1720.52 2857.97 1714.59 2859.95 L1714.59 2850.58 Q1720.58 2848.91 1725.78 2848.08 Q1731.04 2847.25 1735.68 2847.25 Q1747.66 2847.25 1754.64 2852.71 Q1761.62 2858.13 1761.62 2867.4 Q1761.62 2873.86 1757.92 2878.34 Q1754.22 2882.77 1747.4 2884.48 Z" fill="#000000" fill-rule="evenodd" fill-opacity="1" /><path clip-path="url(#clip830)" d="M 0 0 M2189.55 2857.82 L2162.99 2899.33 L2189.55 2899.33 L2189.55 2857.82 M2186.79 2848.65 L2200.02 2848.65 L2200.02 2899.33 L2211.12 2899.33 L2211.12 2908.08 L2200.02 2908.08 L2200.02 2926.41 L2189.55 2926.41 L2189.55 2908.08 L2154.45 2908.08 L2154.45 2897.92 L2186.79 2848.65 Z" fill="#000000" fill-rule="evenodd" fill-opacity="1" /><path clip-path="url(#clip830)" d="M 0 0 M2605.85 2848.65 L2647.15 2848.65 L2647.15 2857.51 L2615.49 2857.51 L2615.49 2876.57 Q2617.78 2875.79 2620.07 2875.42 Q2622.36 2875.01 2624.65 2875.01 Q2637.67 2875.01 2645.28 2882.14 Q2652.88 2889.28 2652.88 2901.46 Q2652.88 2914.02 2645.07 2921 Q2637.26 2927.92 2623.04 2927.92 Q2618.14 2927.92 2613.04 2927.09 Q2607.99 2926.26 2602.57 2924.59 L2602.57 2914.02 Q2607.26 2916.57 2612.26 2917.82 Q2617.26 2919.07 2622.83 2919.07 Q2631.84 2919.07 2637.1 2914.33 Q2642.36 2909.59 2642.36 2901.46 Q2642.36 2893.34 2637.1 2888.6 Q2631.84 2883.86 2622.83 2883.86 Q2618.61 2883.86 2614.39 2884.8 Q2610.22 2885.73 2605.85 2887.71 L2605.85 2848.65 Z" fill="#000000" fill-rule="evenodd" fill-opacity="1" /><path clip-path="url(#clip830)" d="M 0 0 M3073.58 2883.34 Q3066.49 2883.34 3062.33 2888.18 Q3058.21 2893.03 3058.21 2901.46 Q3058.21 2909.85 3062.33 2914.75 Q3066.49 2919.59 3073.58 2919.59 Q3080.66 2919.59 3084.78 2914.75 Q3088.94 2909.85 3088.94 2901.46 Q3088.94 2893.03 3084.78 2888.18 Q3080.66 2883.34 3073.58 2883.34 M3094.46 2850.37 L3094.46 2859.95 Q3090.5 2858.08 3086.44 2857.09 Q3082.43 2856.1 3078.47 2856.1 Q3068.06 2856.1 3062.54 2863.13 Q3057.07 2870.16 3056.29 2884.38 Q3059.36 2879.85 3063.99 2877.45 Q3068.63 2875.01 3074.2 2875.01 Q3085.92 2875.01 3092.69 2882.14 Q3099.52 2889.22 3099.52 2901.46 Q3099.52 2913.44 3092.43 2920.68 Q3085.35 2927.92 3073.58 2927.92 Q3060.09 2927.92 3052.95 2917.61 Q3045.82 2907.25 3045.82 2887.61 Q3045.82 2869.17 3054.57 2858.24 Q3063.32 2847.25 3078.06 2847.25 Q3082.02 2847.25 3086.03 2848.03 Q3090.09 2848.81 3094.46 2850.37 Z" fill="#000000" fill-rule="evenodd" fill-opacity="1" /><path clip-path="url(#clip830)" d="M 0 0 M264.052 2706.75 Q255.927 2706.75 251.812 2714.78 Q247.75 2722.74 247.75 2738.79 Q247.75 2754.78 251.812 2762.8 Q255.927 2770.76 264.052 2770.76 Q272.229 2770.76 276.291 2762.8 Q280.406 2754.78 280.406 2738.79 Q280.406 2722.74 276.291 2714.78 Q272.229 2706.75 264.052 2706.75 M264.052 2698.42 Q277.125 2698.42 283.999 2708.79 Q290.927 2719.1 290.927 2738.79 Q290.927 2758.42 283.999 2768.79 Q277.125 2779.1 264.052 2779.1 Q250.979 2779.1 244.052 2768.79 Q237.177 2758.42 237.177 2738.79 Q237.177 2719.1 244.052 2708.79 Q250.979 2698.42 264.052 2698.42 Z" fill="#000000" fill-rule="evenodd" fill-opacity="1" /><path clip-path="url(#clip830)" d="M 0 0 M246.135 2115.47 L263.323 2115.47 L263.323 2056.14 L244.625 2059.89 L244.625 2050.31 L263.218 2046.56 L273.739 2046.56 L273.739 2115.47 L290.927 2115.47 L290.927 2124.32 L246.135 2124.32 L246.135 2115.47 Z" fill="#000000" fill-rule="evenodd" fill-opacity="1" /><path clip-path="url(#clip830)" d="M 0 0 M254.208 1462.2 L290.927 1462.2 L290.927 1471.05 L241.552 1471.05 L241.552 1462.2 Q247.541 1456 257.854 1445.58 Q268.218 1435.11 270.875 1432.09 Q275.927 1426.42 277.906 1422.51 Q279.937 1418.55 279.937 1414.75 Q279.937 1408.55 275.562 1404.65 Q271.239 1400.74 264.26 1400.74 Q259.312 1400.74 253.791 1402.46 Q248.323 1404.18 242.073 1407.67 L242.073 1397.04 Q248.427 1394.49 253.948 1393.19 Q259.468 1391.89 264.052 1391.89 Q276.135 1391.89 283.322 1397.93 Q290.51 1403.97 290.51 1414.07 Q290.51 1418.86 288.687 1423.19 Q286.916 1427.46 282.177 1433.29 Q280.874 1434.8 273.895 1442.04 Q266.916 1449.23 254.208 1462.2 Z" fill="#000000" fill-rule="evenodd" fill-opacity="1" /><path clip-path="url(#clip830)" d="M 0 0 M274.885 775.857 Q282.437 777.472 286.656 782.576 Q290.927 787.68 290.927 795.18 Q290.927 806.69 283.01 812.992 Q275.093 819.295 260.51 819.295 Q255.614 819.295 250.406 818.305 Q245.25 817.367 239.729 815.44 L239.729 805.284 Q244.104 807.836 249.312 809.138 Q254.52 810.44 260.198 810.44 Q270.093 810.44 275.25 806.534 Q280.458 802.628 280.458 795.18 Q280.458 788.305 275.614 784.451 Q270.822 780.545 262.229 780.545 L253.166 780.545 L253.166 771.899 L262.645 771.899 Q270.406 771.899 274.52 768.826 Q278.635 765.701 278.635 759.868 Q278.635 753.878 274.364 750.701 Q270.145 747.472 262.229 747.472 Q257.906 747.472 252.958 748.409 Q248.01 749.347 242.073 751.326 L242.073 741.951 Q248.062 740.285 253.27 739.451 Q258.531 738.618 263.166 738.618 Q275.145 738.618 282.124 744.087 Q289.104 749.503 289.104 758.774 Q289.104 765.232 285.406 769.711 Q281.708 774.139 274.885 775.857 Z" fill="#000000" fill-rule="evenodd" fill-opacity="1" /><path clip-path="url(#clip830)" d="M 0 0 M269.364 95.9229 L242.802 137.433 L269.364 137.433 L269.364 95.9229 M266.604 86.7562 L279.833 86.7562 L279.833 137.433 L290.927 137.433 L290.927 146.183 L279.833 146.183 L279.833 164.516 L269.364 164.516 L269.364 146.183 L234.26 146.183 L234.26 136.027 L266.604 86.7562 Z" fill="#000000" fill-rule="evenodd" fill-opacity="1" /><polyline clip-path="url(#clip830)" style="stroke:#000000; stroke-width:4; stroke-opacity:1; fill:none" points="
  322.927,47.2441 3152.76,47.2441 
  "/>
<polyline clip-path="url(#clip830)" style="stroke:#000000; stroke-width:4; stroke-opacity:1; fill:none" points="
  3152.76,2817.1 3152.76,47.2441 
  "/>
<path clip-path="url(#clip830)" d="M 0 0 M1270.76 2986.48 L1289.65 2986.48 L1335.62 3073.21 L1335.62 2986.48 L1349.23 2986.48 L1349.23 3090.16 L1330.34 3090.16 L1284.37 3003.42 L1284.37 3090.16 L1270.76 3090.16 L1270.76 2986.48 Z" fill="#000000" fill-rule="evenodd" fill-opacity="1" /><path clip-path="url(#clip830)" d="M 0 0 M1392.77 3021.34 Q1382.5 3021.34 1376.52 3029.39 Q1370.55 3037.38 1370.55 3051.34 Q1370.55 3065.29 1376.45 3073.35 Q1382.43 3081.34 1392.77 3081.34 Q1402.98 3081.34 1408.95 3073.28 Q1414.93 3065.23 1414.93 3051.34 Q1414.93 3037.52 1408.95 3029.46 Q1402.98 3021.34 1392.77 3021.34 M1392.77 3010.5 Q1409.44 3010.5 1418.95 3021.34 Q1428.47 3032.17 1428.47 3051.34 Q1428.47 3070.43 1418.95 3081.34 Q1409.44 3092.17 1392.77 3092.17 Q1376.04 3092.17 1366.52 3081.34 Q1357.08 3070.43 1357.08 3051.34 Q1357.08 3032.17 1366.52 3021.34 Q1376.04 3010.5 1392.77 3010.5 Z" fill="#000000" fill-rule="evenodd" fill-opacity="1" /><path clip-path="url(#clip830)" d="M 0 0 M1493.05 3024.18 L1493.05 2982.1 L1505.83 2982.1 L1505.83 3090.16 L1493.05 3090.16 L1493.05 3078.49 Q1489.02 3085.43 1482.84 3088.84 Q1476.73 3092.17 1468.12 3092.17 Q1454.02 3092.17 1445.13 3080.92 Q1436.32 3069.67 1436.32 3051.34 Q1436.32 3033 1445.13 3021.75 Q1454.02 3010.5 1468.12 3010.5 Q1476.73 3010.5 1482.84 3013.91 Q1489.02 3017.24 1493.05 3024.18 M1449.51 3051.34 Q1449.51 3065.43 1455.27 3073.49 Q1461.11 3081.48 1471.25 3081.48 Q1481.38 3081.48 1487.22 3073.49 Q1493.05 3065.43 1493.05 3051.34 Q1493.05 3037.24 1487.22 3029.25 Q1481.38 3021.2 1471.25 3021.2 Q1461.11 3021.2 1455.27 3029.25 Q1449.51 3037.24 1449.51 3051.34 Z" fill="#000000" fill-rule="evenodd" fill-opacity="1" /><path clip-path="url(#clip830)" d="M 0 0 M1585.76 3048.07 L1585.76 3054.32 L1527.01 3054.32 Q1527.84 3067.52 1534.93 3074.46 Q1542.08 3081.34 1554.79 3081.34 Q1562.15 3081.34 1569.02 3079.53 Q1575.97 3077.73 1582.77 3074.11 L1582.77 3086.2 Q1575.9 3089.11 1568.68 3090.64 Q1561.45 3092.17 1554.02 3092.17 Q1535.41 3092.17 1524.51 3081.34 Q1513.68 3070.5 1513.68 3052.03 Q1513.68 3032.93 1523.95 3021.75 Q1534.3 3010.5 1551.8 3010.5 Q1567.49 3010.5 1576.59 3020.64 Q1585.76 3030.71 1585.76 3048.07 M1572.98 3044.32 Q1572.84 3033.84 1567.08 3027.59 Q1561.38 3021.34 1551.94 3021.34 Q1541.25 3021.34 1534.79 3027.38 Q1528.4 3033.42 1527.43 3044.39 L1572.98 3044.32 Z" fill="#000000" fill-rule="evenodd" fill-opacity="1" /><path clip-path="url(#clip830)" d="M 0 0 M1671.66 3090.16 L1632.08 2986.48 L1646.73 2986.48 L1679.58 3073.77 L1712.49 2986.48 L1727.08 2986.48 L1687.56 3090.16 L1671.66 3090.16 Z" fill="#000000" fill-rule="evenodd" fill-opacity="1" /><path clip-path="url(#clip830)" d="M 0 0 M1764.79 3051.06 Q1749.3 3051.06 1743.33 3054.6 Q1737.36 3058.14 1737.36 3066.68 Q1737.36 3073.49 1741.8 3077.52 Q1746.31 3081.48 1754.02 3081.48 Q1764.65 3081.48 1771.04 3073.98 Q1777.49 3066.41 1777.49 3053.91 L1777.49 3051.06 L1764.79 3051.06 M1790.27 3045.78 L1790.27 3090.16 L1777.49 3090.16 L1777.49 3078.35 Q1773.12 3085.43 1766.59 3088.84 Q1760.06 3092.17 1750.62 3092.17 Q1738.67 3092.17 1731.59 3085.5 Q1724.58 3078.77 1724.58 3067.52 Q1724.58 3054.39 1733.33 3047.73 Q1742.15 3041.06 1759.58 3041.06 L1777.49 3041.06 L1777.49 3039.81 Q1777.49 3030.99 1771.66 3026.2 Q1765.9 3021.34 1755.41 3021.34 Q1748.74 3021.34 1742.42 3022.93 Q1736.11 3024.53 1730.27 3027.73 L1730.27 3015.92 Q1737.29 3013.21 1743.88 3011.89 Q1750.48 3010.5 1756.73 3010.5 Q1773.6 3010.5 1781.94 3019.25 Q1790.27 3028 1790.27 3045.78 Z" fill="#000000" fill-rule="evenodd" fill-opacity="1" /><path clip-path="url(#clip830)" d="M 0 0 M1848.74 3024.32 Q1846.59 3023.07 1844.02 3022.52 Q1841.52 3021.89 1838.47 3021.89 Q1827.63 3021.89 1821.8 3028.98 Q1816.04 3035.99 1816.04 3049.18 L1816.04 3090.16 L1803.19 3090.16 L1803.19 3012.38 L1816.04 3012.38 L1816.04 3024.46 Q1820.06 3017.38 1826.52 3013.98 Q1832.98 3010.5 1842.22 3010.5 Q1843.54 3010.5 1845.13 3010.71 Q1846.73 3010.85 1848.67 3011.2 L1848.74 3024.32 Z" fill="#000000" fill-rule="evenodd" fill-opacity="1" /><path clip-path="url(#clip830)" d="M 0 0 M1862.15 3012.38 L1874.92 3012.38 L1874.92 3090.16 L1862.15 3090.16 L1862.15 3012.38 M1862.15 2982.1 L1874.92 2982.1 L1874.92 2998.28 L1862.15 2998.28 L1862.15 2982.1 Z" fill="#000000" fill-rule="evenodd" fill-opacity="1" /><path clip-path="url(#clip830)" d="M 0 0 M1923.67 3051.06 Q1908.19 3051.06 1902.22 3054.6 Q1896.24 3058.14 1896.24 3066.68 Q1896.24 3073.49 1900.69 3077.52 Q1905.2 3081.48 1912.91 3081.48 Q1923.53 3081.48 1929.92 3073.98 Q1936.38 3066.41 1936.38 3053.91 L1936.38 3051.06 L1923.67 3051.06 M1949.16 3045.78 L1949.16 3090.16 L1936.38 3090.16 L1936.38 3078.35 Q1932.01 3085.43 1925.48 3088.84 Q1918.95 3092.17 1909.51 3092.17 Q1897.56 3092.17 1890.48 3085.5 Q1883.47 3078.77 1883.47 3067.52 Q1883.47 3054.39 1892.22 3047.73 Q1901.03 3041.06 1918.47 3041.06 L1936.38 3041.06 L1936.38 3039.81 Q1936.38 3030.99 1930.55 3026.2 Q1924.78 3021.34 1914.3 3021.34 Q1907.63 3021.34 1901.31 3022.93 Q1894.99 3024.53 1889.16 3027.73 L1889.16 3015.92 Q1896.17 3013.21 1902.77 3011.89 Q1909.37 3010.5 1915.62 3010.5 Q1932.49 3010.5 1940.83 3019.25 Q1949.16 3028 1949.16 3045.78 Z" fill="#000000" fill-rule="evenodd" fill-opacity="1" /><path clip-path="url(#clip830)" d="M 0 0 M2018.4 3051.34 Q2018.4 3037.24 2012.56 3029.25 Q2006.8 3021.2 1996.66 3021.2 Q1986.52 3021.2 1980.69 3029.25 Q1974.92 3037.24 1974.92 3051.34 Q1974.92 3065.43 1980.69 3073.49 Q1986.52 3081.48 1996.66 3081.48 Q2006.8 3081.48 2012.56 3073.49 Q2018.4 3065.43 2018.4 3051.34 M1974.92 3024.18 Q1978.95 3017.24 1985.06 3013.91 Q1991.24 3010.5 1999.78 3010.5 Q2013.95 3010.5 2022.77 3021.75 Q2031.66 3033 2031.66 3051.34 Q2031.66 3069.67 2022.77 3080.92 Q2013.95 3092.17 1999.78 3092.17 Q1991.24 3092.17 1985.06 3088.84 Q1978.95 3085.43 1974.92 3078.49 L1974.92 3090.16 L1962.08 3090.16 L1962.08 2982.1 L1974.92 2982.1 L1974.92 3024.18 Z" fill="#000000" fill-rule="evenodd" fill-opacity="1" /><path clip-path="url(#clip830)" d="M 0 0 M2045.06 2982.1 L2057.84 2982.1 L2057.84 3090.16 L2045.06 3090.16 L2045.06 2982.1 Z" fill="#000000" fill-rule="evenodd" fill-opacity="1" /><path clip-path="url(#clip830)" d="M 0 0 M2137.77 3048.07 L2137.77 3054.32 L2079.02 3054.32 Q2079.85 3067.52 2086.94 3074.46 Q2094.09 3081.34 2106.8 3081.34 Q2114.16 3081.34 2121.03 3079.53 Q2127.98 3077.73 2134.78 3074.11 L2134.78 3086.2 Q2127.91 3089.11 2120.69 3090.64 Q2113.46 3092.17 2106.03 3092.17 Q2087.42 3092.17 2076.52 3081.34 Q2065.69 3070.5 2065.69 3052.03 Q2065.69 3032.93 2075.96 3021.75 Q2086.31 3010.5 2103.81 3010.5 Q2119.51 3010.5 2128.6 3020.64 Q2137.77 3030.71 2137.77 3048.07 M2124.99 3044.32 Q2124.85 3033.84 2119.09 3027.59 Q2113.39 3021.34 2103.95 3021.34 Q2093.26 3021.34 2086.8 3027.38 Q2080.41 3033.42 2079.44 3044.39 L2124.99 3044.32 Z" fill="#000000" fill-rule="evenodd" fill-opacity="1" /><path clip-path="url(#clip830)" d="M 0 0 M2200.76 3014.67 L2200.76 3026.75 Q2195.34 3023.98 2189.51 3022.59 Q2183.67 3021.2 2177.42 3021.2 Q2167.91 3021.2 2163.12 3024.11 Q2158.39 3027.03 2158.39 3032.86 Q2158.39 3037.31 2161.8 3039.88 Q2165.2 3042.38 2175.48 3044.67 L2179.85 3045.64 Q2193.46 3048.56 2199.16 3053.91 Q2204.92 3059.18 2204.92 3068.7 Q2204.92 3079.53 2196.31 3085.85 Q2187.77 3092.17 2172.77 3092.17 Q2166.52 3092.17 2159.71 3090.92 Q2152.98 3089.74 2145.48 3087.31 L2145.48 3074.11 Q2152.56 3077.79 2159.44 3079.67 Q2166.31 3081.48 2173.05 3081.48 Q2182.07 3081.48 2186.94 3078.42 Q2191.8 3075.29 2191.8 3069.67 Q2191.8 3064.46 2188.26 3061.68 Q2184.78 3058.91 2172.91 3056.34 L2168.46 3055.29 Q2156.59 3052.79 2151.31 3047.66 Q2146.03 3042.45 2146.03 3033.42 Q2146.03 3022.45 2153.81 3016.48 Q2161.59 3010.5 2175.89 3010.5 Q2182.98 3010.5 2189.23 3011.55 Q2195.48 3012.59 2200.76 3014.67 Z" fill="#000000" fill-rule="evenodd" fill-opacity="1" /><path clip-path="url(#clip830)" d="M 0 0 M75.4622 1707 L90.2538 1707 Q83.6566 1714.08 80.3928 1722.14 Q77.1289 1730.12 77.1289 1739.15 Q77.1289 1756.93 88.0316 1766.37 Q98.8649 1775.82 119.42 1775.82 Q139.906 1775.82 150.809 1766.37 Q161.642 1756.93 161.642 1739.15 Q161.642 1730.12 158.378 1722.14 Q155.115 1714.08 148.517 1707 L163.17 1707 Q168.17 1714.36 170.67 1722.62 Q173.17 1730.82 173.17 1739.98 Q173.17 1763.52 158.795 1777.07 Q144.351 1790.61 119.42 1790.61 Q94.4205 1790.61 80.0455 1777.07 Q65.6012 1763.52 65.6012 1739.98 Q65.6012 1730.68 68.1012 1722.48 Q70.5317 1714.22 75.4622 1707 Z" fill="#000000" fill-rule="evenodd" fill-opacity="1" /><path clip-path="url(#clip830)" d="M 0 0 M102.337 1663.46 Q102.337 1673.73 110.393 1679.71 Q118.379 1685.68 132.337 1685.68 Q146.295 1685.68 154.351 1679.77 Q162.337 1673.8 162.337 1663.46 Q162.337 1653.25 154.281 1647.27 Q146.226 1641.3 132.337 1641.3 Q118.518 1641.3 110.462 1647.27 Q102.337 1653.25 102.337 1663.46 M91.5038 1663.46 Q91.5038 1646.79 102.337 1637.28 Q113.17 1627.76 132.337 1627.76 Q151.434 1627.76 162.337 1637.28 Q173.17 1646.79 173.17 1663.46 Q173.17 1680.19 162.337 1689.71 Q151.434 1699.15 132.337 1699.15 Q113.17 1699.15 102.337 1689.71 Q91.5038 1680.19 91.5038 1663.46 Z" fill="#000000" fill-rule="evenodd" fill-opacity="1" /><path clip-path="url(#clip830)" d="M 0 0 M124.212 1549.71 L171.156 1549.71 L171.156 1562.48 L124.629 1562.48 Q113.587 1562.48 108.101 1566.79 Q102.615 1571.09 102.615 1579.71 Q102.615 1590.05 109.212 1596.03 Q115.809 1602 127.198 1602 L171.156 1602 L171.156 1614.84 L93.3788 1614.84 L93.3788 1602 L105.462 1602 Q98.4482 1597.41 94.976 1591.23 Q91.5038 1584.98 91.5038 1576.86 Q91.5038 1563.46 99.8371 1556.58 Q108.101 1549.71 124.212 1549.71 Z" fill="#000000" fill-rule="evenodd" fill-opacity="1" /><path clip-path="url(#clip830)" d="M 0 0 M95.6705 1486.72 L107.754 1486.72 Q104.976 1492.14 103.587 1497.97 Q102.198 1503.8 102.198 1510.05 Q102.198 1519.57 105.115 1524.36 Q108.031 1529.08 113.865 1529.08 Q118.309 1529.08 120.879 1525.68 Q123.379 1522.28 125.67 1512 L126.643 1507.62 Q129.559 1494.01 134.906 1488.32 Q140.184 1482.55 149.698 1482.55 Q160.531 1482.55 166.851 1491.16 Q173.17 1499.71 173.17 1514.71 Q173.17 1520.96 171.92 1527.76 Q170.739 1534.5 168.309 1542 L155.115 1542 Q158.795 1534.91 160.67 1528.04 Q162.476 1521.16 162.476 1514.43 Q162.476 1505.4 159.42 1500.54 Q156.295 1495.68 150.67 1495.68 Q145.462 1495.68 142.684 1499.22 Q139.906 1502.69 137.337 1514.57 L136.295 1519.01 Q133.795 1530.89 128.656 1536.16 Q123.448 1541.44 114.42 1541.44 Q103.448 1541.44 97.476 1533.66 Q91.5038 1525.89 91.5038 1511.58 Q91.5038 1504.5 92.5455 1498.25 Q93.5871 1492 95.6705 1486.72 Z" fill="#000000" fill-rule="evenodd" fill-opacity="1" /><path clip-path="url(#clip830)" d="M 0 0 M71.2956 1456.51 L93.3788 1456.51 L93.3788 1430.19 L103.309 1430.19 L103.309 1456.51 L145.531 1456.51 Q155.045 1456.51 157.753 1453.94 Q160.462 1451.3 160.462 1443.32 L160.462 1430.19 L171.156 1430.19 L171.156 1443.32 Q171.156 1458.11 165.67 1463.73 Q160.115 1469.36 145.531 1469.36 L103.309 1469.36 L103.309 1478.73 L93.3788 1478.73 L93.3788 1469.36 L71.2956 1469.36 L71.2956 1456.51 Z" fill="#000000" fill-rule="evenodd" fill-opacity="1" /><path clip-path="url(#clip830)" d="M 0 0 M105.323 1371.72 Q104.073 1373.87 103.518 1376.44 Q102.893 1378.94 102.893 1382 Q102.893 1392.83 109.976 1398.67 Q116.99 1404.43 130.184 1404.43 L171.156 1404.43 L171.156 1417.28 L93.3788 1417.28 L93.3788 1404.43 L105.462 1404.43 Q98.3788 1400.4 94.976 1393.94 Q91.5038 1387.48 91.5038 1378.25 Q91.5038 1376.93 91.7121 1375.33 Q91.851 1373.73 92.1982 1371.79 L105.323 1371.72 Z" fill="#000000" fill-rule="evenodd" fill-opacity="1" /><path clip-path="url(#clip830)" d="M 0 0 M132.059 1322.97 Q132.059 1338.46 135.601 1344.43 Q139.142 1350.4 147.684 1350.4 Q154.49 1350.4 158.517 1345.96 Q162.476 1341.44 162.476 1333.73 Q162.476 1323.11 154.976 1316.72 Q147.406 1310.26 134.906 1310.26 L132.059 1310.26 L132.059 1322.97 M126.781 1297.49 L171.156 1297.49 L171.156 1310.26 L159.351 1310.26 Q166.434 1314.64 169.837 1321.17 Q173.17 1327.69 173.17 1337.14 Q173.17 1349.08 166.503 1356.17 Q159.767 1363.18 148.517 1363.18 Q135.392 1363.18 128.726 1354.43 Q122.059 1345.61 122.059 1328.18 L122.059 1310.26 L120.809 1310.26 Q111.99 1310.26 107.198 1316.1 Q102.337 1321.86 102.337 1332.35 Q102.337 1339.01 103.934 1345.33 Q105.532 1351.65 108.726 1357.48 L96.9204 1357.48 Q94.2121 1350.47 92.8927 1343.87 Q91.5038 1337.28 91.5038 1331.03 Q91.5038 1314.15 100.254 1305.82 Q109.004 1297.49 126.781 1297.49 Z" fill="#000000" fill-rule="evenodd" fill-opacity="1" /><path clip-path="url(#clip830)" d="M 0 0 M93.3788 1284.08 L93.3788 1271.3 L171.156 1271.3 L171.156 1284.08 L93.3788 1284.08 M63.1012 1284.08 L63.1012 1271.3 L79.2816 1271.3 L79.2816 1284.08 L63.1012 1284.08 Z" fill="#000000" fill-rule="evenodd" fill-opacity="1" /><path clip-path="url(#clip830)" d="M 0 0 M124.212 1193.25 L171.156 1193.25 L171.156 1206.03 L124.629 1206.03 Q113.587 1206.03 108.101 1210.33 Q102.615 1214.64 102.615 1223.25 Q102.615 1233.6 109.212 1239.57 Q115.809 1245.54 127.198 1245.54 L171.156 1245.54 L171.156 1258.39 L93.3788 1258.39 L93.3788 1245.54 L105.462 1245.54 Q98.4482 1240.96 94.976 1234.78 Q91.5038 1228.53 91.5038 1220.4 Q91.5038 1207 99.8371 1200.12 Q108.101 1193.25 124.212 1193.25 Z" fill="#000000" fill-rule="evenodd" fill-opacity="1" /><path clip-path="url(#clip830)" d="M 0 0 M71.2956 1167.21 L93.3788 1167.21 L93.3788 1140.89 L103.309 1140.89 L103.309 1167.21 L145.531 1167.21 Q155.045 1167.21 157.753 1164.64 Q160.462 1162 160.462 1154.01 L160.462 1140.89 L171.156 1140.89 L171.156 1154.01 Q171.156 1168.81 165.67 1174.43 Q160.115 1180.06 145.531 1180.06 L103.309 1180.06 L103.309 1189.43 L93.3788 1189.43 L93.3788 1180.06 L71.2956 1180.06 L71.2956 1167.21 Z" fill="#000000" fill-rule="evenodd" fill-opacity="1" /><path clip-path="url(#clip830)" d="M 0 0 M95.6705 1077.9 L107.754 1077.9 Q104.976 1083.32 103.587 1089.15 Q102.198 1094.99 102.198 1101.24 Q102.198 1110.75 105.115 1115.54 Q108.031 1120.26 113.865 1120.26 Q118.309 1120.26 120.879 1116.86 Q123.379 1113.46 125.67 1103.18 L126.643 1098.81 Q129.559 1085.19 134.906 1079.5 Q140.184 1073.74 149.698 1073.74 Q160.531 1073.74 166.851 1082.35 Q173.17 1090.89 173.17 1105.89 Q173.17 1112.14 171.92 1118.94 Q170.739 1125.68 168.309 1133.18 L155.115 1133.18 Q158.795 1126.1 160.67 1119.22 Q162.476 1112.35 162.476 1105.61 Q162.476 1096.58 159.42 1091.72 Q156.295 1086.86 150.67 1086.86 Q145.462 1086.86 142.684 1090.4 Q139.906 1093.88 137.337 1105.75 L136.295 1110.19 Q133.795 1122.07 128.656 1127.35 Q123.448 1132.62 114.42 1132.62 Q103.448 1132.62 97.476 1124.85 Q91.5038 1117.07 91.5038 1102.76 Q91.5038 1095.68 92.5455 1089.43 Q93.5871 1083.18 95.6705 1077.9 Z" fill="#000000" fill-rule="evenodd" fill-opacity="1" /><path clip-path="url(#clip832)" d="
M403.016 1432.17 L1292.9 1432.17 L1292.9 778.904 L403.016 778.904 L403.016 1432.17  Z
  " fill="#808080" fill-rule="evenodd" fill-opacity="1"/>
<polyline clip-path="url(#clip832)" style="stroke:#000000; stroke-width:4; stroke-opacity:1; fill:none" points="
  403.016,1432.17 1292.9,1432.17 1292.9,778.904 403.016,778.904 403.016,1432.17 
  "/>
<path clip-path="url(#clip832)" d="
M1292.9 2085.44 L2182.78 2085.44 L2182.78 1432.17 L1292.9 1432.17 L1292.9 2085.44  Z
  " fill="#808080" fill-rule="evenodd" fill-opacity="1"/>
<polyline clip-path="url(#clip832)" style="stroke:#000000; stroke-width:4; stroke-opacity:1; fill:none" points="
  1292.9,2085.44 2182.78,2085.44 2182.78,1432.17 1292.9,1432.17 1292.9,2085.44 
  "/>
<path clip-path="url(#clip832)" d="
M2182.78 2738.71 L3072.67 2738.71 L3072.67 2085.44 L2182.78 2085.44 L2182.78 2738.71  Z
  " fill="#808080" fill-rule="evenodd" fill-opacity="1"/>
<polyline clip-path="url(#clip832)" style="stroke:#000000; stroke-width:4; stroke-opacity:1; fill:none" points="
  2182.78,2738.71 3072.67,2738.71 3072.67,2085.44 2182.78,2085.44 2182.78,2738.71 
  "/>
<path clip-path="url(#clip832)" d="M1010.43 392.27 L1010.43 512.27 L1130.43 512.27 L1130.43 392.27 L1010.43 392.27 Z" fill="#0000ff" fill-rule="evenodd" fill-opacity="1" stroke="#000000" stroke-opacity="1" stroke-width="6.4"/>
<path clip-path="url(#clip832)" d="M1900.31 392.27 L1900.31 512.27 L2020.31 512.27 L2020.31 392.27 L1900.31 392.27 Z" fill="#0000ff" fill-rule="evenodd" fill-opacity="1" stroke="#000000" stroke-opacity="1" stroke-width="6.4"/>
<path clip-path="url(#clip832)" d="M2790.2 392.27 L2790.2 512.27 L2910.2 512.27 L2910.2 392.27 L2790.2 392.27 Z" fill="#0000ff" fill-rule="evenodd" fill-opacity="1" stroke="#000000" stroke-opacity="1" stroke-width="6.4"/>
<path clip-path="url(#clip830)" d="M 0 0 M819.104 1145.57 L842.02 1145.57 L842.02 1066.48 L817.09 1071.48 L817.09 1058.7 L841.881 1053.7 L855.909 1053.7 L855.909 1145.57 L878.826 1145.57 L878.826 1157.38 L819.104 1157.38 L819.104 1145.57 Z" fill="#000000" fill-rule="evenodd" fill-opacity="1" /><path clip-path="url(#clip830)" d="M 0 0 M1721.8 1798.84 L1770.76 1798.84 L1770.76 1810.65 L1704.92 1810.65 L1704.92 1798.84 Q1712.91 1790.58 1726.66 1776.69 Q1740.48 1762.73 1744.02 1758.7 Q1750.76 1751.13 1753.4 1745.92 Q1756.11 1740.65 1756.11 1735.58 Q1756.11 1727.31 1750.27 1722.1 Q1744.51 1716.9 1735.2 1716.9 Q1728.61 1716.9 1721.24 1719.19 Q1713.95 1721.48 1705.62 1726.13 L1705.62 1711.97 Q1714.09 1708.56 1721.45 1706.83 Q1728.81 1705.09 1734.92 1705.09 Q1751.04 1705.09 1760.62 1713.15 Q1770.2 1721.2 1770.2 1734.67 Q1770.2 1741.06 1767.77 1746.83 Q1765.41 1752.52 1759.09 1760.3 Q1757.35 1762.31 1748.05 1771.97 Q1738.74 1781.55 1721.8 1798.84 Z" fill="#000000" fill-rule="evenodd" fill-opacity="1" /><path clip-path="url(#clip830)" d="M 0 0 M2640.47 2408.01 Q2650.54 2410.16 2656.16 2416.97 Q2661.86 2423.78 2661.86 2433.78 Q2661.86 2449.12 2651.3 2457.52 Q2640.75 2465.93 2621.3 2465.93 Q2614.77 2465.93 2607.83 2464.61 Q2600.95 2463.36 2593.59 2460.79 L2593.59 2447.25 Q2599.43 2450.65 2606.37 2452.39 Q2613.32 2454.12 2620.88 2454.12 Q2634.08 2454.12 2640.95 2448.91 Q2647.9 2443.71 2647.9 2433.78 Q2647.9 2424.61 2641.44 2419.47 Q2635.05 2414.26 2623.59 2414.26 L2611.51 2414.26 L2611.51 2402.73 L2624.15 2402.73 Q2634.5 2402.73 2639.98 2398.64 Q2645.47 2394.47 2645.47 2386.69 Q2645.47 2378.71 2639.77 2374.47 Q2634.15 2370.16 2623.59 2370.16 Q2617.83 2370.16 2611.23 2371.41 Q2604.63 2372.66 2596.72 2375.3 L2596.72 2362.8 Q2604.7 2360.58 2611.65 2359.47 Q2618.66 2358.36 2624.84 2358.36 Q2640.81 2358.36 2650.12 2365.65 Q2659.43 2372.87 2659.43 2385.23 Q2659.43 2393.84 2654.5 2399.82 Q2649.56 2405.72 2640.47 2408.01 Z" fill="#000000" fill-rule="evenodd" fill-opacity="1" /></svg>
