<?xml version="1.0" encoding="utf-8"?>
<svg xmlns="http://www.w3.org/2000/svg" xmlns:xlink="http://www.w3.org/1999/xlink" width="800" height="800" viewBox="0 0 3200 3200">
<defs>
  <clipPath id="clip070">
    <rect x="0" y="0" width="3200" height="3200"/>
  </clipPath>
</defs>
<path clip-path="url(#clip070)" d="
M0 3200 L3200 3200 L3200 0 L0 0  Z
  " fill="#ffffff" fill-rule="evenodd" fill-opacity="1"/>
<defs>
  <clipPath id="clip071">
    <rect x="640" y="320" width="2241" height="2241"/>
  </clipPath>
</defs>
<path clip-path="url(#clip070)" d="
M94.9921 3105.01 L3152.76 3105.01 L3152.76 47.2441 L94.9921 47.2441  Z
  " fill="#ffffff" fill-rule="evenodd" fill-opacity="1"/>
<defs>
  <clipPath id="clip072">
    <rect x="94" y="47" width="3059" height="3059"/>
  </clipPath>
</defs>
<polyline clip-path="url(#clip070)" style="stroke:#000000; stroke-width:4; stroke-opacity:1; fill:none" points="
  94.9921,3105.01 3152.76,3105.01 
  "/>
<polyline clip-path="url(#clip070)" style="stroke:#000000; stroke-width:4; stroke-opacity:1; fill:none" points="
  94.9921,3105.01 94.9921,47.2441 
  "/>
<polyline clip-path="url(#clip070)" style="stroke:#000000; stroke-width:4; stroke-opacity:1; fill:none" points="
  94.9921,47.2441 3152.76,47.2441 
  "/>
<polyline clip-path="url(#clip070)" style="stroke:#000000; stroke-width:4; stroke-opacity:1; fill:none" points="
  3152.76,3105.01 3152.76,47.2441 
  "/>
<circle clip-path="url(#clip072)" cx="865.573" cy="2790.09" r="108" fill="#ffff74" fill-rule="evenodd" fill-opacity="1" stroke="#000000" stroke-opacity="1" stroke-width="6.4"/>
<circle clip-path="url(#clip072)" cx="1323.9" cy="3018.47" r="108" fill="#ff9bff" fill-rule="evenodd" fill-opacity="1" stroke="#000000" stroke-opacity="1" stroke-width="6.4"/>
<circle clip-path="url(#clip072)" cx="3066.22" cy="2448.64" r="108" fill="#00d3ff" fill-rule="evenodd" fill-opacity="1" stroke="#000000" stroke-opacity="1" stroke-width="6.4"/>
<circle clip-path="url(#clip072)" cx="1887.73" cy="2987.15" r="108" fill="#e2630d" fill-rule="evenodd" fill-opacity="1" stroke="#000000" stroke-opacity="1" stroke-width="6.4"/>
<circle clip-path="url(#clip072)" cx="817.93" cy="178.085" r="108" fill="#007e00" fill-rule="evenodd" fill-opacity="1" stroke="#000000" stroke-opacity="1" stroke-width="6.4"/>
<circle clip-path="url(#clip072)" cx="413.192" cy="133.785" r="108" fill="#0050e6" fill-rule="evenodd" fill-opacity="1" stroke="#000000" stroke-opacity="1" stroke-width="6.4"/>
<circle clip-path="url(#clip072)" cx="226.85" cy="915.185" r="108" fill="#ac0047" fill-rule="evenodd" fill-opacity="1" stroke="#000000" stroke-opacity="1" stroke-width="6.4"/>
<circle clip-path="url(#clip072)" cx="181.533" cy="1531.08" r="108" fill="#00ffc8" fill-rule="evenodd" fill-opacity="1" stroke="#000000" stroke-opacity="1" stroke-width="6.4"/>
<polyline clip-path="url(#clip072)" style="stroke:#0000ff; stroke-width:8; stroke-opacity:1; fill:none" points="
  865.573,2790.09 1323.9,3018.47 
  "/>
<polyline clip-path="url(#clip072)" style="stroke:#0000ff; stroke-width:8; stroke-opacity:1; fill:none" points="
  865.573,2790.09 181.533,1531.08 
  "/>
<polyline clip-path="url(#clip072)" style="stroke:#0000ff; stroke-width:8; stroke-opacity:1; fill:none" points="
  1323.9,3018.47 1887.73,2987.15 
  "/>
<polyline clip-path="url(#clip072)" style="stroke:#0000ff; stroke-width:8; stroke-opacity:1; fill:none" points="
  3066.22,2448.64 1887.73,2987.15 
  "/>
<polyline clip-path="url(#clip072)" style="stroke:#0000ff; stroke-width:8; stroke-opacity:1; fill:none" points="
  817.93,178.085 413.192,133.785 
  "/>
<polyline clip-path="url(#clip072)" style="stroke:#0000ff; stroke-width:8; stroke-opacity:1; fill:none" points="
  413.192,133.785 226.85,915.185 
  "/>
<polyline clip-path="url(#clip072)" style="stroke:#0000ff; stroke-width:8; stroke-opacity:1; fill:none" points="
  226.85,915.185 181.533,1531.08 
  "/>
<path clip-path="url(#clip070)" d="M 0 0 M830.909 2823.45 L850.006 2823.45 L850.006 2757.54 L829.231 2761.71 L829.231 2751.06 L849.891 2746.89 L861.58 2746.89 L861.58 2823.45 L880.677 2823.45 L880.677 2833.29 L830.909 2833.29 L830.909 2823.45 Z" fill="#000000" fill-rule="evenodd" fill-opacity="1" /><path clip-path="url(#clip070)" d="M 0 0 M901.916 2746.89 L901.916 2779.01 L892.078 2779.01 L892.078 2746.89 L901.916 2746.89 Z" fill="#000000" fill-rule="evenodd" fill-opacity="1" /><path clip-path="url(#clip070)" d="M 0 0 M1299.92 3051.83 L1340.71 3051.83 L1340.71 3061.67 L1285.85 3061.67 L1285.85 3051.83 Q1292.51 3044.94 1303.97 3033.37 Q1315.48 3021.74 1318.43 3018.38 Q1324.05 3012.07 1326.25 3007.73 Q1328.5 3003.33 1328.5 2999.11 Q1328.5 2992.22 1323.64 2987.88 Q1318.84 2983.54 1311.09 2983.54 Q1305.59 2983.54 1299.45 2985.45 Q1293.38 2987.36 1286.43 2991.24 L1286.43 2979.43 Q1293.49 2976.6 1299.63 2975.15 Q1305.76 2973.7 1310.85 2973.7 Q1324.28 2973.7 1332.27 2980.42 Q1340.25 2987.13 1340.25 2998.36 Q1340.25 3003.68 1338.23 3008.48 Q1336.26 3013.23 1330.99 3019.71 Q1329.55 3021.39 1321.79 3029.43 Q1314.04 3037.42 1299.92 3051.83 Z" fill="#000000" fill-rule="evenodd" fill-opacity="1" /><path clip-path="url(#clip070)" d="M 0 0 M1361.95 2975.27 L1361.95 3007.39 L1352.12 3007.39 L1352.12 2975.27 L1361.95 2975.27 Z" fill="#000000" fill-rule="evenodd" fill-opacity="1" /><path clip-path="url(#clip070)" d="M 0 0 M3066.22 2445.26 Q3074.61 2447.05 3079.29 2452.72 Q3084.04 2458.4 3084.04 2466.73 Q3084.04 2479.52 3075.24 2486.52 Q3066.45 2493.52 3050.24 2493.52 Q3044.8 2493.52 3039.02 2492.42 Q3033.29 2491.38 3027.15 2489.24 L3027.15 2477.96 Q3032.01 2480.79 3037.8 2482.24 Q3043.59 2483.69 3049.9 2483.69 Q3060.89 2483.69 3066.62 2479.34 Q3072.41 2475 3072.41 2466.73 Q3072.41 2459.09 3067.03 2454.81 Q3061.7 2450.47 3052.15 2450.47 L3042.08 2450.47 L3042.08 2440.86 L3052.62 2440.86 Q3061.24 2440.86 3065.81 2437.45 Q3070.38 2433.97 3070.38 2427.49 Q3070.38 2420.84 3065.64 2417.31 Q3060.95 2413.72 3052.15 2413.72 Q3047.35 2413.72 3041.85 2414.76 Q3036.35 2415.8 3029.76 2418 L3029.76 2407.59 Q3036.41 2405.73 3042.2 2404.81 Q3048.04 2403.88 3053.19 2403.88 Q3066.5 2403.88 3074.26 2409.96 Q3082.01 2415.98 3082.01 2426.28 Q3082.01 2433.45 3077.91 2438.43 Q3073.8 2443.35 3066.22 2445.26 Z" fill="#000000" fill-rule="evenodd" fill-opacity="1" /><path clip-path="url(#clip070)" d="M 0 0 M3105.28 2405.44 L3105.28 2437.56 L3095.44 2437.56 L3095.44 2405.44 L3105.28 2405.44 Z" fill="#000000" fill-rule="evenodd" fill-opacity="1" /><path clip-path="url(#clip070)" d="M 0 0 M1884.64 2954.14 L1855.12 3000.26 L1884.64 3000.26 L1884.64 2954.14 M1881.57 2943.95 L1896.27 2943.95 L1896.27 3000.26 L1908.59 3000.26 L1908.59 3009.98 L1896.27 3009.98 L1896.27 3030.35 L1884.64 3030.35 L1884.64 3009.98 L1845.63 3009.98 L1845.63 2998.7 L1881.57 2943.95 Z" fill="#000000" fill-rule="evenodd" fill-opacity="1" /><path clip-path="url(#clip070)" d="M 0 0 M1929.83 2943.95 L1929.83 2976.07 L1919.99 2976.07 L1919.99 2943.95 L1929.83 2943.95 Z" fill="#000000" fill-rule="evenodd" fill-opacity="1" /><path clip-path="url(#clip070)" d="M 0 0 M783.005 134.885 L828.896 134.885 L828.896 144.723 L793.711 144.723 L793.711 165.904 Q796.257 165.036 798.804 164.63 Q801.35 164.167 803.896 164.167 Q818.364 164.167 826.813 172.096 Q835.262 180.024 835.262 193.565 Q835.262 207.512 826.581 215.267 Q817.901 222.963 802.102 222.963 Q796.662 222.963 790.991 222.038 Q785.378 221.112 779.359 219.26 L779.359 207.512 Q784.567 210.348 790.123 211.737 Q795.679 213.126 801.871 213.126 Q811.882 213.126 817.727 207.859 Q823.572 202.593 823.572 193.565 Q823.572 184.538 817.727 179.272 Q811.882 174.005 801.871 174.005 Q797.183 174.005 792.496 175.047 Q787.866 176.089 783.005 178.288 L783.005 134.885 Z" fill="#000000" fill-rule="evenodd" fill-opacity="1" /><path clip-path="url(#clip070)" d="M 0 0 M856.5 134.885 L856.5 167.003 L846.662 167.003 L846.662 134.885 L856.5 134.885 Z" fill="#000000" fill-rule="evenodd" fill-opacity="1" /><path clip-path="url(#clip070)" d="M 0 0 M403.585 129.126 Q395.715 129.126 391.086 134.508 Q386.514 139.89 386.514 149.265 Q386.514 158.582 391.086 164.022 Q395.715 169.404 403.585 169.404 Q411.456 169.404 416.028 164.022 Q420.657 158.582 420.657 149.265 Q420.657 139.89 416.028 134.508 Q411.456 129.126 403.585 129.126 M426.791 92.4943 L426.791 103.142 Q422.393 101.059 417.879 99.9595 Q413.423 98.86 409.025 98.86 Q397.451 98.86 391.317 106.672 Q385.241 114.485 384.373 130.283 Q387.787 125.249 392.937 122.587 Q398.088 119.867 404.28 119.867 Q417.301 119.867 424.824 127.795 Q432.405 135.665 432.405 149.265 Q432.405 162.575 424.534 170.619 Q416.664 178.663 403.585 178.663 Q388.597 178.663 380.669 167.205 Q372.741 155.688 372.741 133.871 Q372.741 113.385 382.463 101.233 Q392.185 89.0221 408.562 89.0221 Q412.96 89.0221 417.416 89.8901 Q421.93 90.7582 426.791 92.4943 Z" fill="#000000" fill-rule="evenodd" fill-opacity="1" /><path clip-path="url(#clip070)" d="M 0 0 M453.643 90.5846 L453.643 122.702 L443.805 122.702 L443.805 90.5846 L453.643 90.5846 Z" fill="#000000" fill-rule="evenodd" fill-opacity="1" /><path clip-path="url(#clip070)" d="M 0 0 M188.453 871.985 L244.009 871.985 L244.009 876.961 L212.643 958.385 L200.433 958.385 L229.946 881.822 L188.453 881.822 L188.453 871.985 Z" fill="#000000" fill-rule="evenodd" fill-opacity="1" /><path clip-path="url(#clip070)" d="M 0 0 M265.247 871.985 L265.247 904.102 L255.409 904.102 L255.409 871.985 L265.247 871.985 Z" fill="#000000" fill-rule="evenodd" fill-opacity="1" /><path clip-path="url(#clip070)" d="M 0 0 M170.913 1533.25 Q162.58 1533.25 157.777 1537.7 Q153.032 1542.16 153.032 1549.97 Q153.032 1557.79 157.777 1562.24 Q162.58 1566.7 170.913 1566.7 Q179.247 1566.7 184.05 1562.24 Q188.853 1557.73 188.853 1549.97 Q188.853 1542.16 184.05 1537.7 Q179.305 1533.25 170.913 1533.25 M159.224 1528.27 Q151.701 1526.42 147.476 1521.27 Q143.309 1516.12 143.309 1508.71 Q143.309 1498.35 150.659 1492.33 Q158.066 1486.32 170.913 1486.32 Q183.818 1486.32 191.168 1492.33 Q198.517 1498.35 198.517 1508.71 Q198.517 1516.12 194.293 1521.27 Q190.126 1526.42 182.661 1528.27 Q191.11 1530.24 195.798 1535.97 Q200.543 1541.7 200.543 1549.97 Q200.543 1562.53 192.846 1569.24 Q185.207 1575.96 170.913 1575.96 Q156.62 1575.96 148.923 1569.24 Q141.284 1562.53 141.284 1549.97 Q141.284 1541.7 146.029 1535.97 Q150.775 1530.24 159.224 1528.27 M154.941 1509.81 Q154.941 1516.52 159.108 1520.29 Q163.332 1524.05 170.913 1524.05 Q178.437 1524.05 182.661 1520.29 Q186.943 1516.52 186.943 1509.81 Q186.943 1503.1 182.661 1499.34 Q178.437 1495.57 170.913 1495.57 Q163.332 1495.57 159.108 1499.34 Q154.941 1503.1 154.941 1509.81 Z" fill="#000000" fill-rule="evenodd" fill-opacity="1" /><path clip-path="url(#clip070)" d="M 0 0 M221.781 1487.88 L221.781 1520 L211.943 1520 L211.943 1487.88 L221.781 1487.88 Z" fill="#000000" fill-rule="evenodd" fill-opacity="1" /></svg>
