<?xml version="1.0" encoding="utf-8"?>
<svg xmlns="http://www.w3.org/2000/svg" xmlns:xlink="http://www.w3.org/1999/xlink" width="400" height="400" viewBox="0 0 1600 1600">
<defs>
  <clipPath id="clip830">
    <rect x="0" y="0" width="1600" height="1600"/>
  </clipPath>
</defs>
<path clip-path="url(#clip830)" d="
M0 1600 L1600 1600 L1600 0 L0 0  Z
  " fill="#ffffff" fill-rule="evenodd" fill-opacity="1"/>
<defs>
  <clipPath id="clip831">
    <rect x="320" y="160" width="1121" height="1121"/>
  </clipPath>
</defs>
<path clip-path="url(#clip830)" d="
M78.9921 1521.01 L1552.76 1521.01 L1552.76 47.2441 L78.9921 47.2441  Z
  " fill="#ffffff" fill-rule="evenodd" fill-opacity="1"/>
<defs>
  <clipPath id="clip832">
    <rect x="78" y="47" width="1475" height="1475"/>
  </clipPath>
</defs>
<polyline clip-path="url(#clip830)" style="stroke:#000000; stroke-width:4; stroke-opacity:1; fill:none" points="
  78.9921,1521.01 1552.76,1521.01 
  "/>
<polyline clip-path="url(#clip830)" style="stroke:#000000; stroke-width:4; stroke-opacity:1; fill:none" points="
  78.9921,1521.01 78.9921,47.2441 
  "/>
<polyline clip-path="url(#clip830)" style="stroke:#000000; stroke-width:4; stroke-opacity:1; fill:none" points="
  78.9921,47.2441 1552.76,47.2441 
  "/>
<polyline clip-path="url(#clip830)" style="stroke:#000000; stroke-width:4; stroke-opacity:1; fill:none" points="
  1552.76,1521.01 1552.76,47.2441 
  "/>
<circle clip-path="url(#clip832)" cx="120.702" cy="88.9544" r="108" fill="#808080" fill-rule="evenodd" fill-opacity="1" stroke="#000000" stroke-opacity="1" stroke-width="3.2"/>
<circle clip-path="url(#clip832)" cx="1511.05" cy="1479.3" r="108" fill="#808080" fill-rule="evenodd" fill-opacity="1" stroke="#000000" stroke-opacity="1" stroke-width="3.2"/>
<circle clip-path="url(#clip832)" cx="388.639" cy="351.156" r="108" fill="#808080" fill-rule="evenodd" fill-opacity="1" stroke="#000000" stroke-opacity="1" stroke-width="3.2"/>
<polyline clip-path="url(#clip832)" style="stroke:#0000ff; stroke-width:16; stroke-opacity:1; fill:none" points="
  120.702,88.9544 1511.05,1479.3 
  "/>
<polyline clip-path="url(#clip832)" style="stroke:#0000ff; stroke-width:16; stroke-opacity:1; fill:none" points="
  120.702,88.9544 388.639,351.156 
  "/>
<polyline clip-path="url(#clip832)" style="stroke:#0000ff; stroke-width:16; stroke-opacity:1; fill:none" points="
  1511.05,1479.3 388.639,351.156 
  "/>
<path clip-path="url(#clip830)" d="M 0 0 M102.669 113.976 L116.992 113.976 L116.992 64.5405 L101.41 67.6654 L101.41 59.6794 L116.905 56.5544 L125.672 56.5544 L125.672 113.976 L139.995 113.976 L139.995 121.354 L102.669 121.354 L102.669 113.976 Z" fill="#000000" fill-rule="evenodd" fill-opacity="1" /><path clip-path="url(#clip830)" d="M 0 0 M1501.02 1504.32 L1531.62 1504.32 L1531.62 1511.7 L1490.47 1511.7 L1490.47 1504.32 Q1495.46 1499.15 1504.06 1490.47 Q1512.69 1481.75 1514.91 1479.23 Q1519.12 1474.5 1520.77 1471.25 Q1522.46 1467.95 1522.46 1464.78 Q1522.46 1459.61 1518.81 1456.36 Q1515.21 1453.1 1509.4 1453.1 Q1505.27 1453.1 1500.67 1454.54 Q1496.12 1455.97 1490.91 1458.88 L1490.91 1450.02 Q1496.2 1447.9 1500.8 1446.81 Q1505.4 1445.73 1509.22 1445.73 Q1519.29 1445.73 1525.28 1450.76 Q1531.27 1455.8 1531.27 1464.22 Q1531.27 1468.21 1529.75 1471.81 Q1528.28 1475.37 1524.33 1480.23 Q1523.24 1481.49 1517.43 1487.52 Q1511.61 1493.51 1501.02 1504.32 Z" fill="#000000" fill-rule="evenodd" fill-opacity="1" /><path clip-path="url(#clip830)" d="M 0 0 M396.604 348.617 Q402.897 349.962 406.413 354.216 Q409.972 358.469 409.972 364.719 Q409.972 374.311 403.375 379.563 Q396.777 384.814 384.625 384.814 Q380.545 384.814 376.205 383.99 Q371.908 383.208 367.307 381.603 L367.307 373.139 Q370.953 375.266 375.293 376.351 Q379.633 377.436 384.364 377.436 Q392.611 377.436 396.908 374.181 Q401.248 370.926 401.248 364.719 Q401.248 358.99 397.211 355.778 Q393.218 352.523 386.057 352.523 L378.505 352.523 L378.505 345.318 L386.404 345.318 Q392.871 345.318 396.3 342.757 Q399.729 340.153 399.729 335.292 Q399.729 330.301 396.17 327.653 Q392.654 324.962 386.057 324.962 Q382.455 324.962 378.331 325.743 Q374.208 326.525 369.26 328.174 L369.26 320.362 Q374.252 318.973 378.592 318.278 Q382.975 317.584 386.838 317.584 Q396.821 317.584 402.637 322.141 Q408.453 326.655 408.453 334.381 Q408.453 339.763 405.371 343.495 Q402.29 347.184 396.604 348.617 Z" fill="#000000" fill-rule="evenodd" fill-opacity="1" /></svg>
