<?xml version="1.0" encoding="UTF-8" standalone="no"?>
<svg
   xmlns:dc="http://purl.org/dc/elements/1.1/"
   xmlns:cc="http://creativecommons.org/ns#"
   xmlns:rdf="http://www.w3.org/1999/02/22-rdf-syntax-ns#"
   xmlns:svg="http://www.w3.org/2000/svg"
   xmlns="http://www.w3.org/2000/svg"
   xmlns:sodipodi="http://sodipodi.sourceforge.net/DTD/sodipodi-0.dtd"
   xmlns:inkscape="http://www.inkscape.org/namespaces/inkscape"
   width="400"
   height="400"
   viewBox="0 0 1600 1600"
   version="1.1"
   id="svg149"
   sodipodi:docname="matrix1_layout.svg"
   inkscape:version="0.92.3 (2405546, 2018-03-11)">
  <metadata
     id="metadata153">
    <rdf:RDF>
      <cc:Work
         rdf:about="">
        <dc:format>image/svg+xml</dc:format>
        <dc:type
           rdf:resource="http://purl.org/dc/dcmitype/StillImage" />
        <dc:title></dc:title>
      </cc:Work>
    </rdf:RDF>
  </metadata>
  <sodipodi:namedview
     pagecolor="#ffffff"
     bordercolor="#666666"
     borderopacity="1"
     objecttolerance="10"
     gridtolerance="10"
     guidetolerance="10"
     inkscape:pageopacity="0"
     inkscape:pageshadow="2"
     inkscape:window-width="1920"
     inkscape:window-height="1015"
     id="namedview151"
     showgrid="false"
     fit-margin-top="0"
     fit-margin-left="0"
     fit-margin-right="0"
     fit-margin-bottom="0"
     inkscape:zoom="1.04"
     inkscape:cx="200"
     inkscape:cy="200"
     inkscape:window-x="0"
     inkscape:window-y="0"
     inkscape:window-maximized="1"
     inkscape:current-layer="svg149" />
  <defs
     id="defs5">
    <clipPath
       id="clip860">
      <rect
         x="0"
         y="0"
         width="3200"
         height="3200"
         id="rect2" />
    </clipPath>
  </defs>
  <defs
     id="defs12">
    <clipPath
       id="clip861">
      <rect
         x="640"
         y="320"
         width="2241"
         height="2241"
         id="rect9" />
    </clipPath>
  </defs>
  <defs
     id="defs19">
    <clipPath
       id="clip862">
      <rect
         x="322"
         y="47"
         width="2831"
         height="2771"
         id="rect16" />
    </clipPath>
  </defs>
  <g
     id="g1026"
     transform="scale(0.5)">
    <path
       id="path7"
       d="M 0,3200 H 3200 V 0 H 0 Z"
       clip-path="url(#clip860)"
       inkscape:connector-curvature="0"
       style="fill:#ffffff;fill-opacity:1;fill-rule:evenodd" />
    <path
       id="path14"
       d="M 322.927,2817.1 H 3152.76 V 47.2441 H 322.927 Z"
       clip-path="url(#clip860)"
       inkscape:connector-curvature="0"
       style="fill:#ffffff;fill-opacity:1;fill-rule:evenodd" />
    <polyline
       id="polyline21"
       points="   322.927,2817.1 3152.76,2817.1    "
       style="fill:none;stroke:#000000;stroke-width:4;stroke-opacity:1"
       clip-path="url(#clip860)" />
    <polyline
       id="polyline23"
       points="   322.927,2817.1 322.927,47.2441    "
       style="fill:none;stroke:#000000;stroke-width:4;stroke-opacity:1"
       clip-path="url(#clip860)" />
    <polyline
       id="polyline25"
       points="   403.016,2817.1 403.016,2783.86    "
       style="fill:none;stroke:#000000;stroke-width:4;stroke-opacity:1"
       clip-path="url(#clip860)" />
    <polyline
       id="polyline27"
       points="   847.958,2817.1 847.958,2783.86    "
       style="fill:none;stroke:#000000;stroke-width:4;stroke-opacity:1"
       clip-path="url(#clip860)" />
    <polyline
       id="polyline29"
       points="   1292.9,2817.1 1292.9,2783.86    "
       style="fill:none;stroke:#000000;stroke-width:4;stroke-opacity:1"
       clip-path="url(#clip860)" />
    <polyline
       id="polyline31"
       points="   1737.84,2817.1 1737.84,2783.86    "
       style="fill:none;stroke:#000000;stroke-width:4;stroke-opacity:1"
       clip-path="url(#clip860)" />
    <polyline
       id="polyline33"
       points="   2182.78,2817.1 2182.78,2783.86    "
       style="fill:none;stroke:#000000;stroke-width:4;stroke-opacity:1"
       clip-path="url(#clip860)" />
    <polyline
       id="polyline35"
       points="   2627.72,2817.1 2627.72,2783.86    "
       style="fill:none;stroke:#000000;stroke-width:4;stroke-opacity:1"
       clip-path="url(#clip860)" />
    <polyline
       id="polyline37"
       points="   3072.67,2817.1 3072.67,2783.86    "
       style="fill:none;stroke:#000000;stroke-width:4;stroke-opacity:1"
       clip-path="url(#clip860)" />
    <polyline
       id="polyline39"
       points="   322.927,2738.71 356.884,2738.71    "
       style="fill:none;stroke:#000000;stroke-width:4;stroke-opacity:1"
       clip-path="url(#clip860)" />
    <polyline
       id="polyline41"
       points="   322.927,2085.44 356.884,2085.44    "
       style="fill:none;stroke:#000000;stroke-width:4;stroke-opacity:1"
       clip-path="url(#clip860)" />
    <polyline
       id="polyline43"
       points="   322.927,1432.17 356.884,1432.17    "
       style="fill:none;stroke:#000000;stroke-width:4;stroke-opacity:1"
       clip-path="url(#clip860)" />
    <polyline
       id="polyline45"
       points="   322.927,778.904 356.884,778.904    "
       style="fill:none;stroke:#000000;stroke-width:4;stroke-opacity:1"
       clip-path="url(#clip860)" />
    <polyline
       id="polyline47"
       points="   322.927,125.636 356.884,125.636    "
       style="fill:none;stroke:#000000;stroke-width:4;stroke-opacity:1"
       clip-path="url(#clip860)" />
    <path
       id="path49"
       d="m 0,0 m 403.016,2855.58 q -8.125,0 -12.239,8.02 -4.063,7.97 -4.063,24.01 0,15.99 4.063,24.01 4.114,7.97 12.239,7.97 8.177,0 12.24,-7.97 4.114,-8.02 4.114,-24.01 0,-16.04 -4.114,-24.01 -4.063,-8.02 -12.24,-8.02 m 0,-8.33 q 13.073,0 19.948,10.36 6.927,10.31 6.927,30 0,19.64 -6.927,30 -6.875,10.31 -19.948,10.31 -13.073,0 -20,-10.31 -6.875,-10.36 -6.875,-30 0,-19.69 6.875,-30 6.927,-10.36 20,-10.36 z"
       clip-path="url(#clip860)"
       inkscape:connector-curvature="0"
       style="fill:#000000;fill-opacity:1;fill-rule:evenodd" />
    <path
       id="path51"
       d="m 0,0 m 826.317,2917.56 h 17.188 v -59.32 l -18.698,3.75 v -9.59 l 18.593,-3.75 h 10.521 v 68.91 h 17.188 v 8.85 h -44.792 z"
       clip-path="url(#clip860)"
       inkscape:connector-curvature="0"
       style="fill:#000000;fill-opacity:1;fill-rule:evenodd" />
    <path
       id="path53"
       d="m 0,0 m 1280.87,2917.56 h 36.72 v 8.85 h -49.38 v -8.85 q 5.99,-6.2 16.3,-16.62 10.37,-10.47 13.02,-13.49 5.06,-5.67 7.04,-9.58 2.03,-3.96 2.03,-7.76 0,-6.2 -4.38,-10.1 -4.32,-3.91 -11.3,-3.91 -4.95,0 -10.47,1.72 -5.47,1.72 -11.72,5.21 v -10.63 q 6.36,-2.55 11.88,-3.85 5.52,-1.3 10.1,-1.3 12.09,0 19.27,6.04 7.19,6.04 7.19,16.14 0,4.79 -1.82,9.12 -1.77,4.27 -6.51,10.1 -1.31,1.51 -8.28,8.75 -6.98,7.19 -19.69,20.16 z"
       clip-path="url(#clip860)"
       inkscape:connector-curvature="0"
       style="fill:#000000;fill-opacity:1;fill-rule:evenodd" />
    <path
       id="path55"
       d="m 0,0 m 1747.4,2884.48 q 7.55,1.62 11.77,6.72 4.27,5.11 4.27,12.61 0,11.51 -7.92,17.81 -7.91,6.3 -22.5,6.3 -4.89,0 -10.1,-0.99 -5.16,-0.93 -10.68,-2.86 v -10.16 q 4.38,2.55 9.59,3.86 5.2,1.3 10.88,1.3 9.9,0 15.05,-3.91 5.21,-3.9 5.21,-11.35 0,-6.88 -4.84,-10.73 -4.79,-3.91 -13.39,-3.91 h -9.06 v -8.64 h 9.48 q 7.76,0 11.87,-3.08 4.12,-3.12 4.12,-8.95 0,-5.99 -4.27,-9.17 -4.22,-3.23 -12.14,-3.23 -4.32,0 -9.27,0.94 -4.95,0.93 -10.88,2.91 v -9.37 q 5.99,-1.67 11.19,-2.5 5.26,-0.83 9.9,-0.83 11.98,0 18.96,5.46 6.98,5.42 6.98,14.69 0,6.46 -3.7,10.94 -3.7,4.43 -10.52,6.14 z"
       clip-path="url(#clip860)"
       inkscape:connector-curvature="0"
       style="fill:#000000;fill-opacity:1;fill-rule:evenodd" />
    <path
       id="path57"
       d="m 0,0 m 2189.55,2857.82 -26.56,41.51 h 26.56 v -41.51 m -2.76,-9.17 h 13.23 v 50.68 h 11.1 v 8.75 h -11.1 v 18.33 h -10.47 v -18.33 h -35.1 v -10.16 z"
       clip-path="url(#clip860)"
       inkscape:connector-curvature="0"
       style="fill:#000000;fill-opacity:1;fill-rule:evenodd" />
    <path
       id="path59"
       d="m 0,0 m 2605.85,2848.65 h 41.3 v 8.86 h -31.66 v 19.06 q 2.29,-0.78 4.58,-1.15 2.29,-0.41 4.58,-0.41 13.02,0 20.63,7.13 7.6,7.14 7.6,19.32 0,12.56 -7.81,19.54 -7.81,6.92 -22.03,6.92 -4.9,0 -10,-0.83 -5.05,-0.83 -10.47,-2.5 v -10.57 q 4.69,2.55 9.69,3.8 5,1.25 10.57,1.25 9.01,0 14.27,-4.74 5.26,-4.74 5.26,-12.87 0,-8.12 -5.26,-12.86 -5.26,-4.74 -14.27,-4.74 -4.22,0 -8.44,0.94 -4.17,0.93 -8.54,2.91 z"
       clip-path="url(#clip860)"
       inkscape:connector-curvature="0"
       style="fill:#000000;fill-opacity:1;fill-rule:evenodd" />
    <path
       id="path61"
       d="m 0,0 m 3073.58,2883.34 q -7.09,0 -11.25,4.84 -4.12,4.85 -4.12,13.28 0,8.39 4.12,13.29 4.16,4.84 11.25,4.84 7.08,0 11.2,-4.84 4.16,-4.9 4.16,-13.29 0,-8.43 -4.16,-13.28 -4.12,-4.84 -11.2,-4.84 m 20.88,-32.97 v 9.58 q -3.96,-1.87 -8.02,-2.86 -4.01,-0.99 -7.97,-0.99 -10.41,0 -15.93,7.03 -5.47,7.03 -6.25,21.25 3.07,-4.53 7.7,-6.93 4.64,-2.44 10.21,-2.44 11.72,0 18.49,7.13 6.83,7.08 6.83,19.32 0,11.98 -7.09,19.22 -7.08,7.24 -18.85,7.24 -13.49,0 -20.63,-10.31 -7.13,-10.36 -7.13,-30 0,-18.44 8.75,-29.37 8.75,-10.99 23.49,-10.99 3.96,0 7.97,0.78 4.06,0.78 8.43,2.34 z"
       clip-path="url(#clip860)"
       inkscape:connector-curvature="0"
       style="fill:#000000;fill-opacity:1;fill-rule:evenodd" />
    <path
       id="path63"
       d="m 0,0 m 264.052,2706.75 q -8.125,0 -12.24,8.03 -4.062,7.96 -4.062,24.01 0,15.99 4.062,24.01 4.115,7.96 12.24,7.96 8.177,0 12.239,-7.96 4.115,-8.02 4.115,-24.01 0,-16.05 -4.115,-24.01 -4.062,-8.03 -12.239,-8.03 m 0,-8.33 q 13.073,0 19.947,10.37 6.928,10.31 6.928,30 0,19.63 -6.928,30 -6.874,10.31 -19.947,10.31 -13.073,0 -20,-10.31 -6.875,-10.37 -6.875,-30 0,-19.69 6.875,-30 6.927,-10.37 20,-10.37 z"
       clip-path="url(#clip860)"
       inkscape:connector-curvature="0"
       style="fill:#000000;fill-opacity:1;fill-rule:evenodd" />
    <path
       id="path65"
       d="m 0,0 m 246.135,2115.47 h 17.188 v -59.33 l -18.698,3.75 v -9.58 l 18.593,-3.75 h 10.521 v 68.91 h 17.188 v 8.85 h -44.792 z"
       clip-path="url(#clip860)"
       inkscape:connector-curvature="0"
       style="fill:#000000;fill-opacity:1;fill-rule:evenodd" />
    <path
       id="path67"
       d="m 0,0 m 254.208,1462.2 h 36.719 v 8.85 h -49.375 v -8.85 q 5.989,-6.2 16.302,-16.62 10.364,-10.47 13.021,-13.49 5.052,-5.67 7.031,-9.58 2.031,-3.96 2.031,-7.76 0,-6.2 -4.375,-10.1 -4.323,-3.91 -11.302,-3.91 -4.948,0 -10.469,1.72 -5.468,1.72 -11.718,5.21 v -10.63 q 6.354,-2.55 11.875,-3.85 5.52,-1.3 10.104,-1.3 12.083,0 19.27,6.04 7.188,6.04 7.188,16.14 0,4.79 -1.823,9.12 -1.771,4.27 -6.51,10.1 -1.303,1.51 -8.282,8.75 -6.979,7.19 -19.687,20.16 z"
       clip-path="url(#clip860)"
       inkscape:connector-curvature="0"
       style="fill:#000000;fill-opacity:1;fill-rule:evenodd" />
    <path
       id="path69"
       d="m 0,0 m 274.885,775.857 q 7.552,1.615 11.771,6.719 4.271,5.104 4.271,12.604 0,11.51 -7.917,17.812 -7.917,6.303 -22.5,6.303 -4.896,0 -10.104,-0.99 -5.156,-0.938 -10.677,-2.865 v -10.156 q 4.375,2.552 9.583,3.854 5.208,1.302 10.886,1.302 9.895,0 15.052,-3.906 5.208,-3.906 5.208,-11.354 0,-6.875 -4.844,-10.729 -4.792,-3.906 -13.385,-3.906 h -9.063 v -8.646 h 9.479 q 7.761,0 11.875,-3.073 4.115,-3.125 4.115,-8.958 0,-5.99 -4.271,-9.167 -4.219,-3.229 -12.135,-3.229 -4.323,0 -9.271,0.937 -4.948,0.938 -10.885,2.917 v -9.375 q 5.989,-1.666 11.197,-2.5 5.261,-0.833 9.896,-0.833 11.979,0 18.958,5.469 6.98,5.416 6.98,14.687 0,6.458 -3.698,10.937 -3.698,4.428 -10.521,6.146 z"
       clip-path="url(#clip860)"
       inkscape:connector-curvature="0"
       style="fill:#000000;fill-opacity:1;fill-rule:evenodd" />
    <path
       id="path71"
       d="m 0,0 m 269.364,95.9229 -26.562,41.5101 h 26.562 V 95.9229 m -2.76,-9.1667 h 13.229 v 50.6768 h 11.094 v 8.75 h -11.094 v 18.333 H 269.364 V 146.183 H 234.26 v -10.156 z"
       clip-path="url(#clip860)"
       inkscape:connector-curvature="0"
       style="fill:#000000;fill-opacity:1;fill-rule:evenodd" />
    <polyline
       id="polyline73"
       points="   322.927,47.2441 3152.76,47.2441    "
       style="fill:none;stroke:#000000;stroke-width:4;stroke-opacity:1"
       clip-path="url(#clip860)" />
    <polyline
       id="polyline75"
       points="   3152.76,2817.1 3152.76,47.2441    "
       style="fill:none;stroke:#000000;stroke-width:4;stroke-opacity:1"
       clip-path="url(#clip860)" />
    <path
       id="path77"
       d="m 0,0 m 1270.76,2986.48 h 18.89 l 45.97,86.73 v -86.73 h 13.61 v 103.68 h -18.89 l -45.97,-86.74 v 86.74 h -13.61 z"
       clip-path="url(#clip860)"
       inkscape:connector-curvature="0"
       style="fill:#000000;fill-opacity:1;fill-rule:evenodd" />
    <path
       id="path79"
       d="m 0,0 m 1392.77,3021.34 q -10.27,0 -16.25,8.05 -5.97,7.99 -5.97,21.95 0,13.95 5.9,22.01 5.98,7.99 16.32,7.99 10.21,0 16.18,-8.06 5.98,-8.05 5.98,-21.94 0,-13.82 -5.98,-21.88 -5.97,-8.12 -16.18,-8.12 m 0,-10.84 q 16.67,0 26.18,10.84 9.52,10.83 9.52,30 0,19.09 -9.52,30 -9.51,10.83 -26.18,10.83 -16.73,0 -26.25,-10.83 -9.44,-10.91 -9.44,-30 0,-19.17 9.44,-30 9.52,-10.84 26.25,-10.84 z"
       clip-path="url(#clip860)"
       inkscape:connector-curvature="0"
       style="fill:#000000;fill-opacity:1;fill-rule:evenodd" />
    <path
       id="path81"
       d="m 0,0 m 1493.05,3024.18 v -42.08 h 12.78 v 108.06 h -12.78 v -11.67 q -4.03,6.94 -10.21,10.35 -6.11,3.33 -14.72,3.33 -14.1,0 -22.99,-11.25 -8.81,-11.25 -8.81,-29.58 0,-18.34 8.81,-29.59 8.89,-11.25 22.99,-11.25 8.61,0 14.72,3.41 6.18,3.33 10.21,10.27 m -43.54,27.16 q 0,14.09 5.76,22.15 5.84,7.99 15.98,7.99 10.13,0 15.97,-7.99 5.83,-8.06 5.83,-22.15 0,-14.1 -5.83,-22.09 -5.84,-8.05 -15.97,-8.05 -10.14,0 -15.98,8.05 -5.76,7.99 -5.76,22.09 z"
       clip-path="url(#clip860)"
       inkscape:connector-curvature="0"
       style="fill:#000000;fill-opacity:1;fill-rule:evenodd" />
    <path
       id="path83"
       d="m 0,0 m 1585.76,3048.07 v 6.25 h -58.75 q 0.83,13.2 7.92,20.14 7.15,6.88 19.86,6.88 7.36,0 14.23,-1.81 6.95,-1.8 13.75,-5.42 v 12.09 q -6.87,2.91 -14.09,4.44 -7.23,1.53 -14.66,1.53 -18.61,0 -29.51,-10.83 -10.83,-10.84 -10.83,-29.31 0,-19.1 10.27,-30.28 10.35,-11.25 27.85,-11.25 15.69,0 24.79,10.14 9.17,10.07 9.17,27.43 m -12.78,-3.75 q -0.14,-10.48 -5.9,-16.73 -5.7,-6.25 -15.14,-6.25 -10.69,0 -17.15,6.04 -6.39,6.04 -7.36,17.01 z"
       clip-path="url(#clip860)"
       inkscape:connector-curvature="0"
       style="fill:#000000;fill-opacity:1;fill-rule:evenodd" />
    <path
       id="path85"
       d="m 0,0 m 1671.66,3090.16 -39.58,-103.68 h 14.65 l 32.85,87.29 32.91,-87.29 h 14.59 l -39.52,103.68 z"
       clip-path="url(#clip860)"
       inkscape:connector-curvature="0"
       style="fill:#000000;fill-opacity:1;fill-rule:evenodd" />
    <path
       id="path87"
       d="m 0,0 m 1764.79,3051.06 q -15.49,0 -21.46,3.54 -5.97,3.54 -5.97,12.08 0,6.81 4.44,10.84 4.51,3.96 12.22,3.96 10.63,0 17.02,-7.5 6.45,-7.57 6.45,-20.07 v -2.85 h -12.7 m 25.48,-5.28 v 44.38 h -12.78 v -11.81 q -4.37,7.08 -10.9,10.49 -6.53,3.33 -15.97,3.33 -11.95,0 -19.03,-6.67 -7.01,-6.73 -7.01,-17.98 0,-13.13 8.75,-19.79 8.82,-6.67 26.25,-6.67 h 17.91 v -1.25 q 0,-8.82 -5.83,-13.61 -5.76,-4.86 -16.25,-4.86 -6.67,0 -12.99,1.59 -6.31,1.6 -12.15,4.8 v -11.81 q 7.02,-2.71 13.61,-4.03 6.6,-1.39 12.85,-1.39 16.87,0 25.21,8.75 8.33,8.75 8.33,26.53 z"
       clip-path="url(#clip860)"
       inkscape:connector-curvature="0"
       style="fill:#000000;fill-opacity:1;fill-rule:evenodd" />
    <path
       id="path89"
       d="m 0,0 m 1848.74,3024.32 q -2.15,-1.25 -4.72,-1.8 -2.5,-0.63 -5.55,-0.63 -10.84,0 -16.67,7.09 -5.76,7.01 -5.76,20.2 v 40.98 h -12.85 v -77.78 h 12.85 v 12.08 q 4.02,-7.08 10.48,-10.48 6.46,-3.48 15.7,-3.48 1.32,0 2.91,0.21 1.6,0.14 3.54,0.49 z"
       clip-path="url(#clip860)"
       inkscape:connector-curvature="0"
       style="fill:#000000;fill-opacity:1;fill-rule:evenodd" />
    <path
       id="path91"
       d="m 0,0 m 1862.15,3012.38 h 12.77 v 77.78 h -12.77 v -77.78 m 0,-30.28 h 12.77 v 16.18 h -12.77 z"
       clip-path="url(#clip860)"
       inkscape:connector-curvature="0"
       style="fill:#000000;fill-opacity:1;fill-rule:evenodd" />
    <path
       id="path93"
       d="m 0,0 m 1923.67,3051.06 q -15.48,0 -21.45,3.54 -5.98,3.54 -5.98,12.08 0,6.81 4.45,10.84 4.51,3.96 12.22,3.96 10.62,0 17.01,-7.5 6.46,-7.57 6.46,-20.07 v -2.85 h -12.71 m 25.49,-5.28 v 44.38 h -12.78 v -11.81 q -4.37,7.08 -10.9,10.49 -6.53,3.33 -15.97,3.33 -11.95,0 -19.03,-6.67 -7.01,-6.73 -7.01,-17.98 0,-13.13 8.75,-19.79 8.81,-6.67 26.25,-6.67 h 17.91 v -1.25 q 0,-8.82 -5.83,-13.61 -5.77,-4.86 -16.25,-4.86 -6.67,0 -12.99,1.59 -6.32,1.6 -12.15,4.8 v -11.81 q 7.01,-2.71 13.61,-4.03 6.6,-1.39 12.85,-1.39 16.87,0 25.21,8.75 8.33,8.75 8.33,26.53 z"
       clip-path="url(#clip860)"
       inkscape:connector-curvature="0"
       style="fill:#000000;fill-opacity:1;fill-rule:evenodd" />
    <path
       id="path95"
       d="m 0,0 m 2018.4,3051.34 q 0,-14.1 -5.84,-22.09 -5.76,-8.05 -15.9,-8.05 -10.14,0 -15.97,8.05 -5.77,7.99 -5.77,22.09 0,14.09 5.77,22.15 5.83,7.99 15.97,7.99 10.14,0 15.9,-7.99 5.84,-8.06 5.84,-22.15 m -43.48,-27.16 q 4.03,-6.94 10.14,-10.27 6.18,-3.41 14.72,-3.41 14.17,0 22.99,11.25 8.89,11.25 8.89,29.59 0,18.33 -8.89,29.58 -8.82,11.25 -22.99,11.25 -8.54,0 -14.72,-3.33 -6.11,-3.41 -10.14,-10.35 v 11.67 h -12.84 V 2982.1 h 12.84 z"
       clip-path="url(#clip860)"
       inkscape:connector-curvature="0"
       style="fill:#000000;fill-opacity:1;fill-rule:evenodd" />
    <path
       id="path97"
       d="m 0,0 m 2045.06,2982.1 h 12.78 v 108.06 h -12.78 z"
       clip-path="url(#clip860)"
       inkscape:connector-curvature="0"
       style="fill:#000000;fill-opacity:1;fill-rule:evenodd" />
    <path
       id="path99"
       d="m 0,0 m 2137.77,3048.07 v 6.25 h -58.75 q 0.83,13.2 7.92,20.14 7.15,6.88 19.86,6.88 7.36,0 14.23,-1.81 6.95,-1.8 13.75,-5.42 v 12.09 q -6.87,2.91 -14.09,4.44 -7.23,1.53 -14.66,1.53 -18.61,0 -29.51,-10.83 -10.83,-10.84 -10.83,-29.31 0,-19.1 10.27,-30.28 10.35,-11.25 27.85,-11.25 15.7,0 24.79,10.14 9.17,10.07 9.17,27.43 m -12.78,-3.75 q -0.14,-10.48 -5.9,-16.73 -5.7,-6.25 -15.14,-6.25 -10.69,0 -17.15,6.04 -6.39,6.04 -7.36,17.01 z"
       clip-path="url(#clip860)"
       inkscape:connector-curvature="0"
       style="fill:#000000;fill-opacity:1;fill-rule:evenodd" />
    <path
       id="path101"
       d="m 0,0 m 2200.76,3014.67 v 12.08 q -5.42,-2.77 -11.25,-4.16 -5.84,-1.39 -12.09,-1.39 -9.51,0 -14.3,2.91 -4.73,2.92 -4.73,8.75 0,4.45 3.41,7.02 3.4,2.5 13.68,4.79 l 4.37,0.97 q 13.61,2.92 19.31,8.27 5.76,5.27 5.76,14.79 0,10.83 -8.61,17.15 -8.54,6.32 -23.54,6.32 -6.25,0 -13.06,-1.25 -6.73,-1.18 -14.23,-3.61 v -13.2 q 7.08,3.68 13.96,5.56 6.87,1.81 13.61,1.81 9.02,0 13.89,-3.06 4.86,-3.13 4.86,-8.75 0,-5.21 -3.54,-7.99 -3.48,-2.77 -15.35,-5.34 l -4.45,-1.05 q -11.87,-2.5 -17.15,-7.63 -5.28,-5.21 -5.28,-14.24 0,-10.97 7.78,-16.94 7.78,-5.98 22.08,-5.98 7.09,0 13.34,1.05 6.25,1.04 11.53,3.12 z"
       clip-path="url(#clip860)"
       inkscape:connector-curvature="0"
       style="fill:#000000;fill-opacity:1;fill-rule:evenodd" />
    <path
       id="path103"
       d="m 0,0 m 75.4622,1707 h 14.7916 q -6.5972,7.08 -9.861,15.14 -3.2639,7.98 -3.2639,17.01 0,17.78 10.9027,27.22 10.8333,9.45 31.3884,9.45 20.486,0 31.389,-9.45 10.833,-9.44 10.833,-27.22 0,-9.03 -3.264,-17.01 -3.263,-8.06 -9.861,-15.14 h 14.653 q 5,7.36 7.5,15.62 2.5,8.2 2.5,17.36 0,23.54 -14.375,37.09 -14.444,13.54 -39.375,13.54 -24.9995,0 -39.3745,-13.54 -14.4443,-13.55 -14.4443,-37.09 0,-9.3 2.5,-17.5 2.4305,-8.26 7.361,-15.48 z"
       clip-path="url(#clip860)"
       inkscape:connector-curvature="0"
       style="fill:#000000;fill-opacity:1;fill-rule:evenodd" />
    <path
       id="path105"
       d="m 0,0 m 102.337,1663.46 q 0,10.27 8.056,16.25 7.986,5.97 21.944,5.97 13.958,0 22.014,-5.91 7.986,-5.97 7.986,-16.31 0,-10.21 -8.056,-16.19 -8.055,-5.97 -21.944,-5.97 -13.819,0 -21.875,5.97 -8.125,5.98 -8.125,16.19 m -10.8332,0 q 0,-16.67 10.8332,-26.18 10.833,-9.52 30,-9.52 19.097,0 30,9.52 10.833,9.51 10.833,26.18 0,16.73 -10.833,26.25 -10.903,9.44 -30,9.44 -19.167,0 -30,-9.44 -10.8332,-9.52 -10.8332,-26.25 z"
       clip-path="url(#clip860)"
       inkscape:connector-curvature="0"
       style="fill:#000000;fill-opacity:1;fill-rule:evenodd" />
    <path
       id="path107"
       d="m 0,0 m 124.212,1549.71 h 46.944 v 12.77 h -46.527 q -11.042,0 -16.528,4.31 -5.486,4.3 -5.486,12.92 0,10.34 6.597,16.32 6.597,5.97 17.986,5.97 h 43.958 v 12.84 H 93.3788 V 1602 h 12.0832 q -7.0138,-4.59 -10.486,-10.77 -3.4722,-6.25 -3.4722,-14.37 0,-13.4 8.3333,-20.28 8.2639,-6.87 24.3749,-6.87 z"
       clip-path="url(#clip860)"
       inkscape:connector-curvature="0"
       style="fill:#000000;fill-opacity:1;fill-rule:evenodd" />
    <path
       id="path109"
       d="m 0,0 m 95.6705,1486.72 h 12.0835 q -2.778,5.42 -4.167,11.25 -1.389,5.83 -1.389,12.08 0,9.52 2.917,14.31 2.916,4.72 8.75,4.72 4.444,0 7.014,-3.4 2.5,-3.4 4.791,-13.68 l 0.973,-4.38 q 2.916,-13.61 8.263,-19.3 5.278,-5.77 14.792,-5.77 10.833,0 17.153,8.61 6.319,8.55 6.319,23.55 0,6.25 -1.25,13.05 -1.181,6.74 -3.611,14.24 h -13.194 q 3.68,-7.09 5.555,-13.96 1.806,-6.88 1.806,-13.61 0,-9.03 -3.056,-13.89 -3.125,-4.86 -8.75,-4.86 -5.208,0 -7.986,3.54 -2.778,3.47 -5.347,15.35 l -1.042,4.44 q -2.5,11.88 -7.639,17.15 -5.208,5.28 -14.236,5.28 -10.972,0 -16.944,-7.78 -5.9722,-7.77 -5.9722,-22.08 0,-7.08 1.0417,-13.33 1.0416,-6.25 3.125,-11.53 z"
       clip-path="url(#clip860)"
       inkscape:connector-curvature="0"
       style="fill:#000000;fill-opacity:1;fill-rule:evenodd" />
    <path
       id="path111"
       d="m 0,0 m 71.2956,1456.51 h 22.0832 v -26.32 h 9.9302 v 26.32 h 42.222 q 9.514,0 12.222,-2.57 2.709,-2.64 2.709,-10.62 v -13.13 h 10.694 v 13.13 q 0,14.79 -5.486,20.41 -5.555,5.63 -20.139,5.63 h -42.222 v 9.37 h -9.9302 v -9.37 H 71.2956 Z"
       clip-path="url(#clip860)"
       inkscape:connector-curvature="0"
       style="fill:#000000;fill-opacity:1;fill-rule:evenodd" />
    <path
       id="path113"
       d="m 0,0 m 105.323,1371.72 q -1.25,2.15 -1.805,4.72 -0.625,2.5 -0.625,5.56 0,10.83 7.083,16.67 7.014,5.76 20.208,5.76 h 40.972 v 12.85 H 93.3788 v -12.85 h 12.0832 q -7.0832,-4.03 -10.486,-10.49 -3.4722,-6.46 -3.4722,-15.69 0,-1.32 0.2083,-2.92 0.1389,-1.6 0.4861,-3.54 z"
       clip-path="url(#clip860)"
       inkscape:connector-curvature="0"
       style="fill:#000000;fill-opacity:1;fill-rule:evenodd" />
    <path
       id="path115"
       d="m 0,0 m 132.059,1322.97 q 0,15.49 3.542,21.46 3.541,5.97 12.083,5.97 6.806,0 10.833,-4.44 3.959,-4.52 3.959,-12.23 0,-10.62 -7.5,-17.01 -7.57,-6.46 -20.07,-6.46 h -2.847 v 12.71 m -5.278,-25.48 h 44.375 v 12.77 h -11.805 q 7.083,4.38 10.486,10.91 3.333,6.52 3.333,15.97 0,11.94 -6.667,19.03 -6.736,7.01 -17.986,7.01 -13.125,0 -19.791,-8.75 -6.667,-8.82 -6.667,-26.25 v -17.92 h -1.25 q -8.819,0 -13.611,5.84 -4.861,5.76 -4.861,16.25 0,6.66 1.597,12.98 1.598,6.32 4.792,12.15 H 96.9204 q -2.7083,-7.01 -4.0277,-13.61 -1.3889,-6.59 -1.3889,-12.84 0,-16.88 8.7502,-25.21 8.75,-8.33 26.527,-8.33 z"
       clip-path="url(#clip860)"
       inkscape:connector-curvature="0"
       style="fill:#000000;fill-opacity:1;fill-rule:evenodd" />
    <path
       id="path117"
       d="m 0,0 m 93.3788,1284.08 v -12.78 h 77.7772 v 12.78 H 93.3788 m -30.2776,0 v -12.78 h 16.1804 v 12.78 z"
       clip-path="url(#clip860)"
       inkscape:connector-curvature="0"
       style="fill:#000000;fill-opacity:1;fill-rule:evenodd" />
    <path
       id="path119"
       d="m 0,0 m 124.212,1193.25 h 46.944 v 12.78 h -46.527 q -11.042,0 -16.528,4.3 -5.486,4.31 -5.486,12.92 0,10.35 6.597,16.32 6.597,5.97 17.986,5.97 h 43.958 v 12.85 H 93.3788 v -12.85 h 12.0832 q -7.0138,-4.58 -10.486,-10.76 -3.4722,-6.25 -3.4722,-14.38 0,-13.4 8.3333,-20.28 8.2639,-6.87 24.3749,-6.87 z"
       clip-path="url(#clip860)"
       inkscape:connector-curvature="0"
       style="fill:#000000;fill-opacity:1;fill-rule:evenodd" />
    <path
       id="path121"
       d="m 0,0 m 71.2956,1167.21 h 22.0832 v -26.32 h 9.9302 v 26.32 h 42.222 q 9.514,0 12.222,-2.57 2.709,-2.64 2.709,-10.63 v -13.12 h 10.694 v 13.12 q 0,14.8 -5.486,20.42 -5.555,5.63 -20.139,5.63 h -42.222 v 9.37 h -9.9302 v -9.37 H 71.2956 Z"
       clip-path="url(#clip860)"
       inkscape:connector-curvature="0"
       style="fill:#000000;fill-opacity:1;fill-rule:evenodd" />
    <path
       id="path123"
       d="m 0,0 m 95.6705,1077.9 h 12.0835 q -2.778,5.42 -4.167,11.25 -1.389,5.84 -1.389,12.09 0,9.51 2.917,14.3 2.916,4.72 8.75,4.72 4.444,0 7.014,-3.4 2.5,-3.4 4.791,-13.68 l 0.973,-4.37 q 2.916,-13.62 8.263,-19.31 5.278,-5.76 14.792,-5.76 10.833,0 17.153,8.61 6.319,8.54 6.319,23.54 0,6.25 -1.25,13.05 -1.181,6.74 -3.611,14.24 h -13.194 q 3.68,-7.08 5.555,-13.96 1.806,-6.87 1.806,-13.61 0,-9.03 -3.056,-13.89 -3.125,-4.86 -8.75,-4.86 -5.208,0 -7.986,3.54 -2.778,3.48 -5.347,15.35 l -1.042,4.44 q -2.5,11.88 -7.639,17.16 -5.208,5.27 -14.236,5.27 -10.972,0 -16.944,-7.77 -5.9722,-7.78 -5.9722,-22.09 0,-7.08 1.0417,-13.33 1.0416,-6.25 3.125,-11.53 z"
       clip-path="url(#clip860)"
       inkscape:connector-curvature="0"
       style="fill:#000000;fill-opacity:1;fill-rule:evenodd" />
    <path
       id="path125"
       d="M 403.016,1432.17 H 1292.9 V 778.904 H 403.016 Z"
       clip-path="url(#clip862)"
       inkscape:connector-curvature="0"
       style="fill:#808080;fill-opacity:1;fill-rule:evenodd" />
    <polyline
       id="polyline127"
       points="   403.016,1432.17 1292.9,1432.17 1292.9,778.904 403.016,778.904 403.016,1432.17    "
       style="fill:none;stroke:#000000;stroke-width:4;stroke-opacity:1"
       clip-path="url(#clip862)" />
    <path
       id="path129"
       d="m 1292.9,2085.44 h 889.88 V 1432.17 H 1292.9 Z"
       clip-path="url(#clip862)"
       inkscape:connector-curvature="0"
       style="fill:#808080;fill-opacity:1;fill-rule:evenodd" />
    <polyline
       id="polyline131"
       points="   1292.9,2085.44 2182.78,2085.44 2182.78,1432.17 1292.9,1432.17 1292.9,2085.44    "
       style="fill:none;stroke:#000000;stroke-width:4;stroke-opacity:1"
       clip-path="url(#clip862)" />
    <path
       id="path133"
       d="m 2182.78,2738.71 h 889.89 v -653.27 h -889.89 z"
       clip-path="url(#clip862)"
       inkscape:connector-curvature="0"
       style="fill:#808080;fill-opacity:1;fill-rule:evenodd" />
    <polyline
       id="polyline135"
       points="   2182.78,2738.71 3072.67,2738.71 3072.67,2085.44 2182.78,2085.44 2182.78,2738.71    "
       style="fill:none;stroke:#000000;stroke-width:4;stroke-opacity:1"
       clip-path="url(#clip862)" />
    <path
       id="path137"
       d="m 565.487,392.27 v 120 h 120 v -120 z"
       clip-path="url(#clip862)"
       inkscape:connector-curvature="0"
       style="fill:#0000ff;fill-opacity:1;fill-rule:evenodd;stroke:#000000;stroke-width:6.4000001;stroke-opacity:1" />
    <path
       id="path139"
       d="m 1455.37,392.27 v 120 h 120 v -120 z"
       clip-path="url(#clip862)"
       inkscape:connector-curvature="0"
       style="fill:#0000ff;fill-opacity:1;fill-rule:evenodd;stroke:#000000;stroke-width:6.4000001;stroke-opacity:1" />
    <path
       id="path141"
       d="m 2345.25,392.27 v 120 h 120 v -120 z"
       clip-path="url(#clip862)"
       inkscape:connector-curvature="0"
       style="fill:#0000ff;fill-opacity:1;fill-rule:evenodd;stroke:#000000;stroke-width:6.4000001;stroke-opacity:1" />
    <path
       id="path143"
       d="m 0,0 m 819.104,1145.57 h 22.916 v -79.09 l -24.93,5 v -12.78 l 24.791,-5 h 14.028 v 91.87 h 22.917 v 11.81 h -59.722 z"
       clip-path="url(#clip860)"
       inkscape:connector-curvature="0"
       style="fill:#000000;fill-opacity:1;fill-rule:evenodd" />
    <path
       id="path145"
       d="m 0,0 m 1721.8,1798.84 h 48.96 v 11.81 h -65.84 v -11.81 q 7.99,-8.26 21.74,-22.15 13.82,-13.96 17.36,-17.99 6.74,-7.57 9.38,-12.78 2.71,-5.27 2.71,-10.34 0,-8.27 -5.84,-13.48 -5.76,-5.2 -15.07,-5.2 -6.59,0 -13.96,2.29 -7.29,2.29 -15.62,6.94 v -14.16 q 8.47,-3.41 15.83,-5.14 7.36,-1.74 13.47,-1.74 16.12,0 25.7,8.06 9.58,8.05 9.58,21.52 0,6.39 -2.43,12.16 -2.36,5.69 -8.68,13.47 -1.74,2.01 -11.04,11.67 -9.31,9.58 -26.25,26.87 z"
       clip-path="url(#clip860)"
       inkscape:connector-curvature="0"
       style="fill:#000000;fill-opacity:1;fill-rule:evenodd" />
    <path
       id="path147"
       d="m 0,0 m 2640.47,2408.01 q 10.07,2.15 15.69,8.96 5.7,6.81 5.7,16.81 0,15.34 -10.56,23.74 -10.55,8.41 -30,8.41 -6.53,0 -13.47,-1.32 -6.88,-1.25 -14.24,-3.82 v -13.54 q 5.84,3.4 12.78,5.14 6.95,1.73 14.51,1.73 13.2,0 20.07,-5.21 6.95,-5.2 6.95,-15.13 0,-9.17 -6.46,-14.31 -6.39,-5.21 -17.85,-5.21 h -12.08 v -11.53 h 12.64 q 10.35,0 15.83,-4.09 5.49,-4.17 5.49,-11.95 0,-7.98 -5.7,-12.22 -5.62,-4.31 -16.18,-4.31 -5.76,0 -12.36,1.25 -6.6,1.25 -14.51,3.89 v -12.5 q 7.98,-2.22 14.93,-3.33 7.01,-1.11 13.19,-1.11 15.97,0 25.28,7.29 9.31,7.22 9.31,19.58 0,8.61 -4.93,14.59 -4.94,5.9 -14.03,8.19 z"
       clip-path="url(#clip860)"
       inkscape:connector-curvature="0"
       style="fill:#000000;fill-opacity:1;fill-rule:evenodd" />
  </g>
</svg>
