<?xml version="1.0" encoding="UTF-8" standalone="no"?>
<svg
   xmlns:dc="http://purl.org/dc/elements/1.1/"
   xmlns:cc="http://creativecommons.org/ns#"
   xmlns:rdf="http://www.w3.org/1999/02/22-rdf-syntax-ns#"
   xmlns:svg="http://www.w3.org/2000/svg"
   xmlns="http://www.w3.org/2000/svg"
   xmlns:sodipodi="http://sodipodi.sourceforge.net/DTD/sodipodi-0.dtd"
   xmlns:inkscape="http://www.inkscape.org/namespaces/inkscape"
   width="400"
   height="400"
   viewBox="0 0 1600 1600"
   version="1.1"
   id="svg229"
   sodipodi:docname="matrix0_layout.svg"
   inkscape:version="0.92.3 (2405546, 2018-03-11)">
  <metadata
     id="metadata233">
    <rdf:RDF>
      <cc:Work
         rdf:about="">
        <dc:format>image/svg+xml</dc:format>
        <dc:type
           rdf:resource="http://purl.org/dc/dcmitype/StillImage" />
        <dc:title></dc:title>
      </cc:Work>
    </rdf:RDF>
  </metadata>
  <sodipodi:namedview
     pagecolor="#ffffff"
     bordercolor="#666666"
     borderopacity="1"
     objecttolerance="10"
     gridtolerance="10"
     guidetolerance="10"
     inkscape:pageopacity="0"
     inkscape:pageshadow="2"
     inkscape:window-width="1920"
     inkscape:window-height="1015"
     id="namedview231"
     showgrid="false"
     fit-margin-top="0"
     fit-margin-left="0"
     fit-margin-right="0"
     fit-margin-bottom="0"
     inkscape:zoom="0.295"
     inkscape:cx="-415.25424"
     inkscape:cy="200"
     inkscape:window-x="0"
     inkscape:window-y="0"
     inkscape:window-maximized="1"
     inkscape:current-layer="svg229" />
  <defs
     id="defs5">
    <clipPath
       id="clip920">
      <rect
         x="0"
         y="0"
         width="3200"
         height="3200"
         id="rect2" />
    </clipPath>
  </defs>
  <defs
     id="defs12">
    <clipPath
       id="clip921">
      <rect
         x="640"
         y="320"
         width="2241"
         height="2241"
         id="rect9" />
    </clipPath>
  </defs>
  <defs
     id="defs19">
    <clipPath
       id="clip922">
      <rect
         x="373"
         y="47"
         width="2780"
         height="2771"
         id="rect16" />
    </clipPath>
  </defs>
  <g
     id="g1146"
     transform="scale(0.5)">
    <path
       id="path7"
       d="M 0,3200 H 3200 V 0 H 0 Z"
       clip-path="url(#clip920)"
       inkscape:connector-curvature="0"
       style="fill:#ffffff;fill-opacity:1;fill-rule:evenodd" />
    <path
       id="path14"
       d="M 373.343,2817.1 H 3152.76 V 47.2441 H 373.343 Z"
       clip-path="url(#clip920)"
       inkscape:connector-curvature="0"
       style="fill:#ffffff;fill-opacity:1;fill-rule:evenodd" />
    <polyline
       id="polyline21"
       points="   373.343,2817.1 3152.76,2817.1    "
       style="fill:none;stroke:#000000;stroke-width:4;stroke-opacity:1"
       clip-path="url(#clip920)" />
    <polyline
       id="polyline23"
       points="   373.343,2817.1 373.343,47.2441    "
       style="fill:none;stroke:#000000;stroke-width:4;stroke-opacity:1"
       clip-path="url(#clip920)" />
    <polyline
       id="polyline25"
       points="   452.006,2817.1 452.006,2783.86    "
       style="fill:none;stroke:#000000;stroke-width:4;stroke-opacity:1"
       clip-path="url(#clip920)" />
    <polyline
       id="polyline27"
       points="   1180.36,2817.1 1180.36,2783.86    "
       style="fill:none;stroke:#000000;stroke-width:4;stroke-opacity:1"
       clip-path="url(#clip920)" />
    <polyline
       id="polyline29"
       points="   1908.72,2817.1 1908.72,2783.86    "
       style="fill:none;stroke:#000000;stroke-width:4;stroke-opacity:1"
       clip-path="url(#clip920)" />
    <polyline
       id="polyline31"
       points="   2637.08,2817.1 2637.08,2783.86    "
       style="fill:none;stroke:#000000;stroke-width:4;stroke-opacity:1"
       clip-path="url(#clip920)" />
    <polyline
       id="polyline33"
       points="   373.343,2738.71 406.696,2738.71    "
       style="fill:none;stroke:#000000;stroke-width:4;stroke-opacity:1"
       clip-path="url(#clip920)" />
    <polyline
       id="polyline35"
       points="   373.343,2135.69 406.696,2135.69    "
       style="fill:none;stroke:#000000;stroke-width:4;stroke-opacity:1"
       clip-path="url(#clip920)" />
    <polyline
       id="polyline37"
       points="   373.343,1532.67 406.696,1532.67    "
       style="fill:none;stroke:#000000;stroke-width:4;stroke-opacity:1"
       clip-path="url(#clip920)" />
    <polyline
       id="polyline39"
       points="   373.343,728.653 406.696,728.653    "
       style="fill:none;stroke:#000000;stroke-width:4;stroke-opacity:1"
       clip-path="url(#clip920)" />
    <polyline
       id="polyline41"
       points="   373.343,125.636 406.696,125.636    "
       style="fill:none;stroke:#000000;stroke-width:4;stroke-opacity:1"
       clip-path="url(#clip920)" />
    <path
       id="path43"
       d="m 0,0 m 452.006,2855.58 q -8.125,0 -12.24,8.02 -4.062,7.97 -4.062,24.01 0,15.99 4.062,24.01 4.115,7.97 12.24,7.97 8.177,0 12.239,-7.97 4.115,-8.02 4.115,-24.01 0,-16.04 -4.115,-24.01 -4.062,-8.02 -12.239,-8.02 m 0,-8.33 q 13.072,0 19.947,10.36 6.927,10.31 6.927,30 0,19.64 -6.927,30 -6.875,10.31 -19.947,10.31 -13.073,0 -20,-10.31 -6.875,-10.36 -6.875,-30 0,-19.69 6.875,-30 6.927,-10.36 20,-10.36 z"
       clip-path="url(#clip920)"
       inkscape:connector-curvature="0"
       style="fill:#000000;fill-opacity:1;fill-rule:evenodd" />
    <path
       id="path45"
       d="m 0,0 m 1158.49,2848.65 h 41.3 v 8.86 h -31.67 v 19.06 q 2.3,-0.78 4.59,-1.15 2.29,-0.41 4.58,-0.41 13.02,0 20.63,7.13 7.6,7.14 7.6,19.32 0,12.56 -7.81,19.54 -7.82,6.92 -22.03,6.92 -4.9,0 -10,-0.83 -5.06,-0.83 -10.47,-2.5 v -10.57 q 4.68,2.55 9.68,3.8 5,1.25 10.58,1.25 9.01,0 14.27,-4.74 5.26,-4.74 5.26,-12.87 0,-8.12 -5.26,-12.86 -5.26,-4.74 -14.27,-4.74 -4.22,0 -8.44,0.94 -4.17,0.93 -8.54,2.91 z"
       clip-path="url(#clip920)"
       inkscape:connector-curvature="0"
       style="fill:#000000;fill-opacity:1;fill-rule:evenodd" />
    <path
       id="path47"
       d="m 0,0 m 1856.69,2917.56 h 17.19 v -59.32 l -18.7,3.75 v -9.59 l 18.59,-3.75 h 10.52 v 68.91 h 17.19 v 8.85 h -44.79 z"
       clip-path="url(#clip920)"
       inkscape:connector-curvature="0"
       style="fill:#000000;fill-opacity:1;fill-rule:evenodd" />
    <path
       id="path49"
       d="m 0,0 m 1935.39,2855.58 q -8.13,0 -12.24,8.02 -4.06,7.97 -4.06,24.01 0,15.99 4.06,24.01 4.11,7.97 12.24,7.97 8.17,0 12.24,-7.97 4.11,-8.02 4.11,-24.01 0,-16.04 -4.11,-24.01 -4.07,-8.02 -12.24,-8.02 m 0,-8.33 q 13.07,0 19.95,10.36 6.92,10.31 6.92,30 0,19.64 -6.92,30 -6.88,10.31 -19.95,10.31 -13.08,0 -20,-10.31 -6.88,-10.36 -6.88,-30 0,-19.69 6.88,-30 6.92,-10.36 20,-10.36 z"
       clip-path="url(#clip920)"
       inkscape:connector-curvature="0"
       style="fill:#000000;fill-opacity:1;fill-rule:evenodd" />
    <path
       id="path51"
       d="m 0,0 m 2586.17,2917.56 h 17.18 v -59.32 l -18.69,3.75 v -9.59 l 18.59,-3.75 h 10.52 v 68.91 h 17.19 v 8.85 h -44.79 z"
       clip-path="url(#clip920)"
       inkscape:connector-curvature="0"
       style="fill:#000000;fill-opacity:1;fill-rule:evenodd" />
    <path
       id="path53"
       d="m 0,0 m 2642.47,2848.65 h 41.3 v 8.86 h -31.67 v 19.06 q 2.3,-0.78 4.59,-1.15 2.29,-0.41 4.58,-0.41 13.02,0 20.63,7.13 7.6,7.14 7.6,19.32 0,12.56 -7.81,19.54 -7.81,6.92 -22.03,6.92 -4.9,0 -10,-0.83 -5.06,-0.83 -10.47,-2.5 v -10.57 q 4.69,2.55 9.69,3.8 5,1.25 10.57,1.25 9.01,0 14.27,-4.74 5.26,-4.74 5.26,-12.87 0,-8.12 -5.26,-12.86 -5.26,-4.74 -14.27,-4.74 -4.22,0 -8.44,0.94 -4.17,0.93 -8.54,2.91 z"
       clip-path="url(#clip920)"
       inkscape:connector-curvature="0"
       style="fill:#000000;fill-opacity:1;fill-rule:evenodd" />
    <path
       id="path55"
       d="m 0,0 m 314.468,2706.75 q -8.125,0 -12.239,8.03 -4.063,7.96 -4.063,24.01 0,15.99 4.063,24.01 4.114,7.96 12.239,7.96 8.177,0 12.24,-7.96 4.114,-8.02 4.114,-24.01 0,-16.05 -4.114,-24.01 -4.063,-8.03 -12.24,-8.03 m 0,-8.33 q 13.073,0 19.948,10.37 6.927,10.31 6.927,30 0,19.63 -6.927,30 -6.875,10.31 -19.948,10.31 -13.073,0 -20,-10.31 -6.875,-10.37 -6.875,-30 0,-19.69 6.875,-30 6.927,-10.37 20,-10.37 z"
       clip-path="url(#clip920)"
       inkscape:connector-curvature="0"
       style="fill:#000000;fill-opacity:1;fill-rule:evenodd" />
    <path
       id="path57"
       d="m 0,0 m 325.301,2132.64 q 7.552,1.62 11.771,6.72 4.271,5.11 4.271,12.61 0,11.51 -7.917,17.81 -7.916,6.3 -22.5,6.3 -4.895,0 -10.104,-0.99 -5.156,-0.94 -10.677,-2.86 v -10.16 q 4.375,2.55 9.584,3.86 5.208,1.3 10.885,1.3 9.896,0 15.052,-3.91 5.208,-3.9 5.208,-11.35 0,-6.88 -4.844,-10.73 -4.791,-3.91 -13.385,-3.91 h -9.062 v -8.64 h 9.479 q 7.76,0 11.875,-3.08 4.114,-3.12 4.114,-8.96 0,-5.98 -4.27,-9.16 -4.219,-3.23 -12.136,-3.23 -4.323,0 -9.271,0.94 -4.948,0.93 -10.885,2.91 v -9.37 q 5.99,-1.67 11.198,-2.5 5.26,-0.84 9.896,-0.84 11.979,0 18.958,5.47 6.979,5.42 6.979,14.69 0,6.46 -3.698,10.94 -3.698,4.43 -10.521,6.14 z"
       clip-path="url(#clip920)"
       inkscape:connector-curvature="0"
       style="fill:#000000;fill-opacity:1;fill-rule:evenodd" />
    <path
       id="path59"
       d="m 0,0 m 315.406,1528.48 q -7.084,0 -11.25,4.85 -4.115,4.84 -4.115,13.28 0,8.38 4.115,13.28 4.166,4.84 11.25,4.84 7.083,0 11.197,-4.84 4.167,-4.9 4.167,-13.28 0,-8.44 -4.167,-13.28 -4.114,-4.85 -11.197,-4.85 m 20.885,-32.97 v 9.59 q -3.958,-1.88 -8.021,-2.87 -4.01,-0.99 -7.969,-0.99 -10.416,0 -15.937,7.03 -5.469,7.04 -6.25,21.25 3.073,-4.53 7.708,-6.92 4.636,-2.45 10.209,-2.45 11.718,0 18.489,7.13 6.823,7.09 6.823,19.33 0,11.98 -7.083,19.22 -7.084,7.24 -18.854,7.24 -13.49,0 -20.625,-10.32 -7.136,-10.36 -7.136,-30 0,-18.43 8.75,-29.37 8.75,-10.99 23.49,-10.99 3.958,0 7.968,0.78 4.063,0.78 8.438,2.34 z"
       clip-path="url(#clip920)"
       inkscape:connector-curvature="0"
       style="fill:#000000;fill-opacity:1;fill-rule:evenodd" />
    <path
       id="path61"
       d="m 0,0 m 235.771,758.679 h 17.187 v -59.323 l -18.698,3.75 v -9.583 l 18.594,-3.75 h 10.521 v 68.906 h 17.187 v 8.854 h -44.791 z"
       clip-path="url(#clip920)"
       inkscape:connector-curvature="0"
       style="fill:#000000;fill-opacity:1;fill-rule:evenodd" />
    <path
       id="path63"
       d="m 0,0 m 314.468,696.7 q -8.125,0 -12.239,8.021 -4.063,7.968 -4.063,24.01 0,15.989 4.063,24.01 4.114,7.969 12.239,7.969 8.177,0 12.24,-7.969 4.114,-8.021 4.114,-24.01 0,-16.042 -4.114,-24.01 -4.063,-8.021 -12.24,-8.021 m 0,-8.334 q 13.073,0 19.948,10.365 6.927,10.312 6.927,30 0,19.635 -6.927,30 -6.875,10.312 -19.948,10.312 -13.073,0 -20,-10.312 -6.875,-10.365 -6.875,-30 0,-19.688 6.875,-30 6.927,-10.365 20,-10.365 z"
       clip-path="url(#clip920)"
       inkscape:connector-curvature="0"
       style="fill:#000000;fill-opacity:1;fill-rule:evenodd" />
    <path
       id="path65"
       d="m 0,0 m 237.229,155.662 h 17.187 V 96.3395 l -18.698,3.7505 v -9.5838 l 18.594,-3.75 h 10.521 v 68.9058 h 17.187 v 8.854 h -44.791 z"
       clip-path="url(#clip920)"
       inkscape:connector-curvature="0"
       style="fill:#000000;fill-opacity:1;fill-rule:evenodd" />
    <path
       id="path67"
       d="m 0,0 m 325.301,122.589 q 7.552,1.615 11.771,6.719 4.271,5.104 4.271,12.604 0,11.511 -7.917,17.813 -7.916,6.302 -22.5,6.302 -4.895,0 -10.104,-0.99 -5.156,-0.937 -10.677,-2.864 v -10.157 q 4.375,2.552 9.584,3.854 5.208,1.303 10.885,1.303 9.896,0 15.052,-3.907 5.208,-3.906 5.208,-11.354 0,-6.875 -4.844,-10.729 -4.791,-3.906 -13.385,-3.906 h -9.062 v -8.646 h 9.479 q 7.76,0 11.875,-3.073 4.114,-3.125 4.114,-8.958 0,-5.99 -4.27,-9.1667 -4.219,-3.2292 -12.136,-3.2292 -4.323,0 -9.271,0.9375 -4.948,0.9375 -10.885,2.9167 v -9.375 q 5.99,-1.6666 11.198,-2.5 5.26,-0.8333 9.896,-0.8333 11.979,0 18.958,5.4687 6.979,5.4167 6.979,14.6873 0,6.458 -3.698,10.938 -3.698,4.427 -10.521,6.145 z"
       clip-path="url(#clip920)"
       inkscape:connector-curvature="0"
       style="fill:#000000;fill-opacity:1;fill-rule:evenodd" />
    <polyline
       id="polyline69"
       points="   373.343,47.2441 3152.76,47.2441    "
       style="fill:none;stroke:#000000;stroke-width:4;stroke-opacity:1"
       clip-path="url(#clip920)" />
    <polyline
       id="polyline71"
       points="   3152.76,2817.1 3152.76,47.2441    "
       style="fill:none;stroke:#000000;stroke-width:4;stroke-opacity:1"
       clip-path="url(#clip920)" />
    <path
       id="path73"
       d="m 0,0 m 1295.97,2986.48 h 18.89 l 45.97,86.73 v -86.73 h 13.61 v 103.68 h -18.89 l -45.97,-86.74 v 86.74 h -13.61 z"
       clip-path="url(#clip920)"
       inkscape:connector-curvature="0"
       style="fill:#000000;fill-opacity:1;fill-rule:evenodd" />
    <path
       id="path75"
       d="m 0,0 m 1417.98,3021.34 q -10.28,0 -16.25,8.05 -5.97,7.99 -5.97,21.95 0,13.95 5.9,22.01 5.97,7.99 16.32,7.99 10.21,0 16.18,-8.06 5.97,-8.05 5.97,-21.94 0,-13.82 -5.97,-21.88 -5.97,-8.12 -16.18,-8.12 m 0,-10.84 q 16.67,0 26.18,10.84 9.52,10.83 9.52,30 0,19.09 -9.52,30 -9.51,10.83 -26.18,10.83 -16.73,0 -26.25,-10.83 -9.44,-10.91 -9.44,-30 0,-19.17 9.44,-30 9.52,-10.84 26.25,-10.84 z"
       clip-path="url(#clip920)"
       inkscape:connector-curvature="0"
       style="fill:#000000;fill-opacity:1;fill-rule:evenodd" />
    <path
       id="path77"
       d="m 0,0 m 1518.26,3024.18 v -42.08 h 12.78 v 108.06 h -12.78 v -11.67 q -4.03,6.94 -10.21,10.35 -6.11,3.33 -14.72,3.33 -14.1,0 -22.99,-11.25 -8.82,-11.25 -8.82,-29.58 0,-18.34 8.82,-29.59 8.89,-11.25 22.99,-11.25 8.61,0 14.72,3.41 6.18,3.33 10.21,10.27 m -43.54,27.16 q 0,14.09 5.76,22.15 5.83,7.99 15.97,7.99 10.14,0 15.98,-7.99 5.83,-8.06 5.83,-22.15 0,-14.1 -5.83,-22.09 -5.84,-8.05 -15.98,-8.05 -10.14,0 -15.97,8.05 -5.76,7.99 -5.76,22.09 z"
       clip-path="url(#clip920)"
       inkscape:connector-curvature="0"
       style="fill:#000000;fill-opacity:1;fill-rule:evenodd" />
    <path
       id="path79"
       d="m 0,0 m 1610.97,3048.07 v 6.25 h -58.75 q 0.83,13.2 7.91,20.14 7.16,6.88 19.86,6.88 7.37,0 14.24,-1.81 6.95,-1.8 13.75,-5.42 v 12.09 q -6.87,2.91 -14.1,4.44 -7.22,1.53 -14.65,1.53 -18.61,0 -29.51,-10.83 -10.84,-10.84 -10.84,-29.31 0,-19.1 10.28,-30.28 10.35,-11.25 27.85,-11.25 15.69,0 24.79,10.14 9.17,10.07 9.17,27.43 m -12.78,-3.75 q -0.14,-10.48 -5.9,-16.73 -5.7,-6.25 -15.14,-6.25 -10.7,0 -17.16,6.04 -6.38,6.04 -7.36,17.01 z"
       clip-path="url(#clip920)"
       inkscape:connector-curvature="0"
       style="fill:#000000;fill-opacity:1;fill-rule:evenodd" />
    <path
       id="path81"
       d="m 0,0 m 1696.87,3090.16 -39.58,-103.68 h 14.65 l 32.85,87.29 32.91,-87.29 h 14.59 l -39.52,103.68 z"
       clip-path="url(#clip920)"
       inkscape:connector-curvature="0"
       style="fill:#000000;fill-opacity:1;fill-rule:evenodd" />
    <path
       id="path83"
       d="m 0,0 m 1789.99,3051.06 q -15.48,0 -21.45,3.54 -5.98,3.54 -5.98,12.08 0,6.81 4.45,10.84 4.51,3.96 12.22,3.96 10.62,0 17.01,-7.5 6.46,-7.57 6.46,-20.07 v -2.85 h -12.71 m 25.49,-5.28 v 44.38 h -12.78 v -11.81 q -4.37,7.08 -10.9,10.49 -6.53,3.33 -15.97,3.33 -11.95,0 -19.03,-6.67 -7.01,-6.73 -7.01,-17.98 0,-13.13 8.75,-19.79 8.81,-6.67 26.25,-6.67 h 17.91 v -1.25 q 0,-8.82 -5.83,-13.61 -5.77,-4.86 -16.25,-4.86 -6.67,0 -12.99,1.59 -6.32,1.6 -12.15,4.8 v -11.81 q 7.01,-2.71 13.61,-4.03 6.6,-1.39 12.85,-1.39 16.87,0 25.21,8.75 8.33,8.75 8.33,26.53 z"
       clip-path="url(#clip920)"
       inkscape:connector-curvature="0"
       style="fill:#000000;fill-opacity:1;fill-rule:evenodd" />
    <path
       id="path85"
       d="m 0,0 m 1873.95,3024.32 q -2.15,-1.25 -4.72,-1.8 -2.5,-0.63 -5.56,-0.63 -10.83,0 -16.66,7.09 -5.77,7.01 -5.77,20.2 v 40.98 h -12.84 v -77.78 h 12.84 v 12.08 q 4.03,-7.08 10.49,-10.48 6.46,-3.48 15.69,-3.48 1.32,0 2.92,0.21 1.6,0.14 3.54,0.49 z"
       clip-path="url(#clip920)"
       inkscape:connector-curvature="0"
       style="fill:#000000;fill-opacity:1;fill-rule:evenodd" />
    <path
       id="path87"
       d="m 0,0 m 1887.35,3012.38 h 12.78 v 77.78 h -12.78 v -77.78 m 0,-30.28 h 12.78 v 16.18 h -12.78 z"
       clip-path="url(#clip920)"
       inkscape:connector-curvature="0"
       style="fill:#000000;fill-opacity:1;fill-rule:evenodd" />
    <path
       id="path89"
       d="m 0,0 m 1948.88,3051.06 q -15.48,0 -21.46,3.54 -5.97,3.54 -5.97,12.08 0,6.81 4.45,10.84 4.51,3.96 12.22,3.96 10.62,0 17.01,-7.5 6.46,-7.57 6.46,-20.07 v -2.85 h -12.71 m 25.49,-5.28 v 44.38 h -12.78 v -11.81 q -4.37,7.08 -10.9,10.49 -6.53,3.33 -15.97,3.33 -11.95,0 -19.03,-6.67 -7.02,-6.73 -7.02,-17.98 0,-13.13 8.75,-19.79 8.82,-6.67 26.25,-6.67 h 17.92 v -1.25 q 0,-8.82 -5.83,-13.61 -5.77,-4.86 -16.25,-4.86 -6.67,0 -12.99,1.59 -6.32,1.6 -12.15,4.8 v -11.81 q 7.01,-2.71 13.61,-4.03 6.6,-1.39 12.85,-1.39 16.87,0 25.2,8.75 8.34,8.75 8.34,26.53 z"
       clip-path="url(#clip920)"
       inkscape:connector-curvature="0"
       style="fill:#000000;fill-opacity:1;fill-rule:evenodd" />
    <path
       id="path91"
       d="m 0,0 m 2043.6,3051.34 q 0,-14.1 -5.83,-22.09 -5.76,-8.05 -15.9,-8.05 -10.14,0 -15.97,8.05 -5.77,7.99 -5.77,22.09 0,14.09 5.77,22.15 5.83,7.99 15.97,7.99 10.14,0 15.9,-7.99 5.83,-8.06 5.83,-22.15 m -43.47,-27.16 q 4.03,-6.94 10.14,-10.27 6.18,-3.41 14.72,-3.41 14.17,0 22.99,11.25 8.89,11.25 8.89,29.59 0,18.33 -8.89,29.58 -8.82,11.25 -22.99,11.25 -8.54,0 -14.72,-3.33 -6.11,-3.41 -10.14,-10.35 v 11.67 h -12.85 V 2982.1 h 12.85 z"
       clip-path="url(#clip920)"
       inkscape:connector-curvature="0"
       style="fill:#000000;fill-opacity:1;fill-rule:evenodd" />
    <path
       id="path93"
       d="m 0,0 m 2070.27,2982.1 h 12.78 v 108.06 h -12.78 z"
       clip-path="url(#clip920)"
       inkscape:connector-curvature="0"
       style="fill:#000000;fill-opacity:1;fill-rule:evenodd" />
    <path
       id="path95"
       d="m 0,0 m 2162.98,3048.07 v 6.25 h -58.75 q 0.83,13.2 7.91,20.14 7.16,6.88 19.87,6.88 7.36,0 14.23,-1.81 6.95,-1.8 13.75,-5.42 v 12.09 q -6.87,2.91 -14.1,4.44 -7.22,1.53 -14.65,1.53 -18.61,0 -29.51,-10.83 -10.84,-10.84 -10.84,-29.31 0,-19.1 10.28,-30.28 10.35,-11.25 27.85,-11.25 15.69,0 24.79,10.14 9.17,10.07 9.17,27.43 m -12.78,-3.75 q -0.14,-10.48 -5.9,-16.73 -5.7,-6.25 -15.14,-6.25 -10.7,0 -17.15,6.04 -6.39,6.04 -7.37,17.01 z"
       clip-path="url(#clip920)"
       inkscape:connector-curvature="0"
       style="fill:#000000;fill-opacity:1;fill-rule:evenodd" />
    <path
       id="path97"
       d="m 0,0 m 2225.96,3014.67 v 12.08 q -5.41,-2.77 -11.25,-4.16 -5.83,-1.39 -12.08,-1.39 -9.51,0 -14.31,2.91 -4.72,2.92 -4.72,8.75 0,4.45 3.41,7.02 3.4,2.5 13.68,4.79 l 4.37,0.97 q 13.61,2.92 19.31,8.27 5.76,5.27 5.76,14.79 0,10.83 -8.61,17.15 -8.54,6.32 -23.54,6.32 -6.25,0 -13.06,-1.25 -6.73,-1.18 -14.23,-3.61 v -13.2 q 7.08,3.68 13.95,5.56 6.88,1.81 13.62,1.81 9.02,0 13.88,-3.06 4.87,-3.13 4.87,-8.75 0,-5.21 -3.55,-7.99 -3.47,-2.77 -15.34,-5.34 l -4.45,-1.05 q -11.87,-2.5 -17.15,-7.63 -5.28,-5.21 -5.28,-14.24 0,-10.97 7.78,-16.94 7.78,-5.98 22.08,-5.98 7.09,0 13.34,1.05 6.25,1.04 11.52,3.12 z"
       clip-path="url(#clip920)"
       inkscape:connector-curvature="0"
       style="fill:#000000;fill-opacity:1;fill-rule:evenodd" />
    <path
       id="path99"
       d="m 0,0 m 75.4622,1707 h 14.7916 q -6.5972,7.08 -9.861,15.14 -3.2639,7.98 -3.2639,17.01 0,17.78 10.9027,27.22 10.8333,9.45 31.3884,9.45 20.486,0 31.389,-9.45 10.833,-9.44 10.833,-27.22 0,-9.03 -3.264,-17.01 -3.263,-8.06 -9.861,-15.14 h 14.653 q 5,7.36 7.5,15.62 2.5,8.2 2.5,17.36 0,23.54 -14.375,37.09 -14.444,13.54 -39.375,13.54 -24.9995,0 -39.3745,-13.54 -14.4443,-13.55 -14.4443,-37.09 0,-9.3 2.5,-17.5 2.4305,-8.26 7.361,-15.48 z"
       clip-path="url(#clip920)"
       inkscape:connector-curvature="0"
       style="fill:#000000;fill-opacity:1;fill-rule:evenodd" />
    <path
       id="path101"
       d="m 0,0 m 102.337,1663.46 q 0,10.27 8.056,16.25 7.986,5.97 21.944,5.97 13.958,0 22.014,-5.91 7.986,-5.97 7.986,-16.31 0,-10.21 -8.056,-16.19 -8.055,-5.97 -21.944,-5.97 -13.819,0 -21.875,5.97 -8.125,5.98 -8.125,16.19 m -10.8332,0 q 0,-16.67 10.8332,-26.18 10.833,-9.52 30,-9.52 19.097,0 30,9.52 10.833,9.51 10.833,26.18 0,16.73 -10.833,26.25 -10.903,9.44 -30,9.44 -19.167,0 -30,-9.44 -10.8332,-9.52 -10.8332,-26.25 z"
       clip-path="url(#clip920)"
       inkscape:connector-curvature="0"
       style="fill:#000000;fill-opacity:1;fill-rule:evenodd" />
    <path
       id="path103"
       d="m 0,0 m 124.212,1549.71 h 46.944 v 12.77 h -46.527 q -11.042,0 -16.528,4.31 -5.486,4.3 -5.486,12.92 0,10.34 6.597,16.32 6.597,5.97 17.986,5.97 h 43.958 v 12.84 H 93.3788 V 1602 h 12.0832 q -7.0138,-4.59 -10.486,-10.77 -3.4722,-6.25 -3.4722,-14.37 0,-13.4 8.3333,-20.28 8.2639,-6.87 24.3749,-6.87 z"
       clip-path="url(#clip920)"
       inkscape:connector-curvature="0"
       style="fill:#000000;fill-opacity:1;fill-rule:evenodd" />
    <path
       id="path105"
       d="m 0,0 m 95.6705,1486.72 h 12.0835 q -2.778,5.42 -4.167,11.25 -1.389,5.83 -1.389,12.08 0,9.52 2.917,14.31 2.916,4.72 8.75,4.72 4.444,0 7.014,-3.4 2.5,-3.4 4.791,-13.68 l 0.973,-4.38 q 2.916,-13.61 8.263,-19.3 5.278,-5.77 14.792,-5.77 10.833,0 17.153,8.61 6.319,8.55 6.319,23.55 0,6.25 -1.25,13.05 -1.181,6.74 -3.611,14.24 h -13.194 q 3.68,-7.09 5.555,-13.96 1.806,-6.88 1.806,-13.61 0,-9.03 -3.056,-13.89 -3.125,-4.86 -8.75,-4.86 -5.208,0 -7.986,3.54 -2.778,3.47 -5.347,15.35 l -1.042,4.44 q -2.5,11.88 -7.639,17.15 -5.208,5.28 -14.236,5.28 -10.972,0 -16.944,-7.78 -5.9722,-7.77 -5.9722,-22.08 0,-7.08 1.0417,-13.33 1.0416,-6.25 3.125,-11.53 z"
       clip-path="url(#clip920)"
       inkscape:connector-curvature="0"
       style="fill:#000000;fill-opacity:1;fill-rule:evenodd" />
    <path
       id="path107"
       d="m 0,0 m 71.2956,1456.51 h 22.0832 v -26.32 h 9.9302 v 26.32 h 42.222 q 9.514,0 12.222,-2.57 2.709,-2.64 2.709,-10.62 v -13.13 h 10.694 v 13.13 q 0,14.79 -5.486,20.41 -5.555,5.63 -20.139,5.63 h -42.222 v 9.37 h -9.9302 v -9.37 H 71.2956 Z"
       clip-path="url(#clip920)"
       inkscape:connector-curvature="0"
       style="fill:#000000;fill-opacity:1;fill-rule:evenodd" />
    <path
       id="path109"
       d="m 0,0 m 105.323,1371.72 q -1.25,2.15 -1.805,4.72 -0.625,2.5 -0.625,5.56 0,10.83 7.083,16.67 7.014,5.76 20.208,5.76 h 40.972 v 12.85 H 93.3788 v -12.85 h 12.0832 q -7.0832,-4.03 -10.486,-10.49 -3.4722,-6.46 -3.4722,-15.69 0,-1.32 0.2083,-2.92 0.1389,-1.6 0.4861,-3.54 z"
       clip-path="url(#clip920)"
       inkscape:connector-curvature="0"
       style="fill:#000000;fill-opacity:1;fill-rule:evenodd" />
    <path
       id="path111"
       d="m 0,0 m 132.059,1322.97 q 0,15.49 3.542,21.46 3.541,5.97 12.083,5.97 6.806,0 10.833,-4.44 3.959,-4.52 3.959,-12.23 0,-10.62 -7.5,-17.01 -7.57,-6.46 -20.07,-6.46 h -2.847 v 12.71 m -5.278,-25.48 h 44.375 v 12.77 h -11.805 q 7.083,4.38 10.486,10.91 3.333,6.52 3.333,15.97 0,11.94 -6.667,19.03 -6.736,7.01 -17.986,7.01 -13.125,0 -19.791,-8.75 -6.667,-8.82 -6.667,-26.25 v -17.92 h -1.25 q -8.819,0 -13.611,5.84 -4.861,5.76 -4.861,16.25 0,6.66 1.597,12.98 1.598,6.32 4.792,12.15 H 96.9204 q -2.7083,-7.01 -4.0277,-13.61 -1.3889,-6.59 -1.3889,-12.84 0,-16.88 8.7502,-25.21 8.75,-8.33 26.527,-8.33 z"
       clip-path="url(#clip920)"
       inkscape:connector-curvature="0"
       style="fill:#000000;fill-opacity:1;fill-rule:evenodd" />
    <path
       id="path113"
       d="m 0,0 m 93.3788,1284.08 v -12.78 h 77.7772 v 12.78 H 93.3788 m -30.2776,0 v -12.78 h 16.1804 v 12.78 z"
       clip-path="url(#clip920)"
       inkscape:connector-curvature="0"
       style="fill:#000000;fill-opacity:1;fill-rule:evenodd" />
    <path
       id="path115"
       d="m 0,0 m 124.212,1193.25 h 46.944 v 12.78 h -46.527 q -11.042,0 -16.528,4.3 -5.486,4.31 -5.486,12.92 0,10.35 6.597,16.32 6.597,5.97 17.986,5.97 h 43.958 v 12.85 H 93.3788 v -12.85 h 12.0832 q -7.0138,-4.58 -10.486,-10.76 -3.4722,-6.25 -3.4722,-14.38 0,-13.4 8.3333,-20.28 8.2639,-6.87 24.3749,-6.87 z"
       clip-path="url(#clip920)"
       inkscape:connector-curvature="0"
       style="fill:#000000;fill-opacity:1;fill-rule:evenodd" />
    <path
       id="path117"
       d="m 0,0 m 71.2956,1167.21 h 22.0832 v -26.32 h 9.9302 v 26.32 h 42.222 q 9.514,0 12.222,-2.57 2.709,-2.64 2.709,-10.63 v -13.12 h 10.694 v 13.12 q 0,14.8 -5.486,20.42 -5.555,5.63 -20.139,5.63 h -42.222 v 9.37 h -9.9302 v -9.37 H 71.2956 Z"
       clip-path="url(#clip920)"
       inkscape:connector-curvature="0"
       style="fill:#000000;fill-opacity:1;fill-rule:evenodd" />
    <path
       id="path119"
       d="m 0,0 m 95.6705,1077.9 h 12.0835 q -2.778,5.42 -4.167,11.25 -1.389,5.84 -1.389,12.09 0,9.51 2.917,14.3 2.916,4.72 8.75,4.72 4.444,0 7.014,-3.4 2.5,-3.4 4.791,-13.68 l 0.973,-4.37 q 2.916,-13.62 8.263,-19.31 5.278,-5.76 14.792,-5.76 10.833,0 17.153,8.61 6.319,8.54 6.319,23.54 0,6.25 -1.25,13.05 -1.181,6.74 -3.611,14.24 h -13.194 q 3.68,-7.08 5.555,-13.96 1.806,-6.87 1.806,-13.61 0,-9.03 -3.056,-13.89 -3.125,-4.86 -8.75,-4.86 -5.208,0 -7.986,3.54 -2.778,3.48 -5.347,15.35 l -1.042,4.44 q -2.5,11.88 -7.639,17.16 -5.208,5.27 -14.236,5.27 -10.972,0 -16.944,-7.77 -5.9722,-7.78 -5.9722,-22.09 0,-7.08 1.0417,-13.33 1.0416,-6.25 3.125,-11.53 z"
       clip-path="url(#clip920)"
       inkscape:connector-curvature="0"
       style="fill:#000000;fill-opacity:1;fill-rule:evenodd" />
    <path
       id="path121"
       d="m 1043.53,162.139 v 128 h 128 v -128 z"
       clip-path="url(#clip922)"
       inkscape:connector-curvature="0"
       style="fill:#0000ff;fill-opacity:1;fill-rule:evenodd;stroke:#000000;stroke-width:6.4000001;stroke-opacity:1" />
    <path
       id="path123"
       d="m 1626.21,162.139 v 128 h 128 v -128 z"
       clip-path="url(#clip922)"
       inkscape:connector-curvature="0"
       style="fill:#0000ff;fill-opacity:1;fill-rule:evenodd;stroke:#000000;stroke-width:6.4000001;stroke-opacity:1" />
    <path
       id="path125"
       d="m 2208.9,162.139 v 128 h 128 v -128 z"
       clip-path="url(#clip922)"
       inkscape:connector-curvature="0"
       style="fill:#0000ff;fill-opacity:1;fill-rule:evenodd;stroke:#000000;stroke-width:6.4000001;stroke-opacity:1" />
    <path
       id="path127"
       d="m 460.841,363.144 v 128 h 128 v -128 z"
       clip-path="url(#clip922)"
       inkscape:connector-curvature="0"
       style="fill:#0000ff;fill-opacity:1;fill-rule:evenodd;stroke:#000000;stroke-width:6.4000001;stroke-opacity:1" />
    <path
       id="path129"
       d="m 752.184,363.144 v 128 h 128 v -128 z"
       clip-path="url(#clip922)"
       inkscape:connector-curvature="0"
       style="fill:#0000ff;fill-opacity:1;fill-rule:evenodd;stroke:#000000;stroke-width:6.4000001;stroke-opacity:1" />
    <path
       id="path131"
       d="m 1043.53,363.144 v 128 h 128 v -128 z"
       clip-path="url(#clip922)"
       inkscape:connector-curvature="0"
       style="fill:#0000ff;fill-opacity:1;fill-rule:evenodd;stroke:#000000;stroke-width:6.4000001;stroke-opacity:1" />
    <path
       id="path133"
       d="M 452.006,728.653 H 743.349 V 527.647 H 452.006 Z"
       clip-path="url(#clip922)"
       inkscape:connector-curvature="0"
       style="fill:#ffff74;fill-opacity:1;fill-rule:evenodd" />
    <polyline
       id="polyline135"
       points="   452.006,728.653 743.349,728.653 743.349,527.647 452.006,527.647 452.006,728.653    "
       style="fill:none;stroke:#000000;stroke-width:4;stroke-opacity:1"
       clip-path="url(#clip922)" />
    <path
       id="path137"
       d="M 743.349,929.658 H 1034.69 V 728.653 H 743.349 Z"
       clip-path="url(#clip922)"
       inkscape:connector-curvature="0"
       style="fill:#ffff74;fill-opacity:1;fill-rule:evenodd" />
    <polyline
       id="polyline139"
       points="   743.349,929.658 1034.69,929.658 1034.69,728.653 743.349,728.653 743.349,929.658    "
       style="fill:none;stroke:#000000;stroke-width:4;stroke-opacity:1"
       clip-path="url(#clip922)" />
    <path
       id="path141"
       d="m 1034.69,1130.66 h 291.34 V 929.658 h -291.34 z"
       clip-path="url(#clip922)"
       inkscape:connector-curvature="0"
       style="fill:#ffff74;fill-opacity:1;fill-rule:evenodd" />
    <polyline
       id="polyline143"
       points="   1034.69,1130.66 1326.03,1130.66 1326.03,929.658 1034.69,929.658 1034.69,1130.66    "
       style="fill:none;stroke:#000000;stroke-width:4;stroke-opacity:1"
       clip-path="url(#clip922)" />
    <path
       id="path145"
       d="M 452.006,1130.66 H 1326.03 V 326.642 H 452.006 Z"
       clip-path="url(#clip922)"
       inkscape:connector-curvature="0"
       style="fill:#ffff74;fill-opacity:0.1;fill-rule:evenodd" />
    <polyline
       id="polyline147"
       points="   452.006,1130.66 1326.03,1130.66 1326.03,326.642 452.006,326.642 452.006,1130.66    "
       style="fill:none;stroke:#000000;stroke-width:4;stroke-opacity:0.1"
       clip-path="url(#clip922)" />
    <path
       id="path149"
       d="m 1334.87,1167.17 v 128 h 128 v -128 z"
       clip-path="url(#clip922)"
       inkscape:connector-curvature="0"
       style="fill:#0000ff;fill-opacity:1;fill-rule:evenodd;stroke:#000000;stroke-width:6.4000001;stroke-opacity:1" />
    <path
       id="path151"
       d="m 1626.21,1167.17 v 128 h 128 v -128 z"
       clip-path="url(#clip922)"
       inkscape:connector-curvature="0"
       style="fill:#0000ff;fill-opacity:1;fill-rule:evenodd;stroke:#000000;stroke-width:6.4000001;stroke-opacity:1" />
    <path
       id="path153"
       d="m 1917.56,1167.17 v 128 h 128 v -128 z"
       clip-path="url(#clip922)"
       inkscape:connector-curvature="0"
       style="fill:#0000ff;fill-opacity:1;fill-rule:evenodd;stroke:#000000;stroke-width:6.4000001;stroke-opacity:1" />
    <path
       id="path155"
       d="m 1326.03,1532.67 h 291.35 v -201 h -291.35 z"
       clip-path="url(#clip922)"
       inkscape:connector-curvature="0"
       style="fill:#ff9bff;fill-opacity:1;fill-rule:evenodd" />
    <polyline
       id="polyline157"
       points="   1326.03,1532.67 1617.38,1532.67 1617.38,1331.67 1326.03,1331.67 1326.03,1532.67    "
       style="fill:none;stroke:#000000;stroke-width:4;stroke-opacity:1"
       clip-path="url(#clip922)" />
    <path
       id="path159"
       d="m 1617.38,1733.68 h 291.34 v -201.01 h -291.34 z"
       clip-path="url(#clip922)"
       inkscape:connector-curvature="0"
       style="fill:#ff9bff;fill-opacity:1;fill-rule:evenodd" />
    <polyline
       id="polyline161"
       points="   1617.38,1733.68 1908.72,1733.68 1908.72,1532.67 1617.38,1532.67 1617.38,1733.68    "
       style="fill:none;stroke:#000000;stroke-width:4;stroke-opacity:1"
       clip-path="url(#clip922)" />
    <path
       id="path163"
       d="m 1908.72,1934.69 h 291.34 v -201.01 h -291.34 z"
       clip-path="url(#clip922)"
       inkscape:connector-curvature="0"
       style="fill:#ff9bff;fill-opacity:1;fill-rule:evenodd" />
    <polyline
       id="polyline165"
       points="   1908.72,1934.69 2200.06,1934.69 2200.06,1733.68 1908.72,1733.68 1908.72,1934.69    "
       style="fill:none;stroke:#000000;stroke-width:4;stroke-opacity:1"
       clip-path="url(#clip922)" />
    <path
       id="path167"
       d="m 1326.03,1934.69 h 874.03 v -804.03 h -874.03 z"
       clip-path="url(#clip922)"
       inkscape:connector-curvature="0"
       style="fill:#ff9bff;fill-opacity:0.1;fill-rule:evenodd" />
    <polyline
       id="polyline169"
       points="   1326.03,1934.69 2200.06,1934.69 2200.06,1130.66 1326.03,1130.66 1326.03,1934.69    "
       style="fill:none;stroke:#000000;stroke-width:4;stroke-opacity:0.1"
       clip-path="url(#clip922)" />
    <path
       id="path171"
       d="m 2208.9,1971.19 v 128 h 128 v -128 z"
       clip-path="url(#clip922)"
       inkscape:connector-curvature="0"
       style="fill:#0000ff;fill-opacity:1;fill-rule:evenodd;stroke:#000000;stroke-width:6.4000001;stroke-opacity:1" />
    <path
       id="path173"
       d="m 2500.24,1971.19 v 128 h 128 v -128 z"
       clip-path="url(#clip922)"
       inkscape:connector-curvature="0"
       style="fill:#0000ff;fill-opacity:1;fill-rule:evenodd;stroke:#000000;stroke-width:6.4000001;stroke-opacity:1" />
    <path
       id="path175"
       d="m 2791.59,1971.19 v 128 h 128 v -128 z"
       clip-path="url(#clip922)"
       inkscape:connector-curvature="0"
       style="fill:#0000ff;fill-opacity:1;fill-rule:evenodd;stroke:#000000;stroke-width:6.4000001;stroke-opacity:1" />
    <path
       id="path177"
       d="m 2200.06,2336.7 h 291.35 v -201.01 h -291.35 z"
       clip-path="url(#clip922)"
       inkscape:connector-curvature="0"
       style="fill:#00d3ff;fill-opacity:1;fill-rule:evenodd" />
    <polyline
       id="polyline179"
       points="   2200.06,2336.7 2491.41,2336.7 2491.41,2135.69 2200.06,2135.69 2200.06,2336.7    "
       style="fill:none;stroke:#000000;stroke-width:4;stroke-opacity:1"
       clip-path="url(#clip922)" />
    <path
       id="path181"
       d="m 2491.41,2537.7 h 291.34 v -201 h -291.34 z"
       clip-path="url(#clip922)"
       inkscape:connector-curvature="0"
       style="fill:#00d3ff;fill-opacity:1;fill-rule:evenodd" />
    <polyline
       id="polyline183"
       points="   2491.41,2537.7 2782.75,2537.7 2782.75,2336.7 2491.41,2336.7 2491.41,2537.7    "
       style="fill:none;stroke:#000000;stroke-width:4;stroke-opacity:1"
       clip-path="url(#clip922)" />
    <path
       id="path185"
       d="m 2782.75,2738.71 h 291.34 V 2537.7 h -291.34 z"
       clip-path="url(#clip922)"
       inkscape:connector-curvature="0"
       style="fill:#00d3ff;fill-opacity:1;fill-rule:evenodd" />
    <polyline
       id="polyline187"
       points="   2782.75,2738.71 3074.09,2738.71 3074.09,2537.7 2782.75,2537.7 2782.75,2738.71    "
       style="fill:none;stroke:#000000;stroke-width:4;stroke-opacity:1"
       clip-path="url(#clip922)" />
    <path
       id="path189"
       d="m 2200.06,2738.71 h 874.03 v -804.02 h -874.03 z"
       clip-path="url(#clip922)"
       inkscape:connector-curvature="0"
       style="fill:#00d3ff;fill-opacity:0.1;fill-rule:evenodd" />
    <polyline
       id="polyline191"
       points="   2200.06,2738.71 3074.09,2738.71 3074.09,1934.69 2200.06,1934.69 2200.06,2738.71    "
       style="fill:none;stroke:#000000;stroke-width:4;stroke-opacity:0.1"
       clip-path="url(#clip922)" />
    <path
       id="path193"
       d="m 0,0 m 591.566,633.046 v 46.944 h -12.778 v -46.528 q 0,-11.041 -4.305,-16.527 -4.306,-5.486 -12.917,-5.486 -10.347,0 -16.319,6.597 -5.972,6.597 -5.972,17.986 v 43.958 h -12.848 v -77.777 h 12.848 v 12.083 q 4.583,-7.014 10.763,-10.486 6.25,-3.472 14.375,-3.472 13.403,0 20.278,8.333 6.875,8.264 6.875,24.375 z"
       clip-path="url(#clip920)"
       inkscape:connector-curvature="0"
       style="fill:#000000;fill-opacity:1;fill-rule:evenodd" />
    <path
       id="path195"
       d="m 0,0 m 609.205,668.184 h 22.916 v -79.096 l -24.93,5 V 581.31 l 24.791,-5 h 14.028 v 91.874 h 22.917 v 11.806 h -59.722 z"
       clip-path="url(#clip920)"
       inkscape:connector-curvature="0"
       style="fill:#000000;fill-opacity:1;fill-rule:evenodd" />
    <path
       id="path197"
       d="m 0,0 m 883.465,834.051 v 46.944 h -12.778 v -46.527 q 0,-11.042 -4.306,-16.528 -4.305,-5.486 -12.916,-5.486 -10.347,0 -16.32,6.597 -5.972,6.598 -5.972,17.986 v 43.958 h -12.847 v -77.777 h 12.847 v 12.083 q 4.584,-7.013 10.764,-10.486 6.25,-3.472 14.375,-3.472 13.403,0 20.278,8.333 6.875,8.264 6.875,24.375 z"
       clip-path="url(#clip920)"
       inkscape:connector-curvature="0"
       style="fill:#000000;fill-opacity:1;fill-rule:evenodd" />
    <path
       id="path199"
       d="m 0,0 m 910.756,869.19 h 48.958 v 11.805 H 893.881 V 869.19 q 7.986,-8.264 21.736,-22.153 13.82,-13.958 17.361,-17.986 6.736,-7.569 9.375,-12.777 2.709,-5.278 2.709,-10.348 0,-8.263 -5.834,-13.472 -5.764,-5.208 -15.069,-5.208 -6.597,0 -13.958,2.292 -7.292,2.291 -15.625,6.944 v -14.167 q 8.472,-3.402 15.833,-5.138 7.361,-1.737 13.472,-1.737 16.111,0 25.694,8.056 9.584,8.056 9.584,21.528 0,6.389 -2.431,12.152 -2.361,5.695 -8.68,13.473 -1.736,2.013 -11.042,11.666 -9.305,9.583 -26.25,26.875 z"
       clip-path="url(#clip920)"
       inkscape:connector-curvature="0"
       style="fill:#000000;fill-opacity:1;fill-rule:evenodd" />
    <path
       id="path201"
       d="M 0,0 M 1173.38,1035.06 V 1082 h -12.77 v -46.53 q 0,-11.04 -4.31,-16.52 -4.3,-5.49 -12.92,-5.49 -10.34,0 -16.32,6.6 -5.97,6.59 -5.97,17.98 V 1082 h -12.84 v -77.78 h 12.84 v 12.09 q 4.59,-7.02 10.77,-10.49 6.25,-3.47 14.37,-3.47 13.4,0 20.28,8.33 6.87,8.27 6.87,24.38 z"
       clip-path="url(#clip920)"
       inkscape:connector-curvature="0"
       style="fill:#000000;fill-opacity:1;fill-rule:evenodd" />
    <path
       id="path203"
       d="m 0,0 m 1231.09,1026.1 q 10.07,2.15 15.7,8.96 5.69,6.8 5.69,16.8 0,15.35 -10.55,23.75 -10.56,8.4 -30,8.4 -6.53,0 -13.48,-1.31 -6.87,-1.25 -14.23,-3.82 v -13.55 q 5.83,3.41 12.78,5.14 6.94,1.74 14.51,1.74 13.19,0 20.07,-5.21 6.94,-5.21 6.94,-15.14 0,-9.16 -6.46,-14.3 -6.38,-5.21 -17.84,-5.21 h -12.09 v -11.53 h 12.64 q 10.35,0 15.84,-4.1 5.48,-4.16 5.48,-11.94 0,-7.987 -5.69,-12.223 -5.63,-4.306 -16.18,-4.306 -5.77,0 -12.36,1.25 -6.6,1.25 -14.52,3.889 v -12.5 q 7.99,-2.222 14.93,-3.333 7.02,-1.111 13.2,-1.111 15.97,0 25.27,7.292 9.31,7.222 9.31,19.582 0,8.61 -4.93,14.58 -4.93,5.91 -14.03,8.2 z"
       clip-path="url(#clip920)"
       inkscape:connector-curvature="0"
       style="fill:#000000;fill-opacity:1;fill-rule:evenodd" />
    <path
       id="path205"
       d="m 0,0 m 1463.03,1437.07 v 46.94 h -12.78 v -46.53 q 0,-11.04 -4.31,-16.52 -4.3,-5.49 -12.91,-5.49 -10.35,0 -16.32,6.6 -5.98,6.6 -5.98,17.98 v 43.96 h -12.84 v -77.78 h 12.84 v 12.09 q 4.59,-7.02 10.77,-10.49 6.25,-3.47 14.37,-3.47 13.41,0 20.28,8.33 6.88,8.27 6.88,24.38 z"
       clip-path="url(#clip920)"
       inkscape:connector-curvature="0"
       style="fill:#000000;fill-opacity:1;fill-rule:evenodd" />
    <path
       id="path207"
       d="m 0,0 m 1516.78,1392.55 -35.42,55.35 h 35.42 v -55.35 m -3.69,-12.22 h 17.64 v 67.57 h 14.8 v 11.67 h -14.8 v 24.44 h -13.95 v -24.44 h -46.81 v -13.54 z"
       clip-path="url(#clip920)"
       inkscape:connector-curvature="0"
       style="fill:#000000;fill-opacity:1;fill-rule:evenodd" />
    <path
       id="path209"
       d="m 0,0 m 1756.59,1638.07 v 46.95 h -12.78 v -46.53 q 0,-11.04 -4.3,-16.53 -4.31,-5.48 -12.92,-5.48 -10.35,0 -16.32,6.59 -5.97,6.6 -5.97,17.99 v 43.96 h -12.85 v -77.78 h 12.85 v 12.08 q 4.58,-7.01 10.76,-10.48 6.25,-3.47 14.38,-3.47 13.4,0 20.28,8.33 6.87,8.26 6.87,24.37 z"
       clip-path="url(#clip920)"
       inkscape:connector-curvature="0"
       style="fill:#000000;fill-opacity:1;fill-rule:evenodd" />
    <path
       id="path211"
       d="m 0,0 m 1771.94,1581.34 h 55.07 v 11.8 h -42.22 v 25.42 q 3.05,-1.04 6.11,-1.53 3.05,-0.55 6.11,-0.55 17.36,0 27.5,9.51 10.14,9.51 10.14,25.76 0,16.74 -10.42,26.05 -10.42,9.23 -29.38,9.23 -6.52,0 -13.33,-1.11 -6.73,-1.11 -13.96,-3.33 v -14.1 q 6.25,3.4 12.92,5.07 6.67,1.67 14.1,1.67 12.01,0 19.02,-6.32 7.02,-6.32 7.02,-17.16 0,-10.83 -7.02,-17.15 -7.01,-6.32 -19.02,-6.32 -5.63,0 -11.25,1.25 -5.56,1.25 -11.39,3.89 z"
       clip-path="url(#clip920)"
       inkscape:connector-curvature="0"
       style="fill:#000000;fill-opacity:1;fill-rule:evenodd" />
    <path
       id="path213"
       d="m 0,0 m 2046.2,1839.08 v 46.94 h -12.78 v -46.52 q 0,-11.05 -4.31,-16.53 -4.3,-5.49 -12.91,-5.49 -10.35,0 -16.32,6.6 -5.97,6.6 -5.97,17.98 v 43.96 h -12.85 v -77.77 h 12.85 v 12.08 q 4.58,-7.01 10.76,-10.49 6.25,-3.47 14.38,-3.47 13.4,0 20.27,8.33 6.88,8.27 6.88,24.38 z"
       clip-path="url(#clip920)"
       inkscape:connector-curvature="0"
       style="fill:#000000;fill-opacity:1;fill-rule:evenodd" />
    <path
       id="path215"
       d="m 0,0 m 2093.14,1828.59 q -9.44,0 -15,6.46 -5.48,6.46 -5.48,17.71 0,11.18 5.48,17.71 5.56,6.46 15,6.46 9.45,0 14.93,-6.46 5.56,-6.53 5.56,-17.71 0,-11.25 -5.56,-17.71 -5.48,-6.46 -14.93,-6.46 m 27.85,-43.96 v 12.78 q -5.28,-2.5 -10.7,-3.82 -5.34,-1.32 -10.62,-1.32 -13.89,0 -21.25,9.38 -7.29,9.37 -8.33,28.33 4.09,-6.04 10.27,-9.23 6.19,-3.27 13.62,-3.27 15.62,0 24.65,9.52 9.1,9.44 9.1,25.76 0,15.97 -9.45,25.62 -9.44,9.66 -25.14,9.66 -17.98,0 -27.5,-13.75 -9.51,-13.82 -9.51,-40 0,-24.59 11.67,-39.17 11.66,-14.65 31.31,-14.65 5.28,0 10.63,1.04 5.42,1.04 11.25,3.12 z"
       clip-path="url(#clip920)"
       inkscape:connector-curvature="0"
       style="fill:#000000;fill-opacity:1;fill-rule:evenodd" />
    <path
       id="path217"
       d="m 0,0 m 2339.14,2241.09 v 46.94 h -12.78 v -46.52 q 0,-11.05 -4.3,-16.53 -4.31,-5.49 -12.92,-5.49 -10.35,0 -16.32,6.6 -5.97,6.6 -5.97,17.99 v 43.95 H 2274 v -77.77 h 12.85 v 12.08 q 4.58,-7.01 10.76,-10.49 6.25,-3.47 14.38,-3.47 13.4,0 20.27,8.33 6.88,8.27 6.88,24.38 z"
       clip-path="url(#clip920)"
       inkscape:connector-curvature="0"
       style="fill:#000000;fill-opacity:1;fill-rule:evenodd" />
    <path
       id="path219"
       d="m 0,0 m 2350.8,2184.35 h 66.67 v 5.98 l -37.64,97.7 h -14.65 l 35.42,-91.87 h -49.8 z"
       clip-path="url(#clip920)"
       inkscape:connector-curvature="0"
       style="fill:#000000;fill-opacity:1;fill-rule:evenodd" />
    <path
       id="path221"
       d="m 0,0 m 2629.27,2442.1 v 46.94 h -12.78 v -46.53 q 0,-11.04 -4.31,-16.53 -4.3,-5.48 -12.91,-5.48 -10.35,0 -16.32,6.6 -5.98,6.59 -5.98,17.98 v 43.96 h -12.84 v -77.78 h 12.84 v 12.09 q 4.59,-7.02 10.77,-10.49 6.25,-3.47 14.37,-3.47 13.41,0 20.28,8.33 6.88,8.26 6.88,24.38 z"
       clip-path="url(#clip920)"
       inkscape:connector-curvature="0"
       style="fill:#000000;fill-opacity:1;fill-rule:evenodd" />
    <path
       id="path223"
       d="m 0,0 m 2674.47,2439.8 q -10,0 -15.76,5.35 -5.69,5.35 -5.69,14.72 0,9.38 5.69,14.73 5.76,5.34 15.76,5.34 10,0 15.77,-5.34 5.76,-5.42 5.76,-14.73 0,-9.37 -5.76,-14.72 -5.7,-5.35 -15.77,-5.35 m -14.02,-5.97 q -9.03,-2.22 -14.1,-8.4 -5,-6.18 -5,-15.07 0,-12.43 8.82,-19.65 8.89,-7.23 24.3,-7.23 15.49,0 24.31,7.23 8.82,7.22 8.82,19.65 0,8.89 -5.07,15.07 -5,6.18 -13.96,8.4 10.14,2.36 15.77,9.24 5.69,6.87 5.69,16.8 0,15.07 -9.24,23.13 -9.16,8.05 -26.32,8.05 -17.15,0 -26.38,-8.05 -9.17,-8.06 -9.17,-23.13 0,-9.93 5.69,-16.8 5.7,-6.88 15.84,-9.24 m -5.14,-22.15 q 0,8.05 5,12.57 5.07,4.51 14.16,4.51 9.03,0 14.1,-4.51 5.14,-4.52 5.14,-12.57 0,-8.06 -5.14,-12.57 -5.07,-4.51 -14.1,-4.51 -9.09,0 -14.16,4.51 -5,4.51 -5,12.57 z"
       clip-path="url(#clip920)"
       inkscape:connector-curvature="0"
       style="fill:#000000;fill-opacity:1;fill-rule:evenodd" />
    <path
       id="path225"
       d="m 0,0 m 2920.75,2643.1 v 46.94 h -12.78 v -46.52 q 0,-11.04 -4.31,-16.53 -4.3,-5.49 -12.91,-5.49 -10.35,0 -16.32,6.6 -5.97,6.6 -5.97,17.99 v 43.95 h -12.85 v -77.77 h 12.85 v 12.08 q 4.58,-7.01 10.76,-10.49 6.25,-3.47 14.38,-3.47 13.4,0 20.27,8.34 6.88,8.26 6.88,24.37 z"
       clip-path="url(#clip920)"
       inkscape:connector-curvature="0"
       style="fill:#000000;fill-opacity:1;fill-rule:evenodd" />
    <path
       id="path227"
       d="m 0,0 m 2936.37,2687.89 v -12.78 q 5.28,2.5 10.7,3.82 5.41,1.32 10.62,1.32 13.89,0 21.18,-9.3 7.36,-9.38 8.41,-28.4 -4.03,5.97 -10.21,9.16 -6.18,3.2 -13.68,3.2 -15.56,0 -24.66,-9.38 -9.02,-9.44 -9.02,-25.76 0,-15.97 9.44,-25.63 9.45,-9.65 25.14,-9.65 17.99,0 27.43,13.82 9.51,13.75 9.51,40 0,24.51 -11.66,39.17 -11.6,14.58 -31.25,14.58 -5.28,0 -10.7,-1.04 -5.41,-1.04 -11.25,-3.13 m 27.92,-43.96 q 9.44,0 14.93,-6.45 5.56,-6.46 5.56,-17.71 0,-11.18 -5.56,-17.64 -5.49,-6.53 -14.93,-6.53 -9.44,0 -15,6.53 -5.49,6.46 -5.49,17.64 0,11.25 5.49,17.71 5.56,6.45 15,6.45 z"
       clip-path="url(#clip920)"
       inkscape:connector-curvature="0"
       style="fill:#000000;fill-opacity:1;fill-rule:evenodd" />
  </g>
</svg>
