<?xml version="1.0" encoding="UTF-8"?>
<svg id="Layer_1" data-name="Layer 1" xmlns="http://www.w3.org/2000/svg" xmlns:xlink="http://www.w3.org/1999/xlink" viewBox="0 0 896 339.54">
  <defs>
    <style>
      .cls-1, .cls-2, .cls-3, .cls-4, .cls-5, .cls-6, .cls-7, .cls-8, .cls-9, .cls-10, .cls-11, .cls-12, .cls-13, .cls-14, .cls-15, .cls-16, .cls-17, .cls-18, .cls-19 {
        fill: none;
      }

      .cls-2 {
        stroke-dasharray: 8.33 8.33;
      }

      .cls-2, .cls-3, .cls-4, .cls-5, .cls-6, .cls-7, .cls-8, .cls-9, .cls-10, .cls-11, .cls-12, .cls-13, .cls-14, .cls-15, .cls-16, .cls-17, .cls-18, .cls-19 {
        stroke-miterlimit: 10;
      }

      .cls-2, .cls-3, .cls-4, .cls-7, .cls-8, .cls-9, .cls-10, .cls-11, .cls-12, .cls-13, .cls-14, .cls-15, .cls-16, .cls-17, .cls-18, .cls-19 {
        stroke: #000;
      }

      .cls-2, .cls-3, .cls-13 {
        stroke-width: .69px;
      }

      .cls-3 {
        stroke-dasharray: 8.79 8.79;
      }

      .cls-4 {
        stroke-dasharray: 9.39 9.39;
      }

      .cls-4, .cls-10, .cls-18 {
        stroke-width: .76px;
      }

      .cls-5, .cls-6 {
        stroke: red;
      }

      .cls-5, .cls-17 {
        stroke-width: .74px;
      }

      .cls-6 {
        stroke-width: .82px;
      }

      .cls-7 {
        stroke-dasharray: 8.72;
      }

      .cls-8 {
        stroke-dasharray: 8.35 8.35;
      }

      .cls-8, .cls-16 {
        stroke-width: .67px;
      }

      .cls-9 {
        opacity: 0;
      }

      .cls-20 {
        fill: #0071bc;
      }

      .cls-21 {
        clip-path: url(#clippath-10);
      }

      .cls-22 {
        clip-path: url(#clippath-13);
      }

      .cls-23 {
        clip-path: url(#clippath-12);
      }

      .cls-24 {
        clip-path: url(#clippath-1);
      }

      .cls-25 {
        clip-path: url(#clippath-3);
      }

      .cls-26 {
        clip-path: url(#clippath-4);
      }

      .cls-27 {
        clip-path: url(#clippath-7);
      }

      .cls-28 {
        clip-path: url(#clippath-6);
      }

      .cls-29 {
        clip-path: url(#clippath-8);
      }

      .cls-30 {
        clip-path: url(#clippath-5);
      }

      .cls-10 {
        stroke-dasharray: 9.36 9.36;
      }

      .cls-31 {
        fill: #39b54a;
      }

      .cls-11 {
        stroke-dasharray: 8.31 8.31;
      }

      .cls-11, .cls-14, .cls-19 {
        stroke-width: .73px;
      }

      .cls-32 {
        fill: #f7931e;
      }

      .cls-12 {
        stroke-width: .69px;
      }

      .cls-15 {
        stroke-width: .72px;
      }

      .cls-33 {
        fill: #2e3192;
      }

      .cls-34 {
        opacity: .25;
      }

      .cls-35 {
        fill: red;
      }

      .cls-36 {
        fill: #93278f;
      }

      .cls-37 {
        font-size: 21px;
      }

      .cls-37, .cls-38 {
        font-family: Palatino-Roman, Palatino;
      }

      .cls-38 {
        font-size: 48px;
      }

      .cls-19 {
        stroke-dasharray: 8.52 8.52;
      }
    </style>
    <clipPath id="clippath-1">
      <rect class="cls-1" x="28.78" y="142.74" width="147" height="32.6"/>
    </clipPath>
    <clipPath id="clippath-3">
      <rect class="cls-1" x="238.58" y="142.74" width="147" height="32.6"/>
    </clipPath>
    <clipPath id="clippath-4">
      <rect class="cls-1" x="652.58" y="142.74" width="147" height="32.6"/>
    </clipPath>
    <clipPath id="clippath-5">
      <rect class="cls-1" x="84.69" y="182.24" width="34" height="18"/>
    </clipPath>
    <clipPath id="clippath-6">
      <rect class="cls-1" x="294.19" y="182.24" width="35" height="18"/>
    </clipPath>
    <clipPath id="clippath-7">
      <rect class="cls-1" x="709.21" y="180.24" width="35" height="18"/>
    </clipPath>
    <clipPath id="clippath-8">
      <rect class="cls-1" x="435" y="8" width="100" height="279"/>
    </clipPath>
    <clipPath id="clippath-10">
      <rect class="cls-1" x="33.83" y="113.05" width="18.06" height="15"/>
    </clipPath>
    <clipPath id="clippath-12">
      <rect class="cls-1" x="73.83" y="113.05" width="18.06" height="15"/>
    </clipPath>
    <clipPath id="clippath-13">
      <rect class="cls-1" x="820.88" y="212.05" width="75" height="22"/>
    </clipPath>
  </defs>
  <g class="cls-34">
    <rect class="cls-31" x="27.5" y="28.5" width="150" height="150"/>
    <g>
      <polyline class="cls-16" points="177.5 174.45 177.5 178.5 173.45 178.5"/>
      <line class="cls-8" x1="165.1" y1="178.5" x2="35.72" y2="178.5"/>
      <polyline class="cls-16" points="31.55 178.5 27.5 178.5 27.5 174.45"/>
      <line class="cls-8" x1="27.5" y1="166.1" x2="27.5" y2="36.72"/>
      <polyline class="cls-16" points="27.5 32.55 27.5 28.5 31.55 28.5"/>
      <line class="cls-8" x1="39.9" y1="28.5" x2="169.28" y2="28.5"/>
      <polyline class="cls-16" points="173.45 28.5 177.5 28.5 177.5 32.55"/>
      <line class="cls-8" x1="177.5" y1="40.9" x2="177.5" y2="170.28"/>
    </g>
  </g>
  <g class="cls-34">
    <rect class="cls-32" x="184.5" y="28.5" width="243" height="150"/>
    <g>
      <polyline class="cls-18" points="427.5 173.94 427.5 178.5 422.94 178.5"/>
      <line class="cls-10" x1="413.59" y1="178.5" x2="193.74" y2="178.5"/>
      <polyline class="cls-18" points="189.06 178.5 184.5 178.5 184.5 173.94"/>
      <line class="cls-4" x1="184.5" y1="164.55" x2="184.5" y2="37.75"/>
      <polyline class="cls-18" points="184.5 33.06 184.5 28.5 189.06 28.5"/>
      <line class="cls-10" x1="198.41" y1="28.5" x2="418.26" y2="28.5"/>
      <polyline class="cls-18" points="422.94 28.5 427.5 28.5 427.5 33.06"/>
      <line class="cls-4" x1="427.5" y1="42.45" x2="427.5" y2="169.25"/>
    </g>
  </g>
  <g class="cls-34">
    <rect class="cls-36" x="581.5" y="28.5" width="290" height="150"/>
    <g>
      <polyline class="cls-14" points="871.5 32.86 871.5 28.5 867.14 28.5"/>
      <line class="cls-19" x1="858.62" y1="28.5" x2="590.12" y2="28.5"/>
      <polyline class="cls-14" points="585.86 28.5 581.5 28.5 581.5 32.86"/>
      <line class="cls-11" x1="581.5" y1="41.17" x2="581.5" y2="169.99"/>
      <polyline class="cls-14" points="581.5 174.14 581.5 178.5 585.86 178.5"/>
      <line class="cls-19" x1="594.38" y1="178.5" x2="862.88" y2="178.5"/>
      <polyline class="cls-14" points="867.14 178.5 871.5 178.5 871.5 174.14"/>
      <line class="cls-11" x1="871.5" y1="165.83" x2="871.5" y2="37.01"/>
    </g>
  </g>
  <line class="cls-15" x1="25" y1="98.5" x2="555" y2="98.5"/>
  <circle class="cls-33" cx="43" cy="98.33" r="10"/>
  <circle class="cls-33" cx="160" cy="98.33" r="10"/>
  <circle class="cls-33" cx="82" cy="98.33" r="10"/>
  <circle class="cls-33" cx="121" cy="98.33" r="10"/>
  <circle class="cls-33" cx="200" cy="98.33" r="10"/>
  <circle class="cls-33" cx="242.2" cy="98.33" r="10"/>
  <circle class="cls-33" cx="326.6" cy="98.33" r="10"/>
  <circle class="cls-33" cx="368.8" cy="98.33" r="10"/>
  <circle class="cls-33" cx="411" cy="98.33" r="10"/>
  <circle class="cls-33" cx="284.4" cy="98.33" r="10"/>
  <circle class="cls-33" cx="452" cy="98.33" r="10"/>
  <circle class="cls-33" cx="509" cy="98.33" r="10"/>
  <line class="cls-17" x1="560.5" y1="88.5" x2="550.5" y2="108.5"/>
  <line class="cls-17" x1="566.31" y1="88.66" x2="556.31" y2="108.66"/>
  <g>
    <line class="cls-12" x1="562" y1="98.5" x2="857.85" y2="98.5"/>
    <path d="M862,98.5c-1.95.72-4.38,1.96-5.88,3.27l1.18-3.27-1.18-3.27c1.5,1.31,3.93,2.55,5.88,3.27Z"/>
  </g>
  <circle class="cls-33" cx="618" cy="99" r="10"/>
  <circle class="cls-33" cx="795" cy="98" r="10"/>
  <g>
    <line class="cls-5" x1="47" y1="71.5" x2="78" y2="71.5"/>
    <path class="cls-35" d="M42.5,71.5c2.12.79,4.74,2.12,6.37,3.54l-1.28-3.54,1.28-3.54c-1.63,1.42-4.25,2.76-6.37,3.54Z"/>
    <path class="cls-35" d="M82.5,71.5c-2.12.79-4.74,2.12-6.37,3.54l1.28-3.54-1.28-3.54c1.63,1.42,4.25,2.76,6.37,3.54Z"/>
  </g>
  <polygon class="cls-9" points="396.94 339.54 396.94 339.54 396.94 339.54 396.94 339.54 396.94 339.54 396.94 339.54 396.94 339.54 396.94 339.54 396.94 339.54 396.94 339.54 396.94 339.54 396.94 339.54 396.94 339.54 396.94 339.54 396.94 339.54 396.94 339.54 396.94 339.54 396.94 339.54 396.94 339.54 396.94 339.54 396.94 339.54 396.94 339.54 396.94 339.54 396.94 339.54 396.94 339.54 396.94 339.54 396.94 339.54 396.94 339.54 396.94 339.54 396.94 339.54 396.94 339.54 396.94 339.54 396.94 339.54 396.94 339.54 396.94 339.54 396.94 339.54 396.94 339.54 396.94 339.54 396.94 339.54 396.94 339.54 396.94 339.54 396.94 339.54 396.94 339.54 396.94 339.54 396.94 339.54 396.94 339.54 396.94 339.54 396.94 339.54 396.94 339.54 396.94 339.54 396.94 339.54 396.94 339.54 396.94 339.54 396.94 339.54 396.94 339.54 396.94 339.54 396.94 339.54 396.94 339.54 396.94 339.54 396.94 339.54 396.94 339.54 396.94 339.54 396.94 339.54 396.94 339.54 396.94 339.54 396.94 339.54 396.94 339.54 396.94 339.54 396.94 339.54 396.94 339.54 396.94 339.54 396.94 339.54 396.94 339.54 396.94 339.54 396.94 339.54 396.94 339.54 396.94 339.54 396.94 339.54 396.94 339.54 396.94 339.54 396.94 339.54 396.94 339.54 396.94 339.54 396.94 339.54 396.94 339.54 396.94 339.54 396.94 339.54 396.94 339.54 396.94 339.54 396.94 339.54 396.94 339.54 396.94 339.54 396.94 339.54 396.94 339.54 396.94 339.54 396.94 339.54 396.94 339.54"/>
  <polygon class="cls-9" points="102.13 207.79 102.13 207.79 102.13 207.79 102.13 207.79 102.13 207.79 102.13 207.79 102.13 207.79 102.13 207.79 102.13 207.79 102.13 207.79 102.13 207.79 102.13 207.79 102.13 207.79 102.13 207.79 102.13 207.79 102.13 207.79 102.13 207.79 102.13 207.79 102.13 207.79 102.13 207.79 102.13 207.79 102.13 207.79 102.13 207.79 102.13 207.79 102.13 207.79 102.13 207.79 102.13 207.79 102.13 207.79 102.13 207.79 102.13 207.79 102.13 207.79 102.13 207.79 102.13 207.79 102.13 207.79 102.13 207.79 102.13 207.79 102.13 207.79 102.13 207.79 102.13 207.79 102.13 207.79 102.13 207.79 102.13 207.79 102.13 207.79 102.13 207.79 102.13 207.79 102.13 207.79 102.13 207.79 102.13 207.79 102.13 207.79 102.13 207.79 102.13 207.79 102.13 207.79 102.13 207.79 102.13 207.79 102.13 207.79 102.13 207.79 102.13 207.79 102.13 207.79 102.13 207.79 102.13 207.79 102.13 207.79 102.13 207.79 102.13 207.79 102.13 207.79 102.13 207.79 102.13 207.79 102.13 207.79 102.13 207.79 102.13 207.79 102.13 207.79 102.13 207.79 102.13 207.79 102.13 207.79 102.13 207.79 102.13 207.79 102.13 207.79 102.13 207.79 102.13 207.79 102.13 207.79 102.13 207.79 102.13 207.79 102.13 207.79 102.13 207.79 102.13 207.79 102.13 207.79 102.13 207.79 102.13 207.79 102.13 207.79 102.13 207.79 102.13 207.79 102.13 207.79 102.13 207.79 102.13 207.79 102.13 207.79 102.13 207.79 102.13 207.79 102.13 207.79"/>
  <g class="cls-24">
    <path d="M49.13,162.97l1.69-4.46h-.35c-.54,1.45-2.02,2.4-3.63,2.82-.29.07-1.66.43-4.34.43h-8.41l7.1-8.33c.1-.11.12-.15.12-.22,0-.03,0-.07-.1-.21l-6.5-8.89h7.64c1.87,0,3.14.2,3.26.22.75.11,1.97.35,3.07,1.05.35.22,1.3.85,1.77,1.98h.35l-1.69-3.92h-16.49c-.32,0-.33.01-.38.1-.01.04-.01.31-.01.46l7.38,10.1-7.23,8.47c-.14.17-.14.24-.14.25,0,.15.12.15.38.15h16.49"/>
    <path d="M31.23,166.96s.04-.15.04-.16c0-.05-.04-.14-.16-.14-.2,0-1.01.08-1.25.1-.08,0-.21.02-.21.23,0,.14.14.14.25.14.47,0,.47.07.47.15,0,.07-.02.13-.04.21l-1.38,5.53c-.05.18-.05.2-.05.22,0,.15.12.31.33.31.26,0,.39-.19.45-.41.02-.04.44-1.76.48-1.89.69.07,1.25.29,1.25.8,0,.05,0,.1-.02.2-.04.15-.04.2-.04.3,0,.69.57,1,1.03,1,.95,0,1.24-1.48,1.24-1.49,0-.13-.13-.13-.16-.13-.14,0-.15.05-.2.23-.12.42-.38,1.11-.86,1.11-.26,0-.34-.25-.34-.51,0-.17,0-.19.06-.44,0-.03.05-.2.05-.3,0-.87-1.17-1.01-1.58-1.04.28-.18.64-.5.81-.64.5-.47.99-.93,1.53-.93.12,0,.24.03.32.13-.42.07-.51.4-.51.55,0,.21.17.36.39.36.26,0,.56-.22.56-.62,0-.32-.23-.68-.75-.68-.56,0-1.06.4-1.56.86-.41.39-.73.69-1.13.86l.97-3.9"/>
    <path d="M40.44,171.23c.16,0,.39,0,.39-.23s-.22-.24-.39-.24h-4.52c.15-1.42,1.33-2.47,2.85-2.47h1.67c.16,0,.39,0,.39-.23s-.22-.24-.39-.24h-1.71c-1.82,0-3.3,1.42-3.3,3.18s1.5,3.19,3.3,3.19h1.71c.16,0,.39,0,.39-.23s-.22-.24-.39-.24h-1.67c-1.52,0-2.7-1.05-2.85-2.47h4.52"/>
    <path d="M45.66,169.6l2.91,3.5h-1.26c0-.17,0-.26-.26-.58-.22-.27-.77-.93-1-1.19-.2-.24-.87-1.05-.97-1.16l.58-.57M43.23,173.1c.08-.17.08-.42.08-.54v-4.93c0-.12,0-.36-.08-.54h1.06c-.08.18-.08.42-.08.54v4.93c0,.12,0,.36.08.54h-1.06ZM47.9,167.09c-.3.23-.32.23-.67.54,0-.15,0-.33-.13-.54h.8ZM45.91,169.38l.63-.62c1.06-1.03,1.65-1.61,2.25-1.67.08,0,.22-.02.22-.17,0-.18-.15-.18-.32-.18h-2.06c-.17,0-.32,0-.32.18,0,.15.14.16.2.17.26.04.37.27.37.49,0,.27-.16.44-.24.53l-1.06,1.01c-.23.21-.78.77-1.02.98v-2.44c0-.49.04-.56.61-.56.09,0,.25,0,.25-.17,0-.18-.15-.18-.32-.18h-2.66c-.18,0-.33,0-.33.18,0,.17.19.17.26.17.56,0,.6.08.6.56v4.89c0,.46-.03.56-.55.56-.15,0-.31,0-.31.17s.16.18.33.18h2.66c.17,0,.32,0,.32-.18s-.17-.17-.27-.17c-.56,0-.59-.09-.59-.56v-1.88l.27-.25,1.73,2.06.25.3c.11.14.11.16.16.28-.06,0-.08.03-.12.04-.23.04-.29.05-.29.18,0,.18.15.18.32.18h2.18c.18,0,.32,0,.32-.18,0-.13-.12-.16-.19-.17-.12,0-.18-.02-.46-.34l-2.83-3.38Z"/>
    <path d="M52.25,170.4c0-.21-.02-.21-.25-.21-.5.45-1.27.45-1.41.45h-.12v.31h.12c.16,0,.61-.02,1.02-.2v3.49c0,.22,0,.29-.74.29h-.35v.31c.38-.03,1-.03,1.41-.03s1.02,0,1.41.03v-.31h-.35c-.74,0-.74-.08-.74-.29v-3.84"/>
    <path d="M59.49,160.09s0-.07-.24-.31c-1.74-1.76-2.19-4.39-2.19-6.53,0-2.43.53-4.85,2.25-6.6.18-.17.18-.2.18-.24,0-.1-.06-.14-.14-.14-.14,0-1.39.95-2.22,2.72-.71,1.53-.88,3.08-.88,4.25,0,1.09.15,2.78.92,4.35.84,1.72,2.04,2.62,2.17,2.62.08,0,.14-.04.14-.14"/>
    <path d="M65.03,152.53c.08-.36.4-1.65,1.38-1.65.07,0,.4,0,.7.18-.39.07-.67.42-.67.75,0,.22.15.49.53.49.31,0,.75-.25.75-.81,0-.73-.82-.92-1.3-.92-.81,0-1.3.74-1.46,1.06-.35-.92-1.1-1.06-1.51-1.06-1.45,0-2.25,1.8-2.25,2.15,0,.14.14.14.17.14.11,0,.15-.03.18-.15.47-1.48,1.39-1.83,1.87-1.83.26,0,.75.12.75.93,0,.43-.24,1.37-.75,3.32-.22.87-.71,1.45-1.32,1.45-.08,0-.4,0-.7-.18.35-.07.65-.36.65-.75s-.31-.49-.52-.49c-.42,0-.77.36-.77.81,0,.64.7.92,1.31.92.92,0,1.42-.98,1.46-1.06.17.52.67,1.06,1.51,1.06,1.44,0,2.23-1.8,2.23-2.15,0-.14-.12-.14-.17-.14-.12,0-.15.06-.18.15-.46,1.49-1.41,1.83-1.85,1.83-.54,0-.77-.45-.77-.92,0-.31.08-.61.24-1.23l.47-1.91"/>
    <path d="M71.91,146.79h1.31c.14,0,.6,0,.6-.48s-.48-.48-.6-.48h-3.57c-.14,0-.61,0-.61.48s.48.48.61.48h1.31v4.73c0,.14,0,.6.48.6s.48-.48.48-.6v-4.73"/>
    <path d="M71.33,154.46s.04-.15.04-.16c0-.05-.04-.14-.16-.14-.2,0-1.01.08-1.25.1-.08,0-.21.02-.21.23,0,.14.14.14.25.14.47,0,.47.07.47.15,0,.07-.02.13-.04.21l-1.38,5.53c-.05.18-.05.2-.05.22,0,.15.12.31.33.31.26,0,.39-.19.45-.41.02-.04.44-1.76.48-1.89.69.07,1.25.29,1.25.8,0,.05,0,.1-.02.2-.04.15-.04.2-.04.3,0,.69.57,1,1.03,1,.95,0,1.24-1.48,1.24-1.49,0-.13-.13-.13-.16-.13-.14,0-.15.05-.2.23-.12.42-.38,1.11-.86,1.11-.26,0-.34-.25-.34-.51,0-.17,0-.19.06-.44,0-.03.05-.2.05-.3,0-.87-1.17-1.01-1.58-1.04.28-.17.64-.5.81-.64.5-.47.99-.93,1.53-.93.12,0,.24.03.32.13-.42.07-.51.4-.51.55,0,.21.17.36.39.36.26,0,.56-.22.56-.62,0-.32-.23-.68-.75-.68-.56,0-1.06.4-1.56.86-.41.39-.73.69-1.13.86l.97-3.9"/>
    <path d="M79.61,156.7c-.2,0-.64,0-.64-.6,0-.56.53-1.12,1.12-1.12s.85.34.85,1.19c0,.21-.01.22-.15.28-.36.15-.78.25-1.17.25M78.75,156.55c-1.09-.43-1.56-1.52-1.56-2.78,0-.96.36-2.94,1.42-4.45,1.02-1.42,2.33-2.06,3.35-2.06,1.39,0,2.41,1.09,2.41,2.96,0,1.4-.71,4.66-3.05,5.97-.07-.49-.21-1.51-1.23-1.51-.74,0-1.42.7-1.42,1.42,0,.28.08.43.08.45ZM81.39,156.66c2.16-.82,4.21-3.3,4.21-6,0-2.25-1.48-3.75-3.56-3.75-3.01,0-6.08,3.17-6.08,6.42,0,2.32,1.56,3.72,3.57,3.72.35,0,.82-.05,1.37-.21-.05.87-.05.89-.05,1.08,0,.45,0,1.53,1.16,1.53,1.66,0,2.33-2.55,2.33-2.71,0-.1-.1-.14-.15-.14-.11,0-.14.07-.17.15-.33.99-1.14,1.34-1.63,1.34-.64,0-.85-.38-.99-1.44Z"/>
    <path d="M89.65,152.53c0-.26-.02-.27-.29-.27-.62.62-1.51.62-1.91.62v.35c.23,0,.88,0,1.42-.27v4.98c0,.32,0,.45-.98.45h-.37v.35c.17,0,1.38-.04,1.74-.04.3,0,1.53.03,1.75.04v-.35h-.37c-.98,0-.98-.13-.98-.45v-5.41"/>
    <path d="M97.23,152.53c.08-.36.4-1.65,1.38-1.65.07,0,.4,0,.7.18-.39.07-.67.42-.67.75,0,.22.15.49.53.49.31,0,.75-.25.75-.81,0-.73-.82-.92-1.3-.92-.81,0-1.3.74-1.46,1.06-.35-.92-1.1-1.06-1.51-1.06-1.45,0-2.25,1.8-2.25,2.15,0,.14.14.14.17.14.11,0,.15-.03.18-.15.47-1.48,1.39-1.83,1.87-1.83.26,0,.75.12.75.93,0,.43-.24,1.37-.75,3.32-.22.87-.71,1.45-1.33,1.45-.08,0-.4,0-.7-.18.35-.07.65-.36.65-.75s-.31-.49-.52-.49c-.42,0-.77.36-.77.81,0,.64.7.92,1.31.92.92,0,1.42-.98,1.46-1.06.17.52.67,1.06,1.51,1.06,1.44,0,2.23-1.8,2.23-2.15,0-.14-.12-.14-.17-.14-.12,0-.15.06-.18.15-.46,1.49-1.41,1.83-1.85,1.83-.54,0-.77-.45-.77-.92,0-.31.08-.61.24-1.23l.47-1.91"/>
    <path d="M103.63,152.26s.04-.15.04-.16c0-.05-.04-.14-.16-.14-.2,0-1.01.08-1.25.1-.08,0-.21.02-.21.23,0,.14.14.14.25.14.47,0,.47.07.47.15,0,.07-.02.13-.04.21l-1.38,5.53c-.05.18-.05.2-.05.22,0,.15.12.31.33.31.26,0,.39-.19.45-.41.02-.04.44-1.76.48-1.89.69.07,1.25.29,1.25.8,0,.05,0,.1-.02.2-.04.15-.04.2-.04.3,0,.69.57,1,1.03,1,.95,0,1.24-1.48,1.24-1.49,0-.13-.13-.13-.16-.13-.14,0-.15.05-.2.23-.12.42-.38,1.11-.86,1.11-.26,0-.34-.25-.34-.51,0-.17,0-.19.06-.44,0-.03.05-.2.05-.3,0-.87-1.17-1.01-1.58-1.04.28-.18.64-.5.81-.64.5-.47.99-.93,1.53-.93.12,0,.24.03.32.13-.42.07-.51.4-.51.55,0,.21.17.36.39.36.26,0,.56-.22.56-.63,0-.32-.23-.68-.75-.68-.56,0-1.06.4-1.56.86-.41.39-.73.69-1.13.86l.97-3.9"/>
    <path d="M116.28,153.53h3.89c.2,0,.46,0,.46-.28s-.27-.28-.46-.28h-3.89v-3.91c0-.19,0-.46-.28-.46s-.28.27-.28.46v3.91h-3.91c-.2,0-.46,0-.46.28s.26.28.46.28h3.91v3.9c0,.2,0,.46.28.46s.28-.27.28-.46v-3.9"/>
    <path d="M129.36,155.96c.15.57.64.93,1.24.93.49,0,.81-.32,1.03-.77.24-.5.42-1.35.42-1.38,0-.14-.12-.14-.17-.14-.14,0-.15.06-.19.25-.19.78-.46,1.73-1.05,1.73-.29,0-.43-.18-.43-.64,0-.31.17-.96.28-1.45l.39-1.51c.04-.21.18-.74.24-.95.07-.32.21-.85.21-.93,0-.25-.19-.38-.4-.38-.07,0-.43.01-.54.49-.27,1.02-.88,3.46-1.05,4.2-.01.06-.57,1.17-1.59,1.17-.72,0-.87-.63-.87-1.14,0-.78.39-1.88.75-2.85.17-.42.24-.61.24-.88,0-.63-.45-1.14-1.14-1.14-1.33,0-1.84,2.02-1.84,2.15,0,.14.14.14.17.14.14,0,.15-.03.22-.25.35-1.21.88-1.73,1.41-1.73.13,0,.35.01.35.46,0,.34-.15.74-.24.95-.52,1.38-.81,2.25-.81,2.93,0,1.33.96,1.67,1.72,1.67.92,0,1.42-.63,1.66-.93"/>
    <path d="M136.11,146.79h1.31c.14,0,.6,0,.6-.48s-.48-.48-.6-.48h-3.57c-.14,0-.61,0-.61.48s.48.48.61.48h1.31v4.73c0,.14,0,.6.48.6s.48-.48.48-.6v-4.73"/>
    <path d="M135.53,154.46s.04-.15.04-.16c0-.05-.04-.14-.16-.14-.19,0-1.01.08-1.25.1-.08,0-.21.02-.21.23,0,.14.14.14.25.14.47,0,.47.07.47.15,0,.07-.02.13-.04.21l-1.38,5.53c-.05.18-.05.2-.05.22,0,.15.12.31.33.31.26,0,.39-.19.45-.41.02-.04.44-1.76.48-1.89.69.07,1.25.29,1.25.8,0,.05,0,.1-.02.2-.04.15-.04.2-.04.3,0,.69.57,1,1.03,1,.95,0,1.24-1.48,1.24-1.49,0-.13-.13-.13-.16-.13-.14,0-.15.05-.2.23-.12.42-.38,1.11-.86,1.11-.26,0-.34-.25-.34-.51,0-.17,0-.19.06-.44,0-.03.05-.2.05-.3,0-.87-1.17-1.01-1.58-1.04.28-.17.64-.5.81-.64.5-.47.99-.93,1.53-.93.12,0,.24.03.32.13-.42.07-.51.4-.51.55,0,.21.17.36.39.36.26,0,.56-.22.56-.62,0-.32-.23-.68-.75-.68-.56,0-1.06.4-1.56.86-.41.39-.73.69-1.13.86l.97-3.9"/>
    <path d="M146.72,152c1.41-.31,3.07-1.28,3.07-2.69,0-1.2-1.26-2.09-3.08-2.09h-3.97c-.28,0-.4,0-.4.28,0,.15.12.15.39.15.03,0,.29,0,.53.03.25.03.38.04.38.22,0,.05-.01.1-.06.26l-1.87,7.49c-.14.54-.17.65-1.27.65-.25,0-.38,0-.38.28,0,.15.17.15.19.15.39,0,1.37-.04,1.76-.04s1.38.04,1.77.04c.11,0,.28,0,.28-.28,0-.15-.12-.15-.39-.15-.51,0-.91,0-.91-.25,0-.08.03-.15.04-.24l.92-3.7h1.66c1.27,0,1.52.78,1.52,1.27,0,.21-.11.64-.19.96-.1.39-.22.91-.22,1.18,0,1.51,1.67,1.51,1.85,1.51,1.19,0,1.67-1.41,1.67-1.6,0-.17-.15-.17-.17-.17-.12,0-.15.1-.18.2-.35,1.03-.95,1.27-1.27,1.27-.46,0-.56-.31-.56-.85,0-.43.08-1.14.14-1.59.03-.2.06-.46.06-.66,0-1.07-.93-1.51-1.31-1.65M144.71,148.18c.08-.33.13-.47.39-.52.13-.01.57-.01.85-.01.99,0,2.54,0,2.54,1.38,0,.47-.22,1.44-.77,1.98-.36.36-1.1.81-2.36.81h-1.56l.91-3.64Z"/>
    <path d="M153.35,152.53c0-.26-.02-.27-.29-.27-.62.62-1.51.62-1.91.62v.35c.23,0,.88,0,1.42-.27v4.98c0,.32,0,.45-.98.45h-.37v.35c.17,0,1.38-.04,1.74-.04.3,0,1.53.03,1.75.04v-.35h-.37c-.98,0-.98-.13-.98-.45v-5.41"/>
    <path d="M161.26,155.96c.15.57.64.93,1.24.93.49,0,.81-.32,1.03-.77.24-.5.42-1.35.42-1.38,0-.14-.12-.14-.17-.14-.14,0-.15.06-.19.25-.2.78-.46,1.73-1.05,1.73-.29,0-.43-.18-.43-.64,0-.31.17-.96.28-1.45l.39-1.51c.04-.21.18-.74.24-.95.07-.32.21-.85.21-.93,0-.25-.19-.38-.4-.38-.07,0-.43.01-.54.49-.27,1.02-.88,3.46-1.05,4.2-.01.06-.57,1.17-1.59,1.17-.72,0-.87-.63-.87-1.14,0-.78.39-1.88.75-2.85.17-.42.24-.61.24-.88,0-.63-.45-1.14-1.14-1.14-1.32,0-1.84,2.02-1.84,2.15,0,.14.14.14.17.14.14,0,.15-.03.22-.25.35-1.21.88-1.73,1.41-1.73.13,0,.35.01.35.46,0,.34-.15.74-.24.95-.52,1.38-.81,2.25-.81,2.93,0,1.33.96,1.67,1.72,1.67.92,0,1.42-.63,1.66-.93"/>
    <path d="M167.33,152.26s.04-.15.04-.16c0-.05-.04-.14-.16-.14-.19,0-1.01.08-1.25.1-.08,0-.21.02-.21.23,0,.14.14.14.25.14.47,0,.47.07.47.15,0,.07-.02.13-.04.21l-1.38,5.53c-.05.18-.05.2-.05.22,0,.15.12.31.33.31.26,0,.39-.19.45-.41.02-.04.44-1.76.48-1.89.69.07,1.25.29,1.25.8,0,.05,0,.1-.02.2-.04.15-.04.2-.04.3,0,.69.57,1,1.03,1,.95,0,1.24-1.48,1.24-1.49,0-.13-.13-.13-.16-.13-.14,0-.15.05-.2.23-.12.42-.38,1.11-.86,1.11-.26,0-.34-.25-.34-.51,0-.17,0-.19.06-.44,0-.03.05-.2.05-.3,0-.87-1.17-1.01-1.58-1.04.28-.18.64-.5.81-.64.5-.47.99-.93,1.53-.93.12,0,.24.03.32.13-.42.07-.51.4-.51.55,0,.21.17.36.39.36.26,0,.56-.22.56-.63,0-.32-.23-.68-.75-.68-.56,0-1.06.4-1.56.86-.41.39-.73.69-1.13.86l.97-3.9"/>
    <path d="M175.21,153.25c0-1.09-.15-2.78-.92-4.35-.84-1.72-2.04-2.62-2.18-2.62-.08,0-.14.06-.14.14,0,.04,0,.07.26.32,1.37,1.38,2.16,3.6,2.16,6.51,0,2.39-.52,4.84-2.25,6.6-.18.17-.18.2-.18.24,0,.08.06.14.14.14.14,0,1.4-.95,2.22-2.72.71-1.53.88-3.08.88-4.25"/>
  </g>
  <polygon class="cls-9" points="346.93 147.79 346.93 147.79 346.93 147.79 346.93 147.79 346.93 147.79 346.93 147.79 346.93 147.79 346.93 147.79 346.93 147.79 346.93 147.79 346.93 147.79 346.93 147.79 346.93 147.79 346.93 147.79 346.93 147.79 346.93 147.79 346.93 147.79 346.93 147.79 346.93 147.79 346.93 147.79 346.93 147.79 346.93 147.79 346.93 147.79 346.93 147.79 346.93 147.79 346.93 147.79 346.93 147.79 346.93 147.79 346.93 147.79 346.93 147.79 346.93 147.79 346.93 147.79 346.93 147.79 346.93 147.79 346.93 147.79 346.93 147.79 346.93 147.79 346.93 147.79 346.93 147.79 346.93 147.79 346.93 147.79 346.93 147.79 346.93 147.79 346.93 147.79 346.93 147.79 346.93 147.79 346.93 147.79 346.93 147.79 346.93 147.79 346.93 147.79 346.93 147.79 346.93 147.79 346.93 147.79 346.93 147.79 346.93 147.79 346.93 147.79 346.93 147.79 346.93 147.79 346.93 147.79 346.93 147.79 346.93 147.79 346.93 147.79 346.93 147.79 346.93 147.79 346.93 147.79 346.93 147.79 346.93 147.79 346.93 147.79 346.93 147.79 346.93 147.79 346.93 147.79 346.93 147.79 346.93 147.79 346.93 147.79 346.93 147.79 346.93 147.79 346.93 147.79 346.93 147.79 346.93 147.79 346.93 147.79 346.93 147.79 346.93 147.79 346.93 147.79 346.93 147.79 346.93 147.79 346.93 147.79 346.93 147.79 346.93 147.79 346.93 147.79 346.93 147.79 346.93 147.79 346.93 147.79 346.93 147.79 346.93 147.79 346.93 147.79 346.93 147.79 346.93 147.79"/>
  <g class="cls-25">
    <path d="M258.93,162.97l1.69-4.46h-.35c-.54,1.45-2.02,2.4-3.63,2.82-.29.07-1.66.43-4.34.43h-8.41l7.1-8.33c.1-.11.12-.15.12-.22,0-.03,0-.07-.1-.21l-6.5-8.89h7.64c1.87,0,3.14.2,3.26.22.75.11,1.97.35,3.07,1.05.35.22,1.3.85,1.77,1.98h.35l-1.69-3.92h-16.49c-.32,0-.33.01-.38.1-.01.04-.01.31-.01.46l7.38,10.1-7.23,8.47c-.14.17-.14.24-.14.25,0,.15.12.15.38.15h16.49"/>
    <path d="M241.03,166.96s.04-.15.04-.16c0-.05-.04-.14-.16-.14-.2,0-1.01.08-1.25.1-.08,0-.21.02-.21.23,0,.14.14.14.25.14.47,0,.47.07.47.15,0,.07-.02.13-.04.21l-1.38,5.53c-.05.18-.05.2-.05.22,0,.15.12.31.33.31.26,0,.39-.19.45-.41.02-.04.44-1.76.48-1.89.69.07,1.25.29,1.25.8,0,.05,0,.1-.02.2-.04.15-.04.2-.04.3,0,.69.57,1,1.03,1,.95,0,1.24-1.48,1.24-1.49,0-.13-.13-.13-.16-.13-.14,0-.15.05-.2.23-.12.42-.38,1.11-.86,1.11-.26,0-.34-.25-.34-.51,0-.17,0-.19.06-.44,0-.03.05-.2.05-.3,0-.87-1.17-1.01-1.58-1.04.28-.18.64-.5.81-.64.5-.47.99-.93,1.53-.93.12,0,.24.03.32.13-.42.07-.51.4-.51.55,0,.21.17.36.39.36.26,0,.56-.22.56-.62,0-.32-.23-.68-.75-.68-.56,0-1.06.4-1.56.86-.41.39-.73.69-1.13.86l.97-3.9"/>
    <path d="M250.24,171.23c.16,0,.39,0,.39-.23s-.22-.24-.39-.24h-4.52c.15-1.42,1.33-2.47,2.85-2.47h1.67c.16,0,.39,0,.39-.23s-.22-.24-.39-.24h-1.71c-1.82,0-3.3,1.42-3.3,3.18s1.5,3.19,3.3,3.19h1.71c.16,0,.39,0,.39-.23s-.22-.24-.39-.24h-1.67c-1.52,0-2.7-1.05-2.85-2.47h4.52"/>
    <path d="M255.46,169.6l2.91,3.5h-1.26c0-.17,0-.26-.26-.58-.22-.27-.77-.93-1-1.19-.2-.24-.87-1.05-.97-1.16l.58-.57M253.03,173.1c.08-.17.08-.42.08-.54v-4.93c0-.12,0-.36-.08-.54h1.06c-.08.18-.08.42-.08.54v4.93c0,.12,0,.36.08.54h-1.06ZM257.7,167.09c-.3.23-.32.23-.67.54,0-.15,0-.33-.13-.54h.8ZM255.71,169.38l.63-.62c1.06-1.03,1.65-1.61,2.25-1.67.08,0,.22-.02.22-.17,0-.18-.15-.18-.32-.18h-2.06c-.17,0-.32,0-.32.18,0,.15.14.16.2.17.26.04.37.27.37.49,0,.27-.16.44-.24.53l-1.06,1.01c-.23.21-.78.77-1.02.98v-2.44c0-.49.04-.56.61-.56.09,0,.25,0,.25-.17,0-.18-.15-.18-.32-.18h-2.66c-.18,0-.33,0-.33.18,0,.17.19.17.26.17.56,0,.6.08.6.56v4.89c0,.46-.03.56-.55.56-.15,0-.31,0-.31.17s.16.18.33.18h2.66c.17,0,.32,0,.32-.18s-.17-.17-.27-.17c-.56,0-.59-.09-.59-.56v-1.88l.27-.25,1.73,2.06.25.3c.11.14.11.16.16.28-.06,0-.08.03-.12.04-.23.04-.29.05-.29.18,0,.18.15.18.32.18h2.18c.18,0,.32,0,.32-.18,0-.13-.12-.16-.19-.17-.12,0-.18-.02-.46-.34l-2.83-3.38Z"/>
    <path d="M263.38,173.5h-.29c-.02.13-.09.56-.2.63-.06.04-.64.04-.75.04h-1.37c.46-.34.98-.73,1.39-1.01.63-.43,1.21-.84,1.21-1.58,0-.89-.84-1.39-1.84-1.39-.94,0-1.63.54-1.63,1.23,0,.36.31.43.4.43.19,0,.41-.12.41-.41,0-.25-.18-.39-.4-.41.2-.31.6-.52,1.07-.52.68,0,1.24.4,1.24,1.09,0,.59-.4,1.03-.94,1.49l-1.7,1.44c-.07.06-.08.06-.08.11v.21h3.24l.23-1.35"/>
    <path d="M269.29,160.09s0-.07-.24-.31c-1.74-1.76-2.19-4.39-2.19-6.53,0-2.43.53-4.85,2.25-6.6.18-.17.18-.2.18-.24,0-.1-.06-.14-.14-.14-.14,0-1.39.95-2.22,2.72-.71,1.53-.88,3.08-.88,4.25,0,1.09.15,2.78.92,4.35.84,1.72,2.04,2.62,2.17,2.62.08,0,.14-.04.14-.14"/>
    <path d="M274.83,152.53c.08-.36.4-1.65,1.38-1.65.07,0,.4,0,.7.18-.39.07-.67.42-.67.75,0,.22.15.49.53.49.31,0,.75-.25.75-.81,0-.73-.82-.92-1.3-.92-.81,0-1.3.74-1.46,1.06-.35-.92-1.1-1.06-1.51-1.06-1.45,0-2.25,1.8-2.25,2.15,0,.14.14.14.17.14.11,0,.15-.03.18-.15.47-1.48,1.39-1.83,1.87-1.83.26,0,.75.12.75.93,0,.43-.24,1.37-.75,3.32-.22.87-.71,1.45-1.32,1.45-.08,0-.4,0-.7-.18.35-.07.65-.36.65-.75s-.31-.49-.52-.49c-.42,0-.77.36-.77.81,0,.64.7.92,1.31.92.92,0,1.42-.98,1.46-1.06.17.52.67,1.06,1.51,1.06,1.44,0,2.23-1.8,2.23-2.15,0-.14-.12-.14-.17-.14-.12,0-.15.06-.18.15-.46,1.49-1.41,1.83-1.85,1.83-.54,0-.77-.45-.77-.92,0-.31.08-.61.24-1.23l.47-1.91"/>
    <path d="M281.71,146.79h1.31c.14,0,.6,0,.6-.48s-.48-.48-.6-.48h-3.57c-.14,0-.61,0-.61.48s.48.48.61.48h1.31v4.73c0,.14,0,.6.48.6s.48-.48.48-.6v-4.73"/>
    <path d="M281.13,154.46s.04-.15.04-.16c0-.05-.04-.14-.16-.14-.2,0-1.01.08-1.25.1-.08,0-.21.02-.21.23,0,.14.14.14.25.14.47,0,.47.07.47.15,0,.07-.02.13-.04.21l-1.38,5.53c-.05.18-.05.2-.05.22,0,.15.12.31.33.31.26,0,.39-.19.45-.41.02-.04.44-1.76.48-1.89.69.07,1.25.29,1.25.8,0,.05,0,.1-.02.2-.04.15-.04.2-.04.3,0,.69.57,1,1.03,1,.95,0,1.24-1.48,1.24-1.49,0-.13-.13-.13-.16-.13-.14,0-.15.05-.2.23-.12.42-.38,1.11-.86,1.11-.26,0-.34-.25-.34-.51,0-.17,0-.19.06-.44,0-.03.05-.2.05-.3,0-.87-1.17-1.01-1.58-1.04.28-.17.64-.5.81-.64.5-.47.99-.93,1.53-.93.12,0,.24.03.32.13-.42.07-.51.4-.51.55,0,.21.17.36.39.36.26,0,.56-.22.56-.62,0-.32-.23-.68-.75-.68-.56,0-1.06.4-1.56.86-.41.39-.73.69-1.13.86l.97-3.9"/>
    <path d="M289.41,156.7c-.2,0-.64,0-.64-.6,0-.56.53-1.12,1.12-1.12s.85.34.85,1.19c0,.21-.01.22-.15.28-.36.15-.78.25-1.17.25M288.55,156.55c-1.09-.43-1.56-1.52-1.56-2.78,0-.96.36-2.94,1.42-4.45,1.02-1.42,2.33-2.06,3.35-2.06,1.39,0,2.41,1.09,2.41,2.96,0,1.4-.71,4.66-3.05,5.97-.07-.49-.21-1.51-1.23-1.51-.74,0-1.42.7-1.42,1.42,0,.28.08.43.08.45ZM291.18,156.66c2.16-.82,4.21-3.3,4.21-6,0-2.25-1.48-3.75-3.56-3.75-3.01,0-6.08,3.17-6.08,6.42,0,2.32,1.56,3.72,3.57,3.72.35,0,.82-.05,1.37-.21-.05.87-.05.89-.05,1.08,0,.45,0,1.53,1.16,1.53,1.66,0,2.33-2.55,2.33-2.71,0-.1-.1-.14-.15-.14-.11,0-.14.07-.17.15-.33.99-1.14,1.34-1.63,1.34-.64,0-.85-.38-.99-1.44Z"/>
    <path d="M301.11,156.96h-.33c-.03.21-.13.79-.25.89-.08.06-.83.06-.97.06h-1.8c1.03-.91,1.37-1.18,1.95-1.64.72-.58,1.4-1.18,1.4-2.11,0-1.18-1.03-1.9-2.28-1.9s-2.03.85-2.03,1.75c0,.5.42.55.52.55.23,0,.52-.17.52-.52,0-.17-.07-.52-.58-.52.3-.69.97-.91,1.43-.91.98,0,1.48.76,1.48,1.55,0,.85-.6,1.52-.92,1.88l-2.35,2.32c-.1.09-.1.11-.1.38h4.02l.29-1.78"/>
    <path d="M307.03,152.53c.08-.36.4-1.65,1.38-1.65.07,0,.4,0,.7.18-.39.07-.67.42-.67.75,0,.22.15.49.53.49.31,0,.75-.25.75-.81,0-.73-.82-.92-1.3-.92-.81,0-1.3.74-1.46,1.06-.35-.92-1.1-1.06-1.51-1.06-1.45,0-2.25,1.8-2.25,2.15,0,.14.14.14.17.14.11,0,.15-.03.18-.15.47-1.48,1.39-1.83,1.87-1.83.26,0,.75.12.75.93,0,.43-.24,1.37-.75,3.32-.22.87-.71,1.45-1.33,1.45-.08,0-.4,0-.7-.18.35-.07.65-.36.65-.75s-.31-.49-.52-.49c-.42,0-.77.36-.77.81,0,.64.7.92,1.31.92.92,0,1.42-.98,1.46-1.06.17.52.67,1.06,1.51,1.06,1.44,0,2.23-1.8,2.23-2.15,0-.14-.12-.14-.17-.14-.12,0-.15.06-.18.15-.46,1.49-1.41,1.83-1.85,1.83-.54,0-.77-.45-.77-.92,0-.31.08-.61.24-1.23l.47-1.91"/>
    <path d="M313.43,152.26s.04-.15.04-.16c0-.05-.04-.14-.16-.14-.2,0-1.01.08-1.25.1-.08,0-.21.02-.21.23,0,.14.14.14.25.14.47,0,.47.07.47.15,0,.07-.02.13-.04.21l-1.38,5.53c-.05.18-.05.2-.05.22,0,.15.12.31.33.31.26,0,.39-.19.45-.41.02-.04.44-1.76.48-1.89.69.07,1.25.29,1.25.8,0,.05,0,.1-.02.2-.04.15-.04.2-.04.3,0,.69.57,1,1.03,1,.95,0,1.24-1.48,1.24-1.49,0-.13-.13-.13-.16-.13-.14,0-.15.05-.2.23-.12.42-.38,1.11-.86,1.11-.26,0-.34-.25-.34-.51,0-.17,0-.19.06-.44,0-.03.05-.2.05-.3,0-.87-1.17-1.01-1.58-1.04.28-.18.64-.5.81-.64.5-.47.99-.93,1.53-.93.12,0,.24.03.32.13-.42.07-.51.4-.51.55,0,.21.17.36.39.36.26,0,.56-.22.56-.63,0-.32-.23-.68-.75-.68-.56,0-1.06.4-1.56.86-.41.39-.73.69-1.13.86l.97-3.9"/>
    <path d="M326.08,153.53h3.89c.2,0,.46,0,.46-.28s-.27-.28-.46-.28h-3.89v-3.91c0-.19,0-.46-.28-.46s-.28.27-.28.46v3.91h-3.91c-.2,0-.46,0-.46.28s.26.28.46.28h3.91v3.9c0,.2,0,.46.28.46s.28-.27.28-.46v-3.9"/>
    <path d="M339.16,155.96c.15.57.64.93,1.24.93.49,0,.81-.32,1.03-.77.24-.5.42-1.35.42-1.38,0-.14-.12-.14-.17-.14-.14,0-.15.06-.19.25-.19.78-.46,1.73-1.05,1.73-.29,0-.43-.18-.43-.64,0-.31.17-.96.28-1.45l.39-1.51c.04-.21.18-.74.24-.95.07-.32.21-.85.21-.93,0-.25-.19-.38-.4-.38-.07,0-.43.01-.54.49-.27,1.02-.88,3.46-1.05,4.2-.01.06-.57,1.17-1.59,1.17-.72,0-.87-.63-.87-1.14,0-.78.39-1.88.75-2.85.17-.42.24-.61.24-.88,0-.63-.45-1.14-1.14-1.14-1.33,0-1.84,2.02-1.84,2.15,0,.14.14.14.17.14.14,0,.15-.03.22-.25.35-1.21.88-1.73,1.41-1.73.13,0,.35.01.35.46,0,.34-.15.74-.24.95-.52,1.38-.81,2.25-.81,2.93,0,1.33.96,1.67,1.72,1.67.92,0,1.42-.63,1.66-.93"/>
    <path d="M345.91,146.79h1.31c.14,0,.6,0,.6-.48s-.48-.48-.6-.48h-3.57c-.14,0-.61,0-.61.48s.48.48.61.48h1.31v4.73c0,.14,0,.6.48.6s.48-.48.48-.6v-4.73"/>
    <path d="M345.33,154.46s.04-.15.04-.16c0-.05-.04-.14-.16-.14-.19,0-1.01.08-1.25.1-.08,0-.21.02-.21.23,0,.14.14.14.25.14.47,0,.47.07.47.15,0,.07-.02.13-.04.21l-1.38,5.53c-.05.18-.05.2-.05.22,0,.15.12.31.33.31.26,0,.39-.19.45-.41.02-.04.44-1.76.48-1.89.69.07,1.25.29,1.25.8,0,.05,0,.1-.02.2-.04.15-.04.2-.04.3,0,.69.57,1,1.03,1,.95,0,1.24-1.48,1.24-1.49,0-.13-.13-.13-.16-.13-.14,0-.15.05-.2.23-.12.42-.38,1.11-.86,1.11-.26,0-.34-.25-.34-.51,0-.17,0-.19.06-.44,0-.03.05-.2.05-.3,0-.87-1.17-1.01-1.58-1.04.28-.17.64-.5.81-.64.5-.47.99-.93,1.53-.93.12,0,.24.03.32.13-.42.07-.51.4-.51.55,0,.21.17.36.39.36.26,0,.56-.22.56-.62,0-.32-.23-.68-.75-.68-.56,0-1.06.4-1.56.86-.41.39-.73.69-1.13.86l.97-3.9"/>
    <path d="M356.51,152c1.41-.31,3.07-1.28,3.07-2.69,0-1.2-1.26-2.09-3.08-2.09h-3.97c-.28,0-.4,0-.4.28,0,.15.12.15.39.15.03,0,.29,0,.53.03.25.03.38.04.38.22,0,.05-.01.1-.06.26l-1.87,7.49c-.14.54-.17.65-1.27.65-.25,0-.38,0-.38.28,0,.15.17.15.19.15.39,0,1.37-.04,1.76-.04s1.38.04,1.77.04c.11,0,.28,0,.28-.28,0-.15-.12-.15-.39-.15-.51,0-.91,0-.91-.25,0-.08.03-.15.04-.24l.92-3.7h1.66c1.27,0,1.52.78,1.52,1.27,0,.21-.11.64-.19.96-.1.39-.22.91-.22,1.18,0,1.51,1.67,1.51,1.85,1.51,1.19,0,1.67-1.41,1.67-1.6,0-.17-.15-.17-.17-.17-.12,0-.15.1-.18.2-.35,1.03-.95,1.27-1.27,1.27-.46,0-.56-.31-.56-.85,0-.43.08-1.14.14-1.59.03-.2.06-.46.06-.66,0-1.07-.93-1.51-1.31-1.65M354.51,148.18c.08-.33.13-.47.39-.52.13-.01.57-.01.85-.01.99,0,2.54,0,2.54,1.38,0,.47-.22,1.44-.77,1.98-.36.36-1.1.81-2.36.81h-1.56l.91-3.64Z"/>
    <path d="M364.81,156.96h-.33c-.03.21-.13.79-.25.89-.08.06-.83.06-.97.06h-1.8c1.03-.91,1.37-1.18,1.95-1.64.72-.58,1.4-1.18,1.4-2.11,0-1.18-1.04-1.9-2.29-1.9s-2.03.85-2.03,1.75c0,.5.42.55.52.55.23,0,.52-.17.52-.52,0-.17-.07-.52-.58-.52.3-.69.97-.91,1.43-.91.97,0,1.48.76,1.48,1.55,0,.85-.61,1.52-.92,1.88l-2.35,2.32c-.1.09-.1.11-.1.38h4.02l.29-1.78"/>
    <path d="M371.06,155.96c.15.57.64.93,1.24.93.49,0,.81-.32,1.03-.77.24-.5.42-1.35.42-1.38,0-.14-.12-.14-.17-.14-.14,0-.15.06-.19.25-.2.78-.46,1.73-1.05,1.73-.29,0-.43-.18-.43-.64,0-.31.17-.96.28-1.45l.39-1.51c.04-.21.18-.74.24-.95.07-.32.21-.85.21-.93,0-.25-.19-.38-.4-.38-.07,0-.43.01-.54.49-.27,1.02-.88,3.46-1.05,4.2-.01.06-.57,1.17-1.59,1.17-.72,0-.87-.63-.87-1.14,0-.78.39-1.88.75-2.85.17-.42.24-.61.24-.88,0-.63-.45-1.14-1.14-1.14-1.32,0-1.84,2.02-1.84,2.15,0,.14.14.14.17.14.14,0,.15-.03.22-.25.35-1.21.88-1.73,1.41-1.73.13,0,.35.01.35.46,0,.34-.15.74-.24.95-.52,1.38-.81,2.25-.81,2.93,0,1.33.96,1.67,1.72,1.67.92,0,1.42-.63,1.66-.93"/>
    <path d="M377.13,152.26s.04-.15.04-.16c0-.05-.04-.14-.16-.14-.19,0-1.01.08-1.25.1-.08,0-.21.02-.21.23,0,.14.14.14.25.14.47,0,.47.07.47.15,0,.07-.02.13-.04.21l-1.38,5.53c-.05.18-.05.2-.05.22,0,.15.12.31.33.31.26,0,.39-.19.45-.41.02-.04.44-1.76.48-1.89.69.07,1.25.29,1.25.8,0,.05,0,.1-.02.2-.04.15-.04.2-.04.3,0,.69.57,1,1.03,1,.95,0,1.24-1.48,1.24-1.49,0-.13-.13-.13-.16-.13-.14,0-.15.05-.2.23-.12.42-.38,1.11-.86,1.11-.26,0-.34-.25-.34-.51,0-.17,0-.19.06-.44,0-.03.05-.2.05-.3,0-.87-1.17-1.01-1.58-1.04.28-.18.64-.5.81-.64.5-.47.99-.93,1.53-.93.12,0,.24.03.32.13-.42.07-.51.4-.51.55,0,.21.17.36.39.36.26,0,.56-.22.56-.63,0-.32-.23-.68-.75-.68-.56,0-1.06.4-1.56.86-.41.39-.73.69-1.13.86l.97-3.9"/>
    <path d="M385.01,153.25c0-1.09-.15-2.78-.92-4.35-.84-1.72-2.04-2.62-2.18-2.62-.08,0-.14.06-.14.14,0,.04,0,.07.26.32,1.37,1.38,2.16,3.6,2.16,6.51,0,2.39-.52,4.84-2.25,6.6-.18.17-.18.2-.18.24,0,.08.06.14.14.14.14,0,1.4-.95,2.22-2.72.71-1.53.88-3.08.88-4.25"/>
  </g>
  <polygon class="cls-9" points="346.93 147.63 346.93 147.63 346.93 147.63 346.93 147.63 346.93 147.63 346.93 147.63 346.93 147.63 346.93 147.63 346.93 147.63 346.93 147.63 346.93 147.63 346.93 147.63 346.93 147.63 346.93 147.63 346.93 147.63 346.93 147.63 346.93 147.63 346.93 147.63 346.93 147.63 346.93 147.63 346.93 147.63 346.93 147.63 346.93 147.63 346.93 147.63 346.93 147.63 346.93 147.63 346.93 147.63 346.93 147.63 346.93 147.63 346.93 147.63 346.93 147.63 346.93 147.63 346.93 147.63 346.93 147.63 346.93 147.63 346.93 147.63 346.93 147.63 346.93 147.63 346.93 147.63 346.93 147.63 346.93 147.63 346.93 147.63 346.93 147.63 346.93 147.63 346.93 147.63 346.93 147.63 346.93 147.63 346.93 147.63 346.93 147.63 346.93 147.63 346.93 147.63 346.93 147.63 346.93 147.63 346.93 147.63 346.93 147.63 346.93 147.63 346.93 147.63 346.93 147.63 346.93 147.63 346.93 147.63 346.93 147.63 346.93 147.63 346.93 147.63 346.93 147.63 346.93 147.63 346.93 147.63 346.93 147.63 346.93 147.63 346.93 147.63 346.93 147.63 346.93 147.63 346.93 147.63 346.93 147.63 346.93 147.63 346.93 147.63 346.93 147.63 346.93 147.63 346.93 147.63 346.93 147.63 346.93 147.63 346.93 147.63 346.93 147.63 346.93 147.63 346.93 147.63 346.93 147.63 346.93 147.63 346.93 147.63 346.93 147.63 346.93 147.63 346.93 147.63 346.93 147.63 346.93 147.63 346.93 147.63 346.93 147.63 346.93 147.63 346.93 147.63 346.93 147.63"/>
  <g class="cls-26">
    <path d="M672.93,162.97l1.69-4.46h-.35c-.54,1.45-2.02,2.4-3.63,2.82-.29.07-1.66.43-4.34.43h-8.41l7.1-8.33c.1-.11.12-.15.12-.22,0-.03,0-.07-.1-.21l-6.5-8.89h7.64c1.87,0,3.14.2,3.26.22.75.11,1.97.35,3.07,1.05.35.22,1.3.85,1.77,1.98h.35l-1.69-3.92h-16.49c-.32,0-.33.01-.38.1-.01.04-.01.31-.01.46l7.38,10.1-7.23,8.47c-.14.17-.14.24-.14.25,0,.15.12.15.38.15h16.49"/>
    <path d="M655.03,166.96s.04-.15.04-.16c0-.05-.04-.14-.16-.14-.2,0-1.01.08-1.25.1-.08,0-.21.02-.21.22,0,.14.14.14.25.14.47,0,.47.07.47.15,0,.07-.02.13-.04.21l-1.38,5.53c-.05.18-.05.2-.05.22,0,.15.12.31.33.31.26,0,.39-.19.45-.41.02-.04.44-1.76.48-1.89.69.07,1.25.29,1.25.8,0,.05,0,.1-.02.2-.04.15-.04.2-.04.3,0,.69.57,1,1.03,1,.95,0,1.24-1.48,1.24-1.49,0-.13-.13-.13-.16-.13-.14,0-.15.05-.2.23-.12.42-.38,1.11-.86,1.11-.26,0-.34-.25-.34-.51,0-.17,0-.19.06-.44,0-.03.05-.2.05-.3,0-.87-1.17-1.01-1.58-1.04.28-.18.64-.5.81-.64.5-.47.99-.93,1.53-.93.12,0,.24.03.32.13-.42.07-.51.4-.51.55,0,.21.17.36.39.36.26,0,.56-.22.56-.62,0-.32-.23-.68-.75-.68-.56,0-1.06.4-1.56.86-.41.39-.73.69-1.13.86l.97-3.9"/>
    <path d="M664.24,171.23c.16,0,.39,0,.39-.23s-.22-.24-.39-.24h-4.52c.15-1.42,1.33-2.47,2.85-2.47h1.67c.16,0,.39,0,.39-.23s-.22-.24-.39-.24h-1.71c-1.82,0-3.3,1.43-3.3,3.18s1.5,3.19,3.3,3.19h1.71c.16,0,.39,0,.39-.23s-.22-.24-.39-.24h-1.67c-1.52,0-2.7-1.05-2.85-2.47h4.52"/>
    <path d="M669.46,169.6l2.91,3.5h-1.26c0-.17,0-.26-.26-.58-.22-.27-.77-.93-1-1.19-.2-.24-.87-1.05-.97-1.16l.58-.57M667.03,173.1c.08-.17.08-.42.08-.54v-4.93c0-.12,0-.36-.08-.54h1.06c-.08.18-.08.42-.08.54v4.93c0,.12,0,.36.08.54h-1.06ZM671.7,167.09c-.3.23-.32.23-.67.54,0-.15,0-.33-.13-.54h.8ZM669.71,169.38l.63-.62c1.06-1.03,1.65-1.61,2.25-1.67.08,0,.22-.02.22-.17,0-.18-.15-.18-.32-.18h-2.06c-.17,0-.32,0-.32.18,0,.15.14.16.2.17.26.04.37.27.37.49,0,.27-.16.44-.24.53l-1.06,1.01c-.23.21-.78.77-1.02.98v-2.44c0-.49.04-.56.61-.56.09,0,.25,0,.25-.17,0-.18-.15-.18-.32-.18h-2.66c-.18,0-.33,0-.33.18,0,.17.19.17.26.17.56,0,.6.08.6.56v4.89c0,.46-.03.56-.55.56-.15,0-.31,0-.31.17s.16.17.33.17h2.66c.17,0,.32,0,.32-.17s-.17-.17-.27-.17c-.56,0-.59-.09-.59-.56v-1.88l.27-.25,1.73,2.06.25.3c.11.14.11.16.16.28-.06,0-.08.03-.12.04-.23.04-.29.05-.29.18,0,.17.15.17.32.17h2.18c.18,0,.32,0,.32-.17,0-.13-.12-.16-.19-.17-.12,0-.18-.02-.46-.34l-2.83-3.38Z"/>
    <path d="M674.64,171c.37.09.68.09.76.09.48,0,.82-.14,1-.24.17-.08.64-.38.64-.54,0-.1-.08-.12-.1-.12-.01,0-.03,0-.1.03-.26.09-.7.19-1.16.19-.4,0-.78-.07-1.15-.2-.08-.03-.09-.03-.1-.03-.1,0-.1.08-.1.19v2.09c0,.12,0,.21.13.21.08,0,.08-.01.15-.09.27-.31.63-.46,1.11-.46.4,0,.63.24.73.38.16.24.2.55.2.89,0,.29-.03.68-.3.96-.31.32-.71.34-.87.34-.45,0-.96-.2-1.18-.61.29-.02.39-.23.39-.39,0-.22-.17-.39-.39-.39-.15,0-.39.09-.39.41,0,.68.67,1.26,1.58,1.26,1.04,0,1.89-.7,1.89-1.56,0-.79-.68-1.52-1.65-1.52-.44,0-.8.11-1.1.34v-1.25"/>
    <path d="M683.29,160.09s0-.07-.24-.31c-1.74-1.76-2.19-4.39-2.19-6.53,0-2.43.53-4.85,2.25-6.6.18-.17.18-.2.18-.24,0-.1-.06-.14-.14-.14-.14,0-1.39.95-2.22,2.72-.71,1.53-.88,3.08-.88,4.25,0,1.09.15,2.78.92,4.35.84,1.72,2.04,2.62,2.17,2.62.08,0,.14-.04.14-.14"/>
    <path d="M688.83,152.53c.08-.36.4-1.65,1.38-1.65.07,0,.4,0,.7.18-.39.07-.67.42-.67.75,0,.22.15.49.53.49.31,0,.75-.25.75-.81,0-.73-.82-.92-1.3-.92-.81,0-1.3.74-1.46,1.06-.35-.92-1.1-1.06-1.51-1.06-1.45,0-2.25,1.8-2.25,2.15,0,.14.14.14.17.14.11,0,.15-.03.18-.15.47-1.48,1.39-1.83,1.87-1.83.26,0,.75.12.75.93,0,.43-.24,1.37-.75,3.32-.22.87-.71,1.45-1.32,1.45-.08,0-.4,0-.7-.18.35-.07.65-.36.65-.75s-.31-.49-.52-.49c-.42,0-.77.36-.77.81,0,.64.7.92,1.31.92.92,0,1.42-.98,1.46-1.06.17.52.67,1.06,1.51,1.06,1.44,0,2.23-1.8,2.23-2.15,0-.14-.12-.14-.17-.14-.12,0-.15.06-.18.15-.46,1.49-1.41,1.83-1.85,1.83-.54,0-.77-.45-.77-.92,0-.31.08-.61.24-1.23l.47-1.91"/>
    <path d="M695.71,146.79h1.31c.14,0,.6,0,.6-.48s-.48-.48-.6-.48h-3.57c-.14,0-.61,0-.61.48s.48.48.61.48h1.31v4.73c0,.14,0,.6.48.6s.48-.48.48-.6v-4.73"/>
    <path d="M695.13,154.46s.04-.15.04-.16c0-.05-.04-.14-.16-.14-.2,0-1.01.08-1.25.1-.08,0-.21.02-.21.22,0,.14.14.14.25.14.47,0,.47.07.47.15,0,.07-.02.13-.04.21l-1.38,5.53c-.05.18-.05.2-.05.22,0,.15.12.31.33.31.26,0,.39-.19.45-.41.02-.04.44-1.76.48-1.89.69.07,1.25.29,1.25.8,0,.05,0,.1-.02.2-.04.15-.04.2-.04.3,0,.69.57,1,1.03,1,.95,0,1.24-1.48,1.24-1.49,0-.13-.13-.13-.16-.13-.14,0-.15.05-.2.23-.12.42-.38,1.11-.86,1.11-.26,0-.34-.25-.34-.51,0-.17,0-.19.06-.44,0-.03.05-.2.05-.3,0-.87-1.17-1.01-1.58-1.04.28-.17.64-.5.81-.64.5-.47.99-.93,1.53-.93.12,0,.24.03.32.13-.42.07-.51.4-.51.55,0,.21.17.36.39.36.26,0,.56-.22.56-.62,0-.32-.23-.68-.75-.68-.56,0-1.06.4-1.56.86-.41.39-.73.69-1.13.86l.97-3.9"/>
    <path d="M703.41,156.7c-.2,0-.64,0-.64-.6,0-.56.53-1.12,1.12-1.12s.85.34.85,1.19c0,.21-.01.22-.15.28-.36.15-.78.25-1.17.25M702.55,156.55c-1.09-.43-1.56-1.52-1.56-2.77,0-.96.36-2.94,1.42-4.45,1.02-1.42,2.33-2.06,3.35-2.06,1.39,0,2.41,1.09,2.41,2.96,0,1.4-.71,4.66-3.05,5.97-.07-.49-.21-1.51-1.23-1.51-.74,0-1.42.7-1.42,1.42,0,.28.08.43.08.45ZM705.18,156.66c2.16-.82,4.21-3.3,4.21-6,0-2.25-1.48-3.75-3.56-3.75-3.01,0-6.08,3.17-6.08,6.42,0,2.32,1.56,3.72,3.57,3.72.35,0,.82-.05,1.37-.21-.05.87-.05.89-.05,1.08,0,.45,0,1.53,1.16,1.53,1.66,0,2.33-2.55,2.33-2.71,0-.1-.1-.14-.15-.14-.11,0-.14.07-.17.15-.33.99-1.14,1.34-1.63,1.34-.64,0-.85-.38-.99-1.44Z"/>
    <path d="M711.69,153.29c.5.13.79.13.95.13,1.29,0,2.05-.88,2.05-1.03,0-.11-.07-.14-.12-.14-.02,0-.04,0-.08.03-.23.09-.75.28-1.48.28-.27,0-.79-.02-1.42-.26-.1-.05-.12-.05-.13-.05-.13,0-.13.11-.13.26v2.88c0,.17,0,.28.16.28.09,0,.1-.02.2-.14.42-.54,1.01-.62,1.36-.62.59,0,.85.47.9.55.18.32.23.69.23,1.26,0,.29,0,.87-.29,1.3-.24.35-.66.59-1.14.59-.63,0-1.29-.35-1.53-1,.37.03.56-.22.56-.48,0-.42-.36-.5-.49-.5-.02,0-.49,0-.49.53,0,.88.8,1.76,1.97,1.76,1.25,0,2.34-.93,2.34-2.16,0-1.1-.84-2.12-2.05-2.12-.43,0-.94.11-1.37.48v-1.85"/>
    <path d="M721.03,152.53c.08-.36.4-1.65,1.38-1.65.07,0,.4,0,.7.18-.39.07-.67.42-.67.75,0,.22.15.49.53.49.31,0,.75-.25.75-.81,0-.73-.82-.92-1.3-.92-.81,0-1.3.74-1.46,1.06-.35-.92-1.1-1.06-1.51-1.06-1.45,0-2.25,1.8-2.25,2.15,0,.14.14.14.17.14.11,0,.15-.03.18-.15.47-1.48,1.39-1.83,1.87-1.83.26,0,.75.12.75.93,0,.43-.24,1.37-.75,3.32-.22.87-.71,1.45-1.33,1.45-.08,0-.4,0-.7-.18.35-.07.65-.36.65-.75s-.31-.49-.52-.49c-.42,0-.77.36-.77.81,0,.64.7.92,1.31.92.92,0,1.42-.98,1.46-1.06.17.52.67,1.06,1.51,1.06,1.44,0,2.23-1.8,2.23-2.15,0-.14-.12-.14-.17-.14-.12,0-.15.06-.18.15-.46,1.49-1.41,1.83-1.85,1.83-.54,0-.77-.45-.77-.92,0-.31.08-.61.24-1.23l.47-1.91"/>
    <path d="M727.43,152.26s.04-.15.04-.16c0-.05-.04-.14-.16-.14-.2,0-1.01.08-1.25.1-.08,0-.21.02-.21.23,0,.14.14.14.25.14.47,0,.47.07.47.15,0,.07-.02.13-.04.21l-1.38,5.53c-.05.18-.05.2-.05.22,0,.15.12.31.33.31.26,0,.39-.19.45-.41.02-.04.44-1.76.48-1.89.69.07,1.25.29,1.25.8,0,.05,0,.1-.02.2-.04.15-.04.2-.04.3,0,.69.57,1,1.03,1,.95,0,1.24-1.48,1.24-1.49,0-.13-.13-.13-.16-.13-.14,0-.15.05-.2.23-.12.42-.38,1.11-.86,1.11-.26,0-.34-.25-.34-.51,0-.17,0-.19.06-.44,0-.03.05-.2.05-.3,0-.87-1.17-1.01-1.58-1.04.28-.17.64-.5.81-.64.5-.47.99-.93,1.53-.93.12,0,.24.03.32.13-.42.07-.51.4-.51.55,0,.21.17.36.39.36.26,0,.56-.22.56-.63,0-.32-.23-.68-.75-.68-.56,0-1.06.4-1.56.86-.41.39-.73.69-1.13.86l.97-3.9"/>
    <path d="M740.08,153.53h3.89c.2,0,.46,0,.46-.28s-.27-.28-.46-.28h-3.89v-3.91c0-.19,0-.46-.28-.46s-.28.27-.28.46v3.91h-3.91c-.2,0-.46,0-.46.28s.26.28.46.28h3.91v3.9c0,.2,0,.46.28.46s.28-.27.28-.46v-3.9"/>
    <path d="M753.16,155.96c.15.57.64.93,1.24.93.49,0,.81-.32,1.03-.77.24-.5.42-1.35.42-1.38,0-.14-.12-.14-.17-.14-.14,0-.15.06-.19.25-.19.78-.46,1.73-1.05,1.73-.29,0-.43-.18-.43-.64,0-.31.17-.96.28-1.45l.39-1.51c.04-.21.18-.74.24-.95.07-.32.21-.85.21-.93,0-.25-.19-.38-.4-.38-.07,0-.43.01-.54.49-.27,1.02-.88,3.46-1.05,4.2-.01.06-.57,1.17-1.59,1.17-.72,0-.87-.63-.87-1.14,0-.78.39-1.88.75-2.85.17-.42.24-.61.24-.88,0-.63-.45-1.14-1.14-1.14-1.33,0-1.84,2.02-1.84,2.15,0,.14.14.14.17.14.14,0,.15-.03.22-.25.35-1.21.88-1.73,1.41-1.73.13,0,.35.01.35.46,0,.34-.15.74-.24.95-.52,1.38-.81,2.25-.81,2.93,0,1.32.96,1.67,1.72,1.67.92,0,1.42-.63,1.66-.93"/>
    <path d="M759.91,146.79h1.31c.14,0,.6,0,.6-.48s-.48-.48-.6-.48h-3.57c-.14,0-.61,0-.61.48s.48.48.61.48h1.31v4.73c0,.14,0,.6.48.6s.48-.48.48-.6v-4.73"/>
    <path d="M759.33,154.46s.04-.15.04-.16c0-.05-.04-.14-.16-.14-.19,0-1.01.08-1.25.1-.08,0-.21.02-.21.22,0,.14.14.14.25.14.47,0,.47.07.47.15,0,.07-.02.13-.04.21l-1.38,5.53c-.05.18-.05.2-.05.22,0,.15.12.31.33.31.26,0,.39-.19.45-.41.02-.04.44-1.76.48-1.89.69.07,1.25.29,1.25.8,0,.05,0,.1-.02.2-.04.15-.04.2-.04.3,0,.69.57,1,1.03,1,.95,0,1.24-1.48,1.24-1.49,0-.13-.13-.13-.16-.13-.14,0-.15.05-.2.23-.12.42-.38,1.11-.86,1.11-.26,0-.34-.25-.34-.51,0-.17,0-.19.06-.44,0-.03.05-.2.05-.3,0-.87-1.17-1.01-1.58-1.04.28-.17.64-.5.81-.64.5-.47.99-.93,1.53-.93.12,0,.24.03.32.13-.42.07-.51.4-.51.55,0,.21.17.36.39.36.26,0,.56-.22.56-.62,0-.32-.23-.68-.75-.68-.56,0-1.06.4-1.56.86-.41.39-.73.69-1.13.86l.97-3.9"/>
    <path d="M770.51,152c1.41-.31,3.07-1.28,3.07-2.69,0-1.2-1.26-2.09-3.08-2.09h-3.97c-.28,0-.4,0-.4.28,0,.15.12.15.39.15.03,0,.29,0,.53.03.25.03.38.04.38.22,0,.05-.01.1-.06.26l-1.87,7.49c-.14.54-.17.65-1.27.65-.25,0-.38,0-.38.28,0,.15.17.15.19.15.39,0,1.37-.04,1.76-.04s1.38.04,1.77.04c.11,0,.28,0,.28-.28,0-.15-.12-.15-.39-.15-.51,0-.91,0-.91-.25,0-.08.03-.15.04-.24l.92-3.7h1.66c1.27,0,1.52.78,1.52,1.27,0,.21-.11.64-.19.96-.1.39-.22.91-.22,1.18,0,1.51,1.67,1.51,1.85,1.51,1.19,0,1.67-1.41,1.67-1.6,0-.17-.15-.17-.17-.17-.12,0-.15.1-.18.2-.35,1.03-.95,1.27-1.27,1.27-.46,0-.56-.31-.56-.85,0-.43.08-1.14.14-1.59.03-.2.06-.46.06-.66,0-1.07-.93-1.51-1.31-1.65M768.51,148.18c.08-.33.13-.47.39-.52.13-.01.57-.01.85-.01.99,0,2.54,0,2.54,1.38,0,.47-.22,1.44-.77,1.98-.36.36-1.1.81-2.36.81h-1.56l.91-3.64Z"/>
    <path d="M775.39,153.29c.5.13.79.13.95.13,1.29,0,2.05-.88,2.05-1.03,0-.11-.07-.14-.12-.14-.02,0-.04,0-.08.03-.24.09-.75.28-1.47.28-.27,0-.79-.02-1.43-.26-.1-.05-.12-.05-.13-.05-.13,0-.13.11-.13.26v2.88c0,.17,0,.28.16.28.09,0,.1-.02.19-.14.42-.54,1.01-.62,1.36-.62.59,0,.85.47.9.55.18.32.23.69.23,1.26,0,.29,0,.87-.29,1.3-.24.35-.66.59-1.14.59-.63,0-1.29-.35-1.53-1,.37.03.56-.22.56-.48,0-.42-.36-.5-.49-.5-.02,0-.49,0-.49.53,0,.88.8,1.76,1.97,1.76,1.25,0,2.34-.93,2.34-2.16,0-1.1-.84-2.12-2.05-2.12-.43,0-.94.11-1.37.48v-1.85"/>
    <path d="M785.06,155.96c.15.57.64.93,1.24.93.49,0,.81-.32,1.03-.77.24-.5.42-1.35.42-1.38,0-.14-.12-.14-.17-.14-.14,0-.15.06-.19.25-.2.78-.46,1.73-1.05,1.73-.29,0-.43-.18-.43-.64,0-.31.17-.96.28-1.45l.39-1.51c.04-.21.18-.74.24-.95.07-.32.21-.85.21-.93,0-.25-.19-.38-.4-.38-.07,0-.43.01-.54.49-.27,1.02-.88,3.46-1.05,4.2-.01.06-.57,1.17-1.59,1.17-.72,0-.87-.63-.87-1.14,0-.78.39-1.88.75-2.85.17-.42.24-.61.24-.88,0-.63-.45-1.14-1.14-1.14-1.32,0-1.84,2.02-1.84,2.15,0,.14.14.14.17.14.14,0,.15-.03.22-.25.35-1.21.88-1.73,1.41-1.73.13,0,.35.01.35.46,0,.34-.15.74-.24.95-.52,1.38-.81,2.25-.81,2.93,0,1.32.96,1.67,1.72,1.67.92,0,1.42-.63,1.66-.93"/>
    <path d="M791.13,152.26s.04-.15.04-.16c0-.05-.04-.14-.16-.14-.19,0-1.01.08-1.25.1-.08,0-.21.02-.21.23,0,.14.14.14.25.14.47,0,.47.07.47.15,0,.07-.02.13-.04.21l-1.38,5.53c-.05.18-.05.2-.05.22,0,.15.12.31.33.31.26,0,.39-.19.45-.41.02-.04.44-1.76.48-1.89.69.07,1.25.29,1.25.8,0,.05,0,.1-.02.2-.04.15-.04.2-.04.3,0,.69.57,1,1.03,1,.95,0,1.24-1.48,1.24-1.49,0-.13-.13-.13-.16-.13-.14,0-.15.05-.2.23-.12.42-.38,1.11-.86,1.11-.26,0-.34-.25-.34-.51,0-.17,0-.19.06-.44,0-.03.05-.2.05-.3,0-.87-1.17-1.01-1.58-1.04.28-.17.64-.5.81-.64.5-.47.99-.93,1.53-.93.12,0,.24.03.32.13-.42.07-.51.4-.51.55,0,.21.17.36.39.36.26,0,.56-.22.56-.63,0-.32-.23-.68-.75-.68-.56,0-1.06.4-1.56.86-.41.39-.73.69-1.13.86l.97-3.9"/>
    <path d="M799.01,153.25c0-1.09-.15-2.77-.92-4.35-.84-1.72-2.04-2.62-2.18-2.62-.08,0-.14.06-.14.14,0,.04,0,.07.26.32,1.37,1.38,2.16,3.6,2.16,6.51,0,2.39-.52,4.84-2.25,6.6-.18.17-.18.2-.18.24,0,.08.06.14.14.14.14,0,1.4-.95,2.22-2.72.71-1.53.88-3.08.88-4.25"/>
  </g>
  <polygon class="cls-9" points="101.9 240.56 101.9 240.55 101.9 240.55 101.9 240.55 101.9 240.55 101.9 240.55 101.9 240.56 101.9 240.55 101.9 240.56 101.9 240.56 101.9 240.55 101.9 240.55 101.9 240.55 101.9 240.55 101.9 240.55 101.9 240.56 101.9 240.55 101.9 240.55 101.9 240.55 101.9 240.55 101.9 240.56 101.9 240.56 101.9 240.55 101.9 240.55 101.9 240.56 101.9 240.56 101.9 240.56 101.9 240.55 101.9 240.55 101.9 240.56 101.9 240.55 101.9 240.56 101.9 240.56 101.9 240.56 101.9 240.55 101.9 240.55 101.9 240.56 101.9 240.55 101.9 240.55 101.9 240.55 101.9 240.55 101.9 240.56 101.9 240.55 101.9 240.56 101.9 240.55 101.9 240.56 101.9 240.56 101.9 240.55 101.9 240.56 101.9 240.55 101.9 240.55 101.9 240.55 101.9 240.55 101.9 240.55 101.9 240.55 101.9 240.56 101.9 240.56 101.9 240.55 101.9 240.55 101.9 240.55 101.9 240.55 101.9 240.56 101.9 240.55 101.9 240.55 101.9 240.55 101.9 240.55 101.9 240.55 101.9 240.55 101.9 240.55 101.9 240.55 101.9 240.55 101.9 240.56 101.9 240.55 101.9 240.56 101.9 240.55 101.9 240.55 101.9 240.56 101.9 240.56 101.9 240.55 101.9 240.56 101.9 240.56 101.9 240.55 101.9 240.56 101.9 240.55 101.9 240.55 101.9 240.56 101.9 240.55 101.9 240.56"/>
  <g class="cls-30">
    <path d="M87.38,192.28c.24-.1.94-.54.94-.82,0-.14-.12-.14-.24-.14-.68,0-2.63.86-2.63,2.85,0,1.43,1.61,2.91,4.04,2.91,3.25,0,7.01-2.25,7.01-4.96,0-1.89-1.99-2.81-3.6-3.52-1.39-.64-2.31-1.45-2.31-2.59,0-.42.18-1.19.8-1.73.6-.52,1.71-.58,1.99-.58.22,0,1.05.02,1.91.4.38.18.9.42.9,1.27,0,.28-.02.38-.08.6-.02.06-.04.14-.04.2,0,.14.12.14.2.14.26,0,.74-.2,1.13-.54.26-.2.48-.46.48-1.23,0-.97-.52-1.25-1.05-1.49-.94-.44-1.85-.44-2.13-.44-2.61,0-5.8,1.99-5.8,4.26,0,1.67,1.73,2.47,2.69,2.89,1.41.64,3.23,1.55,3.23,3.23,0,1.33-.98,3.01-4,3.01-2.03,0-3.66-1.31-3.66-2.67,0-.36.1-.72.24-1.04"/>
    <path d="M107.37,193.47c-.54,1.81-1.06,2.73-1.25,3.05-.78,1.35-1.2,1.39-1.87,1.39-.34,0-1.75-.06-2.93-.86-.9.04-1.59.74-1.59.95,0,.18,1.35,1,3.21,1,1.43,0,3.78-.76,5.28-4,.52-1.12.86-2.25.92-2.49.4-1.38.82-2.97.82-3.05,0-.12-.04-.18-.22-.18s-.52.1-.94.38c-.46.3-.48.4-.62.9-.2.68-1.38,3.62-3.84,3.62-1.93,0-3.07-1.57-3.07-3.82,0-1.53.62-3.58,1.77-4.98.54-.64,1.51-1.69,3.76-1.69.38,0,.96.06,1.45.22.22.06.72.22.72.86,0,.68-1.03,1.95-1.11,2.07-.08.08-.14.16-.14.24,0,.14.1.14.22.14.58,0,1.23-.54,1.77-1.28.16-.22.96-1.33.96-2.01,0-.82-.62-1.02-.86-1.1-.74-.24-1.41-.24-1.69-.24-4.5,0-8.54,3.94-8.54,8.62,0,2.01.9,4.06,3.46,4.06,1.49,0,3.03-.76,4.34-1.81"/>
    <path d="M116.36,190.67c0-.38-.03-.39-.42-.39-.89.88-2.16.89-2.73.89v.5c.33,0,1.25,0,2.02-.39v7.11c0,.46,0,.64-1.39.64h-.53v.5c.25-.01,1.97-.06,2.48-.06.43,0,2.19.04,2.5.06v-.5h-.53c-1.4,0-1.4-.18-1.4-.64v-7.73"/>
  </g>
  <polygon class="cls-9" points="301.9 241.56 301.9 241.55 301.9 241.55 301.9 241.55 301.9 241.56 301.9 241.56 301.9 241.56 301.9 241.55 301.9 241.55 301.9 241.56 301.9 241.55 301.9 241.55 301.9 241.55 301.9 241.55 301.9 241.55 301.9 241.56 301.9 241.55 301.9 241.55 301.9 241.55 301.9 241.55 301.9 241.55 301.9 241.55 301.9 241.55 301.9 241.55 301.9 241.55 301.9 241.56 301.9 241.55 301.9 241.55 301.9 241.56 301.9 241.56 301.9 241.55 301.9 241.55 301.9 241.56 301.9 241.55 301.9 241.55 301.9 241.55 301.9 241.56 301.9 241.56 301.9 241.56 301.9 241.55 301.9 241.56 301.9 241.55 301.9 241.55 301.9 241.56 301.9 241.55 301.9 241.56 301.9 241.56 301.9 241.55 301.9 241.55 301.9 241.56 301.9 241.55 301.9 241.55 301.9 241.56 301.9 241.55 301.9 241.56 301.9 241.55 301.9 241.56 301.9 241.55 301.9 241.56 301.9 241.56 301.9 241.56 301.9 241.55 301.9 241.55 301.9 241.55 301.9 241.56 301.9 241.56 301.9 241.55 301.9 241.56 301.9 241.56 301.9 241.55 301.9 241.55 301.9 241.56 301.9 241.56 301.9 241.55 301.9 241.55 301.9 241.56 301.9 241.56 301.9 241.55 301.9 241.55 301.9 241.55 301.9 241.55 301.9 241.55 301.9 241.55 301.9 241.56 301.9 241.55 301.9 241.56 301.9 241.55 301.9 241.56"/>
  <g class="cls-28">
    <path d="M296.88,192.28c.24-.1.94-.54.94-.82,0-.14-.12-.14-.24-.14-.68,0-2.63.86-2.63,2.85,0,1.43,1.61,2.91,4.04,2.91,3.25,0,7.01-2.25,7.01-4.96,0-1.89-1.99-2.81-3.6-3.52-1.39-.64-2.31-1.45-2.31-2.59,0-.42.18-1.19.8-1.73.6-.52,1.71-.58,1.99-.58.22,0,1.05.02,1.91.4.38.18.9.42.9,1.27,0,.28-.02.38-.08.6-.02.06-.04.14-.04.2,0,.14.12.14.2.14.26,0,.74-.2,1.13-.54.26-.2.48-.46.48-1.23,0-.97-.52-1.25-1.05-1.49-.94-.44-1.85-.44-2.13-.44-2.61,0-5.8,1.99-5.8,4.26,0,1.67,1.73,2.47,2.69,2.89,1.41.64,3.23,1.55,3.23,3.23,0,1.33-.98,3.01-4,3.01-2.03,0-3.66-1.31-3.66-2.67,0-.36.1-.72.24-1.04"/>
    <path d="M316.87,193.47c-.54,1.81-1.06,2.73-1.25,3.05-.78,1.35-1.2,1.39-1.87,1.39-.34,0-1.75-.06-2.93-.86-.9.04-1.59.74-1.59.95,0,.18,1.35,1,3.21,1,1.43,0,3.78-.76,5.28-4,.52-1.12.86-2.25.92-2.49.4-1.38.82-2.97.82-3.05,0-.12-.04-.18-.22-.18s-.52.1-.94.38c-.46.3-.48.4-.62.9-.2.68-1.38,3.62-3.84,3.62-1.93,0-3.07-1.57-3.07-3.82,0-1.53.62-3.58,1.77-4.98.54-.64,1.51-1.69,3.76-1.69.38,0,.96.06,1.45.22.22.06.72.22.72.86,0,.68-1.03,1.95-1.11,2.07-.08.08-.14.16-.14.24,0,.14.1.14.22.14.58,0,1.23-.54,1.77-1.28.16-.22.96-1.33.96-2.01,0-.82-.62-1.02-.86-1.1-.74-.24-1.41-.24-1.69-.24-4.5,0-8.54,3.94-8.54,8.62,0,2.01.9,4.06,3.46,4.06,1.49,0,3.03-.76,4.34-1.81"/>
    <path d="M328.23,197h-.47c-.04.31-.18,1.13-.36,1.27-.11.08-1.18.08-1.38.08h-2.57c1.46-1.3,1.95-1.69,2.79-2.34,1.03-.82,2-1.69,2-3.01,0-1.69-1.48-2.72-3.26-2.72s-2.9,1.21-2.9,2.5c0,.71.6.78.74.78.34,0,.74-.24.74-.74,0-.25-.1-.74-.82-.74.43-.99,1.38-1.3,2.04-1.3,1.4,0,2.12,1.09,2.12,2.22,0,1.21-.86,2.17-1.31,2.68l-3.36,3.32c-.14.12-.14.15-.14.54h5.75l.42-2.54"/>
  </g>
  <polygon class="cls-9" points="794.92 242.27 794.92 242.27 794.92 242.27 794.92 242.27 794.92 242.27 794.92 242.27 794.92 242.27 794.92 242.27 794.92 242.27 794.92 242.27 794.92 242.27 794.92 242.27 794.92 242.27 794.92 242.27 794.92 242.27 794.92 242.27 794.92 242.27 794.92 242.27 794.92 242.27 794.92 242.27 794.92 242.27 794.92 242.27 794.92 242.27 794.92 242.27 794.92 242.27 794.92 242.27 794.92 242.27 794.92 242.27 794.92 242.27 794.92 242.27 794.92 242.27 794.92 242.27 794.92 242.27 794.92 242.27 794.92 242.27 794.92 242.27 794.92 242.27 794.92 242.27 794.92 242.27 794.92 242.27 794.92 242.27 794.92 242.27 794.92 242.27 794.92 242.27 794.92 242.27 794.92 242.27 794.92 242.27 794.92 242.27 794.92 242.27 794.92 242.27 794.92 242.27 794.92 242.27 794.92 242.27 794.92 242.27 794.92 242.27 794.92 242.27 794.92 242.27 794.92 242.27 794.92 242.27 794.92 242.27 794.92 242.27 794.92 242.27 794.92 242.27 794.92 242.27 794.92 242.27 794.92 242.27 794.92 242.27 794.92 242.27 794.92 242.27 794.92 242.27 794.92 242.27 794.92 242.27 794.92 242.27 794.92 242.27 794.92 242.27 794.92 242.27 794.92 242.27 794.92 242.27 794.92 242.27 794.92 242.27 794.92 242.27 794.92 242.27 794.92 242.27 794.92 242.27 794.92 242.27 794.92 242.27 794.92 242.27 794.92 242.27"/>
  <g class="cls-27">
    <path d="M711.9,190.28c.24-.1.94-.54.94-.82,0-.14-.12-.14-.24-.14-.68,0-2.63.86-2.63,2.85,0,1.43,1.61,2.91,4.04,2.91,3.25,0,7.01-2.25,7.01-4.96,0-1.89-1.99-2.81-3.6-3.52-1.39-.64-2.31-1.45-2.31-2.59,0-.42.18-1.19.8-1.73.6-.52,1.71-.58,1.99-.58.22,0,1.05.02,1.91.4.38.18.9.42.9,1.27,0,.28-.02.38-.08.6-.02.06-.04.14-.04.2,0,.14.12.14.2.14.26,0,.74-.2,1.13-.54.26-.2.48-.46.48-1.23,0-.98-.52-1.25-1.05-1.49-.94-.44-1.85-.44-2.13-.44-2.61,0-5.8,1.99-5.8,4.26,0,1.67,1.73,2.47,2.69,2.89,1.41.64,3.23,1.55,3.23,3.23,0,1.33-.98,3.01-4,3.01-2.03,0-3.66-1.31-3.66-2.67,0-.36.1-.72.24-1.04"/>
    <path d="M731.89,191.47c-.54,1.81-1.06,2.73-1.25,3.05-.78,1.35-1.2,1.39-1.87,1.39-.34,0-1.75-.06-2.93-.86-.9.04-1.59.74-1.59.95,0,.18,1.35,1,3.21,1,1.43,0,3.78-.76,5.28-4,.52-1.12.86-2.25.92-2.49.4-1.38.82-2.97.82-3.05,0-.12-.04-.18-.22-.18s-.52.1-.94.38c-.46.3-.48.4-.62.9-.2.68-1.38,3.62-3.84,3.62-1.93,0-3.07-1.57-3.07-3.82,0-1.53.62-3.58,1.77-4.98.54-.64,1.51-1.69,3.76-1.69.38,0,.96.06,1.45.22.22.06.72.22.72.86,0,.68-1.03,1.95-1.11,2.07-.08.08-.14.16-.14.24,0,.14.1.14.22.14.58,0,1.23-.54,1.77-1.27.16-.22.96-1.33.96-2.01,0-.82-.62-1.02-.86-1.1-.74-.24-1.41-.24-1.69-.24-4.5,0-8.54,3.94-8.54,8.62,0,2.01.9,4.06,3.46,4.06,1.49,0,3.03-.76,4.34-1.81"/>
    <path d="M738.37,189.76c.71.18,1.13.18,1.35.18,1.84,0,2.93-1.25,2.93-1.46,0-.15-.1-.2-.17-.2-.03,0-.06,0-.11.04-.33.12-1.07.4-2.1.4-.39,0-1.13-.03-2.04-.38-.14-.07-.17-.07-.18-.07-.18,0-.18.15-.18.38v4.11c0,.24,0,.4.22.4.12,0,.14-.03.28-.2.6-.77,1.45-.88,1.94-.88.84,0,1.21.67,1.28.78.25.46.33.99.33,1.8,0,.42,0,1.24-.42,1.85-.35.5-.95.84-1.63.84-.91,0-1.84-.5-2.19-1.42.53.04.8-.31.8-.68,0-.6-.52-.71-.7-.71-.03,0-.7,0-.7.75,0,1.25,1.14,2.51,2.82,2.51,1.79,0,3.35-1.32,3.35-3.08,0-1.58-1.2-3.03-2.93-3.03-.61,0-1.34.15-1.95.68v-2.64"/>
  </g>
  <line class="cls-17" x1="26.5" y1="89" x2="26.5" y2="109"/>
  <text class="cls-37" transform="translate(7.8 108.83)"><tspan x="0" y="0">0</tspan></text>
  <text class="cls-37" transform="translate(57.68 59.87)"><tspan x="0" y="0">t</tspan></text>
  <text class="cls-37" transform="translate(64.53 66.87) scale(.58)"><tspan x="0" y="0">1</tspan></text>
  <g>
    <line class="cls-6" x1="202.93" y1="71.5" x2="241.07" y2="71.5"/>
    <path class="cls-35" d="M198,71.5c2.32.86,5.19,2.33,6.98,3.88l-1.4-3.88,1.4-3.88c-1.78,1.55-4.66,3.02-6.98,3.88Z"/>
    <path class="cls-35" d="M246,71.5c-2.32.86-5.19,2.33-6.98,3.88l1.4-3.88-1.4-3.88c1.78,1.55,4.66,3.02,6.98,3.88Z"/>
  </g>
  <text class="cls-37" transform="translate(218.49 60.77)"><tspan x="0" y="0">t</tspan></text>
  <text class="cls-37" transform="translate(225.34 67.76) scale(.58)"><tspan x="0" y="0">2</tspan></text>
  <text class="cls-37" transform="translate(692.77 64.77)"><tspan x="0" y="0">t</tspan></text>
  <text class="cls-37" transform="translate(699.62 71.76) scale(.58)"><tspan x="0" y="0">5</tspan></text>
  <g>
    <line class="cls-6" x1="622.93" y1="75.5" x2="793.07" y2="75.5"/>
    <path class="cls-35" d="M618,75.5c2.32.86,5.19,2.33,6.98,3.88l-1.4-3.88,1.4-3.88c-1.78,1.55-4.66,3.02-6.98,3.88Z"/>
    <path class="cls-35" d="M798,75.5c-2.32.86-5.19,2.33-6.98,3.88l1.4-3.88-1.4-3.88c1.78,1.55,4.66,3.02,6.98,3.88Z"/>
  </g>
  <g class="cls-29">
    <g class="cls-34">
      <rect class="cls-20" x="436.5" y="28.5" width="105" height="150"/>
      <g>
        <polyline class="cls-13" points="541.5 174.34 541.5 178.5 537.34 178.5"/>
        <line class="cls-3" x1="528.55" y1="178.5" x2="445.05" y2="178.5"/>
        <polyline class="cls-13" points="440.66 178.5 436.5 178.5 436.5 174.34"/>
        <line class="cls-2" x1="436.5" y1="166.01" x2="436.5" y2="36.83"/>
        <polyline class="cls-13" points="436.5 32.66 436.5 28.5 440.66 28.5"/>
        <line class="cls-3" x1="449.45" y1="28.5" x2="532.95" y2="28.5"/>
        <polyline class="cls-13" points="537.34 28.5 541.5 28.5 541.5 32.66"/>
        <line class="cls-2" x1="541.5" y1="40.99" x2="541.5" y2="170.17"/>
      </g>
    </g>
  </g>
  <text class="cls-38" transform="translate(476.62 191.19) scale(.58)"><tspan x="0" y="0">...</tspan></text>
  <text class="cls-38" transform="translate(476.62 153.55) scale(.58)"><tspan x="0" y="0">...</tspan></text>
  <polygon class="cls-9" points="41.41 120.79 41.41 120.79 41.41 120.79 41.41 120.79 41.41 120.79 41.41 120.79 41.41 120.79 41.41 120.79 41.41 120.79 41.41 120.79 41.41 120.79 41.41 120.79 41.41 120.79 41.41 120.79 41.41 120.79 41.41 120.79 41.41 120.79 41.41 120.79 41.41 120.79 41.41 120.79 41.41 120.79 41.41 120.79 41.41 120.79 41.41 120.79 41.41 120.79 41.41 120.79 41.41 120.79 41.41 120.79 41.41 120.79 41.41 120.79 41.41 120.79 41.41 120.79 41.41 120.79 41.41 120.79 41.41 120.79 41.41 120.79 41.41 120.79 41.41 120.79 41.41 120.79 41.41 120.79 41.41 120.79 41.41 120.79 41.41 120.79 41.41 120.79 41.41 120.79 41.41 120.79 41.41 120.79 41.41 120.79 41.41 120.79 41.41 120.79 41.41 120.79 41.41 120.79 41.41 120.79 41.41 120.79 41.41 120.79 41.41 120.79 41.41 120.79 41.41 120.79 41.41 120.79 41.41 120.79 41.41 120.79 41.41 120.79 41.41 120.79 41.41 120.79 41.41 120.79 41.41 120.79 41.41 120.79 41.41 120.79 41.41 120.79 41.41 120.79 41.41 120.79 41.41 120.79 41.41 120.79 41.41 120.79 41.41 120.79 41.41 120.79 41.41 120.79 41.41 120.79 41.41 120.79 41.41 120.79 41.41 120.79 41.41 120.79 41.41 120.79 41.41 120.79 41.41 120.79 41.41 120.79 41.41 120.79 41.41 120.79"/>
  <g class="cls-21">
    <path d="M38.85,116.48c.27.78.6,1.9,1.27,3.73.94,2.54,1.36,3.47,2.27,4.89.21.31.22.33.36.33.21,0,.52-.18.69-.3.21-.19.22-.21.39-.94.9-3.93,2.03-8.02,2.33-8.71.02-.03.31-.6,2.15-.63.3-.02.58-.81.58-1.14,0-.24-.09-.24-.3-.24-1.5,0-2.17.63-2.35.82-.42.54-.78,1.63-1.46,4.12-.52,1.91-1,3.85-1.46,5.78-.82-1.24-1.29-2.42-2-4.35-.79-2.12-1.27-3.67-1.67-5.02-.09-.3-.1-.31-.24-.31-.03,0-.33,0-.76.36-.15.13-.16.27-.18.43-.42,3.97-1.82,7.9-2.22,8.62-.12.22-.3.49-.6.49-.15,0-.73-.07-1.12-.43-.07-.06-.1-.06-.12-.06-.24,0-.55.75-.55,1.1,0,.46.91.76,1.33.76.96,0,1.72-2.11,1.96-2.79.97-2.7,1.43-4.93,1.72-6.53"/>
    <path d="M50.09,120.7c0-.28-.02-.29-.31-.29-.67.66-1.62.67-2.05.67v.38c.25,0,.94,0,1.52-.29v5.33c0,.35,0,.48-1.05.48h-.4v.38c.19-.01,1.47-.04,1.86-.04.33,0,1.64.03,1.87.04v-.38h-.4c-1.05,0-1.05-.14-1.05-.48v-5.8"/>
  </g>
  <polygon class="cls-9" points="81.41 121.79 81.41 121.79 81.41 121.79 81.41 121.79 81.41 121.79 81.41 121.79 81.41 121.79 81.41 121.79 81.41 121.79 81.41 121.79 81.41 121.79 81.41 121.79 81.41 121.79 81.41 121.79 81.41 121.79 81.41 121.79 81.41 121.79 81.41 121.79 81.41 121.79 81.41 121.79 81.41 121.79 81.41 121.79 81.41 121.79 81.41 121.79 81.41 121.79 81.41 121.79 81.41 121.79 81.41 121.79 81.41 121.79 81.41 121.79 81.41 121.79 81.41 121.79 81.41 121.79 81.41 121.79 81.41 121.79 81.41 121.79 81.41 121.79 81.41 121.79 81.41 121.79 81.41 121.79 81.41 121.79 81.41 121.79 81.41 121.79 81.41 121.79 81.41 121.79 81.41 121.79 81.41 121.79 81.41 121.79 81.41 121.79 81.41 121.79 81.41 121.79 81.41 121.79 81.41 121.79 81.41 121.79 81.41 121.79 81.41 121.79 81.41 121.79 81.41 121.79 81.41 121.79 81.41 121.79 81.41 121.79 81.41 121.79 81.41 121.79 81.41 121.79 81.41 121.79 81.41 121.79 81.41 121.79 81.41 121.79 81.41 121.79 81.41 121.79 81.41 121.79 81.41 121.79 81.41 121.79 81.41 121.79 81.41 121.79 81.41 121.79 81.41 121.79 81.41 121.79 81.41 121.79 81.41 121.79 81.41 121.79 81.41 121.79 81.41 121.79 81.41 121.79 81.41 121.79 81.41 121.79 81.41 121.79 81.41 121.79"/>
  <g class="cls-23">
    <path d="M78.85,116.48c.27.78.6,1.9,1.27,3.73.94,2.54,1.36,3.47,2.27,4.89.21.31.22.33.36.33.21,0,.52-.18.69-.3.21-.19.22-.21.39-.94.9-3.93,2.03-8.02,2.33-8.71.02-.03.31-.6,2.15-.63.3-.02.58-.81.58-1.14,0-.24-.09-.24-.3-.24-1.5,0-2.17.63-2.35.82-.42.54-.78,1.63-1.46,4.12-.52,1.91-1,3.85-1.46,5.78-.82-1.24-1.29-2.42-2-4.35-.79-2.12-1.27-3.67-1.67-5.02-.09-.3-.1-.31-.24-.31-.03,0-.33,0-.76.36-.15.13-.16.27-.18.43-.42,3.97-1.82,7.9-2.22,8.62-.12.22-.3.49-.6.49-.15,0-.73-.07-1.12-.43-.07-.06-.1-.06-.12-.06-.24,0-.55.75-.55,1.1,0,.46.91.76,1.33.76.96,0,1.72-2.11,1.96-2.79.97-2.7,1.43-4.93,1.72-6.53"/>
    <path d="M91.86,125.45h-.36c-.03.23-.14.85-.27.95-.08.06-.89.06-1.04.06h-1.92c1.1-.97,1.46-1.27,2.09-1.76.77-.62,1.5-1.27,1.5-2.26,0-1.27-1.11-2.04-2.45-2.04s-2.17.91-2.17,1.87c0,.53.45.59.55.59.25,0,.55-.18.55-.55,0-.19-.07-.55-.62-.55.32-.74,1.04-.97,1.53-.97,1.05,0,1.59.82,1.59,1.66,0,.91-.65,1.63-.98,2.01l-2.52,2.49c-.1.09-.1.12-.1.41h4.31l.31-1.9"/>
  </g>
  <text class="cls-38" transform="translate(108.26 123.16) scale(.58)"><tspan x="0" y="0">...</tspan></text>
  <rect class="cls-7" x=".5" y=".5" width="895" height="207"/>
  <polygon class="cls-9" points="851.1 223.86 851.1 223.86 851.1 223.86 851.1 223.86 851.1 223.86 851.1 223.86 851.1 223.86 851.1 223.86 851.1 223.86 851.1 223.86 851.1 223.86 851.1 223.86 851.1 223.86 851.1 223.86 851.1 223.86 851.1 223.86 851.1 223.86 851.1 223.86 851.1 223.86 851.1 223.86 851.1 223.86 851.1 223.86 851.1 223.86 851.1 223.86 851.1 223.86 851.1 223.86 851.1 223.86 851.1 223.86 851.1 223.86 851.1 223.86 851.1 223.86 851.1 223.86 851.1 223.86 851.1 223.86 851.1 223.86 851.1 223.86 851.1 223.86 851.1 223.86 851.1 223.86 851.1 223.86 851.1 223.86 851.1 223.86 851.1 223.86 851.1 223.86 851.1 223.86 851.1 223.86 851.1 223.86 851.1 223.86 851.1 223.86 851.1 223.86 851.1 223.86 851.1 223.86 851.1 223.86 851.1 223.86 851.1 223.86 851.1 223.86 851.1 223.86 851.1 223.86 851.1 223.86 851.1 223.86 851.1 223.86 851.1 223.86 851.1 223.86 851.1 223.86 851.1 223.86 851.1 223.86 851.1 223.86 851.1 223.86 851.1 223.86 851.1 223.86 851.1 223.86 851.1 223.86 851.1 223.86 851.1 223.86 851.1 223.86 851.1 223.86 851.1 223.86 851.1 223.86 851.1 223.86 851.1 223.86 851.1 223.86 851.1 223.86 851.1 223.86 851.1 223.86 851.1 223.86 851.1 223.86 851.1 223.86 851.1 223.86 851.1 223.86 851.1 223.86"/>
  <polygon class="cls-9" points="858.23 223.86 858.23 223.86 858.23 223.86 858.23 223.86 858.23 223.86 858.23 223.86 858.23 223.86 858.23 223.86 858.23 223.86 858.23 223.86 858.23 223.86 858.23 223.86 858.23 223.86 858.23 223.86 858.23 223.86 858.23 223.86 858.23 223.86 858.23 223.86 858.23 223.86 858.23 223.86 858.23 223.86 858.23 223.86 858.23 223.86 858.23 223.86 858.23 223.86 858.23 223.86 858.23 223.86 858.23 223.86 858.23 223.86 858.23 223.86 858.23 223.86 858.23 223.86 858.23 223.86 858.23 223.86 858.23 223.86 858.23 223.86 858.23 223.86 858.23 223.86 858.23 223.86 858.23 223.86 858.23 223.86 858.23 223.86 858.23 223.86 858.23 223.86 858.23 223.86 858.23 223.86 858.23 223.86 858.23 223.86 858.23 223.86 858.23 223.86 858.23 223.86 858.23 223.86 858.23 223.86 858.23 223.86 858.23 223.86 858.23 223.86 858.23 223.86 858.23 223.86 858.23 223.86 858.23 223.86 858.23 223.86 858.23 223.86 858.23 223.86 858.23 223.86 858.23 223.86 858.23 223.86 858.23 223.86 858.23 223.86 858.23 223.86 858.23 223.86 858.23 223.86 858.23 223.86 858.23 223.86 858.23 223.86 858.23 223.86 858.23 223.86 858.23 223.86 858.23 223.86 858.23 223.86 858.23 223.86 858.23 223.86 858.23 223.86 858.23 223.86 858.23 223.86 858.23 223.86 858.23 223.86 858.23 223.86 858.23 223.86 858.23 223.86"/>
  <g class="cls-22">
    <path d="M830.4,225.65c-.65,2.18-1.27,3.28-1.5,3.66-.93,1.62-1.43,1.67-2.25,1.67-.41,0-2.1-.07-3.51-1.03-1.08.05-1.91.88-1.91,1.15,0,.22,1.63,1.2,3.85,1.2,1.72,0,4.54-.91,6.33-4.8.62-1.34,1.03-2.7,1.1-2.99.48-1.65.98-3.56.98-3.66,0-.14-.05-.21-.26-.21s-.62.12-1.12.45c-.55.36-.57.48-.74,1.08-.24.81-1.65,4.35-4.61,4.35-2.32,0-3.68-1.89-3.68-4.59,0-1.84.74-4.3,2.13-5.97.65-.76,1.82-2.03,4.52-2.03.45,0,1.15.07,1.74.26.26.07.86.26.86,1.03,0,.81-1.24,2.34-1.34,2.48-.1.1-.17.19-.17.29,0,.17.12.17.26.17.69,0,1.48-.65,2.13-1.53.19-.26,1.15-1.6,1.15-2.41,0-.98-.74-1.22-1.03-1.32-.88-.29-1.7-.29-2.03-.29-5.4,0-10.25,4.73-10.25,10.35,0,2.41,1.07,4.88,4.16,4.88,1.79,0,3.63-.91,5.21-2.18"/>
    <path d="M841.45,231.69c-.08.34-.23.9-.23.99,0,.37.3.54.57.54.3,0,.57-.22.65-.37.08-.15.22-.69.3-1.04.08-.32.27-1.09.37-1.51.1-.37.2-.74.28-1.12.18-.72.18-.75.52-1.27.54-.82,1.37-1.77,2.68-1.77.94,0,.99.77.99,1.17,0,1-.72,2.86-.99,3.56-.18.47-.25.62-.25.9,0,.89.74,1.44,1.59,1.44,1.67,0,2.41-2.31,2.41-2.56,0-.22-.22-.22-.27-.22-.23,0-.25.1-.32.28-.39,1.34-1.1,2.02-1.77,2.02-.35,0-.42-.23-.42-.59,0-.38.08-.6.38-1.35.2-.52.89-2.29.89-3.23,0-.27,0-.97-.62-1.46-.28-.22-.77-.45-1.56-.45-1.51,0-2.43.99-2.96,1.69-.13-1.42-1.32-1.69-2.17-1.69-1.39,0-2.33.85-2.83,1.52-.12-1.15-1.1-1.52-1.79-1.52s-1.1.52-1.32.9c-.37.62-.6,1.57-.6,1.66,0,.22.23.22.29.22.23,0,.25-.05.37-.5.25-.99.57-1.81,1.22-1.81.44,0,.55.37.55.82,0,.32-.15.94-.27,1.39-.12.45-.28,1.14-.37,1.51l-.54,2.14c-.07.22-.17.64-.17.69,0,.37.3.54.57.54.3,0,.57-.22.65-.37.08-.15.22-.69.3-1.04.08-.32.27-1.09.37-1.51.1-.37.2-.74.28-1.12.18-.69.22-.82.7-1.51.47-.67,1.25-1.54,2.51-1.54.97,0,.99.85.99,1.17,0,.42-.05.64-.28,1.57l-.7,2.81"/>
    <path d="M857.17,230.96c-.12.47-.49.8-.85,1.12-.15.13-.82.67-1.54.67-.62,0-1.22-.43-1.22-1.62,0-.89.49-2.73.87-3.4.77-1.34,1.62-1.59,2.09-1.59,1.17,0,1.49,1.27,1.49,1.46,0,.07-.03.18-.05.23l-.79,3.13M858.24,226.66c-.35-.55-.92-.99-1.72-.99-2.14,0-4.32,2.36-4.32,4.77,0,1.62,1.09,2.78,2.53,2.78.9,0,1.71-.52,2.38-1.17.32,1,1.29,1.17,1.72,1.17.6,0,1.02-.37,1.32-.89.37-.65.59-1.61.59-1.67,0-.22-.22-.22-.27-.22-.23,0-.25.07-.37.52-.2.8-.52,1.79-1.22,1.79-.43,0-.55-.37-.55-.82,0-.28.13-.89.25-1.32.12-.45.28-1.14.37-1.51l.33-1.27c.1-.44.3-1.22.3-1.31,0-.37-.3-.53-.57-.53-.28,0-.67.2-.77.67Z"/>
    <path d="M868.8,226.76c-.44.1-.7.45-.7.79,0,.38.33.54.55.54.17,0,.8-.1.8-.95,0-1.09-1.2-1.46-2.23-1.46-2.61,0-3.08,1.92-3.08,2.44,0,.62.35,1.02.59,1.22.43.33.74.4,1.89.6.35.07,1.42.27,1.42,1.1,0,.28-.18.92-.89,1.34-.65.37-1.47.37-1.67.37-.67,0-1.62-.15-2.01-.7.55-.07.92-.48.92-.95,0-.42-.3-.62-.65-.62-.49,0-.97.39-.97,1.12,0,1,1.07,1.62,2.69,1.62,3.08,0,3.65-2.11,3.65-2.76,0-1.54-1.69-1.84-2.31-1.96-.15-.03-.57-.1-.67-.13-.62-.12-.92-.47-.92-.84s.3-.84.67-1.07c.45-.28,1.04-.32,1.32-.32.35,0,1.22.05,1.59.62"/>
    <path d="M874.7,226.44h1.71c.32,0,.53,0,.53-.37,0-.23-.22-.23-.5-.23h-1.59l.62-2.48c.02-.08.05-.17.05-.23,0-.3-.23-.54-.57-.54-.42,0-.67.28-.79.72-.12.42.1-.39-.64,2.53h-1.71c-.32,0-.54,0-.54.37,0,.23.2.23.5.23h1.59l-.99,3.95c-.1.42-.25,1.02-.25,1.24,0,.99.84,1.59,1.79,1.59,1.86,0,2.91-2.34,2.91-2.56s-.22-.22-.27-.22c-.2,0-.22.03-.35.32-.47,1.05-1.32,1.99-2.24,1.99-.35,0-.58-.22-.58-.82,0-.17.07-.52.1-.69l1.2-4.8"/>
    <path d="M880.61,228.77c.69-2.43,2.54-2.63,3.01-2.63.74,0,1.36.37,1.36,1,0,1.62-2.83,1.62-3.55,1.62h-.82M881.53,229.23c.47,0,1.79-.03,2.7-.35,1.24-.44,1.47-1.24,1.47-1.74,0-.92-.92-1.47-2.08-1.47-2.01,0-4.72,1.54-4.72,4.4,0,1.69,1.05,3.15,3.01,3.15,2.83,0,4.15-1.66,4.15-1.89,0-.1-.15-.28-.28-.28-.1,0-.13.03-.27.17-1.31,1.54-3.26,1.54-3.57,1.54-1,0-1.67-.67-1.67-2.02,0-.23,0-.57.2-1.49h1.05Z"/>
    <path d="M890.81,229.67c.02-.1.4-1.61.44-1.69.03-.13.52-.97,1.05-1.37.18-.13.64-.47,1.35-.47.17,0,.59.02.92.23-.53.15-.74.62-.74.92,0,.37.28.62.67.62s.94-.32.94-1.02c0-.87-.92-1.22-1.77-1.22s-1.62.35-2.36,1.19c-.3-1.02-1.32-1.19-1.72-1.19-.62,0-1.04.39-1.3.85-.39.65-.62,1.62-.62,1.71,0,.22.23.22.29.22.23,0,.25-.05.37-.5.25-1.02.57-1.81,1.22-1.81.44,0,.55.37.55.82,0,.32-.15.94-.27,1.39-.12.45-.28,1.14-.37,1.51l-.54,2.14c-.07.22-.17.64-.17.69,0,.37.3.54.57.54.25,0,.59-.15.72-.49.03-.1.22-.84.32-1.25l.45-1.81"/>
  </g>
</svg>